<?xml version="1.0" encoding="UTF-8" standalone="no"?><!DOCTYPE svg PUBLIC "-//W3C//DTD SVG 1.1//EN" "http://www.w3.org/Graphics/SVG/1.1/DTD/svg11.dtd"><svg width="100%" height="100%" viewBox="0 0 1280 800" version="1.1" xmlns="http://www.w3.org/2000/svg" xmlns:xlink="http://www.w3.org/1999/xlink" xml:space="preserve" style="fill-rule:evenodd;clip-rule:evenodd;stroke-linecap:round;stroke-linejoin:round;stroke-miterlimit:1.5;"><g id="sky"><rect x="-1.021" y="-5.113" width="1281.83" height="365.763" style="fill:url(#_Linear1);"/></g><g id="mountains"><path d="M-20.271,274.773c15.636,-6.515 72.949,-41.195 72.949,-41.195l23.021,-31.281l26.656,-21.809l8.482,-2.424l31.502,6.058l60.095,2.897l21.085,26.183l24.233,-4.847l24.233,-7.27l35.137,-33.926l17.067,-7.777l16.859,24.74l6.058,6.059l47.254,10.904l13.328,0l23.746,4.733l42.532,-4.536l12.479,-24.429l46.042,-4.847l27.091,6.866l72.264,-35.945l38.824,28.458l4.275,19.239l12.025,11.197l38.172,23.497l56.947,-16.963l24.471,17.45l20.36,5.571l6.058,8.482c0,0 31.297,16.348 37.561,35.137c-232.979,59.689 -547.864,59.977 -890.806,-0.222Z" style="fill:#244327;"/><clipPath id="_clip2"><path d="M-20.271,274.773c15.636,-6.515 72.949,-41.195 72.949,-41.195l23.021,-31.281l26.656,-21.809l8.482,-2.424l31.502,6.058l60.095,2.897l21.085,26.183l24.233,-4.847l24.233,-7.27l35.137,-33.926l17.067,-7.777l16.859,24.74l6.058,6.059l47.254,10.904l13.328,0l23.746,4.733l42.532,-4.536l12.479,-24.429l46.042,-4.847l27.091,6.866l72.264,-35.945l38.824,28.458l4.275,19.239l12.025,11.197l38.172,23.497l56.947,-16.963l24.471,17.45l20.36,5.571l6.058,8.482c0,0 31.297,16.348 37.561,35.137c-232.979,59.689 -547.864,59.977 -890.806,-0.222Z"/></clipPath><g clip-path="url(#_clip2)"><path d="M887.486,269.565l-44.449,8.135l-16.769,-17.41l-8.088,-17.906l-22.83,-11.157l-12.986,-19.17l-32.032,4.966l0.496,-18.57l59.363,3.092l77.295,68.02" style="fill:#466048;"/><path d="M726.423,225.491c-2.056,16.432 -3.435,33.003 -3.435,33.003c0,0 -35.2,-19.272 -47.863,-37.148l-1.814,-14.249l-10.104,-5.959l-8.031,-17.358l-7.772,-18.913l-17.1,-25.39l52.852,16.581l43.267,69.433Z" style="fill:#5b735e;fill-opacity:0.737255;"/><path d="M558.314,178.196l10.492,12.335l22.734,16.74l-2.914,14.538l9.326,11.894l-15.739,2.203l-11.075,-13.657l0.583,-10.572l-8.161,-13.216l-5.246,-20.265" style="fill:#5b735e;"/><path d="M324.521,155.391l0,31.718l5.185,22.264l11.284,10.979l17.384,9.76l6.71,15.554l5.49,14.334l28.058,2.135l0.915,-15.554l-21.349,-20.739l-12.199,-11.284l-5.49,-10.065l-11.589,-4.27l-0.915,-14.029l-23.484,-30.803" style="fill:#5b735e;fill-opacity:0.905882;"/><path d="M110.801,176.648l13.156,10.401l5.205,14.295l0.019,17.354l14.646,6.191l13.909,-0.482l-18.267,-18.64l67.464,-18.668l-96.132,-10.451Z" style="fill:#5b735e;"/></g><path d="M-20.271,274.773c15.636,-6.515 72.949,-41.195 72.949,-41.195l23.021,-31.281l26.656,-21.809l8.482,-2.424l31.502,6.058l60.095,2.897l21.085,26.183l24.233,-4.847l24.233,-7.27l35.137,-33.926l17.067,-7.777l16.859,24.74l6.058,6.059l47.254,10.904l13.328,0l23.746,4.733l42.532,-4.536l12.479,-24.429l46.042,-4.847l27.091,6.866l72.264,-35.945l38.824,28.458l4.275,19.239l12.025,11.197l38.172,23.497l56.947,-16.963l24.471,17.45l20.36,5.571l6.058,8.482c0,0 31.297,16.348 37.561,35.137c-232.979,59.689 -547.864,59.977 -890.806,-0.222Z" style="fill:none;stroke:#8a00ff;stroke-width:0.37px;"/></g><path id="fieldUp" d="M1278.84,278.89c0,0 -173.479,-54.557 -375.363,-14.916c-281.302,55.236 -549.318,-21.167 -665.931,-19.824c-167.635,1.93 -237.355,34.74 -237.355,34.74l0,521.728l1278.65,0l0,-521.728Z" style="fill:url(#_Linear3);"/><clipPath id="_clip4"><path d="M1278.84,278.89c0,0 -173.479,-54.557 -375.363,-14.916c-281.302,55.236 -549.318,-21.167 -665.931,-19.824c-167.635,1.93 -237.355,34.74 -237.355,34.74l0,521.728l1278.65,0l0,-521.728Z"/></clipPath><g clip-path="url(#_clip4)"><g id="Layer2"><path d="M262.915,232.564c47.848,8.573 562.533,124.846 551.701,156.538c-10.831,31.691 -180.579,-70.895 -590.951,-41.695c-50.23,3.575 -163.736,-34.906 -152.905,-66.598c10.832,-31.692 144.307,-56.818 192.155,-48.245Z" style="fill:url(#_Linear5);"/></g><g id="Layer21"><path d="M1060.27,238.024c39.841,9.858 468.229,144.2 458.993,181.523c-9.235,37.324 -150.107,-82.535 -492.46,-46.273c-41.905,4.439 -136.297,-40.287 -127.061,-77.611c9.236,-37.323 120.688,-67.498 160.528,-57.639Z" style="fill:url(#_Linear6);"/></g></g><path d="M1278.84,278.89c0,0 -173.479,-54.557 -375.363,-14.916c-281.302,55.236 -549.318,-21.167 -665.931,-19.824c-167.635,1.93 -237.355,34.74 -237.355,34.74l0,521.728l1278.65,0l0,-521.728Z" style="fill:none;stroke:#000;stroke-width:2.46px;"/><g id="fieldDown"><clipPath id="_clip7"><rect x="-0.572" y="543.784" width="1280.48" height="255.663"/></clipPath><g clip-path="url(#_clip7)"><path d="M-0.572,543.784c69.433,114.874 274.171,168.018 431.794,192.377c169.681,26.222 852.689,41.885 852.689,41.885l0.937,24.931l-1284.49,0" style="fill:url(#_Linear8);"/></g></g><g id="whiteFlowers"><path d="M351.8,528.806c0,-0.7 1.645,-1.268 3.672,-1.268c2.027,0 3.672,0.568 3.672,1.268c1.014,-0.606 3.262,-0.814 5.017,-0.464c1.755,0.349 2.357,1.125 1.344,1.731c1.755,-0.35 4.003,-0.142 5.016,0.464c1.014,0.606 0.411,1.381 -1.344,1.731c2.027,0 3.673,0.568 3.673,1.268c0,0.699 -1.646,1.267 -3.673,1.267c1.755,0.35 2.358,1.126 1.344,1.731c-1.013,0.606 -3.261,0.814 -5.016,0.464c1.013,0.606 0.411,1.382 -1.344,1.732c-1.755,0.349 -4.003,0.142 -5.017,-0.464c0,0.699 -1.645,1.267 -3.672,1.267c-2.027,0 -3.672,-0.568 -3.672,-1.267c-1.014,0.606 -3.261,0.813 -5.017,0.464c-1.755,-0.35 -2.357,-1.126 -1.344,-1.732c-1.755,0.35 -4.003,0.142 -5.016,-0.464c-1.014,-0.605 -0.411,-1.381 1.344,-1.731c-2.027,0 -3.672,-0.568 -3.672,-1.267c0,-0.7 1.645,-1.268 3.672,-1.268c-1.755,-0.35 -2.358,-1.125 -1.344,-1.731c1.013,-0.606 3.261,-0.814 5.016,-0.464c-1.013,-0.606 -0.411,-1.382 1.344,-1.731c1.756,-0.35 4.003,-0.142 5.017,0.464Z" style="fill:#fff;"/><clipPath id="_clip9"><path d="M351.8,528.806c0,-0.7 1.645,-1.268 3.672,-1.268c2.027,0 3.672,0.568 3.672,1.268c1.014,-0.606 3.262,-0.814 5.017,-0.464c1.755,0.349 2.357,1.125 1.344,1.731c1.755,-0.35 4.003,-0.142 5.016,0.464c1.014,0.606 0.411,1.381 -1.344,1.731c2.027,0 3.673,0.568 3.673,1.268c0,0.699 -1.646,1.267 -3.673,1.267c1.755,0.35 2.358,1.126 1.344,1.731c-1.013,0.606 -3.261,0.814 -5.016,0.464c1.013,0.606 0.411,1.382 -1.344,1.732c-1.755,0.349 -4.003,0.142 -5.017,-0.464c0,0.699 -1.645,1.267 -3.672,1.267c-2.027,0 -3.672,-0.568 -3.672,-1.267c-1.014,0.606 -3.261,0.813 -5.017,0.464c-1.755,-0.35 -2.357,-1.126 -1.344,-1.732c-1.755,0.35 -4.003,0.142 -5.016,-0.464c-1.014,-0.605 -0.411,-1.381 1.344,-1.731c-2.027,0 -3.672,-0.568 -3.672,-1.267c0,-0.7 1.645,-1.268 3.672,-1.268c-1.755,-0.35 -2.358,-1.125 -1.344,-1.731c1.013,-0.606 3.261,-0.814 5.016,-0.464c-1.013,-0.606 -0.411,-1.382 1.344,-1.731c1.756,-0.35 4.003,-0.142 5.017,0.464Z"/></clipPath><g clip-path="url(#_clip9)"><ellipse cx="355.315" cy="533.089" rx="5.245" ry="1.37" style="fill:#efdd15;"/></g><path d="M209.365,500.172c0,-0.571 1.097,-1.035 2.449,-1.035c1.351,0 2.448,0.464 2.448,1.035c0.676,-0.495 2.175,-0.664 3.345,-0.379c1.171,0.286 1.572,0.919 0.896,1.413c1.171,-0.285 2.67,-0.116 3.345,0.379c0.676,0.494 0.274,1.127 -0.896,1.413c1.351,0 2.449,0.463 2.449,1.034c0,0.571 -1.098,1.034 -2.449,1.034c1.17,0.286 1.572,0.919 0.896,1.413c-0.675,0.495 -2.174,0.664 -3.345,0.379c0.676,0.494 0.275,1.127 -0.896,1.413c-1.17,0.285 -2.669,0.115 -3.345,-0.379c0,0.571 -1.097,1.034 -2.448,1.034c-1.352,0 -2.449,-0.463 -2.449,-1.034c-0.676,0.494 -2.174,0.664 -3.345,0.379c-1.17,-0.286 -1.572,-0.919 -0.896,-1.413c-1.17,0.285 -2.669,0.116 -3.345,-0.379c-0.676,-0.494 -0.274,-1.127 0.896,-1.413c-1.351,0 -2.448,-0.463 -2.448,-1.034c0,-0.571 1.097,-1.034 2.448,-1.034c-1.17,-0.286 -1.572,-0.919 -0.896,-1.413c0.676,-0.495 2.175,-0.664 3.345,-0.379c-0.676,-0.494 -0.274,-1.127 0.896,-1.413c1.171,-0.285 2.669,-0.116 3.345,0.379Z" style="fill:#fff;"/><clipPath id="_clip10"><path d="M209.365,500.172c0,-0.571 1.097,-1.035 2.449,-1.035c1.351,0 2.448,0.464 2.448,1.035c0.676,-0.495 2.175,-0.664 3.345,-0.379c1.171,0.286 1.572,0.919 0.896,1.413c1.171,-0.285 2.67,-0.116 3.345,0.379c0.676,0.494 0.274,1.127 -0.896,1.413c1.351,0 2.449,0.463 2.449,1.034c0,0.571 -1.098,1.034 -2.449,1.034c1.17,0.286 1.572,0.919 0.896,1.413c-0.675,0.495 -2.174,0.664 -3.345,0.379c0.676,0.494 0.275,1.127 -0.896,1.413c-1.17,0.285 -2.669,0.115 -3.345,-0.379c0,0.571 -1.097,1.034 -2.448,1.034c-1.352,0 -2.449,-0.463 -2.449,-1.034c-0.676,0.494 -2.174,0.664 -3.345,0.379c-1.17,-0.286 -1.572,-0.919 -0.896,-1.413c-1.17,0.285 -2.669,0.116 -3.345,-0.379c-0.676,-0.494 -0.274,-1.127 0.896,-1.413c-1.351,0 -2.448,-0.463 -2.448,-1.034c0,-0.571 1.097,-1.034 2.448,-1.034c-1.17,-0.286 -1.572,-0.919 -0.896,-1.413c0.676,-0.495 2.175,-0.664 3.345,-0.379c-0.676,-0.494 -0.274,-1.127 0.896,-1.413c1.171,-0.285 2.669,-0.116 3.345,0.379Z"/></clipPath><g clip-path="url(#_clip10)"><ellipse cx="211.709" cy="503.668" rx="3.498" ry="1.118" style="fill:#efdd15;"/></g><path d="M256.779,545.119c0,-0.699 1.645,-1.267 3.672,-1.267c2.027,0 3.672,0.568 3.672,1.267c1.014,-0.605 3.262,-0.813 5.017,-0.464c1.755,0.35 2.357,1.126 1.344,1.732c1.755,-0.35 4.003,-0.142 5.016,0.464c1.014,0.606 0.411,1.381 -1.344,1.731c2.027,0 3.672,0.568 3.672,1.267c0,0.7 -1.645,1.268 -3.672,1.268c1.755,0.35 2.358,1.125 1.344,1.731c-1.013,0.606 -3.261,0.814 -5.016,0.464c1.013,0.606 0.411,1.382 -1.344,1.731c-1.755,0.35 -4.003,0.142 -5.017,-0.463c0,0.699 -1.645,1.267 -3.672,1.267c-2.027,0 -3.672,-0.568 -3.672,-1.267c-1.014,0.605 -3.261,0.813 -5.017,0.463c-1.755,-0.349 -2.357,-1.125 -1.344,-1.731c-1.755,0.35 -4.003,0.142 -5.016,-0.464c-1.014,-0.606 -0.411,-1.381 1.344,-1.731c-2.027,0 -3.672,-0.568 -3.672,-1.268c0,-0.699 1.645,-1.267 3.672,-1.267c-1.755,-0.35 -2.358,-1.125 -1.344,-1.731c1.013,-0.606 3.261,-0.814 5.016,-0.464c-1.013,-0.606 -0.411,-1.382 1.344,-1.732c1.756,-0.349 4.003,-0.141 5.017,0.464Z" style="fill:#fff;"/><clipPath id="_clip11"><path d="M256.779,545.119c0,-0.699 1.645,-1.267 3.672,-1.267c2.027,0 3.672,0.568 3.672,1.267c1.014,-0.605 3.262,-0.813 5.017,-0.464c1.755,0.35 2.357,1.126 1.344,1.732c1.755,-0.35 4.003,-0.142 5.016,0.464c1.014,0.606 0.411,1.381 -1.344,1.731c2.027,0 3.672,0.568 3.672,1.267c0,0.7 -1.645,1.268 -3.672,1.268c1.755,0.35 2.358,1.125 1.344,1.731c-1.013,0.606 -3.261,0.814 -5.016,0.464c1.013,0.606 0.411,1.382 -1.344,1.731c-1.755,0.35 -4.003,0.142 -5.017,-0.463c0,0.699 -1.645,1.267 -3.672,1.267c-2.027,0 -3.672,-0.568 -3.672,-1.267c-1.014,0.605 -3.261,0.813 -5.017,0.463c-1.755,-0.349 -2.357,-1.125 -1.344,-1.731c-1.755,0.35 -4.003,0.142 -5.016,-0.464c-1.014,-0.606 -0.411,-1.381 1.344,-1.731c-2.027,0 -3.672,-0.568 -3.672,-1.268c0,-0.699 1.645,-1.267 3.672,-1.267c-1.755,-0.35 -2.358,-1.125 -1.344,-1.731c1.013,-0.606 3.261,-0.814 5.016,-0.464c-1.013,-0.606 -0.411,-1.382 1.344,-1.732c1.756,-0.349 4.003,-0.141 5.017,0.464Z"/></clipPath><g clip-path="url(#_clip11)"><ellipse cx="260.294" cy="549.403" rx="5.245" ry="1.37" style="fill:#efdd15;"/></g><path d="M278.648,522.884c0,-0.433 1.144,-0.784 2.553,-0.784c1.409,0 2.553,0.351 2.553,0.784c0.705,-0.375 2.268,-0.503 3.488,-0.287c1.221,0.216 1.64,0.696 0.935,1.07c1.22,-0.216 2.783,-0.087 3.488,0.287c0.705,0.375 0.286,0.854 -0.935,1.07c1.41,0 2.554,0.352 2.554,0.784c0,0.432 -1.144,0.784 -2.554,0.784c1.221,0.216 1.64,0.695 0.935,1.07c-0.705,0.374 -2.268,0.503 -3.488,0.287c0.705,0.374 0.286,0.854 -0.935,1.07c-1.22,0.216 -2.783,0.088 -3.488,-0.287c0,0.433 -1.144,0.784 -2.553,0.784c-1.409,0 -2.553,-0.351 -2.553,-0.784c-0.705,0.375 -2.268,0.503 -3.488,0.287c-1.221,-0.216 -1.639,-0.696 -0.935,-1.07c-1.22,0.216 -2.783,0.087 -3.488,-0.287c-0.704,-0.375 -0.285,-0.854 0.935,-1.07c-1.409,0 -2.553,-0.352 -2.553,-0.784c0,-0.432 1.144,-0.784 2.553,-0.784c-1.22,-0.216 -1.639,-0.695 -0.935,-1.07c0.705,-0.374 2.268,-0.503 3.488,-0.287c-0.704,-0.374 -0.286,-0.854 0.935,-1.07c1.22,-0.216 2.783,-0.088 3.488,0.287Z" style="fill:#fff;"/><clipPath id="_clip12"><path d="M278.648,522.884c0,-0.433 1.144,-0.784 2.553,-0.784c1.409,0 2.553,0.351 2.553,0.784c0.705,-0.375 2.268,-0.503 3.488,-0.287c1.221,0.216 1.64,0.696 0.935,1.07c1.22,-0.216 2.783,-0.087 3.488,0.287c0.705,0.375 0.286,0.854 -0.935,1.07c1.41,0 2.554,0.352 2.554,0.784c0,0.432 -1.144,0.784 -2.554,0.784c1.221,0.216 1.64,0.695 0.935,1.07c-0.705,0.374 -2.268,0.503 -3.488,0.287c0.705,0.374 0.286,0.854 -0.935,1.07c-1.22,0.216 -2.783,0.088 -3.488,-0.287c0,0.433 -1.144,0.784 -2.553,0.784c-1.409,0 -2.553,-0.351 -2.553,-0.784c-0.705,0.375 -2.268,0.503 -3.488,0.287c-1.221,-0.216 -1.639,-0.696 -0.935,-1.07c-1.22,0.216 -2.783,0.087 -3.488,-0.287c-0.704,-0.375 -0.285,-0.854 0.935,-1.07c-1.409,0 -2.553,-0.352 -2.553,-0.784c0,-0.432 1.144,-0.784 2.553,-0.784c-1.22,-0.216 -1.639,-0.695 -0.935,-1.07c0.705,-0.374 2.268,-0.503 3.488,-0.287c-0.704,-0.374 -0.286,-0.854 0.935,-1.07c1.22,-0.216 2.783,-0.088 3.488,0.287Z"/></clipPath><g clip-path="url(#_clip12)"><ellipse cx="281.092" cy="525.532" rx="3.647" ry="0.847" style="fill:#efdd15;"/></g><path d="M230.851,464.497c0,-0.432 1.144,-0.783 2.553,-0.783c1.41,0 2.554,0.351 2.554,0.783c0.704,-0.374 2.267,-0.503 3.488,-0.287c1.22,0.217 1.639,0.696 0.934,1.071c1.221,-0.216 2.784,-0.088 3.488,0.287c0.705,0.374 0.286,0.854 -0.934,1.07c1.409,0 2.553,0.351 2.553,0.784c0,0.432 -1.144,0.783 -2.553,0.783c1.22,0.216 1.639,0.696 0.934,1.07c-0.704,0.375 -2.267,0.504 -3.488,0.287c0.705,0.375 0.286,0.854 -0.934,1.071c-1.221,0.216 -2.784,0.087 -3.488,-0.287c0,0.432 -1.144,0.783 -2.554,0.783c-1.409,0 -2.553,-0.351 -2.553,-0.783c-0.705,0.374 -2.267,0.503 -3.488,0.287c-1.22,-0.217 -1.639,-0.696 -0.934,-1.071c-1.221,0.217 -2.784,0.088 -3.488,-0.287c-0.705,-0.374 -0.286,-0.854 0.934,-1.07c-1.409,0 -2.553,-0.351 -2.553,-0.783c0,-0.433 1.144,-0.784 2.553,-0.784c-1.22,-0.216 -1.639,-0.696 -0.934,-1.07c0.704,-0.375 2.267,-0.503 3.488,-0.287c-0.705,-0.375 -0.286,-0.854 0.934,-1.071c1.221,-0.216 2.783,-0.087 3.488,0.287Z" style="fill:#fff;"/><clipPath id="_clip13"><path d="M230.851,464.497c0,-0.432 1.144,-0.783 2.553,-0.783c1.41,0 2.554,0.351 2.554,0.783c0.704,-0.374 2.267,-0.503 3.488,-0.287c1.22,0.217 1.639,0.696 0.934,1.071c1.221,-0.216 2.784,-0.088 3.488,0.287c0.705,0.374 0.286,0.854 -0.934,1.07c1.409,0 2.553,0.351 2.553,0.784c0,0.432 -1.144,0.783 -2.553,0.783c1.22,0.216 1.639,0.696 0.934,1.07c-0.704,0.375 -2.267,0.504 -3.488,0.287c0.705,0.375 0.286,0.854 -0.934,1.071c-1.221,0.216 -2.784,0.087 -3.488,-0.287c0,0.432 -1.144,0.783 -2.554,0.783c-1.409,0 -2.553,-0.351 -2.553,-0.783c-0.705,0.374 -2.267,0.503 -3.488,0.287c-1.22,-0.217 -1.639,-0.696 -0.934,-1.071c-1.221,0.217 -2.784,0.088 -3.488,-0.287c-0.705,-0.374 -0.286,-0.854 0.934,-1.07c-1.409,0 -2.553,-0.351 -2.553,-0.783c0,-0.433 1.144,-0.784 2.553,-0.784c-1.22,-0.216 -1.639,-0.696 -0.934,-1.07c0.704,-0.375 2.267,-0.503 3.488,-0.287c-0.705,-0.375 -0.286,-0.854 0.934,-1.071c1.221,-0.216 2.783,-0.087 3.488,0.287Z"/></clipPath><g clip-path="url(#_clip13)"><ellipse cx="233.295" cy="467.146" rx="3.647" ry="0.847" style="fill:#efdd15;"/></g><path d="M277.367,475.749c0,-0.501 1.208,-0.909 2.695,-0.909c1.487,0 2.694,0.408 2.694,0.909c0.744,-0.434 2.393,-0.583 3.681,-0.332c1.288,0.25 1.73,0.807 0.986,1.241c1.288,-0.251 2.937,-0.102 3.681,0.333c0.743,0.434 0.301,0.991 -0.987,1.242c1.488,0 2.695,0.407 2.695,0.909c0,0.501 -1.207,0.908 -2.695,0.908c1.288,0.251 1.73,0.808 0.987,1.242c-0.744,0.435 -2.393,0.584 -3.681,0.333c0.744,0.434 0.302,0.991 -0.986,1.242c-1.288,0.25 -2.937,0.101 -3.681,-0.333c0,0.501 -1.207,0.909 -2.694,0.909c-1.487,0 -2.695,-0.408 -2.695,-0.909c-0.743,0.434 -2.392,0.583 -3.68,0.333c-1.288,-0.251 -1.73,-0.808 -0.987,-1.242c-1.287,0.251 -2.937,0.102 -3.68,-0.333c-0.744,-0.434 -0.302,-0.991 0.986,-1.242c-1.487,0 -2.694,-0.407 -2.694,-0.908c0,-0.502 1.207,-0.909 2.694,-0.909c-1.288,-0.251 -1.73,-0.808 -0.986,-1.242c0.743,-0.435 2.393,-0.584 3.68,-0.333c-0.743,-0.434 -0.301,-0.991 0.987,-1.241c1.288,-0.251 2.937,-0.102 3.68,0.332Z" style="fill:#fff;"/><clipPath id="_clip14"><path d="M277.367,475.749c0,-0.501 1.208,-0.909 2.695,-0.909c1.487,0 2.694,0.408 2.694,0.909c0.744,-0.434 2.393,-0.583 3.681,-0.332c1.288,0.25 1.73,0.807 0.986,1.241c1.288,-0.251 2.937,-0.102 3.681,0.333c0.743,0.434 0.301,0.991 -0.987,1.242c1.488,0 2.695,0.407 2.695,0.909c0,0.501 -1.207,0.908 -2.695,0.908c1.288,0.251 1.73,0.808 0.987,1.242c-0.744,0.435 -2.393,0.584 -3.681,0.333c0.744,0.434 0.302,0.991 -0.986,1.242c-1.288,0.25 -2.937,0.101 -3.681,-0.333c0,0.501 -1.207,0.909 -2.694,0.909c-1.487,0 -2.695,-0.408 -2.695,-0.909c-0.743,0.434 -2.392,0.583 -3.68,0.333c-1.288,-0.251 -1.73,-0.808 -0.987,-1.242c-1.287,0.251 -2.937,0.102 -3.68,-0.333c-0.744,-0.434 -0.302,-0.991 0.986,-1.242c-1.487,0 -2.694,-0.407 -2.694,-0.908c0,-0.502 1.207,-0.909 2.694,-0.909c-1.288,-0.251 -1.73,-0.808 -0.986,-1.242c0.743,-0.435 2.393,-0.584 3.68,-0.333c-0.743,-0.434 -0.301,-0.991 0.987,-1.241c1.288,-0.251 2.937,-0.102 3.68,0.332Z"/></clipPath><g clip-path="url(#_clip14)"><ellipse cx="279.946" cy="478.822" rx="3.849" ry="0.983" style="fill:#efdd15;"/></g><path d="M358.893,471.825c0,-0.51 1.458,-0.925 3.253,-0.925c1.795,0 3.253,0.415 3.253,0.925c0.898,-0.442 2.889,-0.594 4.444,-0.339c1.554,0.256 2.088,0.821 1.19,1.263c1.555,-0.255 3.546,-0.103 4.444,0.339c0.898,0.441 0.364,1.007 -1.191,1.262c1.796,0 3.253,0.414 3.253,0.925c0,0.51 -1.457,0.924 -3.253,0.924c1.555,0.255 2.089,0.821 1.191,1.263c-0.898,0.441 -2.889,0.593 -4.444,0.338c0.898,0.442 0.364,1.008 -1.19,1.263c-1.555,0.255 -3.546,0.103 -4.444,-0.339c0,0.511 -1.458,0.925 -3.253,0.925c-1.795,0 -3.253,-0.414 -3.253,-0.925c-0.898,0.442 -2.889,0.594 -4.444,0.339c-1.554,-0.255 -2.088,-0.821 -1.19,-1.263c-1.555,0.255 -3.546,0.103 -4.444,-0.338c-0.898,-0.442 -0.364,-1.008 1.191,-1.263c-1.796,0 -3.253,-0.414 -3.253,-0.924c0,-0.511 1.457,-0.925 3.253,-0.925c-1.555,-0.255 -2.089,-0.821 -1.191,-1.262c0.898,-0.442 2.889,-0.594 4.444,-0.339c-0.898,-0.442 -0.364,-1.007 1.19,-1.263c1.555,-0.255 3.546,-0.103 4.444,0.339Z" style="fill:#fff;"/><clipPath id="_clip15"><path d="M358.893,471.825c0,-0.51 1.458,-0.925 3.253,-0.925c1.795,0 3.253,0.415 3.253,0.925c0.898,-0.442 2.889,-0.594 4.444,-0.339c1.554,0.256 2.088,0.821 1.19,1.263c1.555,-0.255 3.546,-0.103 4.444,0.339c0.898,0.441 0.364,1.007 -1.191,1.262c1.796,0 3.253,0.414 3.253,0.925c0,0.51 -1.457,0.924 -3.253,0.924c1.555,0.255 2.089,0.821 1.191,1.263c-0.898,0.441 -2.889,0.593 -4.444,0.338c0.898,0.442 0.364,1.008 -1.19,1.263c-1.555,0.255 -3.546,0.103 -4.444,-0.339c0,0.511 -1.458,0.925 -3.253,0.925c-1.795,0 -3.253,-0.414 -3.253,-0.925c-0.898,0.442 -2.889,0.594 -4.444,0.339c-1.554,-0.255 -2.088,-0.821 -1.19,-1.263c-1.555,0.255 -3.546,0.103 -4.444,-0.338c-0.898,-0.442 -0.364,-1.008 1.191,-1.263c-1.796,0 -3.253,-0.414 -3.253,-0.924c0,-0.511 1.457,-0.925 3.253,-0.925c-1.555,-0.255 -2.089,-0.821 -1.191,-1.262c0.898,-0.442 2.889,-0.594 4.444,-0.339c-0.898,-0.442 -0.364,-1.007 1.19,-1.263c1.555,-0.255 3.546,-0.103 4.444,0.339Z"/></clipPath><g clip-path="url(#_clip15)"><ellipse cx="362.007" cy="474.949" rx="4.647" ry="0.999" style="fill:#efdd15;"/></g><path d="M410.876,503.952c0,-0.721 1.765,-1.306 3.939,-1.306c2.174,0 3.94,0.585 3.94,1.306c1.087,-0.624 3.498,-0.838 5.38,-0.478c1.883,0.36 2.529,1.159 1.442,1.783c1.883,-0.36 4.294,-0.146 5.381,0.478c1.087,0.624 0.441,1.423 -1.442,1.784c2.174,0 3.939,0.585 3.939,1.305c0,0.721 -1.765,1.306 -3.939,1.306c1.883,0.36 2.529,1.159 1.442,1.783c-1.087,0.624 -3.498,0.838 -5.381,0.478c1.087,0.624 0.441,1.423 -1.442,1.783c-1.882,0.361 -4.293,0.147 -5.38,-0.477c0,0.72 -1.766,1.305 -3.94,1.305c-2.174,0 -3.939,-0.585 -3.939,-1.305c-1.087,0.624 -3.498,0.838 -5.381,0.477c-1.882,-0.36 -2.528,-1.159 -1.441,-1.783c-1.883,0.36 -4.294,0.146 -5.381,-0.478c-1.087,-0.624 -0.441,-1.423 1.441,-1.783c-2.174,0 -3.939,-0.585 -3.939,-1.306c0,-0.72 1.765,-1.305 3.939,-1.305c-1.882,-0.361 -2.528,-1.16 -1.441,-1.784c1.087,-0.624 3.498,-0.838 5.381,-0.478c-1.087,-0.624 -0.441,-1.423 1.441,-1.783c1.883,-0.36 4.294,-0.146 5.381,0.478Z" style="fill:#fff;"/><clipPath id="_clip16"><path d="M410.876,503.952c0,-0.721 1.765,-1.306 3.939,-1.306c2.174,0 3.94,0.585 3.94,1.306c1.087,-0.624 3.498,-0.838 5.38,-0.478c1.883,0.36 2.529,1.159 1.442,1.783c1.883,-0.36 4.294,-0.146 5.381,0.478c1.087,0.624 0.441,1.423 -1.442,1.784c2.174,0 3.939,0.585 3.939,1.305c0,0.721 -1.765,1.306 -3.939,1.306c1.883,0.36 2.529,1.159 1.442,1.783c-1.087,0.624 -3.498,0.838 -5.381,0.478c1.087,0.624 0.441,1.423 -1.442,1.783c-1.882,0.361 -4.293,0.147 -5.38,-0.477c0,0.72 -1.766,1.305 -3.94,1.305c-2.174,0 -3.939,-0.585 -3.939,-1.305c-1.087,0.624 -3.498,0.838 -5.381,0.477c-1.882,-0.36 -2.528,-1.159 -1.441,-1.783c-1.883,0.36 -4.294,0.146 -5.381,-0.478c-1.087,-0.624 -0.441,-1.423 1.441,-1.783c-2.174,0 -3.939,-0.585 -3.939,-1.306c0,-0.72 1.765,-1.305 3.939,-1.305c-1.882,-0.361 -2.528,-1.16 -1.441,-1.784c1.087,-0.624 3.498,-0.838 5.381,-0.478c-1.087,-0.624 -0.441,-1.423 1.441,-1.783c1.883,-0.36 4.294,-0.146 5.381,0.478Z"/></clipPath><g clip-path="url(#_clip16)"><ellipse cx="414.647" cy="508.365" rx="5.627" ry="1.412" style="fill:#efdd15;"/></g><path d="M315.054,503.21c0,-0.51 1.219,-0.924 2.72,-0.924c1.501,0 2.719,0.414 2.719,0.924c0.751,-0.442 2.415,-0.593 3.715,-0.338c1.3,0.255 1.746,0.821 0.995,1.262c1.3,-0.255 2.964,-0.103 3.715,0.339c0.75,0.442 0.304,1.007 -0.995,1.262c1.5,0 2.719,0.415 2.719,0.925c0,0.51 -1.219,0.924 -2.719,0.924c1.299,0.255 1.745,0.821 0.995,1.263c-0.751,0.442 -2.415,0.593 -3.715,0.338c0.751,0.442 0.305,1.008 -0.995,1.263c-1.3,0.255 -2.964,0.103 -3.715,-0.338c0,0.51 -1.218,0.924 -2.719,0.924c-1.501,0 -2.72,-0.414 -2.72,-0.924c-0.75,0.441 -2.414,0.593 -3.714,0.338c-1.3,-0.255 -1.746,-0.821 -0.996,-1.263c-1.299,0.255 -2.964,0.104 -3.714,-0.338c-0.751,-0.442 -0.305,-1.008 0.995,-1.263c-1.501,0 -2.719,-0.414 -2.719,-0.924c0,-0.51 1.218,-0.925 2.719,-0.925c-1.3,-0.255 -1.746,-0.82 -0.995,-1.262c0.75,-0.442 2.415,-0.594 3.714,-0.339c-0.75,-0.441 -0.304,-1.007 0.996,-1.262c1.3,-0.255 2.964,-0.104 3.714,0.338Z" style="fill:#fff;"/><clipPath id="_clip17"><path d="M315.054,503.21c0,-0.51 1.219,-0.924 2.72,-0.924c1.501,0 2.719,0.414 2.719,0.924c0.751,-0.442 2.415,-0.593 3.715,-0.338c1.3,0.255 1.746,0.821 0.995,1.262c1.3,-0.255 2.964,-0.103 3.715,0.339c0.75,0.442 0.304,1.007 -0.995,1.262c1.5,0 2.719,0.415 2.719,0.925c0,0.51 -1.219,0.924 -2.719,0.924c1.299,0.255 1.745,0.821 0.995,1.263c-0.751,0.442 -2.415,0.593 -3.715,0.338c0.751,0.442 0.305,1.008 -0.995,1.263c-1.3,0.255 -2.964,0.103 -3.715,-0.338c0,0.51 -1.218,0.924 -2.719,0.924c-1.501,0 -2.72,-0.414 -2.72,-0.924c-0.75,0.441 -2.414,0.593 -3.714,0.338c-1.3,-0.255 -1.746,-0.821 -0.996,-1.263c-1.299,0.255 -2.964,0.104 -3.714,-0.338c-0.751,-0.442 -0.305,-1.008 0.995,-1.263c-1.501,0 -2.719,-0.414 -2.719,-0.924c0,-0.51 1.218,-0.925 2.719,-0.925c-1.3,-0.255 -1.746,-0.82 -0.995,-1.262c0.75,-0.442 2.415,-0.594 3.714,-0.339c-0.75,-0.441 -0.304,-1.007 0.996,-1.262c1.3,-0.255 2.964,-0.104 3.714,0.338Z"/></clipPath><g clip-path="url(#_clip17)"><ellipse cx="317.657" cy="506.334" rx="3.884" ry="0.999" style="fill:#efdd15;"/></g></g><g id="yellowFlawers"><ellipse cx="1036.36" cy="265.783" rx="32.753" ry="6.239" style="fill:#a6a6a6;fill-opacity:0.266667;"/><g><g><path d="M1036.83,237.212c7.098,4.579 8.013,21.979 8.013,21.979" style="fill:none;stroke:#379a00;stroke-width:1.54px;"/><path d="M1033.23,225.869c1.997,-0.302 7.646,0.865 8.473,1.75c0.828,0.885 -3.506,3.558 -3.506,3.558c0,0 5.896,-0.871 6.63,0.047c0.733,0.917 -0.751,4.556 -2.227,5.458c-1.477,0.902 -6.63,-0.046 -6.63,-0.046c0,0 2.134,2.718 0.591,3.586c-1.543,0.869 -8.109,1.95 -9.849,1.623c-1.74,-0.327 -0.591,-3.587 -0.591,-3.587c0,0 -4.577,2.552 -6.264,2.171c-1.688,-0.381 -4.261,-3.351 -3.861,-4.455c0.401,-1.105 6.264,-2.171 6.264,-2.171c-0.009,0.024 -4.438,-0.594 -4.741,-2.174c-0.44,-2.299 5.082,-4.59 7.587,-4.806c1.997,-0.173 4.618,2.604 4.618,2.604c0,0 1.51,-3.257 3.506,-3.558Z" style="fill:#ffea00;"/><clipPath id="_clip18"><path d="M1033.23,225.869c1.997,-0.302 7.646,0.865 8.473,1.75c0.828,0.885 -3.506,3.558 -3.506,3.558c0,0 5.896,-0.871 6.63,0.047c0.733,0.917 -0.751,4.556 -2.227,5.458c-1.477,0.902 -6.63,-0.046 -6.63,-0.046c0,0 2.134,2.718 0.591,3.586c-1.543,0.869 -8.109,1.95 -9.849,1.623c-1.74,-0.327 -0.591,-3.587 -0.591,-3.587c0,0 -4.577,2.552 -6.264,2.171c-1.688,-0.381 -4.261,-3.351 -3.861,-4.455c0.401,-1.105 6.264,-2.171 6.264,-2.171c-0.009,0.024 -4.438,-0.594 -4.741,-2.174c-0.44,-2.299 5.082,-4.59 7.587,-4.806c1.997,-0.173 4.618,2.604 4.618,2.604c0,0 1.51,-3.257 3.506,-3.558Z"/></clipPath><g clip-path="url(#_clip18)"><path d="M1030.09,231.509c2.512,-0.414 4.716,0.251 4.919,1.484c0.203,1.232 -1.671,2.569 -4.183,2.983c-2.513,0.414 -4.717,-0.251 -4.92,-1.484c-0.203,-1.232 1.671,-2.569 4.184,-2.983Z" style="fill:#fff;"/></g></g><g><path d="M1009.59,247.066c7.097,4.579 8.013,21.979 8.013,21.979" style="fill:none;stroke:#379a00;stroke-width:1.54px;"/><path d="M1005.99,235.722c1.996,-0.301 7.645,0.866 8.473,1.751c0.828,0.885 -3.506,3.558 -3.506,3.558c0,0 5.895,-0.871 6.629,0.046c0.734,0.918 -0.751,4.557 -2.227,5.459c-1.476,0.902 -6.629,-0.047 -6.629,-0.047c0,0 2.134,2.719 0.591,3.587c-1.543,0.868 -8.11,1.95 -9.85,1.623c-1.74,-0.328 -0.591,-3.587 -0.591,-3.587c0,0 -4.576,2.551 -6.264,2.17c-1.687,-0.38 -4.261,-3.351 -3.86,-4.455c0.401,-1.104 6.264,-2.17 6.264,-2.17c-0.009,0.024 -4.439,-0.595 -4.741,-2.174c-0.44,-2.299 5.082,-4.59 7.586,-4.807c1.997,-0.172 4.619,2.604 4.619,2.604c0,0 1.509,-3.256 3.506,-3.558Z" style="fill:#ffea00;"/><clipPath id="_clip19"><path d="M1005.99,235.722c1.996,-0.301 7.645,0.866 8.473,1.751c0.828,0.885 -3.506,3.558 -3.506,3.558c0,0 5.895,-0.871 6.629,0.046c0.734,0.918 -0.751,4.557 -2.227,5.459c-1.476,0.902 -6.629,-0.047 -6.629,-0.047c0,0 2.134,2.719 0.591,3.587c-1.543,0.868 -8.11,1.95 -9.85,1.623c-1.74,-0.328 -0.591,-3.587 -0.591,-3.587c0,0 -4.576,2.551 -6.264,2.17c-1.687,-0.38 -4.261,-3.351 -3.86,-4.455c0.401,-1.104 6.264,-2.17 6.264,-2.17c-0.009,0.024 -4.439,-0.595 -4.741,-2.174c-0.44,-2.299 5.082,-4.59 7.586,-4.807c1.997,-0.172 4.619,2.604 4.619,2.604c0,0 1.509,-3.256 3.506,-3.558Z"/></clipPath><g clip-path="url(#_clip19)"><path d="M1002.85,241.362c2.512,-0.413 4.716,0.251 4.92,1.484c0.203,1.233 -1.672,2.57 -4.184,2.984c-2.512,0.414 -4.716,-0.251 -4.919,-1.484c-0.203,-1.233 1.671,-2.57 4.183,-2.984Z" style="fill:#fff;"/></g></g><g><path d="M1060.27,236.632c-4.702,4.579 -5.308,21.979 -5.308,21.979" style="fill:none;stroke:#379a00;stroke-width:1.54px;"/><path d="M1062.65,225.289c-1.322,-0.301 -5.064,0.866 -5.613,1.751c-0.548,0.884 2.323,3.558 2.323,3.558c0,0 -3.905,-0.871 -4.391,0.046c-0.487,0.917 0.497,4.556 1.475,5.458c0.978,0.902 4.391,-0.046 4.391,-0.046c0,0 -1.413,2.719 -0.391,3.587c1.022,0.868 5.372,1.95 6.525,1.622c1.152,-0.327 0.391,-3.586 0.391,-3.586c0,0 3.032,2.551 4.15,2.17c1.117,-0.381 2.822,-3.351 2.557,-4.455c-0.266,-1.104 -4.15,-2.171 -4.15,-2.171c0.006,0.025 2.941,-0.594 3.141,-2.173c0.292,-2.3 -3.366,-4.591 -5.026,-4.807c-1.323,-0.172 -3.059,2.604 -3.059,2.604c0,0 -1,-3.257 -2.323,-3.558Z" style="fill:#ffea00;"/><clipPath id="_clip20"><path d="M1062.65,225.289c-1.322,-0.301 -5.064,0.866 -5.613,1.751c-0.548,0.884 2.323,3.558 2.323,3.558c0,0 -3.905,-0.871 -4.391,0.046c-0.487,0.917 0.497,4.556 1.475,5.458c0.978,0.902 4.391,-0.046 4.391,-0.046c0,0 -1.413,2.719 -0.391,3.587c1.022,0.868 5.372,1.95 6.525,1.622c1.152,-0.327 0.391,-3.586 0.391,-3.586c0,0 3.032,2.551 4.15,2.17c1.117,-0.381 2.822,-3.351 2.557,-4.455c-0.266,-1.104 -4.15,-2.171 -4.15,-2.171c0.006,0.025 2.941,-0.594 3.141,-2.173c0.292,-2.3 -3.366,-4.591 -5.026,-4.807c-1.323,-0.172 -3.059,2.604 -3.059,2.604c0,0 -1,-3.257 -2.323,-3.558Z"/></clipPath><g clip-path="url(#_clip20)"><path d="M1064.73,230.929c-1.664,-0.414 -3.124,0.251 -3.259,1.484c-0.134,1.233 1.108,2.57 2.772,2.984c1.664,0.413 3.124,-0.251 3.259,-1.484c0.134,-1.233 -1.108,-2.57 -2.772,-2.984Z" style="fill:#fff;"/></g></g><g><path d="M1047.57,248.787c-2.917,3.517 -3.293,16.884 -3.293,16.884" style="fill:none;stroke:#379a00;stroke-width:1.54px;"/><path d="M1049.05,240.073c-0.821,-0.232 -3.143,0.665 -3.483,1.345c-0.341,0.679 1.441,2.733 1.441,2.733c0,0 -2.423,-0.669 -2.725,0.036c-0.302,0.704 0.309,3.5 0.915,4.193c0.607,0.692 2.725,-0.036 2.725,-0.036c0,0 -0.877,2.088 -0.243,2.755c0.635,0.667 3.334,1.498 4.049,1.247c0.715,-0.252 0.243,-2.755 0.243,-2.755c0,0 1.881,1.96 2.575,1.667c0.693,-0.293 1.751,-2.574 1.587,-3.423c-0.165,-0.848 -2.575,-1.667 -2.575,-1.667c0.004,0.019 1.824,-0.456 1.949,-1.67c0.181,-1.766 -2.089,-3.526 -3.119,-3.692c-0.821,-0.133 -1.898,2 -1.898,2c0,0 -0.621,-2.502 -1.441,-2.733Z" style="fill:#ffea00;"/><clipPath id="_clip21"><path d="M1049.05,240.073c-0.821,-0.232 -3.143,0.665 -3.483,1.345c-0.341,0.679 1.441,2.733 1.441,2.733c0,0 -2.423,-0.669 -2.725,0.036c-0.302,0.704 0.309,3.5 0.915,4.193c0.607,0.692 2.725,-0.036 2.725,-0.036c0,0 -0.877,2.088 -0.243,2.755c0.635,0.667 3.334,1.498 4.049,1.247c0.715,-0.252 0.243,-2.755 0.243,-2.755c0,0 1.881,1.96 2.575,1.667c0.693,-0.293 1.751,-2.574 1.587,-3.423c-0.165,-0.848 -2.575,-1.667 -2.575,-1.667c0.004,0.019 1.824,-0.456 1.949,-1.67c0.181,-1.766 -2.089,-3.526 -3.119,-3.692c-0.821,-0.133 -1.898,2 -1.898,2c0,0 -0.621,-2.502 -1.441,-2.733Z"/></clipPath><g clip-path="url(#_clip21)"><path d="M1050.34,244.406c-1.033,-0.318 -1.939,0.192 -2.022,1.139c-0.084,0.947 0.687,1.974 1.719,2.292c1.033,0.318 1.939,-0.192 2.023,-1.139c0.083,-0.947 -0.687,-1.974 -1.72,-2.292Z" style="fill:#fff;"/></g></g><g><path d="M1030.26,252.2c6.306,2.164 9.889,14.915 9.889,14.915" style="fill:none;stroke:#379a00;stroke-width:1.54px;"/><path d="M1025.58,244.409c1.512,-0.57 6.124,-0.685 6.917,-0.173c0.793,0.513 -2.157,3.249 -2.157,3.249c0,0 4.469,-1.67 5.194,-1.117c0.725,0.553 0.163,3.511 -0.843,4.437c-1.006,0.925 -5.194,1.117 -5.194,1.117c0,0 2.118,1.646 1.054,2.558c-1.065,0.913 -6.023,2.856 -7.438,2.915c-1.416,0.06 -1.054,-2.558 -1.054,-2.558c0,0 -3.159,2.688 -4.542,2.698c-1.383,0.011 -3.886,-1.746 -3.754,-2.635c0.131,-0.889 4.543,-2.698 4.543,-2.698c-0.004,0.019 -3.571,0.33 -4.067,-0.79c-0.724,-1.629 3.219,-4.288 5.143,-4.884c1.533,-0.475 4.041,1.13 4.041,1.13c0,0 0.645,-2.678 2.157,-3.249Z" style="fill:#ffea00;"/><clipPath id="_clip22"><path d="M1025.58,244.409c1.512,-0.57 6.124,-0.685 6.917,-0.173c0.793,0.513 -2.157,3.249 -2.157,3.249c0,0 4.469,-1.67 5.194,-1.117c0.725,0.553 0.163,3.511 -0.843,4.437c-1.006,0.925 -5.194,1.117 -5.194,1.117c0,0 2.118,1.646 1.054,2.558c-1.065,0.913 -6.023,2.856 -7.438,2.915c-1.416,0.06 -1.054,-2.558 -1.054,-2.558c0,0 -3.159,2.688 -4.542,2.698c-1.383,0.011 -3.886,-1.746 -3.754,-2.635c0.131,-0.889 4.543,-2.698 4.543,-2.698c-0.004,0.019 -3.571,0.33 -4.067,-0.79c-0.724,-1.629 3.219,-4.288 5.143,-4.884c1.533,-0.475 4.041,1.13 4.041,1.13c0,0 0.645,-2.678 2.157,-3.249Z"/></clipPath><g clip-path="url(#_clip22)"><path d="M1024.05,249.139c1.897,-0.744 3.731,-0.633 4.093,0.246c0.362,0.88 -0.884,2.197 -2.781,2.94c-1.897,0.744 -3.731,0.633 -4.093,-0.246c-0.362,-0.879 0.884,-2.197 2.781,-2.94Z" style="fill:#fff;"/></g></g></g><ellipse cx="213.039" cy="258.578" rx="25.661" ry="6.239" style="fill:#a6a6a6;fill-opacity:0.266667;"/><g><g><path d="M212.671,230.008c-5.561,4.579 -6.278,21.979 -6.278,21.979" style="fill:none;stroke:#379a00;stroke-width:1.54px;"/><path d="M215.492,218.664c-1.564,-0.301 -5.99,0.866 -6.639,1.751c-0.648,0.885 2.747,3.558 2.747,3.558c0,0 -4.619,-0.871 -5.193,0.046c-0.575,0.918 0.588,4.557 1.744,5.459c1.157,0.902 5.194,-0.047 5.194,-0.047c0,0 -1.672,2.719 -0.463,3.587c1.209,0.868 6.354,1.95 7.717,1.623c1.363,-0.328 0.463,-3.587 0.463,-3.587c0,0 3.585,2.551 4.907,2.17c1.322,-0.38 3.339,-3.351 3.025,-4.455c-0.314,-1.104 -4.908,-2.17 -4.908,-2.17c0.008,0.024 3.478,-0.595 3.715,-2.174c0.345,-2.299 -3.982,-4.59 -5.944,-4.807c-1.565,-0.172 -3.618,2.604 -3.618,2.604c0,0 -1.183,-3.256 -2.747,-3.558Z" style="fill:#ffea00;"/><clipPath id="_clip23"><path d="M215.492,218.664c-1.564,-0.301 -5.99,0.866 -6.639,1.751c-0.648,0.885 2.747,3.558 2.747,3.558c0,0 -4.619,-0.871 -5.193,0.046c-0.575,0.918 0.588,4.557 1.744,5.459c1.157,0.902 5.194,-0.047 5.194,-0.047c0,0 -1.672,2.719 -0.463,3.587c1.209,0.868 6.354,1.95 7.717,1.623c1.363,-0.328 0.463,-3.587 0.463,-3.587c0,0 3.585,2.551 4.907,2.17c1.322,-0.38 3.339,-3.351 3.025,-4.455c-0.314,-1.104 -4.908,-2.17 -4.908,-2.17c0.008,0.024 3.478,-0.595 3.715,-2.174c0.345,-2.299 -3.982,-4.59 -5.944,-4.807c-1.565,-0.172 -3.618,2.604 -3.618,2.604c0,0 -1.183,-3.256 -2.747,-3.558Z"/></clipPath><g clip-path="url(#_clip23)"><path d="M217.949,224.304c-1.968,-0.413 -3.695,0.251 -3.854,1.484c-0.159,1.233 1.31,2.57 3.278,2.984c1.968,0.414 3.695,-0.251 3.854,-1.484c0.159,-1.233 -1.31,-2.57 -3.278,-2.984Z" style="fill:#fff;"/></g></g><g><path d="M234.014,239.861c-5.56,4.579 -6.278,21.979 -6.278,21.979" style="fill:none;stroke:#379a00;stroke-width:1.54px;"/><path d="M236.835,228.518c-1.564,-0.301 -5.99,0.866 -6.638,1.751c-0.649,0.884 2.747,3.558 2.747,3.558c0,0 -4.619,-0.871 -5.194,0.046c-0.575,0.917 0.588,4.556 1.745,5.458c1.156,0.902 5.193,-0.046 5.193,-0.046c0,0 -1.671,2.718 -0.462,3.587c1.208,0.868 6.353,1.95 7.716,1.622c1.364,-0.327 0.463,-3.586 0.463,-3.586c0,0 3.586,2.551 4.908,2.17c1.322,-0.381 3.338,-3.351 3.024,-4.455c-0.314,-1.104 -4.907,-2.171 -4.907,-2.171c0.007,0.024 3.477,-0.594 3.714,-2.173c0.345,-2.3 -3.981,-4.591 -5.944,-4.807c-1.564,-0.172 -3.618,2.604 -3.618,2.604c0,0 -1.183,-3.257 -2.747,-3.558Z" style="fill:#ffea00;"/><clipPath id="_clip24"><path d="M236.835,228.518c-1.564,-0.301 -5.99,0.866 -6.638,1.751c-0.649,0.884 2.747,3.558 2.747,3.558c0,0 -4.619,-0.871 -5.194,0.046c-0.575,0.917 0.588,4.556 1.745,5.458c1.156,0.902 5.193,-0.046 5.193,-0.046c0,0 -1.671,2.718 -0.462,3.587c1.208,0.868 6.353,1.95 7.716,1.622c1.364,-0.327 0.463,-3.586 0.463,-3.586c0,0 3.586,2.551 4.908,2.17c1.322,-0.381 3.338,-3.351 3.024,-4.455c-0.314,-1.104 -4.907,-2.171 -4.907,-2.171c0.007,0.024 3.477,-0.594 3.714,-2.173c0.345,-2.3 -3.981,-4.591 -5.944,-4.807c-1.564,-0.172 -3.618,2.604 -3.618,2.604c0,0 -1.183,-3.257 -2.747,-3.558Z"/></clipPath><g clip-path="url(#_clip24)"><path d="M239.293,234.158c-1.968,-0.414 -3.695,0.251 -3.855,1.484c-0.159,1.233 1.31,2.57 3.278,2.983c1.968,0.414 3.695,-0.251 3.854,-1.483c0.159,-1.233 -1.309,-2.57 -3.277,-2.984Z" style="fill:#fff;"/></g></g><g><path d="M194.308,229.428c3.683,4.579 4.159,21.979 4.159,21.979" style="fill:none;stroke:#379a00;stroke-width:1.54px;"/><path d="M192.439,218.085c1.036,-0.302 3.968,0.865 4.398,1.75c0.429,0.885 -1.82,3.558 -1.82,3.558c0,0 3.06,-0.871 3.441,0.047c0.38,0.917 -0.39,4.556 -1.156,5.458c-0.766,0.902 -3.441,-0.046 -3.441,-0.046c0,0 1.108,2.718 0.307,3.586c-0.801,0.869 -4.209,1.95 -5.112,1.623c-0.903,-0.327 -0.307,-3.587 -0.307,-3.587c0,0 -2.375,2.552 -3.251,2.171c-0.876,-0.381 -2.211,-3.351 -2.003,-4.455c0.208,-1.105 3.251,-2.171 3.251,-2.171c-0.005,0.024 -2.304,-0.594 -2.461,-2.174c-0.228,-2.299 2.638,-4.59 3.938,-4.806c1.036,-0.173 2.396,2.604 2.396,2.604c0,0 0.784,-3.257 1.82,-3.558Z" style="fill:#ffea00;"/><clipPath id="_clip25"><path d="M192.439,218.085c1.036,-0.302 3.968,0.865 4.398,1.75c0.429,0.885 -1.82,3.558 -1.82,3.558c0,0 3.06,-0.871 3.441,0.047c0.38,0.917 -0.39,4.556 -1.156,5.458c-0.766,0.902 -3.441,-0.046 -3.441,-0.046c0,0 1.108,2.718 0.307,3.586c-0.801,0.869 -4.209,1.95 -5.112,1.623c-0.903,-0.327 -0.307,-3.587 -0.307,-3.587c0,0 -2.375,2.552 -3.251,2.171c-0.876,-0.381 -2.211,-3.351 -2.003,-4.455c0.208,-1.105 3.251,-2.171 3.251,-2.171c-0.005,0.024 -2.304,-0.594 -2.461,-2.174c-0.228,-2.299 2.638,-4.59 3.938,-4.806c1.036,-0.173 2.396,2.604 2.396,2.604c0,0 0.784,-3.257 1.82,-3.558Z"/></clipPath><g clip-path="url(#_clip25)"><path d="M190.811,223.725c1.304,-0.414 2.448,0.251 2.553,1.484c0.106,1.232 -0.867,2.569 -2.171,2.983c-1.304,0.414 -2.448,-0.251 -2.553,-1.484c-0.106,-1.232 0.867,-2.569 2.171,-2.983Z" style="fill:#fff;"/></g></g><g><path d="M204.253,241.583c2.285,3.517 2.58,16.884 2.58,16.884" style="fill:none;stroke:#379a00;stroke-width:1.54px;"/><path d="M203.093,232.869c0.643,-0.232 2.462,0.665 2.729,1.344c0.267,0.68 -1.129,2.734 -1.129,2.734c0,0 1.898,-0.67 2.135,0.035c0.236,0.705 -0.242,3.5 -0.718,4.193c-0.475,0.693 -2.134,-0.035 -2.134,-0.035c0,0 0.687,2.088 0.19,2.755c-0.497,0.667 -2.612,1.498 -3.172,1.247c-0.56,-0.252 -0.19,-2.756 -0.19,-2.756c0,0 -1.474,1.96 -2.018,1.668c-0.543,-0.293 -1.372,-2.575 -1.243,-3.423c0.129,-0.848 2.017,-1.667 2.017,-1.667c-0.003,0.018 -1.429,-0.457 -1.526,-1.67c-0.142,-1.767 1.636,-3.526 2.443,-3.693c0.643,-0.132 1.487,2.001 1.487,2.001c0,0 0.486,-2.502 1.129,-2.733Z" style="fill:#ffea00;"/><clipPath id="_clip26"><path d="M203.093,232.869c0.643,-0.232 2.462,0.665 2.729,1.344c0.267,0.68 -1.129,2.734 -1.129,2.734c0,0 1.898,-0.67 2.135,0.035c0.236,0.705 -0.242,3.5 -0.718,4.193c-0.475,0.693 -2.134,-0.035 -2.134,-0.035c0,0 0.687,2.088 0.19,2.755c-0.497,0.667 -2.612,1.498 -3.172,1.247c-0.56,-0.252 -0.19,-2.756 -0.19,-2.756c0,0 -1.474,1.96 -2.018,1.668c-0.543,-0.293 -1.372,-2.575 -1.243,-3.423c0.129,-0.848 2.017,-1.667 2.017,-1.667c-0.003,0.018 -1.429,-0.457 -1.526,-1.67c-0.142,-1.767 1.636,-3.526 2.443,-3.693c0.643,-0.132 1.487,2.001 1.487,2.001c0,0 0.486,-2.502 1.129,-2.733Z"/></clipPath><g clip-path="url(#_clip26)"><path d="M202.083,237.201c0.809,-0.318 1.519,0.193 1.584,1.14c0.066,0.947 -0.538,1.974 -1.347,2.292c-0.809,0.318 -1.519,-0.193 -1.584,-1.14c-0.066,-0.947 0.538,-1.974 1.347,-2.292Z" style="fill:#fff;"/></g></g><g><path d="M217.817,244.996c-4.941,2.164 -7.748,14.915 -7.748,14.915" style="fill:none;stroke:#379a00;stroke-width:1.54px;"/><path d="M221.488,237.205c-1.185,-0.571 -4.798,-0.686 -5.419,-0.173c-0.622,0.513 1.689,3.249 1.689,3.249c0,0 -3.501,-1.671 -4.069,-1.117c-0.568,0.553 -0.127,3.511 0.661,4.436c0.788,0.926 4.069,1.117 4.069,1.117c0,0 -1.659,1.647 -0.825,2.559c0.833,0.912 4.718,2.855 5.827,2.915c1.109,0.059 0.825,-2.559 0.825,-2.559c0,0 2.476,2.688 3.559,2.699c1.083,0.01 3.044,-1.746 2.941,-2.635c-0.103,-0.889 -3.559,-2.699 -3.559,-2.699c0.003,0.02 2.797,0.33 3.186,-0.789c0.567,-1.63 -2.522,-4.289 -4.029,-4.884c-1.202,-0.475 -3.167,1.13 -3.167,1.13c0,0 -0.504,-2.679 -1.689,-3.249Z" style="fill:#ffea00;"/><clipPath id="_clip27"><path d="M221.488,237.205c-1.185,-0.571 -4.798,-0.686 -5.419,-0.173c-0.622,0.513 1.689,3.249 1.689,3.249c0,0 -3.501,-1.671 -4.069,-1.117c-0.568,0.553 -0.127,3.511 0.661,4.436c0.788,0.926 4.069,1.117 4.069,1.117c0,0 -1.659,1.647 -0.825,2.559c0.833,0.912 4.718,2.855 5.827,2.915c1.109,0.059 0.825,-2.559 0.825,-2.559c0,0 2.476,2.688 3.559,2.699c1.083,0.01 3.044,-1.746 2.941,-2.635c-0.103,-0.889 -3.559,-2.699 -3.559,-2.699c0.003,0.02 2.797,0.33 3.186,-0.789c0.567,-1.63 -2.522,-4.289 -4.029,-4.884c-1.202,-0.475 -3.167,1.13 -3.167,1.13c0,0 -0.504,-2.679 -1.689,-3.249Z"/></clipPath><g clip-path="url(#_clip27)"><path d="M222.682,241.934c-1.486,-0.743 -2.923,-0.633 -3.206,0.247c-0.284,0.879 0.692,2.197 2.179,2.94c1.486,0.744 2.923,0.633 3.206,-0.246c0.284,-0.88 -0.692,-2.197 -2.179,-2.941Z" style="fill:#fff;"/></g></g></g></g><g id="whiteFlowers1"><path d="M850.377,318.083c0,-0.494 1.16,-0.894 2.589,-0.894c1.428,0 2.588,0.4 2.588,0.894c0.714,-0.427 2.299,-0.574 3.536,-0.327c1.237,0.246 1.662,0.793 0.947,1.22c1.237,-0.247 2.822,-0.1 3.536,0.327c0.714,0.427 0.29,0.974 -0.947,1.22c1.428,0 2.588,0.4 2.588,0.893c0,0.494 -1.16,0.894 -2.588,0.894c1.237,0.246 1.661,0.793 0.947,1.22c-0.714,0.427 -2.299,0.574 -3.536,0.327c0.715,0.427 0.29,0.974 -0.947,1.22c-1.237,0.247 -2.822,0.1 -3.536,-0.327c0,0.493 -1.16,0.894 -2.588,0.894c-1.429,0 -2.589,-0.401 -2.589,-0.894c-0.714,0.427 -2.298,0.574 -3.535,0.327c-1.238,-0.246 -1.662,-0.793 -0.948,-1.22c-1.237,0.247 -2.821,0.1 -3.536,-0.327c-0.714,-0.427 -0.289,-0.974 0.948,-1.22c-1.429,0 -2.589,-0.4 -2.589,-0.894c0,-0.493 1.16,-0.893 2.589,-0.893c-1.237,-0.246 -1.662,-0.793 -0.948,-1.22c0.715,-0.427 2.299,-0.574 3.536,-0.327c-0.714,-0.427 -0.29,-0.974 0.948,-1.22c1.237,-0.247 2.821,-0.1 3.535,0.327Z" style="fill:#fff;"/><clipPath id="_clip28"><path d="M850.377,318.083c0,-0.494 1.16,-0.894 2.589,-0.894c1.428,0 2.588,0.4 2.588,0.894c0.714,-0.427 2.299,-0.574 3.536,-0.327c1.237,0.246 1.662,0.793 0.947,1.22c1.237,-0.247 2.822,-0.1 3.536,0.327c0.714,0.427 0.29,0.974 -0.947,1.22c1.428,0 2.588,0.4 2.588,0.893c0,0.494 -1.16,0.894 -2.588,0.894c1.237,0.246 1.661,0.793 0.947,1.22c-0.714,0.427 -2.299,0.574 -3.536,0.327c0.715,0.427 0.29,0.974 -0.947,1.22c-1.237,0.247 -2.822,0.1 -3.536,-0.327c0,0.493 -1.16,0.894 -2.588,0.894c-1.429,0 -2.589,-0.401 -2.589,-0.894c-0.714,0.427 -2.298,0.574 -3.535,0.327c-1.238,-0.246 -1.662,-0.793 -0.948,-1.22c-1.237,0.247 -2.821,0.1 -3.536,-0.327c-0.714,-0.427 -0.289,-0.974 0.948,-1.22c-1.429,0 -2.589,-0.4 -2.589,-0.894c0,-0.493 1.16,-0.893 2.589,-0.893c-1.237,-0.246 -1.662,-0.793 -0.948,-1.22c0.715,-0.427 2.299,-0.574 3.536,-0.327c-0.714,-0.427 -0.29,-0.974 0.948,-1.22c1.237,-0.247 2.821,-0.1 3.535,0.327Z"/></clipPath><g clip-path="url(#_clip28)"><ellipse cx="852.855" cy="321.102" rx="3.697" ry="0.966" style="fill:#efdd15;"/></g><path d="M709.438,315.981c0,-0.402 0.773,-0.729 1.726,-0.729c0.952,0 1.726,0.327 1.726,0.729c0.476,-0.348 1.532,-0.468 2.357,-0.266c0.825,0.201 1.108,0.647 0.632,0.995c0.825,-0.201 1.881,-0.081 2.358,0.267c0.476,0.349 0.193,0.795 -0.632,0.996c0.952,0 1.726,0.327 1.726,0.729c0,0.403 -0.774,0.729 -1.726,0.729c0.825,0.201 1.108,0.648 0.632,0.996c-0.477,0.349 -1.533,0.468 -2.358,0.267c0.476,0.348 0.193,0.795 -0.632,0.996c-0.825,0.201 -1.881,0.081 -2.357,-0.267c0,0.402 -0.774,0.729 -1.726,0.729c-0.953,0 -1.726,-0.327 -1.726,-0.729c-0.476,0.348 -1.533,0.468 -2.358,0.267c-0.825,-0.201 -1.108,-0.648 -0.631,-0.996c-0.825,0.201 -1.882,0.082 -2.358,-0.267c-0.476,-0.348 -0.193,-0.795 0.632,-0.996c-0.953,0 -1.726,-0.326 -1.726,-0.729c0,-0.402 0.773,-0.729 1.726,-0.729c-0.825,-0.201 -1.108,-0.647 -0.632,-0.996c0.476,-0.348 1.533,-0.468 2.358,-0.267c-0.477,-0.348 -0.194,-0.794 0.631,-0.995c0.825,-0.202 1.882,-0.082 2.358,0.266Z" style="fill:#fff;"/><clipPath id="_clip29"><path d="M709.438,315.981c0,-0.402 0.773,-0.729 1.726,-0.729c0.952,0 1.726,0.327 1.726,0.729c0.476,-0.348 1.532,-0.468 2.357,-0.266c0.825,0.201 1.108,0.647 0.632,0.995c0.825,-0.201 1.881,-0.081 2.358,0.267c0.476,0.349 0.193,0.795 -0.632,0.996c0.952,0 1.726,0.327 1.726,0.729c0,0.403 -0.774,0.729 -1.726,0.729c0.825,0.201 1.108,0.648 0.632,0.996c-0.477,0.349 -1.533,0.468 -2.358,0.267c0.476,0.348 0.193,0.795 -0.632,0.996c-0.825,0.201 -1.881,0.081 -2.357,-0.267c0,0.402 -0.774,0.729 -1.726,0.729c-0.953,0 -1.726,-0.327 -1.726,-0.729c-0.476,0.348 -1.533,0.468 -2.358,0.267c-0.825,-0.201 -1.108,-0.648 -0.631,-0.996c-0.825,0.201 -1.882,0.082 -2.358,-0.267c-0.476,-0.348 -0.193,-0.795 0.632,-0.996c-0.953,0 -1.726,-0.326 -1.726,-0.729c0,-0.402 0.773,-0.729 1.726,-0.729c-0.825,-0.201 -1.108,-0.647 -0.632,-0.996c0.476,-0.348 1.533,-0.468 2.358,-0.267c-0.477,-0.348 -0.194,-0.794 0.631,-0.995c0.825,-0.202 1.882,-0.082 2.358,0.266Z"/></clipPath><g clip-path="url(#_clip29)"><ellipse cx="711.09" cy="318.446" rx="2.465" ry="0.788" style="fill:#efdd15;"/></g><path d="M795.457,347.114c0,-0.493 1.16,-0.893 2.588,-0.893c1.429,0 2.589,0.4 2.589,0.893c0.714,-0.427 2.298,-0.573 3.535,-0.327c1.237,0.247 1.662,0.794 0.948,1.221c1.237,-0.247 2.821,-0.1 3.535,0.327c0.715,0.427 0.29,0.974 -0.947,1.22c1.429,0 2.588,0.4 2.588,0.893c0,0.493 -1.159,0.894 -2.588,0.894c1.237,0.246 1.662,0.793 0.947,1.22c-0.714,0.427 -2.298,0.574 -3.535,0.327c0.714,0.427 0.289,0.974 -0.948,1.22c-1.237,0.247 -2.821,0.1 -3.535,-0.327c0,0.493 -1.16,0.894 -2.589,0.894c-1.428,0 -2.588,-0.401 -2.588,-0.894c-0.715,0.427 -2.299,0.574 -3.536,0.327c-1.237,-0.246 -1.662,-0.793 -0.947,-1.22c-1.238,0.247 -2.822,0.1 -3.536,-0.327c-0.714,-0.427 -0.29,-0.974 0.947,-1.22c-1.428,0 -2.588,-0.401 -2.588,-0.894c0,-0.493 1.16,-0.893 2.588,-0.893c-1.237,-0.246 -1.661,-0.793 -0.947,-1.22c0.714,-0.427 2.298,-0.574 3.536,-0.327c-0.715,-0.427 -0.29,-0.974 0.947,-1.221c1.237,-0.246 2.821,-0.1 3.536,0.327Z" style="fill:#fff;"/><clipPath id="_clip30"><path d="M795.457,347.114c0,-0.493 1.16,-0.893 2.588,-0.893c1.429,0 2.589,0.4 2.589,0.893c0.714,-0.427 2.298,-0.573 3.535,-0.327c1.237,0.247 1.662,0.794 0.948,1.221c1.237,-0.247 2.821,-0.1 3.535,0.327c0.715,0.427 0.29,0.974 -0.947,1.22c1.429,0 2.588,0.4 2.588,0.893c0,0.493 -1.159,0.894 -2.588,0.894c1.237,0.246 1.662,0.793 0.947,1.22c-0.714,0.427 -2.298,0.574 -3.535,0.327c0.714,0.427 0.289,0.974 -0.948,1.22c-1.237,0.247 -2.821,0.1 -3.535,-0.327c0,0.493 -1.16,0.894 -2.589,0.894c-1.428,0 -2.588,-0.401 -2.588,-0.894c-0.715,0.427 -2.299,0.574 -3.536,0.327c-1.237,-0.246 -1.662,-0.793 -0.947,-1.22c-1.238,0.247 -2.822,0.1 -3.536,-0.327c-0.714,-0.427 -0.29,-0.974 0.947,-1.22c-1.428,0 -2.588,-0.401 -2.588,-0.894c0,-0.493 1.16,-0.893 2.588,-0.893c-1.237,-0.246 -1.661,-0.793 -0.947,-1.22c0.714,-0.427 2.298,-0.574 3.536,-0.327c-0.715,-0.427 -0.29,-0.974 0.947,-1.221c1.237,-0.246 2.821,-0.1 3.536,0.327Z"/></clipPath><g clip-path="url(#_clip30)"><ellipse cx="797.934" cy="350.134" rx="3.697" ry="0.966" style="fill:#efdd15;"/></g><path d="M758.271,331.99c0,-0.305 0.807,-0.553 1.8,-0.553c0.993,0 1.8,0.248 1.8,0.553c0.496,-0.264 1.598,-0.355 2.458,-0.202c0.86,0.152 1.155,0.49 0.659,0.754c0.86,-0.152 1.962,-0.062 2.458,0.202c0.497,0.264 0.202,0.602 -0.658,0.755c0.993,0 1.799,0.247 1.799,0.552c0,0.305 -0.806,0.552 -1.799,0.552c0.86,0.153 1.155,0.491 0.658,0.755c-0.496,0.264 -1.598,0.354 -2.458,0.202c0.496,0.264 0.201,0.602 -0.659,0.754c-0.86,0.153 -1.962,0.062 -2.458,-0.202c0,0.305 -0.807,0.552 -1.8,0.552c-0.993,0 -1.8,-0.247 -1.8,-0.552c-0.496,0.264 -1.598,0.355 -2.458,0.202c-0.86,-0.152 -1.156,-0.49 -0.659,-0.754c-0.86,0.152 -1.962,0.062 -2.458,-0.202c-0.497,-0.264 -0.202,-0.602 0.658,-0.755c-0.993,0 -1.799,-0.247 -1.799,-0.552c0,-0.305 0.806,-0.552 1.799,-0.552c-0.86,-0.153 -1.155,-0.491 -0.658,-0.755c0.496,-0.264 1.598,-0.354 2.458,-0.202c-0.497,-0.264 -0.201,-0.602 0.659,-0.754c0.86,-0.153 1.962,-0.062 2.458,0.202Z" style="fill:#fff;"/><clipPath id="_clip31"><path d="M758.271,331.99c0,-0.305 0.807,-0.553 1.8,-0.553c0.993,0 1.8,0.248 1.8,0.553c0.496,-0.264 1.598,-0.355 2.458,-0.202c0.86,0.152 1.155,0.49 0.659,0.754c0.86,-0.152 1.962,-0.062 2.458,0.202c0.497,0.264 0.202,0.602 -0.658,0.755c0.993,0 1.799,0.247 1.799,0.552c0,0.305 -0.806,0.552 -1.799,0.552c0.86,0.153 1.155,0.491 0.658,0.755c-0.496,0.264 -1.598,0.354 -2.458,0.202c0.496,0.264 0.201,0.602 -0.659,0.754c-0.86,0.153 -1.962,0.062 -2.458,-0.202c0,0.305 -0.807,0.552 -1.8,0.552c-0.993,0 -1.8,-0.247 -1.8,-0.552c-0.496,0.264 -1.598,0.355 -2.458,0.202c-0.86,-0.152 -1.156,-0.49 -0.659,-0.754c-0.86,0.152 -1.962,0.062 -2.458,-0.202c-0.497,-0.264 -0.202,-0.602 0.658,-0.755c-0.993,0 -1.799,-0.247 -1.799,-0.552c0,-0.305 0.806,-0.552 1.799,-0.552c-0.86,-0.153 -1.155,-0.491 -0.658,-0.755c0.496,-0.264 1.598,-0.354 2.458,-0.202c-0.497,-0.264 -0.201,-0.602 0.659,-0.754c0.86,-0.153 1.962,-0.062 2.458,0.202Z"/></clipPath><g clip-path="url(#_clip31)"><ellipse cx="759.994" cy="333.856" rx="2.571" ry="0.597" style="fill:#efdd15;"/></g><path d="M724.582,290.837c0,-0.305 0.807,-0.553 1.8,-0.553c0.993,0 1.8,0.248 1.8,0.553c0.496,-0.264 1.598,-0.355 2.458,-0.203c0.86,0.153 1.155,0.491 0.659,0.755c0.86,-0.153 1.962,-0.062 2.458,0.202c0.497,0.264 0.202,0.602 -0.659,0.754c0.994,0 1.8,0.248 1.8,0.553c0,0.305 -0.806,0.552 -1.8,0.552c0.861,0.152 1.156,0.49 0.659,0.754c-0.496,0.264 -1.598,0.355 -2.458,0.203c0.496,0.264 0.201,0.602 -0.659,0.754c-0.86,0.152 -1.962,0.062 -2.458,-0.202c0,0.305 -0.807,0.552 -1.8,0.552c-0.993,0 -1.8,-0.247 -1.8,-0.552c-0.496,0.264 -1.598,0.354 -2.458,0.202c-0.86,-0.152 -1.156,-0.49 -0.659,-0.754c-0.86,0.152 -1.962,0.061 -2.458,-0.203c-0.497,-0.264 -0.202,-0.602 0.658,-0.754c-0.993,0 -1.799,-0.247 -1.799,-0.552c0,-0.305 0.806,-0.553 1.799,-0.553c-0.86,-0.152 -1.155,-0.49 -0.658,-0.754c0.496,-0.264 1.598,-0.355 2.458,-0.202c-0.497,-0.264 -0.201,-0.602 0.659,-0.755c0.86,-0.152 1.962,-0.061 2.458,0.203Z" style="fill:#fff;"/><clipPath id="_clip32"><path d="M724.582,290.837c0,-0.305 0.807,-0.553 1.8,-0.553c0.993,0 1.8,0.248 1.8,0.553c0.496,-0.264 1.598,-0.355 2.458,-0.203c0.86,0.153 1.155,0.491 0.659,0.755c0.86,-0.153 1.962,-0.062 2.458,0.202c0.497,0.264 0.202,0.602 -0.659,0.754c0.994,0 1.8,0.248 1.8,0.553c0,0.305 -0.806,0.552 -1.8,0.552c0.861,0.152 1.156,0.49 0.659,0.754c-0.496,0.264 -1.598,0.355 -2.458,0.203c0.496,0.264 0.201,0.602 -0.659,0.754c-0.86,0.152 -1.962,0.062 -2.458,-0.202c0,0.305 -0.807,0.552 -1.8,0.552c-0.993,0 -1.8,-0.247 -1.8,-0.552c-0.496,0.264 -1.598,0.354 -2.458,0.202c-0.86,-0.152 -1.156,-0.49 -0.659,-0.754c-0.86,0.152 -1.962,0.061 -2.458,-0.203c-0.497,-0.264 -0.202,-0.602 0.658,-0.754c-0.993,0 -1.799,-0.247 -1.799,-0.552c0,-0.305 0.806,-0.553 1.799,-0.553c-0.86,-0.152 -1.155,-0.49 -0.658,-0.754c0.496,-0.264 1.598,-0.355 2.458,-0.202c-0.497,-0.264 -0.201,-0.602 0.659,-0.755c0.86,-0.152 1.962,-0.061 2.458,0.203Z"/></clipPath><g clip-path="url(#_clip32)"><ellipse cx="726.305" cy="292.703" rx="2.571" ry="0.597" style="fill:#efdd15;"/></g><path d="M757.369,298.767c0,-0.353 0.851,-0.64 1.899,-0.64c1.048,0 1.899,0.287 1.899,0.64c0.524,-0.306 1.687,-0.411 2.594,-0.234c0.908,0.177 1.219,0.569 0.695,0.875c0.908,-0.177 2.071,-0.072 2.595,0.235c0.524,0.306 0.212,0.698 -0.695,0.875c1.048,0 1.899,0.287 1.899,0.64c0,0.354 -0.851,0.641 -1.899,0.641c0.907,0.177 1.219,0.569 0.695,0.875c-0.524,0.307 -1.687,0.412 -2.595,0.235c0.524,0.306 0.213,0.698 -0.695,0.875c-0.907,0.177 -2.07,0.072 -2.594,-0.235c0,0.354 -0.851,0.641 -1.899,0.641c-1.048,0 -1.899,-0.287 -1.899,-0.641c-0.524,0.307 -1.687,0.412 -2.595,0.235c-0.907,-0.177 -1.219,-0.569 -0.695,-0.875c-0.907,0.177 -2.07,0.072 -2.594,-0.235c-0.524,-0.306 -0.213,-0.698 0.695,-0.875c-1.048,0 -1.899,-0.287 -1.899,-0.641c0,-0.353 0.851,-0.64 1.899,-0.64c-0.908,-0.177 -1.219,-0.569 -0.695,-0.875c0.524,-0.307 1.687,-0.412 2.594,-0.235c-0.524,-0.306 -0.212,-0.698 0.695,-0.875c0.908,-0.177 2.071,-0.072 2.595,0.234Z" style="fill:#fff;"/><clipPath id="_clip33"><path d="M757.369,298.767c0,-0.353 0.851,-0.64 1.899,-0.64c1.048,0 1.899,0.287 1.899,0.64c0.524,-0.306 1.687,-0.411 2.594,-0.234c0.908,0.177 1.219,0.569 0.695,0.875c0.908,-0.177 2.071,-0.072 2.595,0.235c0.524,0.306 0.212,0.698 -0.695,0.875c1.048,0 1.899,0.287 1.899,0.64c0,0.354 -0.851,0.641 -1.899,0.641c0.907,0.177 1.219,0.569 0.695,0.875c-0.524,0.307 -1.687,0.412 -2.595,0.235c0.524,0.306 0.213,0.698 -0.695,0.875c-0.907,0.177 -2.07,0.072 -2.594,-0.235c0,0.354 -0.851,0.641 -1.899,0.641c-1.048,0 -1.899,-0.287 -1.899,-0.641c-0.524,0.307 -1.687,0.412 -2.595,0.235c-0.907,-0.177 -1.219,-0.569 -0.695,-0.875c-0.907,0.177 -2.07,0.072 -2.594,-0.235c-0.524,-0.306 -0.213,-0.698 0.695,-0.875c-1.048,0 -1.899,-0.287 -1.899,-0.641c0,-0.353 0.851,-0.64 1.899,-0.64c-0.908,-0.177 -1.219,-0.569 -0.695,-0.875c0.524,-0.307 1.687,-0.412 2.594,-0.235c-0.524,-0.306 -0.212,-0.698 0.695,-0.875c0.908,-0.177 2.071,-0.072 2.595,0.234Z"/></clipPath><g clip-path="url(#_clip33)"><ellipse cx="759.187" cy="300.933" rx="2.713" ry="0.693" style="fill:#efdd15;"/></g><path d="M814.831,296.001c0,-0.359 1.028,-0.651 2.293,-0.651c1.266,0 2.293,0.292 2.293,0.651c0.633,-0.311 2.036,-0.418 3.132,-0.238c1.096,0.18 1.472,0.578 0.839,0.89c1.096,-0.18 2.5,-0.073 3.132,0.238c0.633,0.312 0.257,0.711 -0.839,0.89c1.266,0 2.293,0.292 2.293,0.652c0,0.359 -1.027,0.651 -2.293,0.651c1.096,0.18 1.472,0.579 0.839,0.89c-0.632,0.312 -2.036,0.419 -3.132,0.239c0.633,0.311 0.257,0.71 -0.839,0.89c-1.096,0.18 -2.499,0.073 -3.132,-0.239c0,0.36 -1.027,0.652 -2.293,0.652c-1.265,0 -2.293,-0.292 -2.293,-0.652c-0.632,0.312 -2.036,0.419 -3.132,0.239c-1.096,-0.18 -1.472,-0.579 -0.839,-0.89c-1.096,0.18 -2.499,0.073 -3.132,-0.239c-0.633,-0.311 -0.257,-0.71 0.839,-0.89c-1.265,0 -2.293,-0.292 -2.293,-0.651c0,-0.36 1.028,-0.652 2.293,-0.652c-1.096,-0.179 -1.472,-0.578 -0.839,-0.89c0.633,-0.311 2.036,-0.418 3.132,-0.238c-0.633,-0.312 -0.257,-0.71 0.839,-0.89c1.096,-0.18 2.5,-0.073 3.132,0.238Z" style="fill:#fff;"/><clipPath id="_clip34"><path d="M814.831,296.001c0,-0.359 1.028,-0.651 2.293,-0.651c1.266,0 2.293,0.292 2.293,0.651c0.633,-0.311 2.036,-0.418 3.132,-0.238c1.096,0.18 1.472,0.578 0.839,0.89c1.096,-0.18 2.5,-0.073 3.132,0.238c0.633,0.312 0.257,0.711 -0.839,0.89c1.266,0 2.293,0.292 2.293,0.652c0,0.359 -1.027,0.651 -2.293,0.651c1.096,0.18 1.472,0.579 0.839,0.89c-0.632,0.312 -2.036,0.419 -3.132,0.239c0.633,0.311 0.257,0.71 -0.839,0.89c-1.096,0.18 -2.499,0.073 -3.132,-0.239c0,0.36 -1.027,0.652 -2.293,0.652c-1.265,0 -2.293,-0.292 -2.293,-0.652c-0.632,0.312 -2.036,0.419 -3.132,0.239c-1.096,-0.18 -1.472,-0.579 -0.839,-0.89c-1.096,0.18 -2.499,0.073 -3.132,-0.239c-0.633,-0.311 -0.257,-0.71 0.839,-0.89c-1.265,0 -2.293,-0.292 -2.293,-0.651c0,-0.36 1.028,-0.652 2.293,-0.652c-1.096,-0.179 -1.472,-0.578 -0.839,-0.89c0.633,-0.311 2.036,-0.418 3.132,-0.238c-0.633,-0.312 -0.257,-0.71 0.839,-0.89c1.096,-0.18 2.5,-0.073 3.132,0.238Z"/></clipPath><g clip-path="url(#_clip34)"><ellipse cx="817.026" cy="298.204" rx="3.275" ry="0.704" style="fill:#efdd15;"/></g><path d="M866.265,293.99c0,-0.508 1.244,-0.92 2.776,-0.92c1.533,0 2.777,0.412 2.777,0.92c0.766,-0.44 2.465,-0.591 3.793,-0.337c1.327,0.254 1.782,0.817 1.016,1.257c1.327,-0.254 3.026,-0.103 3.792,0.337c0.767,0.44 0.311,1.003 -1.016,1.257c1.533,0 2.777,0.412 2.777,0.92c0,0.508 -1.244,0.92 -2.777,0.92c1.327,0.254 1.783,0.817 1.016,1.257c-0.766,0.44 -2.465,0.591 -3.792,0.337c0.766,0.44 0.311,1.003 -1.016,1.257c-1.328,0.254 -3.027,0.103 -3.793,-0.337c0,0.508 -1.244,0.92 -2.777,0.92c-1.532,0 -2.776,-0.412 -2.776,-0.92c-0.766,0.44 -2.466,0.591 -3.793,0.337c-1.327,-0.254 -1.782,-0.817 -1.016,-1.257c-1.327,0.254 -3.026,0.103 -3.793,-0.337c-0.766,-0.44 -0.31,-1.003 1.017,-1.257c-1.533,0 -2.777,-0.412 -2.777,-0.92c0,-0.508 1.244,-0.92 2.777,-0.92c-1.327,-0.254 -1.783,-0.817 -1.017,-1.257c0.767,-0.44 2.466,-0.591 3.793,-0.337c-0.766,-0.44 -0.311,-1.003 1.016,-1.257c1.327,-0.254 3.027,-0.103 3.793,0.337Z" style="fill:#fff;"/><clipPath id="_clip35"><path d="M866.265,293.99c0,-0.508 1.244,-0.92 2.776,-0.92c1.533,0 2.777,0.412 2.777,0.92c0.766,-0.44 2.465,-0.591 3.793,-0.337c1.327,0.254 1.782,0.817 1.016,1.257c1.327,-0.254 3.026,-0.103 3.792,0.337c0.767,0.44 0.311,1.003 -1.016,1.257c1.533,0 2.777,0.412 2.777,0.92c0,0.508 -1.244,0.92 -2.777,0.92c1.327,0.254 1.783,0.817 1.016,1.257c-0.766,0.44 -2.465,0.591 -3.792,0.337c0.766,0.44 0.311,1.003 -1.016,1.257c-1.328,0.254 -3.027,0.103 -3.793,-0.337c0,0.508 -1.244,0.92 -2.777,0.92c-1.532,0 -2.776,-0.412 -2.776,-0.92c-0.766,0.44 -2.466,0.591 -3.793,0.337c-1.327,-0.254 -1.782,-0.817 -1.016,-1.257c-1.327,0.254 -3.026,0.103 -3.793,-0.337c-0.766,-0.44 -0.31,-1.003 1.017,-1.257c-1.533,0 -2.777,-0.412 -2.777,-0.92c0,-0.508 1.244,-0.92 2.777,-0.92c-1.327,-0.254 -1.783,-0.817 -1.017,-1.257c0.767,-0.44 2.466,-0.591 3.793,-0.337c-0.766,-0.44 -0.311,-1.003 1.016,-1.257c1.327,-0.254 3.027,-0.103 3.793,0.337Z"/></clipPath><g clip-path="url(#_clip35)"><ellipse cx="868.923" cy="297.1" rx="3.966" ry="0.995" style="fill:#efdd15;"/></g><path d="M783.932,318.123c0,-0.36 0.859,-0.652 1.917,-0.652c1.058,0 1.917,0.292 1.917,0.652c0.528,-0.312 1.702,-0.418 2.618,-0.239c0.916,0.18 1.23,0.579 0.701,0.89c0.917,-0.179 2.09,-0.072 2.619,0.239c0.529,0.311 0.214,0.71 -0.702,0.89c1.058,0 1.917,0.292 1.917,0.651c0,0.36 -0.859,0.652 -1.917,0.652c0.916,0.18 1.231,0.579 0.702,0.89c-0.529,0.311 -1.702,0.418 -2.619,0.238c0.529,0.312 0.215,0.711 -0.701,0.89c-0.916,0.18 -2.09,0.073 -2.618,-0.238c0,0.36 -0.859,0.652 -1.917,0.652c-1.058,0 -1.917,-0.292 -1.917,-0.652c-0.529,0.311 -1.702,0.418 -2.618,0.238c-0.916,-0.179 -1.231,-0.578 -0.702,-0.89c-0.916,0.18 -2.089,0.073 -2.618,-0.238c-0.529,-0.311 -0.214,-0.71 0.702,-0.89c-1.058,0 -1.917,-0.292 -1.917,-0.652c0,-0.359 0.859,-0.651 1.917,-0.651c-0.916,-0.18 -1.231,-0.579 -0.702,-0.89c0.529,-0.311 1.702,-0.418 2.618,-0.239c-0.529,-0.311 -0.214,-0.71 0.702,-0.89c0.916,-0.179 2.089,-0.073 2.618,0.239Z" style="fill:#fff;"/><clipPath id="_clip36"><path d="M783.932,318.123c0,-0.36 0.859,-0.652 1.917,-0.652c1.058,0 1.917,0.292 1.917,0.652c0.528,-0.312 1.702,-0.418 2.618,-0.239c0.916,0.18 1.23,0.579 0.701,0.89c0.917,-0.179 2.09,-0.072 2.619,0.239c0.529,0.311 0.214,0.71 -0.702,0.89c1.058,0 1.917,0.292 1.917,0.651c0,0.36 -0.859,0.652 -1.917,0.652c0.916,0.18 1.231,0.579 0.702,0.89c-0.529,0.311 -1.702,0.418 -2.619,0.238c0.529,0.312 0.215,0.711 -0.701,0.89c-0.916,0.18 -2.09,0.073 -2.618,-0.238c0,0.36 -0.859,0.652 -1.917,0.652c-1.058,0 -1.917,-0.292 -1.917,-0.652c-0.529,0.311 -1.702,0.418 -2.618,0.238c-0.916,-0.179 -1.231,-0.578 -0.702,-0.89c-0.916,0.18 -2.089,0.073 -2.618,-0.238c-0.529,-0.311 -0.214,-0.71 0.702,-0.89c-1.058,0 -1.917,-0.292 -1.917,-0.652c0,-0.359 0.859,-0.651 1.917,-0.651c-0.916,-0.18 -1.231,-0.579 -0.702,-0.89c0.529,-0.311 1.702,-0.418 2.618,-0.239c-0.529,-0.311 -0.214,-0.71 0.702,-0.89c0.916,-0.179 2.089,-0.073 2.618,0.239Z"/></clipPath><g clip-path="url(#_clip36)"><ellipse cx="785.767" cy="320.325" rx="2.738" ry="0.704" style="fill:#efdd15;"/></g></g><g id="BushUpLeft"><path d="M-1.617,161.415c1.82,-7.676 8.4,2.195 8.4,2.195c0,0 6.594,-8.172 14.588,3.824c5.994,0.135 8.105,10.146 3.872,12.112c2.818,7.912 -2.939,10.37 -12.783,10.228c0.201,1.396 8.827,4.813 8.827,4.813c0,0 4.773,-10.174 11.344,-0.527c3.68,-4.121 8.24,-2.939 8.932,2.145c3.544,0.232 2.641,6.531 2.641,6.531c3.9,2.332 3.134,4.109 0.861,6.794c1.863,0.358 1.02,3.448 -0.772,2.466c1.79,1.65 1.19,3.886 -1.318,3.684c0.045,3.379 -2.881,4.16 -4.819,1.271c0.242,3.835 -4.746,5.907 -7.134,-0.005c-0.024,0.67 0.536,2.907 -0.619,4.144c-0.878,0.939 -2.357,2.156 -4.162,0.46c0.384,1.375 -0.37,1.692 -1.147,2.252c-0.34,0.245 -1.472,0.65 -2.449,-0.06c-0.601,-0.437 -1.183,-1.076 -1.183,-1.076c0,0 -0.108,0.055 -0.687,1.054c-0.94,1.622 -3.703,-0.832 -3.278,-2.149c0,0 -1.487,0.461 -2.567,0.772c-3.551,1.024 -5.407,3.574 -5.407,3.574c0,0 1.578,-1.993 3.795,-1.415c1.017,0.265 1.27,2.767 1.27,2.767c2.689,-2.148 4.375,-1.122 5.654,1.19c2.048,-0.02 2.67,1.031 1.994,3.056c1.566,-3.501 4.654,-3.509 6.461,-0.569c2.321,-0.903 3.343,-0.193 3.066,2.13c2.677,-0.198 3.361,0.849 2.144,3.082c2.483,0.341 2.808,0.698 1.811,3.041c4.271,-1.74 5.247,-0.728 2.605,3.307c2.4,-0.196 7.805,1.901 6.06,5.08c2.664,-0.354 4.13,0.296 2.476,3.559c2.378,0.594 3.345,1.681 1.349,3.803c2.579,0.548 3.267,2.052 1.672,4.709c3.86,0.712 4.991,2.269 1.829,5.156c10.669,0.604 12.065,9.776 4.525,12.752c4.768,3.76 4.7,6.249 -1.98,6.997c3.411,3.809 3.403,6.162 -1.785,6.307c1.906,3.034 1.301,5.175 -1.818,6.422c6.659,1.89 3.763,10.467 -2.566,9.067c9.8,7.581 3.997,19.366 -4.635,16.377c7.146,3.946 2.83,11.732 -4.537,8.605c9.281,6.277 1.719,18.873 -7.815,14.821c8.056,3.424 1.647,13.561 -5.195,9.853c12.383,6.711 3.412,19.677 -7.169,13.596c2.308,1.326 2.288,4.969 -0.76,4.204c4.653,1.169 2.697,6.561 -1.534,5.4c4.523,3.925 -2.853,8.895 -5.376,5.736c0.452,3.016 -3.939,2.715 -3.693,-0.135c-2.802,3.671 -5.508,4.159 -8.129,1.848c0,0 -1.13,-224.106 -0.859,-225.248Z" style="fill:url(#_Linear37);"/></g><g id="stones"><path d="M295.856,738.446c18.608,0 34.533,10.378 34.533,18.625c0,8.247 -15.76,9.499 -34.368,9.499c-18.608,0 -33.062,-1.252 -33.062,-9.499c0,-8.247 14.289,-18.625 32.897,-18.625Z" style="fill:url(#_Linear38);"/><clipPath id="_clip39"><path d="M295.856,738.446c18.608,0 34.533,10.378 34.533,18.625c0,8.247 -15.76,9.499 -34.368,9.499c-18.608,0 -33.062,-1.252 -33.062,-9.499c0,-8.247 14.289,-18.625 32.897,-18.625Z"/></clipPath><g clip-path="url(#_clip39)"><ellipse cx="308.842" cy="744.045" rx="23.193" ry="8.616" style="fill:#bdcec2;fill-opacity:0.184314;"/><ellipse cx="310.83" cy="741.691" rx="16.516" ry="6.807" style="fill:#fff;fill-opacity:0.0745098;"/><g><path d="M272.228,758.482c1.097,0.903 3.29,8.064 3.29,8.064" style="fill:#389c00;"/><path d="M272.328,758.422l0.03,0.027l0.029,0.029l0.029,0.032l0.03,0.033l0.03,0.035l0.029,0.037l0.03,0.039l0.03,0.041l0.031,0.043l0.03,0.044l0.031,0.047l0.062,0.097l0.063,0.104l0.064,0.111l0.066,0.117l0.066,0.122l0.066,0.129l0.068,0.133l0.069,0.138l0.069,0.143l0.07,0.148l0.071,0.151l0.071,0.156l0.072,0.159l0.072,0.162l0.073,0.164l0.073,0.168l0.073,0.17l0.073,0.171l0.074,0.174l0.073,0.175l0.147,0.352l0.146,0.354l0.145,0.354l0.142,0.351l0.14,0.345l0.135,0.338l0.132,0.327l0.126,0.315l0.119,0.3l0.113,0.283l0.104,0.264l0.182,0.457l0.139,0.352l0.089,0.225l0.03,0.079l-0.289,0.539l-0.543,-0.282l-0.018,-0.082l-0.055,-0.232l-0.088,-0.364l-0.118,-0.474l-0.071,-0.272l-0.077,-0.293l-0.084,-0.31l-0.09,-0.325l-0.095,-0.337l-0.102,-0.347l-0.106,-0.355l-0.112,-0.359l-0.115,-0.362l-0.119,-0.362l-0.123,-0.359l-0.062,-0.177l-0.063,-0.176l-0.063,-0.174l-0.064,-0.172l-0.064,-0.17l-0.064,-0.166l-0.065,-0.163l-0.065,-0.16l-0.064,-0.156l-0.065,-0.152l-0.065,-0.148l-0.064,-0.143l-0.064,-0.137l-0.063,-0.133l-0.063,-0.127l-0.062,-0.12l-0.062,-0.115l-0.06,-0.107l-0.06,-0.101l-0.058,-0.093l-0.029,-0.044l-0.028,-0.042l-0.028,-0.039l-0.027,-0.038l-0.027,-0.036l-0.027,-0.033l-0.026,-0.031l-0.025,-0.029l-0.025,-0.027l-0.024,-0.024l-0.023,-0.021l-0.024,-0.021l-0.011,-0.156l0.156,-0.012l0.027,0.024Z" style="fill:#379b00;"/></g><path d="M272.323,752.821l0.044,0.043l0.046,0.049l0.045,0.053l0.045,0.056l0.045,0.058l0.044,0.062l0.045,0.065l0.044,0.067l0.044,0.071l0.044,0.073l0.044,0.076l0.045,0.079l0.044,0.082l0.044,0.084l0.044,0.087l0.045,0.089l0.044,0.092l0.045,0.095l0.045,0.097l0.045,0.099l0.045,0.101l0.045,0.104l0.045,0.106l0.045,0.108l0.045,0.11l0.046,0.113l0.091,0.23l0.091,0.237l0.092,0.245l0.092,0.25l0.093,0.257l0.092,0.262l0.093,0.268l0.092,0.271l0.093,0.276l0.093,0.279l0.093,0.283l0.092,0.285l0.092,0.287l0.092,0.288l0.092,0.29l0.091,0.291l0.091,0.29l0.09,0.29l0.089,0.29l0.089,0.288l0.087,0.286l0.087,0.284l0.086,0.282l0.167,0.552l0.161,0.535l0.155,0.515l0.147,0.491l0.138,0.462l0.128,0.43l0.117,0.394l0.106,0.354l0.092,0.31l0.078,0.264l0.107,0.367l0.038,0.13l-0.602,0.899l-0.908,-0.589l-0.016,-0.132l-0.048,-0.374l-0.035,-0.269l-0.043,-0.317l-0.05,-0.362l-0.059,-0.404l-0.066,-0.439l-0.074,-0.473l-0.083,-0.501l-0.089,-0.526l-0.098,-0.547l-0.105,-0.563l-0.055,-0.286l-0.058,-0.29l-0.059,-0.291l-0.06,-0.293l-0.063,-0.294l-0.064,-0.294l-0.066,-0.295l-0.067,-0.294l-0.069,-0.294l-0.07,-0.292l-0.072,-0.29l-0.073,-0.288l-0.074,-0.285l-0.076,-0.281l-0.076,-0.278l-0.078,-0.273l-0.079,-0.268l-0.08,-0.263l-0.08,-0.257l-0.081,-0.25l-0.082,-0.243l-0.082,-0.237l-0.083,-0.228l-0.041,-0.111l-0.042,-0.108l-0.041,-0.107l-0.042,-0.104l-0.042,-0.102l-0.041,-0.099l-0.042,-0.097l-0.042,-0.094l-0.041,-0.092l-0.042,-0.088l-0.041,-0.086l-0.041,-0.083l-0.041,-0.081l-0.041,-0.077l-0.041,-0.074l-0.04,-0.071l-0.04,-0.067l-0.04,-0.065l-0.039,-0.061l-0.039,-0.057l-0.039,-0.054l-0.038,-0.05l-0.037,-0.047l-0.036,-0.043l-0.036,-0.038l-0.038,-0.038l0,-0.277l0.277,0Z" style="fill:#379a00;"/><path d="M266.371,752.466l0.043,0.043l0.046,0.049l0.045,0.053l0.045,0.055l0.045,0.059l0.045,0.062l0.044,0.064l0.044,0.068l0.044,0.07l0.045,0.074l0.044,0.076l0.044,0.079l0.044,0.081l0.045,0.085l0.044,0.087l0.044,0.089l0.045,0.092l0.044,0.094l0.045,0.097l0.045,0.1l0.045,0.101l0.045,0.104l0.045,0.106l0.045,0.108l0.046,0.11l0.045,0.112l0.091,0.23l0.092,0.238l0.092,0.244l0.092,0.251l0.092,0.257l0.093,0.262l0.092,0.267l0.093,0.272l0.093,0.276l0.092,0.279l0.093,0.282l0.093,0.285l0.092,0.287l0.092,0.289l0.092,0.29l0.091,0.29l0.09,0.291l0.09,0.29l0.09,0.289l0.088,0.288l0.088,0.287l0.086,0.284l0.086,0.281l0.167,0.552l0.162,0.536l0.154,0.515l0.147,0.49l0.138,0.463l0.128,0.43l0.118,0.393l0.105,0.355l0.092,0.31l0.078,0.263l0.108,0.367l0.037,0.13l-0.602,0.9l-0.908,-0.59l-0.016,-0.131l-0.047,-0.375l-0.035,-0.268l-0.043,-0.317l-0.051,-0.363l-0.058,-0.403l-0.067,-0.44l-0.074,-0.472l-0.082,-0.502l-0.09,-0.526l-0.097,-0.546l-0.106,-0.564l-0.055,-0.286l-0.057,-0.289l-0.059,-0.291l-0.061,-0.293l-0.062,-0.294l-0.064,-0.295l-0.066,-0.294l-0.067,-0.295l-0.069,-0.293l-0.071,-0.292l-0.071,-0.29l-0.073,-0.288l-0.075,-0.285l-0.075,-0.281l-0.077,-0.278l-0.078,-0.273l-0.079,-0.268l-0.079,-0.263l-0.081,-0.257l-0.081,-0.25l-0.082,-0.244l-0.082,-0.236l-0.083,-0.228l-0.041,-0.111l-0.041,-0.109l-0.042,-0.106l-0.042,-0.104l-0.041,-0.102l-0.042,-0.099l-0.041,-0.097l-0.042,-0.094l-0.042,-0.092l-0.041,-0.089l-0.041,-0.086l-0.042,-0.083l-0.041,-0.08l-0.041,-0.077l-0.04,-0.074l-0.041,-0.071l-0.04,-0.068l-0.04,-0.064l-0.039,-0.061l-0.039,-0.058l-0.038,-0.054l-0.038,-0.05l-0.038,-0.046l-0.036,-0.043l-0.036,-0.039l-0.037,-0.038l0,-0.277l0.277,0.001Z" style="fill:#379a00;"/><path d="M266.113,754.514l0.065,0.036l0.066,0.04l0.066,0.042l0.067,0.045l0.067,0.047l0.067,0.05l0.068,0.053l0.068,0.054l0.068,0.057l0.069,0.06l0.07,0.061l0.07,0.064l0.07,0.066l0.071,0.068l0.071,0.07l0.072,0.072l0.072,0.074l0.072,0.076l0.073,0.078l0.074,0.08l0.074,0.081l0.074,0.083l0.074,0.085l0.075,0.086l0.076,0.088l0.075,0.09l0.076,0.09l0.077,0.093l0.076,0.094l0.154,0.191l0.155,0.197l0.156,0.201l0.156,0.205l0.157,0.21l0.158,0.212l0.158,0.216l0.158,0.219l0.158,0.22l0.158,0.223l0.157,0.224l0.158,0.225l0.156,0.227l0.156,0.226l0.155,0.227l0.154,0.226l0.152,0.225l0.151,0.224l0.15,0.223l0.147,0.221l0.146,0.219l0.143,0.216l0.141,0.213l0.138,0.21l0.135,0.207l0.262,0.399l0.248,0.38l0.232,0.358l0.215,0.334l0.197,0.305l0.176,0.274l0.154,0.24l0.13,0.204l0.18,0.284l0.063,0.101l-0.34,1.028l-1.033,-0.326l-0.043,-0.106l-0.125,-0.305l-0.091,-0.218l-0.11,-0.258l-0.126,-0.295l-0.144,-0.327l-0.16,-0.357l-0.175,-0.384l-0.189,-0.406l-0.203,-0.427l-0.106,-0.219l-0.11,-0.223l-0.112,-0.226l-0.115,-0.229l-0.118,-0.231l-0.12,-0.234l-0.123,-0.235l-0.125,-0.236l-0.128,-0.237l-0.129,-0.237l-0.132,-0.237l-0.133,-0.237l-0.135,-0.235l-0.136,-0.235l-0.138,-0.233l-0.139,-0.23l-0.14,-0.228l-0.142,-0.226l-0.141,-0.222l-0.143,-0.218l-0.143,-0.214l-0.143,-0.21l-0.143,-0.204l-0.143,-0.2l-0.142,-0.193l-0.071,-0.095l-0.071,-0.093l-0.071,-0.091l-0.071,-0.09l-0.07,-0.088l-0.07,-0.086l-0.07,-0.084l-0.07,-0.083l-0.069,-0.08l-0.069,-0.079l-0.068,-0.076l-0.068,-0.074l-0.068,-0.073l-0.067,-0.07l-0.067,-0.067l-0.066,-0.066l-0.066,-0.063l-0.065,-0.061l-0.064,-0.058l-0.063,-0.056l-0.063,-0.053l-0.062,-0.051l-0.061,-0.048l-0.061,-0.045l-0.059,-0.043l-0.058,-0.039l-0.058,-0.037l-0.056,-0.035l-0.055,-0.031l-0.057,-0.03l-0.082,-0.264l0.264,-0.083l0.063,0.033Z" style="fill:#379a00;"/><path d="M276.805,756.407c0.7,1.377 0.074,10.258 0.074,10.258" style="fill:#389c00;"/><path d="M276.905,756.359l0.017,0.036l0.017,0.04l0.017,0.042l0.016,0.045l0.015,0.047l0.015,0.049l0.014,0.051l0.013,0.054l0.013,0.056l0.013,0.058l0.012,0.06l0.012,0.062l0.011,0.064l0.011,0.067l0.02,0.138l0.019,0.146l0.017,0.154l0.017,0.161l0.015,0.167l0.013,0.174l0.013,0.18l0.012,0.185l0.01,0.191l0.01,0.196l0.009,0.2l0.008,0.204l0.007,0.208l0.006,0.212l0.006,0.215l0.005,0.218l0.005,0.219l0.004,0.222l0.003,0.224l0.006,0.45l0.005,0.453l0.003,0.451l0.002,0.448l0.002,0.44l0,0.431l0.001,0.418l0,0.401l0,0.383l0,0.361l-0.001,0.335l-0.001,0.584l-0.001,0.448l-0.001,0.286l-0.001,0.101l-0.464,0.399l-0.405,-0.458l0.013,-0.099l0.036,-0.282l0.054,-0.441l0.066,-0.577l0.036,-0.332l0.037,-0.357l0.038,-0.379l0.037,-0.398l0.036,-0.414l0.035,-0.428l0.032,-0.437l0.03,-0.445l0.027,-0.448l0.023,-0.45l0.019,-0.448l0.008,-0.222l0.007,-0.221l0.006,-0.218l0.004,-0.217l0.003,-0.213l0.002,-0.211l0,-0.207l-0.001,-0.203l-0.003,-0.198l-0.004,-0.194l-0.005,-0.189l-0.008,-0.184l-0.008,-0.178l-0.011,-0.171l-0.011,-0.165l-0.014,-0.158l-0.015,-0.15l-0.017,-0.143l-0.019,-0.135l-0.01,-0.063l-0.01,-0.062l-0.011,-0.059l-0.011,-0.057l-0.011,-0.055l-0.012,-0.052l-0.013,-0.049l-0.012,-0.047l-0.013,-0.045l-0.014,-0.041l-0.013,-0.038l-0.014,-0.036l-0.014,-0.033l-0.015,-0.031l0.052,-0.148l0.148,0.052Z" style="fill:#379b00;"/><path d="M266.943,756.94c0.806,1.058 1.019,7.402 1.019,7.402" style="fill:#389c00;"/><path d="M267.033,756.875l0.02,0.027l0.021,0.031l0.02,0.033l0.02,0.034l0.019,0.036l0.019,0.037l0.019,0.039l0.018,0.041l0.018,0.042l0.018,0.043l0.035,0.091l0.034,0.097l0.033,0.103l0.032,0.108l0.031,0.113l0.031,0.117l0.031,0.123l0.029,0.126l0.029,0.131l0.029,0.135l0.028,0.138l0.028,0.142l0.027,0.145l0.027,0.148l0.026,0.15l0.026,0.153l0.026,0.155l0.025,0.156l0.025,0.158l0.025,0.16l0.024,0.161l0.048,0.323l0.047,0.324l0.045,0.324l0.044,0.32l0.042,0.315l0.041,0.308l0.04,0.298l0.037,0.286l0.035,0.273l0.034,0.257l0.03,0.24l0.054,0.415l0.04,0.319l0.025,0.204l0.009,0.072l-0.42,0.445l-0.45,-0.413l0.003,-0.071l0.009,-0.202l0.012,-0.317l0.011,-0.415l0.005,-0.239l0.003,-0.256l0.001,-0.273l0,-0.287l-0.003,-0.298l-0.005,-0.308l-0.008,-0.315l-0.012,-0.32l-0.015,-0.324l-0.018,-0.324l-0.023,-0.323l-0.012,-0.161l-0.014,-0.159l-0.014,-0.158l-0.016,-0.156l-0.016,-0.154l-0.018,-0.152l-0.018,-0.15l-0.02,-0.147l-0.02,-0.143l-0.022,-0.141l-0.023,-0.137l-0.023,-0.133l-0.025,-0.129l-0.025,-0.124l-0.026,-0.12l-0.028,-0.114l-0.028,-0.11l-0.029,-0.104l-0.03,-0.097l-0.031,-0.092l-0.032,-0.085l-0.016,-0.04l-0.016,-0.038l-0.016,-0.036l-0.016,-0.035l-0.017,-0.032l-0.016,-0.031l-0.016,-0.028l-0.017,-0.027l-0.016,-0.024l-0.017,-0.024l0.024,-0.154l0.155,0.024Z" style="fill:#379b00;"/></g><path d="M343.53,762.999c0,-0.985 -3.966,-5.906 -8.859,-5.906c-4.892,0 -8.859,4.921 -8.859,5.906c0,0.984 6.047,1.511 9,1.511c2.949,0 8.718,-0.527 8.718,-1.511Z" style="fill:url(#_Linear40);"/><clipPath id="_clip41"><path d="M343.53,762.999c0,-0.985 -3.966,-5.906 -8.859,-5.906c-4.892,0 -8.859,4.921 -8.859,5.906c0,0.984 6.047,1.511 9,1.511c2.949,0 8.718,-0.527 8.718,-1.511Z"/></clipPath><g clip-path="url(#_clip41)"><ellipse cx="337.204" cy="757.994" rx="6.822" ry="3.799" style="fill:#bdbdbd;fill-opacity:0.360784;"/></g></g><g id="bushDownLeft"><path d="M-1.42,522.399c0.346,-3.275 4.964,-3.329 4.791,0.656c1.061,-4.292 4.931,-3.779 5.227,0.715c2.921,-3.267 4.814,-3.244 5.467,0.748c1.007,-2.724 6.311,-1.128 3.929,2.6c1.914,-2.996 5.847,-1.675 2.944,1.382c3.348,-3.525 4.117,0.15 1.44,2.407c4.654,-3.924 5.556,1.114 3.248,3.534c5.529,-2.521 8.499,1.664 4.408,5.685c4.148,0.909 1.693,7.186 -4.124,6.099c2.208,0.413 3.489,3.46 -2.094,5.061c4.509,-1.293 6.397,2.848 3.117,4.767c3.6,-2.106 7.317,1.39 4.928,2.862c2.812,-1.061 6.73,4.899 2.1,6.578c1.692,5.412 -6.717,8.631 -10.372,1.887c-6.562,-1.294 -10.282,3.436 -9.427,5.378c-0.026,3.612 3.977,8.793 12.916,3.481c-1.129,-1.798 1.384,-3.044 2.112,-1.35c-0.984,-2.291 2.571,-3.044 3.21,-0.485c1.782,-2.603 3.223,0.543 3.223,0.543c4.489,-7.117 10.317,-6.723 16.848,-2.377c-4.809,-1.755 -1.661,-6.679 1.824,-4.132c-5.493,-4.015 -2.854,-10.564 2.612,-6.291c-1.746,-3.381 1.524,-4.858 3.558,-0.96c-1.966,-3.766 1.996,-6.18 4.072,-2.123c0.123,-2.942 3.419,-3.6 3.815,-0.339c3.005,-0.796 3.554,0.968 2.338,4.571l3.483,-4.331c-0.837,-1.425 -1.988,-3.839 -1.988,-3.839c-3.963,1.381 -4.935,-4.619 -1.164,-3.875c-2.784,-0.549 -1.946,-4.444 0.566,-3.217c-1.349,-1.955 1.458,-3.32 2.521,-1.818c-0.929,-3.545 3.928,-3.672 4.223,-0.749c-0.248,-0.844 1.139,-2.458 2.215,-2.21c0.763,-0.11 1.247,0.152 1.198,1.121c2.987,-0.416 3.197,0.775 1.626,2.998c1.968,-0.169 2.889,0.325 1.305,2.405c1.015,1.098 1.433,2.125 -0.559,2.864c1.749,-0.443 3.101,1.173 2.172,2.631c0.933,-2.398 3.244,-1.316 3.292,-0.38c1.047,-1.552 2.182,-1.653 3.426,0.061c0.489,-1.237 1.978,-0.604 1.708,0.42c0.682,-1.11 2.353,0.144 1.602,0.85c1.186,-1.116 2.302,0.904 1.025,1.427c1.612,-0.079 1.969,2.268 0.117,1.955c1.877,0.317 0.778,2.503 -0.553,1.844c1.267,0.627 0.532,2.467 -0.853,1.704c1.037,0.572 -0.477,2.221 -1.206,1.063c0.276,1.751 -1.734,3.245 -2.718,0.352c1.569,4.614 -1.501,7.33 -4.658,3.554c-9.5,-0.954 -12.986,4.525 -8.795,13.63c1.238,-6.159 7.755,-6.088 9.303,-1.716c2.301,-2.706 4.732,-2.728 7.292,-0.129c1.214,-2.611 5.674,-2.833 6.224,0.872c3.247,0.107 3.58,1.695 2.242,4.132c2.222,0.118 3.679,2.364 2.699,4.842c-1.765,1.312 -4.064,0.296 -1.051,2.259c3.677,2.396 -1.61,4.295 -1.61,4.295c4.256,0.485 0.351,6.567 -1.803,3.604c0.875,1.934 -0.753,4.74 -2.684,3.416c1.107,3.485 0.11,4.584 -3.518,2.701c-0.527,3.882 -2.402,4.619 -5.656,2.136c-1.445,2.793 -3.005,3.679 -4.802,0.559c0.805,3.42 -6.019,4.291 -5.746,-0.292c-2.576,2.51 -5.25,0.524 -5.351,-0.945c-1.387,2.241 -3.898,0.85 -3.386,-0.857c-2.448,1.548 -3.93,0.972 -4.585,-1.423c-1.018,1.926 -4.231,0.363 -2.923,-1.51c0.911,-3.324 -3.23,-3.351 -4.045,-1.129c-4.703,6.446 -1.184,12.038 5.963,7.323c3.527,-4.729 9.885,6.07 2.648,6.287c3.249,-0.097 4.963,4.959 1.383,5.651c2.283,1.106 2.9,2.744 0.613,5.312c4.965,1.386 4.443,8.462 -0.251,7.664c2.349,2.977 1.877,5.036 -1.352,6.198c4.694,1.756 1.088,7.796 -2.521,5.625c-3.249,-3.811 -11.278,-2.297 -7.857,6.004c4.611,5.739 14.066,1.358 14.008,-5.415c-0.054,-6.418 8.785,-6.825 9.316,-2.024c0.082,-8.848 10.496,-6.931 10.185,-0.063c5.243,-4.631 8.433,-3.054 10.48,1.982c3.756,-8.904 19.108,-2.328 14.129,6.135c7.28,-2.536 9.197,2.336 5.703,7.01c7.137,-1.764 11.034,4.741 5.252,9.762c6.522,-4.607 10.438,12.341 2.311,12.745c6.049,1.962 4.548,10.437 -1.301,8.828c5.976,1.644 2.165,10.32 -3.081,7.853c9.234,4.342 3.788,13.819 -5.188,8.33l-0.551,0.405c6.903,12.589 -10.083,17.288 -14.806,6.994c0.831,6.214 -8.959,6.063 -8.995,1.307c1.887,-3.59 -8.424,-6.402 -17.962,-1.864c-3.032,1.443 -0.886,5.738 5.028,2.055c3.666,-1.281 4.935,-0.109 4.798,2.423c3.028,-1.413 4.462,-0.442 4.429,2.724c4.242,-0.9 5.337,0.692 4.678,3.674c4.243,-0.77 6.261,0.217 4.051,4.545c9.499,-4.264 12.008,13.33 2.883,12.645c8.181,0.614 5.035,12.485 -0.975,10.137c6.49,2.535 -0.42,11.218 -4.359,7.224c2.169,5.533 -0.033,6.776 -5.228,5.08c5.87,4.999 -3.084,9.806 -4.666,3.437c2.103,5.287 -4.514,7.39 -5.717,3.478c0.864,7.684 -11.597,5.986 -10.06,-0.424c-1.83,7.633 -11.146,3.494 -8.048,-2.468c-5.056,2.245 -6.799,0.517 -6.358,-3.831c6.34,-12.051 0.059,-13.323 -8.059,-8.388c-9.612,5.842 -7.065,10.27 4.199,9.439c3.15,0.809 3.76,5.945 -0.611,6.562c4.456,-0.407 5.99,1.789 3.6,6.255c6.399,-2.15 6.952,8.456 0.219,6.752c5.035,1.275 4.149,7.94 -1.237,6.514c0.058,0.073 0.085,0.185 0.17,0.218c5.625,2.205 0.502,9.391 -3.453,5.574c0.787,3.365 -1.201,4.335 -4.857,3.866l-49.21,-0.142l-0.038,-279.57Z" style="fill:url(#_Linear42);"/></g><g id="grass"><clipPath id="_clip43"><rect x="1129.8" y="725.786" width="40.573" height="49.957"/></clipPath><g clip-path="url(#_clip43)"><path d="M1134.13,735.75l0.056,0.069l0.162,0.202l0.261,0.329l0.166,0.211l0.188,0.24l0.209,0.269l0.23,0.297l0.249,0.325l0.269,0.351l0.286,0.377l0.303,0.402l0.319,0.427l0.335,0.451l0.349,0.473l0.363,0.496l0.376,0.518l0.387,0.539l0.398,0.558l0.204,0.287l0.205,0.291l0.208,0.296l0.21,0.301l0.213,0.305l0.214,0.31l0.216,0.314l0.218,0.318l0.219,0.322l0.222,0.326l0.222,0.331l0.224,0.334l0.226,0.338l0.226,0.341l0.227,0.345l0.229,0.349l0.229,0.352l0.23,0.356l0.231,0.358l0.231,0.362l0.231,0.365l0.232,0.368l0.232,0.37l0.232,0.374l0.232,0.376l0.232,0.379l0.231,0.381l0.231,0.384l0.231,0.386l0.23,0.389l0.23,0.39l0.229,0.393l0.227,0.394l0.227,0.397l0.226,0.398l0.225,0.401l0.223,0.401l0.222,0.404l0.22,0.404l0.219,0.406l0.217,0.408l0.215,0.409l0.213,0.409l0.211,0.411l0.209,0.412l0.206,0.413l0.204,0.413l0.202,0.414l0.199,0.415l0.197,0.416l0.193,0.415l0.191,0.416l0.187,0.417l0.185,0.416l0.091,0.209l0.09,0.208l0.09,0.209l0.088,0.208l0.088,0.208l0.086,0.209l0.086,0.208l0.085,0.208l0.084,0.209l0.083,0.208l0.083,0.208l0.081,0.208l0.08,0.208l0.079,0.208l0.078,0.208l0.078,0.207l0.076,0.208l0.075,0.207l0.074,0.207l0.073,0.208l0.072,0.206l0.071,0.207l0.069,0.207l0.069,0.206l0.067,0.206l0.067,0.206l0.065,0.206l0.064,0.206l0.062,0.205l0.062,0.205l0.06,0.205l0.059,0.204l0.058,0.204l0.056,0.204l0.056,0.204l0.054,0.203l0.052,0.203l0.051,0.203l0.05,0.203l0.049,0.202l0.047,0.202l0.046,0.201l0.044,0.201l0.043,0.201l0.042,0.2l0.04,0.2l0.038,0.2l0.038,0.199l0.035,0.198l0.034,0.199l0.033,0.198l0.031,0.197l0.029,0.197l0.028,0.197l0.026,0.196l0.025,0.196l0.023,0.195l0.021,0.195l0.02,0.194l0.018,0.194l0.016,0.193l0.015,0.193l0.013,0.193l0.011,0.186l-1.185,1.272l-1.272,-1.184l-0.002,-0.175l-0.004,-0.171l-0.005,-0.172l-0.007,-0.173l-0.008,-0.174l-0.01,-0.175l-0.011,-0.176l-0.013,-0.177l-0.014,-0.178l-0.015,-0.179l-0.018,-0.18l-0.018,-0.181l-0.02,-0.181l-0.022,-0.182l-0.023,-0.184l-0.024,-0.184l-0.026,-0.185l-0.027,-0.185l-0.029,-0.187l-0.03,-0.187l-0.031,-0.188l-0.033,-0.189l-0.034,-0.189l-0.035,-0.19l-0.037,-0.191l-0.038,-0.192l-0.04,-0.192l-0.04,-0.193l-0.042,-0.193l-0.043,-0.194l-0.045,-0.195l-0.046,-0.195l-0.047,-0.196l-0.048,-0.197l-0.049,-0.197l-0.051,-0.197l-0.052,-0.198l-0.053,-0.199l-0.054,-0.198l-0.055,-0.2l-0.057,-0.2l-0.057,-0.2l-0.059,-0.201l-0.06,-0.201l-0.061,-0.202l-0.062,-0.202l-0.063,-0.202l-0.064,-0.203l-0.065,-0.203l-0.066,-0.203l-0.067,-0.204l-0.069,-0.203l-0.069,-0.205l-0.07,-0.204l-0.071,-0.205l-0.072,-0.205l-0.073,-0.205l-0.074,-0.206l-0.075,-0.205l-0.076,-0.206l-0.076,-0.206l-0.078,-0.206l-0.078,-0.207l-0.079,-0.206l-0.161,-0.414l-0.164,-0.413l-0.168,-0.414l-0.17,-0.414l-0.173,-0.415l-0.177,-0.414l-0.178,-0.414l-0.182,-0.414l-0.184,-0.413l-0.186,-0.413l-0.189,-0.412l-0.191,-0.412l-0.193,-0.411l-0.195,-0.411l-0.196,-0.409l-0.199,-0.408l-0.2,-0.407l-0.202,-0.406l-0.204,-0.404l-0.204,-0.403l-0.206,-0.401l-0.207,-0.4l-0.209,-0.398l-0.209,-0.396l-0.21,-0.394l-0.21,-0.392l-0.212,-0.39l-0.212,-0.387l-0.212,-0.385l-0.213,-0.383l-0.212,-0.38l-0.213,-0.378l-0.213,-0.375l-0.213,-0.371l-0.213,-0.369l-0.212,-0.366l-0.212,-0.363l-0.211,-0.359l-0.211,-0.357l-0.21,-0.352l-0.209,-0.349l-0.209,-0.346l-0.207,-0.342l-0.206,-0.338l-0.205,-0.333l-0.204,-0.33l-0.202,-0.326l-0.2,-0.322l-0.199,-0.317l-0.197,-0.313l-0.195,-0.308l-0.193,-0.304l-0.191,-0.299l-0.189,-0.294l-0.371,-0.573l-0.361,-0.553l-0.35,-0.532l-0.339,-0.51l-0.326,-0.487l-0.312,-0.463l-0.299,-0.439l-0.283,-0.415l-0.268,-0.388l-0.251,-0.361l-0.233,-0.334l-0.215,-0.306l-0.196,-0.277l-0.177,-0.248l-0.155,-0.216l-0.244,-0.339l-0.152,-0.208l-0.052,-0.07l0.038,-0.308l0.307,0.041Z" style="fill:#255102;"/><path d="M1136.46,725.662l0.06,0.084l0.173,0.246l0.128,0.181l0.152,0.22l0.178,0.256l0.2,0.292l0.224,0.328l0.244,0.362l0.266,0.396l0.284,0.428l0.304,0.46l0.321,0.491l0.337,0.521l0.353,0.55l0.182,0.286l0.186,0.293l0.189,0.3l0.192,0.306l0.195,0.314l0.199,0.319l0.201,0.326l0.204,0.333l0.207,0.338l0.21,0.345l0.211,0.351l0.214,0.357l0.217,0.362l0.218,0.368l0.22,0.374l0.222,0.379l0.223,0.385l0.226,0.39l0.226,0.395l0.228,0.4l0.229,0.405l0.23,0.41l0.231,0.414l0.232,0.419l0.233,0.424l0.233,0.428l0.233,0.433l0.234,0.436l0.234,0.441l0.234,0.445l0.234,0.448l0.234,0.452l0.234,0.456l0.233,0.46l0.232,0.463l0.232,0.466l0.231,0.47l0.23,0.473l0.229,0.475l0.228,0.479l0.227,0.481l0.225,0.485l0.224,0.487l0.222,0.489l0.22,0.492l0.218,0.494l0.216,0.496l0.215,0.498l0.211,0.5l0.21,0.502l0.103,0.252l0.104,0.253l0.102,0.252l0.102,0.253l0.101,0.254l0.1,0.254l0.1,0.254l0.099,0.254l0.098,0.255l0.097,0.255l0.097,0.256l0.096,0.256l0.094,0.256l0.095,0.256l0.093,0.257l0.092,0.257l0.092,0.257l0.09,0.258l0.09,0.257l0.089,0.258l0.088,0.258l0.086,0.258l0.086,0.259l0.085,0.258l0.084,0.259l0.083,0.259l0.082,0.258l0.08,0.26l0.08,0.259l0.079,0.259l0.077,0.259l0.077,0.259l0.075,0.26l0.074,0.259l0.073,0.26l0.072,0.259l0.07,0.259l0.069,0.26l0.068,0.259l0.067,0.26l0.066,0.259l0.064,0.259l0.063,0.259l0.062,0.259l0.06,0.259l0.059,0.259l0.058,0.259l0.056,0.259l0.055,0.258l0.054,0.258l0.052,0.258l0.05,0.258l0.049,0.258l0.048,0.258l0.046,0.257l0.045,0.257l0.043,0.257l0.042,0.257l0.04,0.256l0.038,0.256l0.037,0.256l0.035,0.255l0.034,0.255l0.032,0.255l0.03,0.255l0.029,0.254l0.027,0.254l0.025,0.253l0.023,0.254l0.022,0.252l0.02,0.253l0.018,0.251l0.016,0.252l0.015,0.251l0.013,0.251l0.01,0.25l0.009,0.249l0.007,0.25l0.006,0.248l0.003,0.249l0.001,0.247l-0.001,0.247l-0.003,0.247l-0.004,0.246l-0.007,0.246l-0.009,0.245l-0.011,0.244l-0.013,0.244l-0.015,0.243l-0.017,0.242l-0.02,0.242l-0.021,0.236l-1.354,1.09l-1.09,-1.354l0.029,-0.224l0.026,-0.218l0.024,-0.22l0.022,-0.221l0.021,-0.223l0.018,-0.223l0.017,-0.224l0.015,-0.225l0.013,-0.226l0.011,-0.227l0.01,-0.228l0.007,-0.229l0.006,-0.23l0.004,-0.231l0.003,-0.231l0,-0.233l-0.001,-0.233l-0.003,-0.234l-0.004,-0.235l-0.007,-0.236l-0.008,-0.237l-0.009,-0.237l-0.011,-0.238l-0.013,-0.239l-0.015,-0.24l-0.016,-0.24l-0.018,-0.241l-0.019,-0.241l-0.021,-0.243l-0.023,-0.243l-0.024,-0.243l-0.026,-0.244l-0.027,-0.245l-0.029,-0.245l-0.03,-0.246l-0.032,-0.247l-0.033,-0.246l-0.035,-0.248l-0.036,-0.248l-0.037,-0.248l-0.039,-0.249l-0.041,-0.249l-0.041,-0.25l-0.044,-0.25l-0.044,-0.251l-0.046,-0.251l-0.047,-0.251l-0.049,-0.252l-0.05,-0.252l-0.051,-0.252l-0.052,-0.252l-0.054,-0.253l-0.055,-0.253l-0.056,-0.254l-0.058,-0.253l-0.059,-0.254l-0.059,-0.254l-0.061,-0.254l-0.063,-0.255l-0.063,-0.254l-0.065,-0.255l-0.065,-0.255l-0.067,-0.255l-0.068,-0.255l-0.069,-0.255l-0.07,-0.255l-0.071,-0.255l-0.072,-0.256l-0.073,-0.255l-0.074,-0.255l-0.075,-0.255l-0.076,-0.256l-0.077,-0.255l-0.078,-0.255l-0.079,-0.255l-0.08,-0.255l-0.081,-0.255l-0.082,-0.254l-0.082,-0.255l-0.084,-0.255l-0.084,-0.254l-0.085,-0.254l-0.086,-0.254l-0.086,-0.254l-0.088,-0.253l-0.088,-0.253l-0.089,-0.253l-0.09,-0.253l-0.09,-0.252l-0.091,-0.253l-0.092,-0.251l-0.093,-0.251l-0.187,-0.503l-0.189,-0.5l-0.192,-0.499l-0.195,-0.497l-0.196,-0.495l-0.199,-0.493l-0.2,-0.492l-0.203,-0.489l-0.204,-0.486l-0.205,-0.484l-0.207,-0.482l-0.209,-0.479l-0.209,-0.476l-0.211,-0.473l-0.212,-0.47l-0.213,-0.467l-0.213,-0.464l-0.214,-0.461l-0.214,-0.456l-0.215,-0.454l-0.215,-0.449l-0.215,-0.446l-0.216,-0.442l-0.215,-0.438l-0.215,-0.433l-0.214,-0.429l-0.214,-0.425l-0.214,-0.42l-0.213,-0.416l-0.212,-0.411l-0.211,-0.405l-0.21,-0.401l-0.209,-0.396l-0.207,-0.391l-0.206,-0.385l-0.205,-0.38l-0.203,-0.374l-0.201,-0.369l-0.199,-0.362l-0.197,-0.357l-0.195,-0.351l-0.193,-0.344l-0.19,-0.339l-0.188,-0.332l-0.185,-0.325l-0.182,-0.319l-0.18,-0.312l-0.177,-0.306l-0.173,-0.298l-0.17,-0.291l-0.331,-0.561l-0.316,-0.532l-0.3,-0.501l-0.285,-0.469l-0.267,-0.437l-0.249,-0.404l-0.229,-0.369l-0.21,-0.335l-0.188,-0.298l-0.167,-0.262l-0.143,-0.224l-0.119,-0.185l-0.164,-0.25l-0.055,-0.085l0.055,-0.305l0.304,0.058Z" style="fill:#255102;"/><path d="M1170.57,735.124l-0.123,0.265l-0.147,0.323l-0.201,0.444l-0.25,0.558l-0.142,0.321l-0.154,0.348l-0.164,0.373l-0.174,0.399l-0.184,0.424l-0.193,0.448l-0.201,0.472l-0.21,0.494l-0.219,0.516l-0.225,0.538l-0.232,0.559l-0.24,0.578l-0.245,0.598l-0.25,0.617l-0.257,0.635l-0.26,0.653l-0.265,0.669l-0.269,0.686l-0.273,0.7l-0.275,0.716l-0.278,0.73l-0.28,0.743l-0.141,0.377l-0.141,0.379l-0.141,0.383l-0.142,0.385l-0.142,0.389l-0.142,0.391l-0.142,0.394l-0.142,0.396l-0.142,0.399l-0.141,0.401l-0.142,0.404l-0.142,0.406l-0.141,0.409l-0.141,0.41l-0.14,0.412l-0.14,0.415l-0.14,0.416l-0.139,0.418l-0.139,0.419l-0.138,0.421l-0.137,0.423l-0.136,0.424l-0.136,0.426l-0.135,0.426l-0.133,0.428l-0.133,0.429l-0.132,0.43l-0.131,0.431l-0.129,0.432l-0.128,0.432l-0.127,0.434l-0.126,0.433l-0.125,0.435l-0.122,0.434l-0.122,0.435l-0.12,0.435l-0.118,0.436l-0.117,0.435l-0.115,0.435l-0.113,0.436l-0.111,0.435l-0.11,0.434l-0.107,0.435l-0.106,0.434l-0.103,0.433l-0.101,0.433l-0.1,0.432l-0.097,0.431l-0.095,0.43l-0.092,0.429l-0.09,0.428l-0.088,0.427l-0.085,0.426l-0.083,0.425l-0.08,0.423l-0.077,0.421l-0.075,0.42l-0.072,0.418l-0.069,0.416l-0.066,0.415l-0.063,0.412l-0.061,0.41l-0.057,0.408l-0.055,0.41l-1.406,1.022l-1.022,-1.406l0.075,-0.415l0.08,-0.42l0.082,-0.422l0.086,-0.424l0.088,-0.425l0.092,-0.426l0.094,-0.427l0.098,-0.429l0.099,-0.429l0.103,-0.431l0.105,-0.431l0.108,-0.432l0.11,-0.433l0.113,-0.434l0.115,-0.434l0.118,-0.435l0.119,-0.436l0.122,-0.435l0.124,-0.436l0.126,-0.437l0.129,-0.436l0.13,-0.437l0.132,-0.436l0.134,-0.437l0.135,-0.436l0.138,-0.437l0.139,-0.436l0.14,-0.435l0.142,-0.436l0.144,-0.434l0.145,-0.434l0.147,-0.434l0.147,-0.433l0.149,-0.431l0.151,-0.431l0.151,-0.431l0.152,-0.429l0.154,-0.427l0.154,-0.427l0.156,-0.426l0.156,-0.424l0.157,-0.422l0.157,-0.421l0.158,-0.42l0.159,-0.418l0.16,-0.416l0.16,-0.414l0.16,-0.413l0.161,-0.41l0.161,-0.409l0.161,-0.406l0.161,-0.404l0.162,-0.402l0.161,-0.399l0.162,-0.397l0.162,-0.394l0.161,-0.392l0.161,-0.389l0.161,-0.387l0.161,-0.383l0.161,-0.381l0.16,-0.378l0.159,-0.374l0.159,-0.372l0.316,-0.732l0.314,-0.72l0.31,-0.705l0.306,-0.69l0.302,-0.675l0.298,-0.659l0.292,-0.642l0.287,-0.625l0.28,-0.606l0.274,-0.589l0.267,-0.568l0.259,-0.549l0.252,-0.528l0.242,-0.508l0.234,-0.485l0.225,-0.463l0.214,-0.439l0.204,-0.416l0.193,-0.392l0.182,-0.367l0.17,-0.341l0.158,-0.315l0.277,-0.547l0.222,-0.436l0.163,-0.317l0.135,-0.26l0.295,-0.106l0.097,0.298Z" style="fill:#255102;"/><path d="M1163.99,731.37l-0.08,0.303l-0.097,0.37l-0.132,0.506l-0.165,0.637l-0.196,0.759l-0.224,0.877l-0.25,0.988l-0.275,1.091l-0.297,1.188l-0.316,1.279l-0.165,0.672l-0.169,0.692l-0.174,0.711l-0.176,0.73l-0.18,0.747l-0.183,0.765l-0.186,0.781l-0.188,0.796l-0.191,0.81l-0.192,0.824l-0.194,0.837l-0.196,0.849l-0.197,0.861l-0.197,0.87l-0.199,0.88l-0.198,0.889l-0.199,0.897l-0.198,0.904l-0.198,0.91l-0.197,0.916l-0.196,0.92l-0.195,0.924l-0.193,0.927l-0.192,0.929l-0.189,0.931l-0.187,0.931l-0.184,0.931l-0.181,0.929l-0.178,0.928l-0.175,0.925l-0.086,0.46l-0.084,0.46l-0.084,0.459l-0.083,0.458l-0.082,0.456l-0.081,0.455l-0.079,0.453l-0.078,0.452l-0.077,0.45l-0.076,0.448l-0.075,0.446l-0.073,0.444l-0.072,0.442l-0.071,0.439l-0.069,0.437l-0.067,0.435l-0.066,0.432l-0.065,0.43l-0.063,0.426l-0.062,0.424l-0.059,0.42l-0.059,0.418l-0.056,0.414l-0.055,0.413l-1.405,1.024l-1.024,-1.404l0.074,-0.414l0.076,-0.418l0.078,-0.421l0.08,-0.424l0.082,-0.427l0.083,-0.429l0.085,-0.432l0.086,-0.435l0.088,-0.436l0.09,-0.439l0.091,-0.441l0.093,-0.443l0.094,-0.445l0.095,-0.447l0.097,-0.448l0.098,-0.451l0.099,-0.451l0.1,-0.454l0.102,-0.454l0.103,-0.456l0.104,-0.457l0.105,-0.458l0.106,-0.459l0.107,-0.46l0.217,-0.922l0.221,-0.924l0.224,-0.926l0.226,-0.926l0.23,-0.926l0.231,-0.926l0.234,-0.923l0.235,-0.922l0.237,-0.918l0.238,-0.913l0.238,-0.91l0.24,-0.903l0.239,-0.897l0.239,-0.889l0.239,-0.882l0.237,-0.873l0.237,-0.863l0.236,-0.852l0.234,-0.841l0.231,-0.83l0.23,-0.816l0.227,-0.803l0.224,-0.788l0.221,-0.773l0.217,-0.756l0.214,-0.74l0.209,-0.723l0.205,-0.704l0.2,-0.684l0.195,-0.665l0.374,-1.265l0.35,-1.175l0.323,-1.079l0.295,-0.976l0.263,-0.867l0.23,-0.752l0.193,-0.629l0.155,-0.5l0.114,-0.366l0.094,-0.3l0.271,-0.156l0.147,0.277Z" style="fill:#255102;"/><path d="M1151.84,728.713l0.021,0.081l0.059,0.236l0.095,0.386l0.128,0.528l0.074,0.315l0.082,0.349l0.089,0.381l0.094,0.412l0.1,0.443l0.106,0.473l0.11,0.502l0.115,0.531l0.119,0.557l0.122,0.584l0.127,0.61l0.128,0.635l0.132,0.659l0.134,0.682l0.135,0.705l0.137,0.726l0.068,0.371l0.069,0.376l0.069,0.381l0.07,0.386l0.069,0.391l0.069,0.395l0.069,0.401l0.069,0.404l0.069,0.409l0.068,0.413l0.069,0.418l0.068,0.421l0.067,0.426l0.067,0.429l0.067,0.433l0.067,0.437l0.065,0.44l0.065,0.444l0.065,0.448l0.063,0.45l0.063,0.454l0.062,0.456l0.062,0.46l0.06,0.463l0.059,0.465l0.059,0.468l0.057,0.47l0.056,0.473l0.055,0.476l0.054,0.477l0.053,0.48l0.051,0.482l0.05,0.483l0.048,0.486l0.047,0.487l0.046,0.489l0.044,0.49l0.042,0.492l0.041,0.494l0.039,0.494l0.037,0.496l0.035,0.496l0.034,0.498l0.031,0.499l0.03,0.499l0.027,0.5l0.026,0.5l0.023,0.501l0.021,0.501l0.019,0.501l0.017,0.502l0.014,0.502l0.012,0.501l0.01,0.502l0.007,0.501l0.004,0.501l0.002,0.5l0,0.5l-0.004,0.499l-0.006,0.499l-0.009,0.497l-0.012,0.497l-0.014,0.496l-0.018,0.493l-0.01,0.248l-0.011,0.246l-0.011,0.247l-0.012,0.245l-0.013,0.246l-0.014,0.245l-0.015,0.245l-0.015,0.244l-0.016,0.244l-0.017,0.244l-0.018,0.243l-0.019,0.242l-0.019,0.243l-0.021,0.241l-0.021,0.242l-0.022,0.241l-0.023,0.24l-0.024,0.24l-0.024,0.239l-0.026,0.239l-0.026,0.238l-0.028,0.238l-0.028,0.237l-0.029,0.236l-0.03,0.236l-0.031,0.236l-0.032,0.234l-0.033,0.234l-0.034,0.234l-0.035,0.233l-0.036,0.232l-0.036,0.229l-1.427,0.991l-0.992,-1.427l0.045,-0.222l0.043,-0.22l0.043,-0.22l0.042,-0.221l0.041,-0.223l0.04,-0.223l0.039,-0.223l0.039,-0.225l0.037,-0.226l0.037,-0.226l0.036,-0.227l0.035,-0.227l0.034,-0.229l0.034,-0.229l0.033,-0.23l0.032,-0.23l0.031,-0.232l0.03,-0.231l0.03,-0.233l0.029,-0.233l0.028,-0.234l0.027,-0.234l0.027,-0.235l0.026,-0.236l0.025,-0.236l0.024,-0.236l0.023,-0.237l0.023,-0.238l0.022,-0.238l0.022,-0.239l0.02,-0.239l0.02,-0.239l0.038,-0.481l0.035,-0.482l0.032,-0.484l0.03,-0.485l0.026,-0.486l0.024,-0.488l0.022,-0.489l0.019,-0.489l0.017,-0.491l0.014,-0.491l0.011,-0.492l0.01,-0.493l0.006,-0.493l0.005,-0.493l0.003,-0.494l0,-0.493l-0.002,-0.494l-0.004,-0.494l-0.006,-0.493l-0.008,-0.493l-0.011,-0.493l-0.012,-0.492l-0.013,-0.491l-0.016,-0.491l-0.018,-0.489l-0.019,-0.489l-0.021,-0.488l-0.023,-0.486l-0.024,-0.486l-0.026,-0.483l-0.027,-0.483l-0.029,-0.48l-0.031,-0.479l-0.031,-0.477l-0.034,-0.475l-0.034,-0.473l-0.036,-0.471l-0.036,-0.469l-0.038,-0.466l-0.04,-0.464l-0.04,-0.461l-0.041,-0.458l-0.042,-0.456l-0.044,-0.453l-0.044,-0.449l-0.045,-0.447l-0.046,-0.443l-0.046,-0.44l-0.047,-0.436l-0.048,-0.433l-0.049,-0.43l-0.049,-0.425l-0.05,-0.422l-0.05,-0.417l-0.05,-0.414l-0.051,-0.409l-0.052,-0.405l-0.051,-0.401l-0.052,-0.396l-0.053,-0.392l-0.052,-0.386l-0.052,-0.382l-0.053,-0.377l-0.053,-0.372l-0.105,-0.729l-0.104,-0.706l-0.104,-0.685l-0.103,-0.661l-0.102,-0.637l-0.099,-0.613l-0.097,-0.586l-0.095,-0.561l-0.092,-0.532l-0.089,-0.505l-0.084,-0.475l-0.081,-0.445l-0.077,-0.415l-0.071,-0.383l-0.067,-0.35l-0.061,-0.317l-0.104,-0.531l-0.078,-0.387l-0.049,-0.237l-0.017,-0.081l0.162,-0.263l0.262,0.164Z" style="fill:#255102;"/></g></g><ellipse cx="1177.79" cy="793.614" rx="108.341" ry="18.362" style="fill:url(#_Linear44);"/><g id="tree"><clipPath id="_clip45"><rect x="1143.51" y="531.946" width="136.817" height="268.398"/></clipPath><g clip-path="url(#_clip45)"><path d="M1280.09,800.344l-136.577,-0.466c0,0 65.362,-5.873 81.692,-22.631c36.613,-37.573 11.82,-243.846 11.82,-243.846l43.305,-1.455l-0.074,251.52" style="fill:#4f3018;"/><clipPath id="_clip46"><path d="M1280.09,800.344l-136.577,-0.466c0,0 65.362,-5.873 81.692,-22.631c36.613,-37.573 11.82,-243.846 11.82,-243.846l43.305,-1.455l-0.074,251.52"/></clipPath><g clip-path="url(#_clip46)"><path d="M1237.19,534.113c8.437,123.043 9.688,208.029 -4.173,235.989c-21.592,22.09 -42.368,25.446 -65.515,28.813c0,0 61.73,-2.582 76.834,-17.494c18.517,-18.281 11.473,-220.947 -2.862,-247.984" style="fill:#5d381c;"/><path d="M1237.48,532.398c8.437,123.042 5.628,208.029 -8.233,235.989c-21.591,22.09 -42.367,25.446 -65.514,28.813c0,0 61.73,-2.582 76.834,-17.494c18.517,-18.281 11.248,-220.27 -3.087,-247.308" style="fill:#734523;"/></g></g><clipPath id="_clip47"><rect x="1136.84" y="298.447" width="145.393" height="292.461"/></clipPath><g clip-path="url(#_clip47)"><path d="M1281.49,567.111c2.599,12.8 -3.261,12.496 -7.854,8.694c0.082,8.426 -8.169,9.667 -10.908,3.155c2.871,6.413 -1.916,9.925 -5.048,7.725c1.159,4.798 -7.334,6.61 -6.666,-0.545c-3.348,0.772 -6.693,-4.207 -1.342,-5.556c8.817,-6.686 1.84,-10.064 -1.827,-10.404c-9.652,-0.895 -2.321,2.065 -7.643,5.16c-1.966,5.037 -5.67,3.602 -5.308,-0.163c0,0 -1.746,1.153 -2.168,-1.579c-0.144,-0.932 0.809,-2.426 0.916,-3.254c-1.867,5.912 -7.62,6.524 -8.453,2.37c1.603,-6.668 -2.931,-8.425 -2.931,-8.425c-2.22,-1.07 -3.687,1.78 -0.275,3.14c2.449,0.708 1.84,5.018 -1.017,4.673c1.028,2.799 -2.398,4.337 -3.705,1.502c-0.502,2.078 -2.56,3.201 -2.861,-0.185c-6.053,6.552 -9.258,5.402 -9.79,-2.97c-2.573,4.124 -3.712,3.125 -3.295,-3.435c-1.762,3.319 -6.463,-1.282 -3.433,-3.578c5.153,-0.524 7.824,1.544 8.252,-2.535c0.388,-3.699 -5.918,3.856 -5.593,-4.102c0.055,-1.344 -2.348,2.303 -3.825,2.328c-5.524,-0.894 -3.904,-2.86 -1.345,-4.968c-4.757,0.838 -5.104,-6.799 0.641,-5.788c-2.22,-1.981 -4.505,-5.551 0.64,-5.788c13.07,6.82 12.126,-2.132 1.239,-3.566c-3.532,1.534 -3.41,-3.363 1.344,-3.87c-6.437,-0.205 -9.659,0.172 -7.368,-3.065c-4.408,6.228 -8.06,3.114 -5.403,-2.547c-5.725,2.387 -5.825,-1.55 -4.04,-4.138c-2.596,-3.748 -2.2,-8.405 4.824,-3.415c-1.007,-2.479 -1.268,-4.081 1.13,-2.559c7.879,0.015 1.185,-9.46 4.019,-9.1c3.196,0.405 9.438,-0.921 11.021,-5.525c-3.265,-4.268 -7.072,-2.964 -11.385,3.529c-2.804,4.939 -5.282,5.404 -7.387,0.777c2.312,-4.051 -3.161,-5.918 -4.89,-1.386c-1.67,4.379 -5.55,1.752 -3.802,-1.606c-3.834,1.116 -4.819,-1.221 -2.573,-3.427c-2.464,-0.384 -3.305,-1.488 -1.103,-3.942c-3.084,-0.414 -3.071,-3.127 -0.703,-4.024c-1.786,-0.868 -1.342,-3.063 0.327,-2.438c-1.744,-2.452 -1.483,-3.549 1.375,-2.891c2.34,1.041 6.697,0.922 5.979,-2.755c1.757,-2.776 0.902,-3.79 -0.954,-4.128c-1.724,4.796 -3.899,4.472 -6.3,1.557c-1.058,2.461 -2.037,2.784 -2.891,-0.256c1.013,3.607 -4.316,4.131 -3.282,-0.29c-0.254,1.988 -2.592,1.726 -2.494,-0.221c0.874,-2.352 0.366,-2.753 -2.235,-0.198c-2.296,1.742 -3.02,0.726 -2.615,-2.27c-1.823,1.888 -3.849,-0.062 -1.998,-2.388c-3.669,1.975 -4.735,0.991 -3.313,-2.221c-1.694,-0.232 -3.159,-0.252 -3.508,-1.022c-0.557,-1.228 -0.45,-2.144 2.48,-3.872c-4.941,-1.918 -4.938,-3.449 -0.98,-4.671c-1.54,-1.395 -1.31,-2.335 0.987,-2.744c-1.22,-1.989 -0.992,-3.195 1.201,-3.337c4.333,2.395 4.359,0.624 1.437,-3.996c-1.801,-2.849 -0.46,-3.319 2.47,-2.584c-0.783,-3.979 2.747,-3.722 2.285,-2.197c4.692,8.533 32.009,8.655 5.282,-3.355c-0.603,-6.748 -2.581,-4.104 -4.739,-0.226c-1.986,1.931 -3.422,2.415 -3.284,-1.231c-2.657,1.937 -3.915,2.032 -2.768,-1.039c-1.37,2.084 -4.562,1.089 -2.868,-1.076c4.826,-2.624 1.694,-7.509 1.694,-7.509c-0.14,1.25 -0.685,1.51 -1.552,0.979c-1.641,4.658 -7.6,3.531 -5.148,-3.154c-2.466,1.918 -3.634,-2.233 -0.682,-2.729c-3.353,-1.209 -2.871,-5.328 0.724,-4.195c-1.888,-1.87 -1.168,-5.225 1.859,-2.79c1.049,0.844 1.761,-0.383 1.394,-0.944c-1.435,-2.191 0.69,-4.403 2.688,-1.95c0.285,0.349 1.231,0.336 1.703,-0.181c0.465,-0.51 0.445,-1.357 -0.109,-1.559c-3.663,-1.339 -1.41,-4.962 0.978,-3.014c-0.033,-1.259 0.621,-1.358 1.477,-0.61c-1.038,-2.438 1.18,-3.485 2.409,-2.593c1.215,0.883 13.694,1.268 14.787,-3.147c1.36,-4.984 -13.16,-1.56 -17.824,-0.898c-7.486,1.091 -9.635,-1.723 -6.509,-8.398c-13.668,0.2 -14.155,-5.574 -6.716,-14.942c-7.832,-4.545 -6.92,-8.453 0.271,-11.903c-3.789,-9.21 -0.187,-11.58 7.89,-9.81c1.134,-12.172 5.085,-14.078 12.494,-3.369c4.313,-11.426 15.182,-0.654 11.674,10.58c0,0 2.183,-6.526 7.407,-3.052c3.499,2.326 2.27,9.915 2.27,9.915c4.175,1.43 7.819,-1.002 10.321,-4.659c5.225,-7.638 5.464,-20.619 -4.856,-14.907c-8.296,4.592 -6.365,-1.638 -6.298,-7.18c-10.574,-3.502 -9.599,-8.994 -3.683,-11.779c-8.774,-14.259 0.338,-12.839 9.973,-10.687c-7.074,-12.306 14.32,-12.151 10.176,-0.132c3.689,-10.698 10.685,-11.594 10.178,-0.737c4.264,0.08 6.093,-2.704 3.796,-10.345c-4.716,-9.942 -2.708,-13.031 5.717,-9.58c7.562,-10.516 10.667,-0.396 10.789,7.148c-0.159,-9.853 7.435,-15.126 7.573,-2.218c0.716,10.124 4.392,13.057 6.516,9.881c5.244,-7.846 -1.712,-9.513 -2.79,-14.83c-6.064,-7.515 3.061,-10.114 6.353,-2.579c-3.32,-7.598 5.775,-11.777 7.175,-5.476c5.591,-4.415 8.21,-4.158 5.499,4.48c5.761,-3.717 7.247,5.135 1.52,9.942c3.363,2.953 7.781,-1.899 6.837,-8.282c-0.024,-0.161 -0.049,-0.326 -0.076,-0.494c-0.682,-7.928 10.245,-4.834 6.508,2.198c4.552,-8.565 9.289,-4.209 7.778,6.336l-1.864,251.414Z" style="fill:url(#_Linear48);"/></g><path d="M1261.57,637.549l-26.215,-4.756l-0.653,14.627l24.081,4.68l2.787,-14.551Z" style="fill:#4f3018;"/><clipPath id="_clip49"><path d="M1261.57,637.549l-26.215,-4.756l-0.653,14.627l24.081,4.68l2.787,-14.551Z"/></clipPath><g clip-path="url(#_clip49)"><path d="M1254.79,636.16l-18.92,-3.727l1.858,4.185l7.685,-0.225l9.377,-0.233Z" style="fill:#5d381c;"/><path d="M1250.71,635.58l-15.31,-2.999l1.616,2.794l6.167,0.08l7.527,0.125Z" style="fill:#734523;"/></g><ellipse cx="1234.88" cy="640.189" rx="4.433" ry="7.384" style="fill:#734523;stroke:#181818;stroke-width:0.05px;"/><ellipse cx="1234.62" cy="640.221" rx="3.319" ry="5.549" style="fill:#734523;stroke:#292929;stroke-width:0.05px;"/><ellipse cx="1234.57" cy="640.156" rx="1.927" ry="3.617" style="fill:#734523;stroke:#252525;stroke-width:0.05px;"/><ellipse cx="1234.47" cy="639.927" rx="1.043" ry="2.111" style="fill:#734523;stroke:#2f2f2f;stroke-width:0.05px;"/><ellipse cx="1234.5" cy="639.894" rx="0.519" ry="1.259" style="fill:#734523;stroke:#383838;stroke-width:0.05px;"/></g><defs><linearGradient id="_Linear1" x1="0" y1="0" x2="1" y2="0" gradientUnits="userSpaceOnUse" gradientTransform="matrix(-3.32512,-299.261,299.261,-3.32512,652.365,234.295)"><stop offset="0" style="stop-color:#44d8d5;stop-opacity:1"/><stop offset="0.45" style="stop-color:#7be4e1;stop-opacity:1"/><stop offset="1" style="stop-color:#fdffff;stop-opacity:1"/></linearGradient><linearGradient id="_Linear3" x1="0" y1="0" x2="1" y2="0" gradientUnits="userSpaceOnUse" gradientTransform="matrix(17.3922,-242.576,242.576,17.3922,757.367,485.508)"><stop offset="0" style="stop-color:#2c7f3d;stop-opacity:1"/><stop offset="1" style="stop-color:#5bc672;stop-opacity:1"/></linearGradient><linearGradient id="_Linear5" x1="0" y1="0" x2="1" y2="0" gradientUnits="userSpaceOnUse" gradientTransform="matrix(3.19775,75.1472,-75.1472,3.19775,300.317,236.716)"><stop offset="0" style="stop-color:#fff;stop-opacity:1"/><stop offset="1" style="stop-color:#6ed137;stop-opacity:1"/></linearGradient><linearGradient id="_Linear6" x1="0" y1="0" x2="1" y2="0" gradientUnits="userSpaceOnUse" gradientTransform="matrix(3.19775,79.9438,-79.9438,3.19775,1051.79,220.728)"><stop offset="0" style="stop-color:#fff;stop-opacity:1"/><stop offset="1" style="stop-color:#6ed137;stop-opacity:1"/></linearGradient><linearGradient id="_Linear8" x1="0" y1="0" x2="1" y2="0" gradientUnits="userSpaceOnUse" gradientTransform="matrix(-24.85,168.43,-169.348,-24.7153,354.254,728.374)"><stop offset="0" style="stop-color:#276d00;stop-opacity:1"/><stop offset="1" style="stop-color:#56f000;stop-opacity:1"/></linearGradient><linearGradient id="_Linear37" x1="0" y1="0" x2="1" y2="0" gradientUnits="userSpaceOnUse" gradientTransform="matrix(73.2398,-32.3889,32.3889,73.2398,18.4411,273.973)"><stop offset="0" style="stop-color:#194600;stop-opacity:1"/><stop offset="1" style="stop-color:#4bd100;stop-opacity:1"/></linearGradient><linearGradient id="_Linear38" x1="0" y1="0" x2="1" y2="0" gradientUnits="userSpaceOnUse" gradientTransform="matrix(14.7374,-48.5521,48.5521,14.7374,281.031,766.377)"><stop offset="0" style="stop-color:#6e6e6e;stop-opacity:1"/><stop offset="0.21" style="stop-color:#858b87;stop-opacity:1"/><stop offset="0.43" style="stop-color:#9daaa1;stop-opacity:1"/><stop offset="1" style="stop-color:#a8b9ad;stop-opacity:1"/></linearGradient><linearGradient id="_Linear40" x1="0" y1="0" x2="1" y2="0" gradientUnits="userSpaceOnUse" gradientTransform="matrix(-19.4267,14.1271,-14.1271,-19.4267,345.993,750.559)"><stop offset="0" style="stop-color:#c2c2c2;stop-opacity:1"/><stop offset="1" style="stop-color:#87a18f;stop-opacity:1"/></linearGradient><linearGradient id="_Linear42" x1="0" y1="0" x2="1" y2="0" gradientUnits="userSpaceOnUse" gradientTransform="matrix(168.034,-129.235,129.235,168.034,31.0989,612.676)"><stop offset="0" style="stop-color:#194600;stop-opacity:1"/><stop offset="1" style="stop-color:#4bd100;stop-opacity:1"/></linearGradient><linearGradient id="_Linear44" x1="0" y1="0" x2="1" y2="0" gradientUnits="userSpaceOnUse" gradientTransform="matrix(216.683,0,0,36.7244,1069.44,793.614)"><stop offset="0" style="stop-color:#211f06;stop-opacity:0.235294"/><stop offset="0.45" style="stop-color:#1b1604;stop-opacity:0.458824"/><stop offset="1" style="stop-color:#0b0000;stop-opacity:1"/></linearGradient><linearGradient id="_Linear48" x1="0" y1="0" x2="1" y2="0" gradientUnits="userSpaceOnUse" gradientTransform="matrix(-63.4788,-216.26,184.418,-74.4393,1260.9,395.395)"><stop offset="0" style="stop-color:#194600;stop-opacity:1"/><stop offset="1" style="stop-color:#4bd100;stop-opacity:1"/></linearGradient></defs></svg>