<svg id="buttonStart" cursor="pointer" height="42.35154mm" viewBox="0 0 44.441616 42.351538" width="44.441616mm" xmlns="http://www.w3.org/2000/svg" xmlns:xlink="http://www.w3.org/1999/xlink"><linearGradient id="linearGradient25083" gradientUnits="userSpaceOnUse" x1="3.1156421" x2="3.4486864" y1="385.69043" y2="364.41309"><stop id="stop25077" offset="0" stop-color="#010101"/><stop id="stop25079" offset="1" stop-color="#010101" stop-opacity="0"/></linearGradient><g id="g25153" transform="translate(19.014959 -346.06819)"><ellipse id="ellipseClick" cx="3.2058499" cy="367.24396" rx="21.170809" ry="20.125771" style="fill:#008a56;fill-rule:evenodd;stroke-width:2;stroke-linecap:round;stroke-linejoin:round;stroke-miterlimit:1.41420996;stroke:url(#linearGradient25083)"/><path id="path23066" d="m-7.7886088 351.74722c-.5607443.0156-1.0653282.47837-1.0870119 1.06494-.4028029 2.57397-.7532851 5.15762-1.0496568 7.74626-.0743.68685.5506885 1.21843 1.1795331 1.2765.6763478.0876 1.3661764.27174 2.0489225.1734.2022698-.0514.3891869-.1619.5388043-.30891.3971897.64737 1.2116091.66135 1.8700562.76817-1.1230897 1.10915-1.4190491 2.91453-.827532 4.37069.5532809 1.48043 2.0207564 2.69324 3.6308838 2.5499.2761326-.0131.57500417-.0771.82521779-.14128-.214464.53285-.20700767 1.15919-.0505552 1.7067.12090208.24403-.10817265-.0838-.18718965-.13075-.67512944-.65703-1.66720794-.88207-2.56866864-.67867-.1635966.008-.3818692.13156-.5001942.0959-.205113-.76703-.2730347-1.58689-.6142848-2.30856-.3013761-.53183-.9756867-.6068-1.5066533-.44971-.6621994.18624-1.4354652.21064-1.96143.71056-.4752311.56388-.1591718 1.34538-.060981 1.98585.5153709 2.42589 1.0270078 4.85409 1.6138921 7.26302.1011431.58455.6064439 1.07933 1.2068941 1.04545.7193507-.0762 1.4466398-.22676 2.1166174-.50974.2205395-.0845.3956322-.32152.5186951-.46683.4766776.35526 1.0731836.18487 1.5950544.0599.28234541-.13404.32931768.009.35332402.28248.19184082.5787.80997489.85201 1.37696549.80987.63842929-.0249 1.29544899.0637 1.91906769-.0841.1716393-.0476.2952022-.40705.4439423-.33061.7675993.66998 1.8623496.99304 2.8565133.75727.5808916.22779 1.2123323.28989 1.8231731.39051.5430153.056 1.1648565-.16556 1.3540414-.73363.210492-.5279.2566906-1.10472.373841-1.65802.6319082 1.18236 1.9246302 1.98087 3.2587602 1.90671 1.234484.0456 2.520852-.45783 3.261012-1.49356.07827-.0961.155095-.23809.219232-.31881.249414.73108 1.009435 1.25346 1.774678 1.10431 1.094624-.14269 1.71476-1.5384 1.198935-2.50317.440777-.2925.535013-.86145.468481-1.35599-.116116-2.12762-.240031-4.2575-.47651-6.37513-.01602-.72851-.773787-1.16994-1.428328-1.09796-.534372.0193-1.069872.0369-1.601442.099-.573447-2.52203-1.095578-5.05756-1.728682-7.56482-.08977-.53657-.53718-.9742-1.079876-.98655-.714825-.007-1.423381.18517-2.096944.41515.106702-.95035.22372-2.00347-.333252-2.84259-.568131-.97562-1.7137315-1.46724-2.8022562-1.39156-.2946806-.0132-.5827249.13691-.8524574-.0279-.6965268-.15262-1.4207019-.27074-2.1334979-.21472-.5189755.0983-.8908797.57145-.9609764 1.09097-.1810278-.58333-.3320585-1.38126-1.0262417-1.52759-.6393101-.13566-1.2569771.19978-1.8684274.34438-.44409959.13412-.94417657.34391-1.11013153.82668-.54562607-.39225-1.23590227-.14701-1.82131677-.00096-.1382279-1.37735-1.2102448-2.59437-2.5564225-2.8436-1.0459152-.23352-2.1148144-.35383-3.17519-.49135-.082448-.004-.1650138-.006-.2475539-.005-.037752-.003-.075489-.004-.1128713-.003zm4.8927788 6.74361c.1057361.008.1141794.31255.178237.45793.014769.0513.029368.10272.044134.15408.065883.23835.2387755.73738.012888.24161-.1277357-.24801-.2533562-.49731-.3791875-.7463.06253-.08.1086768-.11005.1439211-.10732zm1.1099835 2.82357c.2623134.18363-.097329.17189 0 0zm12.5804095.42322c.03002.011.02979.24042.07544.3407-.272909.0736-.316516.0586-.141987-.18758.03308-.11794.0529-.1581.06654-.15312zm-8.2400717.32248c-.096097.36031-.1849304.72287-.2737166 1.08511-.051918-.30563-.1547156-.63999-.1855829-.92757.1509517-.0437.325971-.11994.4592995-.15754zm6.0169948.38767c.1010838.0136.2020882.0273.3031675.041.230598.0292.4612437.0612.6935998.0713-.1960395.0987-.3925603.29818-.5575674.38074-.1255006-.18215-.2742338-.34736-.4391997-.49318zm-3.7069304 6.25862.018903.0358c.3650315.58499 1.1073226.6702 1.7119565.82854-.1133824.54931-.2003047 1.10385-.3001377 1.65576-1.0577243-.27877-2.2344557-.0458-3.0941689.6465.029858-.19209-.266319-.34279-.1736899-.49387.5202084-.8009.4845376-1.94493-.1412224-2.6767.6361941.12607 1.392257.44657 1.9783496.005zm10.1477053.43488.05558.77993c.03693.60565.09364 1.25328.117888 1.83343-1.189984-1.11423-3.066296-1.06404-4.432171-.32331-.149757.0825-.294165.17506-.430502.27898.08972-.59942.20521-1.19514.282454-1.79627.934843.23434 1.989169.10979 2.785478-.46677.55093-.0141 1.088175-.17512 1.621266-.30599z" fill="#f9f9f9" fill-rule="evenodd"/><path id="path23135" d="m-6.6867814 354.79357c-.5898354-.0191-1.1208377.50507-1.1457871 1.08917-.3298076 2.07056-.6276895 4.14811-.8400765 6.23418-.1015689.71076.5698916 1.30093 1.2382675 1.34809.6348187.0774 1.300895.22012 1.9304557.048.1175526-.10763.1992461-.0462.2964218.0491.2559566.19394.6032127.26343.8912038.32312-.7311805 1.00563-.8554651 2.39958-.3359989 3.52666-.6543479-.004-1.3042275.16814-1.9160792.38896-.5292563.2036-.8660078.78865-.7442857 1.34855.4155642 2.14929.9149234 4.28246 1.4362735 6.40836.1087537.45928.2763519.97531.7511902 1.17379.5126068.25012 1.0981313.0442 1.6241802-.0522.4179031-.10674.8603618-.24978 1.1804361-.53651.4089016.12121.8490098.0722 1.2563598-.0313.15699764.52385.69037834.87223 1.22934013.85886.61488543.0266 1.25568587.0744 1.85150647-.10508.1378702-.0626.2309274-.24287.3632988-.0713.609779.43712 1.3806015.54294 2.1121861.48205.4508883.0421.8845481.21447 1.3416358.23831.5511186.0801 1.2305826-.0117 1.5319579-.54074.1565182-.29241.2331644-.6192.2981992-.94213.628683.72806 1.5848936 1.17332 2.5527788 1.11149.86644.0316 1.724994-.28534 2.399563-.82085.145298-.10502.279322-.33304.402794-.38929.363385.48357.993875.74821 1.590177.60519.938639-.17741 1.523154-1.30081 1.184556-2.18175.448117-.43788.302591-1.11832.297818-1.67871-.114351-1.62564-.189542-3.2587-.431006-4.87164-.125152-.65085-.852744-.97887-1.464015-.91586-.34303.009-.685288.0355-1.028189.0478-.480054-1.97008-.886793-3.96438-1.427185-5.92123-.114108-.50927-.581416-.90593-1.101929-.92839-.47993.0101-.9559582.0991-1.4177354.22672.055154-.79541.012569-1.68406-.5645584-2.29851-.5385843-.6744-1.4031795-1.03289-2.2596056-.98381-.3502481.028-.6991275.0241-1.0366676-.0805-.5671115-.0756-1.1614314-.18858-1.7257883-.0512-.1984506.0739-.3664587.21167-.5001212.37378-.1722564-.48995-.6631919-.84632-1.1906129-.78537-.6584723.0611-1.30553125.27086-1.89661485.56252-.14276934.0688-.25819367.21182-.36297455.30292-.37256314-.14071-.7756497-.0411-1.1501489.0356-.2462082-1.13832-1.2400148-2.04109-2.3807083-2.23373-.9369779-.17284-1.8866441-.33538-2.8405124-.36284zm.3601481 1.51571c.8480267.12944 1.7372308.15709 2.5650568.42049.7747176.26964 1.0185811 1.24407.8156842 1.96908-.1274364.5259-.5328805 1.02102-1.100879 1.06955-.2866966.0402-.375774.39138-.2049232.60307.3541386.73039.7483267 1.44031 1.1243149 2.15946-.3978575-.0548-.7957787-.10908-1.1936825-.16353-.3601991-.77892-.6493736-1.59491-1.061141-2.34788-.1686264-.25716-.5856959-.0959-.5697435.20047-.09038.62705-.1614602 1.26345-.2566837 1.88384-.3146924-.0327-.637343-.071-.9576766-.11805.244916-1.89702.4976038-3.79096.7589852-5.68563l.041092.005zm8.1423069 1.74285c.2560029.91949.579779 1.82724.7303121 2.77175.060085.6989-.6032833 1.16235-1.1861712 1.37416-.51543904.18711-1.09530488.25268-1.6318536.13106-.47843129-.14881-.7296833-.62332-.8330551-1.08212-.2266998-.73087-.4433954-1.46511-.6371796-2.20546.264723-.0871.5324555-.16529.80235671-.23472.25924967.81063.43927336 1.65657.76148975 2.44774.43074309.69963 1.71361074.4343 1.80267884-.39761.022111-.48393-.192962-.94543-.2921618-1.41327-.1125088-.4017-.225894-.79646-.3260421-1.20318.2721741-.0788.5282153-.14525.8036501-.20758zm2.5145769.28361c.2619232.028.5105225.0561.7740888.0915-.096069.23238.022492.59229.321157.5194.3325194-.16356.6349634-.47535 1.0416557-.43084.6179076-.023 1.3011116.41955 1.2758253 1.09225-.01716.95818-.1899539 1.89725-.2874562 2.85077-.2798221-.0229-.5589946-.0548-.8365241-.0974.051341-.84948.2550523-1.70082.2084652-2.56377-.064393-.63716-.8814715-.90037-1.3879322-.59315-.4672992.23903-.5198054.80492-.5718601 1.26665-.075514.54617-.1314427 1.10561-.2102241 1.64383-.279198-.0236-.5578437-.0541-.8355538-.0913.136871-1.23497.2827227-2.46209.4384941-3.69496l.041151.004zm6.0531405 3.28119c.482322 2.05802.953758 4.12299 1.410386 6.18569-.268629.0598-.553121.14166-.814797.16847-.02054-.32594-.496542-.42744-.629026-.1216-.227594.48231-.8354292.70403-1.3435097.65286-.7579003-.0955-1.3757268-.69655-1.5695816-1.42329-.2784338-.79063-.066934-1.77082.6445358-2.26239.3718719-.28689.8802234-.28708 1.3190359-.2045.2127993.10456.5350898.29613.6974626.0169.114593-.28802-.08051-.59667-.1060212-.89037-.1459049-.65404-.3023422-1.30078-.437577-1.95498.2731364-.0688.5470252-.13475.8219042-.19626zm-12.081162.94681c.3166144-.008.2756976.4676-.020354.46621-.3109095.048-.2130193-.45581.020354-.46621zm10.2131397.50096c.1513482.0124.3169248.34468.062919.31479-.1796184.017-.3451127-.22736-.1098455-.30364.014818-.002.030812-.0175.046926-.0112zm-8.221541.83231c.23210266 1.16414.46080919 2.34797.67336992 3.51632-.27743221.0548-.56850566.12542-.82594321.15667-.0114517-.31012-.45649253-.46119-.61169195-.16946-.25606312.48914-.84404706.67747-1.36762836.61475-.8982299-.11973-1.5469759-.98559-1.5993849-1.86179-.07481-.59386.082538-1.23536.5489047-1.63789.4745894-.50165 1.3110035-.62319 1.8677692-.18792.26304067.18375.56301144-.12936.44625901-.40288.28152423-.0553.55813433-.11272.84056057-.16289.009263.045.018523.0901.027785.13509zm2.7590633-.0815c.2478038.0521.4915144.10592.7320894.1645-.090243.22785-.064218.57878.2485252.58419.3222257-.13054.6088771-.41866.9908725-.36433.5603343.009 1.1746038.36006 1.2547445.95642.046355.626-.1865311 1.22285-.2955893 1.83569-.093813.41501-.1881047.82991-.2799703 1.24536-.2773651-.059-.5538235-.12232-.8292537-.18979.1539153-.83787.4444423-1.67327.4737905-2.53501.010988-.52005-.5310649-.87125-1.0133266-.79289-.5362002.0198-.8735909.52996-.9445911 1.01679-.1528095.62203-.2826729 1.24933-.4289634 1.87034-.2752438-.0575-.5497442-.11864-.8230346-.18478.2605269-1.20711.5227767-2.42331.8284466-3.62395.028753.006.057507.0116.08626.0175zm-3.56521681 3.70643c-.001633-.006.0106643-.0393 0 0zm14.79313781 1.08876c.124266 1.55213.242046 3.10308.345932 4.65583-.337246.0321-.674923.06-1.012841.084-.115501-1.63315-.248773-3.2677-.361037-4.89879.335631-.0297.671693-.0548 1.007995-.0755.0066.0782.0133.15637.01995.23456zm-17.6999285.3413c.5014272.37305 1.1192977.57916 1.746384.53939.1580941.0194.3985557-.0434.5101358.008-.054426.10563.065374.48358-.1041915.35261-.6066609-.34779-1.34292-.38487-2.0135677-.23133-.064201-.22869-.1140753-.46107-.1705034-.69173zm-1.5701467.0338c.2391473.91325.3946907 1.85004.6702204 2.75244.1195974.28376.5381536.19735.5972043-.0844.4013416-.71648 1.6172131-.87487 2.0891671-.15045.2986878.48222.3230222 1.07836.4853601 1.60932.1093558.46491.21769954.9301.31756397 1.39716-.27435797.0664-.54935397.13021-.82497407.19117-.2184487-.82152-.3313163-1.6912-.651401-2.48709-.2831326-.5659-1.1515998-.58293-1.516515-.088-.3648225.39376-.2120396.95804-.108698 1.42178.1092515.53034.26407 1.07847.3492279 1.59697-.2708623.0682-.5407843.12314-.813424.18673-.4805027-2.06879-.9565534-4.14354-1.4281542-6.21632.2748813-.0629.5514903-.12138.8229535-.17428l.010213.0401zm8.6568057.0495c.3049926.31945.7505209.43444 1.1632332.54435-.045222.26714-.090895.53427-.1421534.80032-.7185883-.0976-1.4707013.0202-2.1009591.38792.2387571-.52042.2767074-1.15179.072449-1.68863.332267.0675.6940327.0742 1.0074305-.044zm-2.84427559.24806c.53563979.0129.64012419.80944.22001419 1.05726-.37062369.24217-.83629722-.17684-.753007-.5782.0267267-.2632.26355244-.49092.53299281-.47906zm10.97995909.1174c.03246.38121.0595.76286.08489 1.1446-1.01089-.55836-2.2887993-.51025-3.3086147-.00008.054556-.18197.023466-.47876.136556-.58555.7171676.0987 1.4689027-.0399 2.0875747-.41935.328652-.0746.668561-.10194.994749-.19368l.0037.0412zm-5.3020699.23011c.2207946.0422.4609841.0715.6687661.1271-.3154206 2.09564-.6588764 4.18527-1.0151039 6.27401-.2804555-.0405-.5595307-.09-.8391884-.13558.1289891-.24482-.091657-.58826-.3760589-.47324-.227104.17654-.4710311.36558-.7758651.37224-.9253989.10409-1.7199745-.75025-1.7841038-1.62973-.021419-.70639.1374476-1.50393.7436384-1.9442.6032659-.54542 1.6426058-.52833 2.1684822.11684.1687711.23681.6019111.19572.6241011-.13009.1534614-.86533.287367-1.73964.4338093-2.60231.050508.008.1010153.0166.151523.025zm3.8640619 2.0271c.853732-.0372 1.539013.70491 1.699095 1.49885.149284.26083-.162401.21246-.332513.25386-.770641.12273-1.5463.21661-2.3141615.35511-.35236.13924-.1791703.54304-.056216.78472.3045167.7635 1.4893435.77404 1.9017835.10569.206397-.1315.505092-.0909.74794-.14985.177302-.0619.0034.16241-.01803.23793-.355619.6916-1.191559.95003-1.901622.91368-.7997961-.007-1.5284118-.60321-1.7065644-1.38151-.2179878-.77625-.089164-1.73899.6100478-2.2354.3842845-.29307.8986629-.37751 1.3702426-.38308zm-9.57870059.13098c.28881319-.0338.54041959-.0304.43421329.33096v3.39229c-.28452085-.0007-.56914132.003-.85356494-.007-.0232831-1.23875-.0120653-2.47781-.0148617-3.7167h.43421333zm13.49429459 2.40015c.581022.0332.81109.90114.362409 1.25183-.265784.24055-.721708.16904-.866326-.17251-.257933-.39981-.03777-1.10964.503917-1.07932z" fill="none"/><g fill-rule="evenodd"><g fill="#00da89"><ellipse id="path23161" cx="-12.811276" cy="375.37439" rx=".68796104" ry=".68822283"/><ellipse id="path23161-4" cx="-14.298028" cy="372.39743" rx="1.3605143" ry="1.361032"/><ellipse id="path23161-7" cx="-11.081465" cy="373.15799" rx="1.1265827" ry="1.1270115"/></g><ellipse id="path23161-0" cx="16.917219" cy="358.51709" fill="#05d58c" rx=".49789163" ry=".49808112"/><ellipse id="path23161-0-9" cx="18.086872" cy="359.57016" fill="#05d58c" rx=".6294781" ry=".62971765"/><ellipse id="path23161-0-5" cx="18.934877" cy="357.90277" fill="#05d58c" rx=".74644393" ry=".746728"/><ellipse id="path23161-0-4" cx="52.771259" cy="-344.1795" fill="#1ae59d" rx=".50083762" ry=".48025975" transform="matrix(-.98010583 .19847562 -.16360225 -.98652638 0 0)"/><ellipse id="path23161-0-9-0" cx="53.947819" cy="-343.16409" fill="#1ae59d" rx=".63320261" ry=".60718632" transform="matrix(-.98010583 .19847562 -.16360225 -.98652638 0 0)"/><ellipse id="path23161-0-5-7" cx="54.800846" cy="-344.77182" fill="#1ae59d" rx=".75086057" ry=".72001004" transform="matrix(-.98010583 .19847562 -.16360225 -.98652638 0 0)"/></g><g id="g25096" fill="#00595d" stroke="#1ae59d" stroke-width=".4918476" transform="matrix(.51661667 .00193484 -.00210443 .56189621 -54.674347 280.42229)"><path id="path22306" d="m100.87049 143.89835-4.471944-.55542-2.667582-5.7263-.752132 5.30157-3.591712-.44609 1.959273-13.81039 5.584859.69364q2.448438.3041 3.413948 1.9169.7831 1.30187.55632 2.90043-.25981 1.83127-1.50752 2.78825-.797147.6114-2.060124.73253zm-3.731045-9.98699q.104783-.73858-.359676-1.31105-.438411-.53835-1.56146-.67783l-.667753-.0829-.489459 3.45007.667753.0829q1.13316.14074 1.696384-.27321.609431-.4494.714211-1.18797z"/><path id="path22308" d="m113.56826 138.1765q.77425 2.54222-1.37645 4.01772-.89656.61048-2.33944.99519-2.83667.75633-4.49792-.30772-1.05429-.67403-1.49372-2.11691l-1.76074-5.78133 3.21948-.8584 1.57241 5.16295q.26008.85396.79489 1.14647.57323.31412 1.35847.10475.77543-.20675 1.08559-.7564.28969-.51235.0296-1.3663l-1.5724-5.16295 3.21948-.8584z"/><path id="path22310" d="m125.25626 143.67663-3.32383-.37301.61052-4.7628q.15978-1.24644-.072-1.68363-.33884-.64451-1.16979-.73776-.76003-.0853-1.34309.37353-.5259.41384-.6532 1.40693l-.6456 5.03642-3.32383-.373 1.20546-9.40401 3.32383.373-.15198 1.18564q.66335-.604 1.18483-.82302.84759-.35718 2.03322-.22413 1.52003.17058 2.36738 1.0983.96479 1.05397.72578 2.91856z"/><path id="path22312" d="m110.16917 154.41525-3.28431.60647-.21753-1.03135q-.34601.67767-.76961 1.03677-.74183.62594-1.81324.82378-1.73226.31988-3.33537-.62208-1.912013-1.12417-2.406228-3.46724-.50266-2.38312.849595-4.11006 1.073063-1.37371 2.775293-1.68803.99129-.18305 1.95114.0766.55134.14787 1.19819.60059l-.19219-.91119 3.2843-.60647zm-4.16415-4.05811q-.18585-.88115-.9355-1.37731-.75176-.50618-1.63292-.34347-.98128.1812-1.45581 1.03865-.38395.69509-.22132 1.4661.16262.77101.80001 1.2775.7771.62633 1.7684.44328.89117-.16456 1.37313-.88814.49198-.72544.30401-1.61661z"/><path id="path22314" d="m121.03661 156.48466-3.26461-.69333 1.13483-4.67794q.29698-1.22423.11488-1.68154-.26562-.67389-1.08177-.84722-.74649-.15854-1.37723.24126-.56891.36061-.80553 1.336l-1.20001 4.94669-3.26461-.69333 2.24067-9.23646 3.26461.69333-.2825 1.16451q.72668-.53641 1.26962-.70369.88258-.27305 2.04709-.0257 1.49296.31707 2.23297 1.32196.84284 1.14186.39857 2.97323z"/><path id="path22316" d="m135.76963 155.24157-3.26122.70714-.25365-1.0241q-.32201.68794-.73277 1.05988-.71944.64841-1.78332.87909-1.7201.37298-3.35543-.51917-1.95046-1.06476-2.52672-3.39137-.5861-2.36637.70476-4.13397 1.02423-1.40596 2.71449-1.77246.98433-.21344 1.95278.0166.55624.13083 1.21865.56342l-1.63764-6.61193 3.26122-.70714zm-4.30444-3.92786q-.21671-.87496-.98338-1.3478-.76914-.48279-1.6441-.29307-.97439.21128-1.41855 1.08287-.35932.70652-.1697 1.47211.18962.76559.84446 1.25221.79868.60209 1.78301.38866.88491-.19188 1.3412-.9299.46623-.74017.24706-1.62508z"/><path id="path22318" d="m105.91545 170.072-3.2624.70239-1.14964-4.67477q-.30331-1.23335-.67964-1.57125-.55212-.49904-1.36772-.32344-.755922.16275-1.128489.77708-.342569.56598-.102854 1.54073l1.215683 4.94332-3.262397.70238-3.673958-14.93938 3.262396-.70239 1.690218 6.87292q.4055-.77852.81688-1.14986.675689-.61676 1.829461-.86516 1.47206-.31693 2.62748.2931 1.2893.68593 1.73937 2.51606z"/><path id="path22320" d="m110.83169 159.29724q0 .79609-.55113 1.34723-.54093.54093-1.33702.54093-.78588 0-1.33702-.55114-.54093-.55114-.54093-1.33702 0-.78588.54093-1.32681.55114-.55114 1.33702-.55114.78588 0 1.33702.55114.55113.54093.55113 1.32681zm-.21433 13.11503h-3.34765v-9.4714h3.34765z"/><path id="path22322" d="m122.16664 173.69691-3.30375-.50561.18137-1.03746q-.57729.52183-1.10831.71979-.92883.34392-2.00658.17898-1.74252-.26668-2.89277-1.6734-1.37162-1.67846-.9596-4.0354.41907-2.39724 2.33105-3.57317 1.51845-.93624 3.23076-.67419.99717.15261 1.79951.70976.46136.31881.89835.95449l1.17093-6.69814 3.30374.50561zm-2.38601-5.16379q.15495-.88637-.36213-1.59636-.51532-.72007-1.4017-.85572-.98709-.15106-1.75195.49719-.61934.52572-.75492 1.30129-.13558.77558.27247 1.45854.49418.84093 1.49135.99354.89645.13719 1.61827-.38319.7319-.51884.88861-1.41529z"/><path id="path22324" d="m136.44328 167.58883-6.97063.93772q.32444 2.11139 2.36512 1.83687 1.04054-.13998 1.45957-1.10373l3.20245-.43081q-.1883 1.32454-.82876 2.12217-1.15968 1.4449-3.4327 1.75068-2.88928.38868-4.61413-1.17342-1.29287-1.16654-1.58316-3.05568-.34462-2.24273.80342-3.83043 1.14804-1.58769 3.63323-1.92201 3.06101-.41179 4.71584 1.63407.92996 1.15348 1.18455 2.81027zm-3.38317-1.48339q-.59264-1.5082-2.1282-1.30163-.84861.11416-1.29786.67985-.35366.44971-.36233 1.13141z"/><path id="path22326" d="m142.35282 167.43643-3.73604.26221-.96685-12.06001 3.73605-.26221zm.54674 2.89638q.0691.86142-.50575 1.53821-.55746.67556-1.44368.73776-.86884.061-1.54516-.52799-.65894-.5902-.728-1.45162-.0733-.91419.48276-1.60734.55463-.71074 1.44087-.77294.88622-.0622 1.54797.56317.6777.60655.75099 1.52075z"/></g></g></svg>
