<svg clip-rule="evenodd" fill-rule="evenodd" stroke-linecap="round" stroke-linejoin="round" stroke-miterlimit="1.5" viewBox="0 0 141 92" xmlns="http://www.w3.org/2000/svg" xmlns:xlink="http://www.w3.org/1999/xlink"><path d="m16.463 50.379-7.731-1.213c-3.177-1.908-5.418-4.195-6.823-6.822l-.151-9.248c3.342-6.966 6.918-13.31 11.522-16.903 4.42-5.261 9.33-9.582 16.069-10.385 6.601-1.132 12.576.342 18.041 3.941 4.146-6.308 9.088-8.579 14.554-8.186 6.66.53 12.802 1.768 17.813 4.548 10.391 4.503 19.536 10.36 27.212 17.813 4.25-1.522 8.463-2.207 12.583-.758 4.126 2.752 7.243 5.722 9.184 8.945 4.495 7.582 7.966 15.109 10.536 22.588 1.122 10.945-.887 20.285-5.381 28.35-2.401 5.023-6.768 7.191-13.038 6.594-6.391-2.69-11.968-6.654-16.146-12.81-3.668-5.309-7.86-9.341-12.658-11.901-3.119-1.42-6.378-1.496-9.779-.227-7.385 5.385-15.979 10.047-26.227 13.72-8.618-.406-16.798-2.956-24.336-8.641l-10.537-10.84-4.707-8.565z" fill="url(#_Linear1)"/><path d="m13.812 51.145c-29.287-3.424-3.967-36.033 2.984-40.671 1.95-1.301 10.484-11.727 30.54-2.367 10.387-19.285 45.763.051 60.46 14.367 19.844-11.6 32.619 32.03 32.619 32.03 1.87 12.848-4.328 49.235-27.677 32.054-4.619-3.399-10.85-11.867-15.942-17.084-3.001-3.076-8.231-4.796-11.014-4.426-5.77.768-6.551 2.467-10.986 5.426-7.313 4.88-10.986 7.694-17.342 9.337-10.243 2.647-46.166-14.802-43.658-37.337 1.224-2.312 3.248-2.037 3.834-.121-3.246 18.992 28.877 37.209 39.166 33.968 4.832-1.522 8.747-3.521 12.995-6.138 2.588-1.595 4.964-3.034 8.718-5.846 2.263-1.695 5.902-2.386 7.354-2.397 2.686-.02 7.118 1.391 9.933 3.534 8.981 6.836 11.737 15.077 17.776 19.222 20.703 14.207 26.505-15.127 24.224-29.222.167-.862-11.368-42.055-31-29-13.358-14.285-48.25-35.433-59-15-14.16-8.138-20.592-5.805-29 1-13.672 11.064-26.364 32.044-5.163 36.902z" fill="#196f81"/><path d="m57.071 19.611c1.714.372 2.818 2.452 2.843 4.871.003.274-3.715.273-5.388 2.813-.047.071.794 1.429 1.457 1.265 1.729-.427 3.78-2.504 3.722-2.237-.704 3.236-3.026 5.483-5.183 5.014-2.158-.469-3.338-3.477-2.635-6.713.704-3.236 3.026-5.482 5.184-5.013z" fill="#196f81"/><path d="m71.699 22.196c1.708.398 2.433 2.918 2.423 5.337-.001.274-4.512-2.196-4.561 2.164-.001.072.2.487.865.333 1.735-.402 3.869-1.349 3.807-1.083-.751 3.225-3.107 5.437-5.257 4.936s-3.286-3.526-2.534-6.751c.751-3.225 3.107-5.437 5.257-4.936z" fill="#196f81"/><path d="m43.418 15.696c3.748.429 6.13 1.275 8.776 3.71" fill="none" stroke="#1b788b" stroke-width=".69"/><path d="m54.738 6.353c-1.373 2.999-1.312 6.923-.471 11.352" fill="none" stroke="#1b788b" stroke-width=".69"/><path d="m56.283 17.906c4.32-4.125 9.86-6.09 16.457-6.18" fill="none" stroke="#1b788b" stroke-width=".69"/><path d="m73.683 21.978c5.864 1.27 10.737 1.164 16.32.765" fill="none" stroke="#1b788b" stroke-width=".69"/><path d="m71.799 21.063c5.537-2.625 9.55-5.957 12.159-9.941" fill="none" stroke="#1b788b" stroke-width=".69"/><path d="m70.993 21.198c-1.518-2.154-3.783-3.795-6.919-4.837" fill="none" stroke="#1b788b" stroke-width=".69"/><path d="m50.89 40.487.031.227.037.263.038.259.04.257.041.253.029.171.01.08.033.247.035.245.036.242.037.239.038.236.039.233.041.231.041.228.043.225.044.222.045.22.013.064.027.153.039.214.04.212.041.209.042.206.043.204.044.201.045.199.022.093.021.103.042.194.042.191.043.189.045.186.045.183.046.181.048.179.048.176.05.173.023.079.024.093.045.169.046.168.047.164.048.163.049.16.05.157.051.155.052.153.053.15.053.148.055.145.029.076.024.068.052.143.052.139.054.138.054.136.055.133.056.13.026.059.029.071.055.127.055.126.056.123.057.121.058.119.059.117.059.115.004.006.054.108.058.112.059.11.059.108.061.106.061.104.062.102.062.1.063.098.064.096.017.023.047.072.064.093.064.091.065.09.066.088.066.086.068.084.067.082.069.081.069.079.069.077.071.075.071.074.047.047.024.025.071.072.072.07.072.068.073.066.074.065.075.064.075.062.075.06.077.059.077.057.077.056.079.054.079.053.079.052.081.049.081.049.081.047.083.045.083.045.084.042.084.042.085.039.086.039.086.037.088.036.088.034.088.033.09.031.09.031.091.028.092.028.092.026.093.024.094.023.077.018.017.004.095.022.096.02.097.018.097.018.098.015.099.015.1.013.1.012.102.01.101.009.103.007.103.006.105.004.104.003.106.002h.106l.107-.001.107-.003.108-.004.109-.006.11-.007.11-.008.111-.011.111-.011.112-.013.113-.015.113-.016.114-.017.114-.019.115-.02.115-.022.116-.024.116-.025.117-.026.118-.028.118-.029.118-.031.042-.012.077-.02.12-.033.119-.035.121-.036.121-.037.121-.039.121-.041.122-.042.123-.044.122-.045.123-.046.124-.048.123-.05.124-.051.125-.052.124-.054.125-.055.125-.057.125-.058.126-.06.125-.061.126-.063.126-.064.127-.066.126-.067.127-.068.126-.07.127-.072.127-.072.127-.075.128-.075.127-.078.127-.078.005-.003.123-.076.128-.081.128-.082.128-.084.128-.085.128-.086.128-.088.128-.089.128-.091.128-.092.127-.093.128-.095.128-.096.128-.098.127-.099.128-.1.127-.102.127-.103.127-.104.127-.106.127-.107.127-.108.126-.11.126-.111.126-.113.126-.113.126-.115.125-.117.125-.118.125-.119.125-.12.124-.122.124-.123.124-.124.123-.126.123-.127.123-.128.122-.129.122-.131.122-.132.121-.133.121-.135.121-.136.12-.137.12-.138.119-.14.119-.141.009-.011.11-.131.118-.143.118-.144.118-.145.117-.147.117-.148.116-.149.115-.15.116-.152.114-.153.114-.154.114-.155.112-.156.113-.158.112-.159.111-.16.11-.161.048-.071.062-.092-.05.099-.039.076-.09.174-.091.173-.091.172-.093.17-.093.17-.094.169-.095.168-.095.167-.097.165-.097.165-.098.164-.098.162-.099.162-.1.161-.101.159-.101.158-.095.146-.008.012-.103.156-.104.154-.105.154-.105.153-.106.151-.106.15-.108.15-.108.148-.108.147-.109.146-.11.144-.11.144-.111.142-.111.142-.112.14-.113.139-.113.138-.113.136-.114.136-.115.134-.115.133-.116.132-.116.13-.117.13-.117.128-.118.127-.118.126-.118.124-.119.124-.12.122-.12.12-.12.12-.121.118-.121.117-.122.116-.122.114-.122.114-.123.111-.123.111-.124.109-.124.108-.124.107-.125.105-.125.104-.125.103-.126.101-.121.096-.005.004-.126.098-.127.097-.128.095-.127.094-.128.092-.128.092-.129.089-.129.089-.129.087-.129.085-.129.084-.13.083-.13.081-.13.08-.13.078-.131.077-.131.076-.131.074-.131.072-.131.071-.132.07-.132.068-.132.066-.132.065-.132.064-.132.062-.133.06-.133.059-.132.057-.133.056-.133.054-.134.053-.086.033-.047.018-.134.048-.133.048-.134.045-.134.044-.134.042-.134.041-.134.038-.134.038-.134.035-.134.034-.135.032-.134.031-.134.028-.134.027-.134.026-.135.023-.134.022-.134.02-.134.018-.134.016-.134.014-.134.013-.134.011-.134.009-.134.007-.133.005-.134.003-.133.001h-.134l-.133-.003-.133-.005-.132-.006-.133-.009-.132-.01-.132-.013-.132-.014-.132-.017-.023-.003-.108-.016-.131-.022-.13-.024-.13-.026-.13-.028-.129-.03-.129-.032-.128-.035-.128-.036-.128-.039-.126-.041-.127-.043-.126-.045-.125-.047-.124-.049-.124-.052-.124-.054-.122-.056-.122-.058-.122-.06-.12-.062-.12-.065-.119-.067-.118-.069-.117-.071-.117-.074-.115-.075-.115-.078-.114-.08-.113-.082-.112-.084-.111-.086-.11-.089-.109-.091-.107-.092-.037-.033-.07-.063-.104-.098-.104-.1-.102-.103-.102-.104-.1-.106-.099-.109-.098-.11-.097-.113-.095-.115-.094-.116-.093-.119-.092-.121-.068-.092-.022-.031-.088-.126-.087-.127-.085-.13-.084-.132-.082-.134-.082-.135-.08-.138-.078-.14-.078-.141-.071-.135-.004-.009-.072-.146-.071-.149-.068-.151-.068-.152-.066-.154-.065-.157-.063-.158-.034-.087-.027-.073-.057-.163-.056-.165-.055-.167-.053-.168-.051-.171-.05-.172-.023-.083-.023-.092-.042-.177-.041-.179-.039-.181-.038-.182-.036-.185-.034-.186-.033-.188-.032-.19-.029-.191-.029-.193-.026-.195-.014-.107-.008-.091-.017-.2-.015-.201-.014-.204-.012-.205-.01-.207-.008-.208-.007-.21-.005-.213-.004-.213-.001-.113.002-.103.007-.218.008-.22.01-.221.012-.224.013-.224.015-.227.018-.228.013-.162.008-.069.029-.232.031-.233.033-.236.035-.237.037-.239.039-.24.041-.242.042-.244.045-.246.047-.247.048-.249.016-.08.041-.171.062-.252.065-.253.066-.256.069-.256.06-.222.011-.037z" fill="#1b788b"/><linearGradient id="_Linear1" gradientTransform="matrix(-15.6349 50.1248 -50.1248 -15.6349 71.4845 34.4289)" gradientUnits="userSpaceOnUse" x1="0" x2="1" y1="0" y2="0"><stop offset="0" stop-color="#fff"/><stop offset=".57" stop-color="#d2e3e6"/><stop offset=".8" stop-color="#73a8b2"/><stop offset="1" stop-color="#196f81"/></linearGradient></svg>