<svg clip-rule="evenodd" fill-rule="evenodd" stroke-linejoin="round" stroke-miterlimit="1.41421" viewBox="0 0 109 103" xmlns="http://www.w3.org/2000/svg" xmlns:xlink="http://www.w3.org/1999/xlink"><path d="m11.579 83.196c-2.134-4.531-3.337-7.914-3.564-14.423-10.246-13.527-10.337-25.192-2.164-35.342.271-9.82-3.053-19.283.43-22.986 9.164-9.745 27.254-.01 27.94 19.621.177-26.186 18.66-34.42 25.349-26.027 4.6 5.772 6.168 17.731 9.752 27.71-3.663-22.997 9.238-22.337 29.571-9.136 10.391 7.206 12.237 18.392 4.808 33.899 1.485 11.62 2.585 21.778-9.552 23.898-.991 15.093-17.218 18.759-36.608.624 10.543 27.56-4.708 27.714-38.947 7.694-3.488.038-6.198-1.36-7.015-5.532z" fill="url(#_Linear1)"/><path d="m16.78 87.73c2.479 2.18 55.062 35.533 42.549-3.96 19.39 18.135 33.916 11.114 35.823-3.575 8.398-.96 13.106-11.4 9.268-23.773 7.428-15.506 4.864-26.603-5.527-33.809-21.492-14.115-29.892-11.959-30.48 1.917-3.584-9.979-2.835-14.381-7.435-20.153-6.688-8.393-22.829-5.961-26.949 18.31-7.176-18.574-22.396-18.754-27.877-12.5-3.35 3.824-.03 13.424-.301 23.244-8.173 10.15-8.082 21.815 2.164 35.342-1.039 5.614 2.328 16.653 4.795 18.628 1.138.91 4.285 1.664 4.428 1.274.085-.234-2.192-1.047-3.097-1.835-2.651-2.313-6.325-13.422-5.304-18.814-10.063-12.993-10.153-24.199-2.125-33.948.265-9.433-2.999-18.523.422-22.081 9-9.36 26.527.542 27.2 19.399.174-25.153 18.569-33.614 25.138-25.552 4.519 5.545 7.89 20.891 11.41 30.477-3.598-22.091 7.242-25.316 27.212-12.636 10.206 6.923 12.019 17.668 4.723 32.563 3.77 11.885-.678 22.173-8.925 23.095-1.874 14.11-18.586 17.161-37.63-.259 10.355 26.473-5.045 26.643-38.674 7.412-.97-.556-1.564.277-.808 1.234z" fill="#196f81"/><path d="m58.853 53.422.078.075.084.08.161.158.158.158.154.158.152.159.149.16.145.16.143.161.14.162.137.162.108.132.025.03.131.164.128.164.125.164.121.165.12.165.116.165.113.166.111.167.107.166.105.167.103.168.099.167.097.168.093.169.092.168.088.169.086.169.083.169.08.17.078.17.075.169.072.17.07.17.067.171.064.17.062.17.059.171.057.17.054.171.051.17.005.016.044.155.046.171.043.17.041.171.039.17.036.171.033.17.031.17.029.17.026.169.024.17.021.169.019.169.017.169.014.168.012.168.009.168.008.168.005.167.002.167.001.166v.024l-.002.142-.005.165-.007.165-.009.165-.011.164-.013.164-.016.163-.017.162-.02.162-.022.161-.024.161-.026.16-.028.16-.031.159-.032.158-.034.157-.037.157-.038.156-.04.155-.042.155-.044.153-.047.153-.048.152-.005.017-.045.135-.053.15-.054.149-.056.148-.058.148-.06.146-.062.146-.063.145-.065.143-.067.143-.069.141-.07.141-.073.139-.073.139-.076.137-.077.137-.079.135-.08.134-.082.133-.084.131-.085.131-.087.129-.075.11-.013.018-.091.127-.092.125-.093.124-.095.122-.096.122-.098.119-.1.119-.1.117-.103.116-.103.114-.054.058-.051.055-.107.111-.108.11-.11.108-.11.107-.112.105-.114.103-.114.102-.116.101-.117.099-.043.035-.076.062-.12.095-.121.093-.122.092-.123.09-.125.088-.125.087-.127.085-.127.083-.124.078-.005.004-.13.079-.131.077-.132.076-.133.073-.134.072-.135.07-.136.068-.137.067-.137.064-.133.06-.006.002-.14.06-.14.058-.141.055-.142.054-.143.052-.144.05-.144.047-.145.046-.146.043-.146.041-.147.04-.148.037-.148.034-.149.033-.15.031-.15.028-.15.026-.152.024-.151.021-.152.019-.106.012-.047.005-.153.014-.154.011-.154.009-.154.007-.155.004-.155.002h-.155l-.156-.003-.156-.006-.156-.008-.156-.01-.157-.013-.156-.015-.157-.018-.157-.021-.157-.023-.158-.025-.157-.028-.157-.031-.158-.033-.037-.009-.12-.028-.157-.039-.158-.042-.157-.044-.157-.047-.157-.05-.157-.053-.156-.055-.157-.058-.156-.061-.157-.063-.156-.066-.155-.069-.156-.072-.155-.074-.155-.077-.154-.08-.155-.083-.153-.086-.007-.003-.147-.086-.152-.092-.153-.094-.152-.098-.151-.101-.151-.103-.15-.106-.15-.109-.15-.112-.149-.115-.148-.118-.148-.121-.147-.124-.147-.126-.146-.13-.145-.133-.145-.136-.144-.138-.144-.142-.142-.145-.142-.147-.142-.151-.14-.154-.14-.157-.139-.16-.139-.163-.137-.166-.137-.17-.136-.172-.046-.059-.089-.117-.134-.18-.133-.182-.132-.186-.131-.188-.13-.193-.129-.195-.129-.198-.127-.202-.127-.205-.125-.208-.125-.212-.123-.215-.123-.218-.121-.222-.121-.225-.119-.228-.119-.232-.067-.134-.049-.1.115-.38.38.115.055.095.074.129.129.22.129.216.131.212.131.209.131.205.133.202.132.198.134.195.134.191.135.188.135.184.135.181.137.178.136.174.138.17.137.168.138.164.092.107.046.054.139.158.138.154.14.152.139.148.14.145.14.142.14.138.141.135.141.133.141.129.142.126.141.123.142.12.142.116.143.114.142.111.143.108.142.104.143.102.143.099.143.096.143.093.143.091.143.087.143.085.143.082.143.079.143.076.137.07.006.003.142.072.143.069.142.066.142.063.143.061.142.058.142.056.141.053.142.05.142.048.141.046.141.043.141.04.141.038.14.036.141.033.14.031.139.029.107.02.033.006.139.024.139.022.138.02.139.018.138.015.137.013.138.011.137.009.136.006.137.004.136.003.135-.001.135-.002.135-.004.135-.006.134-.009.133-.01.133-.013.133-.014.132-.017.041-.005.091-.013.131-.019.131-.022.13-.024.13-.025.13-.028.128-.03.129-.031.128-.033.127-.035.126-.037.126-.039.126-.041.125-.042.124-.045.123-.046.123-.047.122-.05.122-.051.121-.054.12-.054.005-.003.115-.053.119-.058.118-.059.117-.061.117-.063.116-.064.115-.066.114-.067.114-.069.113-.071.004-.003.108-.069.111-.073.11-.075.11-.076.108-.078.108-.079.107-.081.105-.083.105-.084.066-.054.038-.031.104-.086.102-.087.101-.089.1-.091.1-.092.098-.093.097-.094.096-.096.095-.097.046-.049.048-.05.093-.099.092-.101.091-.102.089-.103.089-.104.087-.106.086-.107.085-.108.083-.109.082-.111.012-.016.07-.095.08-.113.079-.113.078-.115.076-.116.075-.117.074-.118.072-.119.07-.12.07-.121.068-.123.066-.123.065-.124.063-.126.062-.126.06-.127.059-.129.058-.129.055-.13.054-.131.053-.132.051-.133.044-.119.005-.014.048-.135.047-.135.045-.136.043-.137.042-.137.04-.139.038-.139.036-.14.035-.141.033-.141.031-.142.029-.143.027-.144.026-.144.023-.145.022-.146.02-.146.018-.147.016-.148.014-.148.012-.149.01-.15.007-.127.001-.023.007-.15.004-.151.003-.152v-.152l-.001-.153-.004-.153-.006-.154-.008-.154-.01-.155-.012-.155-.014-.156-.017-.156-.019-.156-.021-.157-.023-.157-.026-.158-.028-.158-.03-.158-.033-.159-.035-.159-.034-.145-.003-.015-.039-.159-.042-.161-.044-.16-.046-.161-.049-.161-.051-.161-.054-.162-.057-.161-.059-.162-.061-.162-.064-.163-.067-.162-.069-.163-.072-.163-.074-.163-.078-.163-.079-.163-.083-.163-.085-.163-.088-.164-.091-.163-.094-.164-.096-.163-.1-.163-.102-.164-.105-.163-.108-.163-.11-.164-.114-.163-.117-.163-.022-.031-.097-.132-.122-.163-.125-.163-.128-.163-.132-.163-.134-.162-.137-.163-.141-.162-.143-.161-.147-.162-.078-.084-.073-.079.001-.399.4.005z" fill="#196f81"/><path d="m40.11 50.072c.307 0-.211 1.825.002 2.022.591.545 1.852-1.158 2.006-1.31.532-.526.931 1.165.931 1.923 0 1.455-1.317 2.636-2.939 2.636-1.623 0-2.94-1.181-2.94-2.636 0-1.454 1.317-2.635 2.94-2.635z" fill="#196f81"/><path d="m53.85 41.52c.345 0-.104 3.288 1.082 1.027.439-.838 1.372.381 1.372 1.366 0 1.32-1.1 2.392-2.454 2.392s-2.454-1.072-2.454-2.392c0-1.321 1.1-2.393 2.454-2.393z" fill="#196f81"/><linearGradient id="_Linear1" gradientTransform="matrix(7.0355 62.616 -62.616 7.0355 63.3916 63.041)" gradientUnits="userSpaceOnUse" x1="0" x2="1" y1="0" y2="0"><stop offset="0" stop-color="#fff"/><stop offset="1" stop-color="#196f81"/></linearGradient></svg>