<svg
    width="100%"
    height="100%"
    viewBox="0 0 109 103"
    version="1.1"
    xmlns="http://www.w3.org/2000/svg"
    xmlns:xlink="http://www.w3.org/1999/xlink"
    xml:space="preserve"
    style="fill-rule:evenodd;clip-rule:evenodd;stroke-linejoin:round;stroke-miterlimit:1.41421;">
    <g id="cloudSvg2"><path
        d="M11.579,83.196c-2.134,-4.531 -3.337,-7.914 -3.564,-14.423c-10.246,-13.527 -10.337,-25.192 -2.164,-35.342c0.271,-9.82 -3.053,-19.283 0.43,-22.986c9.164,-9.745 27.254,-0.01 27.94,19.621c0.177,-26.186 18.66,-34.42 25.349,-26.027c4.6,5.772 6.168,17.731 9.752,27.71c-3.663,-22.997 9.238,-22.337 29.571,-9.136c10.391,7.206 12.237,18.392 4.808,33.899c1.485,11.62 2.585,21.778 -9.552,23.898c-0.991,15.093 -17.218,18.759 -36.608,0.624c10.543,27.56 -4.708,27.714 -38.947,7.694c-3.488,0.038 -6.198,-1.36 -7.015,-5.532Z"
        style="fill:url(#_Linear1);"/><path
        d="M16.78,87.73c2.479,2.18 55.062,35.533 42.549,-3.96c19.39,18.135 33.916,11.114 35.823,-3.575c8.398,-0.96 13.106,-11.4 9.268,-23.773c7.428,-15.506 4.864,-26.603 -5.527,-33.809c-21.492,-14.115 -29.892,-11.959 -30.48,1.917c-3.584,-9.979 -2.835,-14.381 -7.435,-20.153c-6.688,-8.393 -22.829,-5.961 -26.949,18.31c-7.176,-18.574 -22.396,-18.754 -27.877,-12.5c-3.35,3.824 -0.03,13.424 -0.301,23.244c-8.173,10.15 -8.082,21.815 2.164,35.342c-1.039,5.614 2.328,16.653 4.795,18.628c1.138,0.91 4.285,1.664 4.428,1.274c0.085,-0.234 -2.192,-1.047 -3.097,-1.835c-2.651,-2.313 -6.325,-13.422 -5.304,-18.814c-10.063,-12.993 -10.153,-24.199 -2.125,-33.948c0.265,-9.433 -2.999,-18.523 0.422,-22.081c9,-9.36 26.527,0.542 27.2,19.399c0.174,-25.153 18.569,-33.614 25.138,-25.552c4.519,5.545 7.89,20.891 11.41,30.477c-3.598,-22.091 7.242,-25.316 27.212,-12.636c10.206,6.923 12.019,17.668 4.723,32.563c3.77,11.885 -0.678,22.173 -8.925,23.095c-1.874,14.11 -18.586,17.161 -37.63,-0.259c10.355,26.473 -5.045,26.643 -38.674,7.412c-0.97,-0.556 -1.564,0.277 -0.808,1.234Z"
        style="fill:#196f81;"/><path
        d="M58.853,53.422l0.078,0.075l0.084,0.08l0.161,0.158l0.158,0.158l0.154,0.158l0.152,0.159l0.149,0.16l0.145,0.16l0.143,0.161l0.14,0.162l0.137,0.162l0.108,0.132l0.025,0.03l0.131,0.164l0.128,0.164l0.125,0.164l0.121,0.165l0.12,0.165l0.116,0.165l0.113,0.166l0.111,0.167l0.107,0.166l0.105,0.167l0.103,0.168l0.099,0.167l0.097,0.168l0.093,0.169l0.092,0.168l0.088,0.169l0.086,0.169l0.083,0.169l0.08,0.17l0.078,0.17l0.075,0.169l0.072,0.17l0.07,0.17l0.067,0.171l0.064,0.17l0.062,0.17l0.059,0.171l0.057,0.17l0.054,0.171l0.051,0.17l0.005,0.016l0.044,0.155l0.046,0.171l0.043,0.17l0.041,0.171l0.039,0.17l0.036,0.171l0.033,0.17l0.031,0.17l0.029,0.17l0.026,0.169l0.024,0.17l0.021,0.169l0.019,0.169l0.017,0.169l0.014,0.168l0.012,0.168l0.009,0.168l0.008,0.168l0.005,0.167l0.002,0.167l0.001,0.166l0,0.024l-0.002,0.142l-0.005,0.165l-0.007,0.165l-0.009,0.165l-0.011,0.164l-0.013,0.164l-0.016,0.163l-0.017,0.162l-0.02,0.162l-0.022,0.161l-0.024,0.161l-0.026,0.16l-0.028,0.16l-0.031,0.159l-0.032,0.158l-0.034,0.157l-0.037,0.157l-0.038,0.156l-0.04,0.155l-0.042,0.155l-0.044,0.153l-0.047,0.153l-0.048,0.152l-0.005,0.017l-0.045,0.135l-0.053,0.15l-0.054,0.149l-0.056,0.148l-0.058,0.148l-0.06,0.146l-0.062,0.146l-0.063,0.145l-0.065,0.143l-0.067,0.143l-0.069,0.141l-0.07,0.141l-0.073,0.139l-0.073,0.139l-0.076,0.137l-0.077,0.137l-0.079,0.135l-0.08,0.134l-0.082,0.133l-0.084,0.131l-0.085,0.131l-0.087,0.129l-0.075,0.11l-0.013,0.018l-0.091,0.127l-0.092,0.125l-0.093,0.124l-0.095,0.122l-0.096,0.122l-0.098,0.119l-0.1,0.119l-0.1,0.117l-0.103,0.116l-0.103,0.114l-0.054,0.058l-0.051,0.055l-0.107,0.111l-0.108,0.11l-0.11,0.108l-0.11,0.107l-0.112,0.105l-0.114,0.103l-0.114,0.102l-0.116,0.101l-0.117,0.099l-0.043,0.035l-0.076,0.062l-0.12,0.095l-0.121,0.093l-0.122,0.092l-0.123,0.09l-0.125,0.088l-0.125,0.087l-0.127,0.085l-0.127,0.083l-0.124,0.078l-0.005,0.004l-0.13,0.079l-0.131,0.077l-0.132,0.076l-0.133,0.073l-0.134,0.072l-0.135,0.07l-0.136,0.068l-0.137,0.067l-0.137,0.064l-0.133,0.06l-0.006,0.002l-0.14,0.06l-0.14,0.058l-0.141,0.055l-0.142,0.054l-0.143,0.052l-0.144,0.05l-0.144,0.047l-0.145,0.046l-0.146,0.043l-0.146,0.041l-0.147,0.04l-0.148,0.037l-0.148,0.034l-0.149,0.033l-0.15,0.031l-0.15,0.028l-0.15,0.026l-0.152,0.024l-0.151,0.021l-0.152,0.019l-0.106,0.012l-0.047,0.005l-0.153,0.014l-0.154,0.011l-0.154,0.009l-0.154,0.007l-0.155,0.004l-0.155,0.002l-0.155,0l-0.156,-0.003l-0.156,-0.006l-0.156,-0.008l-0.156,-0.01l-0.157,-0.013l-0.156,-0.015l-0.157,-0.018l-0.157,-0.021l-0.157,-0.023l-0.158,-0.025l-0.157,-0.028l-0.157,-0.031l-0.158,-0.033l-0.037,-0.009l-0.12,-0.028l-0.157,-0.039l-0.158,-0.042l-0.157,-0.044l-0.157,-0.047l-0.157,-0.05l-0.157,-0.053l-0.156,-0.055l-0.157,-0.058l-0.156,-0.061l-0.157,-0.063l-0.156,-0.066l-0.155,-0.069l-0.156,-0.072l-0.155,-0.074l-0.155,-0.077l-0.154,-0.08l-0.155,-0.083l-0.153,-0.086l-0.007,-0.003l-0.147,-0.086l-0.152,-0.092l-0.153,-0.094l-0.152,-0.098l-0.151,-0.101l-0.151,-0.103l-0.15,-0.106l-0.15,-0.109l-0.15,-0.112l-0.149,-0.115l-0.148,-0.118l-0.148,-0.121l-0.147,-0.124l-0.147,-0.126l-0.146,-0.13l-0.145,-0.133l-0.145,-0.136l-0.144,-0.138l-0.144,-0.142l-0.142,-0.145l-0.142,-0.147l-0.142,-0.151l-0.14,-0.154l-0.14,-0.157l-0.139,-0.16l-0.139,-0.163l-0.137,-0.166l-0.137,-0.17l-0.136,-0.172l-0.046,-0.059l-0.089,-0.117l-0.134,-0.18l-0.133,-0.182l-0.132,-0.186l-0.131,-0.188l-0.13,-0.193l-0.129,-0.195l-0.129,-0.198l-0.127,-0.202l-0.127,-0.205l-0.125,-0.208l-0.125,-0.212l-0.123,-0.215l-0.123,-0.218l-0.121,-0.222l-0.121,-0.225l-0.119,-0.228l-0.119,-0.232l-0.067,-0.134l-0.049,-0.1l0.115,-0.38l0.38,0.115l0.055,0.095l0.074,0.129l0.129,0.22l0.129,0.216l0.131,0.212l0.131,0.209l0.131,0.205l0.133,0.202l0.132,0.198l0.134,0.195l0.134,0.191l0.135,0.188l0.135,0.184l0.135,0.181l0.137,0.178l0.136,0.174l0.138,0.17l0.137,0.168l0.138,0.164l0.092,0.107l0.046,0.054l0.139,0.158l0.138,0.154l0.14,0.152l0.139,0.148l0.14,0.145l0.14,0.142l0.14,0.138l0.141,0.135l0.141,0.133l0.141,0.129l0.142,0.126l0.141,0.123l0.142,0.12l0.142,0.116l0.143,0.114l0.142,0.111l0.143,0.108l0.142,0.104l0.143,0.102l0.143,0.099l0.143,0.096l0.143,0.093l0.143,0.091l0.143,0.087l0.143,0.085l0.143,0.082l0.143,0.079l0.143,0.076l0.137,0.07l0.006,0.003l0.142,0.072l0.143,0.069l0.142,0.066l0.142,0.063l0.143,0.061l0.142,0.058l0.142,0.056l0.141,0.053l0.142,0.05l0.142,0.048l0.141,0.046l0.141,0.043l0.141,0.04l0.141,0.038l0.14,0.036l0.141,0.033l0.14,0.031l0.139,0.029l0.107,0.02l0.033,0.006l0.139,0.024l0.139,0.022l0.138,0.02l0.139,0.018l0.138,0.015l0.137,0.013l0.138,0.011l0.137,0.009l0.136,0.006l0.137,0.004l0.136,0.003l0.135,-0.001l0.135,-0.002l0.135,-0.004l0.135,-0.006l0.134,-0.009l0.133,-0.01l0.133,-0.013l0.133,-0.014l0.132,-0.017l0.041,-0.005l0.091,-0.013l0.131,-0.019l0.131,-0.022l0.13,-0.024l0.13,-0.025l0.13,-0.028l0.128,-0.03l0.129,-0.031l0.128,-0.033l0.127,-0.035l0.126,-0.037l0.126,-0.039l0.126,-0.041l0.125,-0.042l0.124,-0.045l0.123,-0.046l0.123,-0.047l0.122,-0.05l0.122,-0.051l0.121,-0.054l0.12,-0.054l0.005,-0.003l0.115,-0.053l0.119,-0.058l0.118,-0.059l0.117,-0.061l0.117,-0.063l0.116,-0.064l0.115,-0.066l0.114,-0.067l0.114,-0.069l0.113,-0.071l0.004,-0.003l0.108,-0.069l0.111,-0.073l0.11,-0.075l0.11,-0.076l0.108,-0.078l0.108,-0.079l0.107,-0.081l0.105,-0.083l0.105,-0.084l0.066,-0.054l0.038,-0.031l0.104,-0.086l0.102,-0.087l0.101,-0.089l0.1,-0.091l0.1,-0.092l0.098,-0.093l0.097,-0.094l0.096,-0.096l0.095,-0.097l0.046,-0.049l0.048,-0.05l0.093,-0.099l0.092,-0.101l0.091,-0.102l0.089,-0.103l0.089,-0.104l0.087,-0.106l0.086,-0.107l0.085,-0.108l0.083,-0.109l0.082,-0.111l0.012,-0.016l0.07,-0.095l0.08,-0.113l0.079,-0.113l0.078,-0.115l0.076,-0.116l0.075,-0.117l0.074,-0.118l0.072,-0.119l0.07,-0.12l0.07,-0.121l0.068,-0.123l0.066,-0.123l0.065,-0.124l0.063,-0.126l0.062,-0.126l0.06,-0.127l0.059,-0.129l0.058,-0.129l0.055,-0.13l0.054,-0.131l0.053,-0.132l0.051,-0.133l0.044,-0.119l0.005,-0.014l0.048,-0.135l0.047,-0.135l0.045,-0.136l0.043,-0.137l0.042,-0.137l0.04,-0.139l0.038,-0.139l0.036,-0.14l0.035,-0.141l0.033,-0.141l0.031,-0.142l0.029,-0.143l0.027,-0.144l0.026,-0.144l0.023,-0.145l0.022,-0.146l0.02,-0.146l0.018,-0.147l0.016,-0.148l0.014,-0.148l0.012,-0.149l0.01,-0.15l0.007,-0.127l0.001,-0.023l0.007,-0.15l0.004,-0.151l0.003,-0.152l0,-0.152l-0.001,-0.153l-0.004,-0.153l-0.006,-0.154l-0.008,-0.154l-0.01,-0.155l-0.012,-0.155l-0.014,-0.156l-0.017,-0.156l-0.019,-0.156l-0.021,-0.157l-0.023,-0.157l-0.026,-0.158l-0.028,-0.158l-0.03,-0.158l-0.033,-0.159l-0.035,-0.159l-0.034,-0.145l-0.003,-0.015l-0.039,-0.159l-0.042,-0.161l-0.044,-0.16l-0.046,-0.161l-0.049,-0.161l-0.051,-0.161l-0.054,-0.162l-0.057,-0.161l-0.059,-0.162l-0.061,-0.162l-0.064,-0.163l-0.067,-0.162l-0.069,-0.163l-0.072,-0.163l-0.074,-0.163l-0.078,-0.163l-0.079,-0.163l-0.083,-0.163l-0.085,-0.163l-0.088,-0.164l-0.091,-0.163l-0.094,-0.164l-0.096,-0.163l-0.1,-0.163l-0.102,-0.164l-0.105,-0.163l-0.108,-0.163l-0.11,-0.164l-0.114,-0.163l-0.117,-0.163l-0.022,-0.031l-0.097,-0.132l-0.122,-0.163l-0.125,-0.163l-0.128,-0.163l-0.132,-0.163l-0.134,-0.162l-0.137,-0.163l-0.141,-0.162l-0.143,-0.161l-0.147,-0.162l-0.078,-0.084l-0.073,-0.079l0.001,-0.399l0.4,0.005Z"
        style="fill:#196f81;"/><path
        d="M40.11,50.072c0.307,0 -0.211,1.825 0.002,2.022c0.591,0.545 1.852,-1.158 2.006,-1.31c0.532,-0.526 0.931,1.165 0.931,1.923c0,1.455 -1.317,2.636 -2.939,2.636c-1.623,0 -2.94,-1.181 -2.94,-2.636c0,-1.454 1.317,-2.635 2.94,-2.635Z"
        style="fill:#196f81;"/><path d="M53.85,41.52c0.345,0 -0.104,3.288 1.082,1.027c0.439,-0.838 1.372,0.381 1.372,1.366c0,1.32 -1.1,2.392 -2.454,2.392c-1.354,0 -2.454,-1.072 -2.454,-2.392c0,-1.321 1.1,-2.393 2.454,-2.393Z" style="fill:#196f81;"/></g>
    <defs>
        <linearGradient id="_Linear1" x1="0" y1="0" x2="1" y2="0" gradientUnits="userSpaceOnUse" gradientTransform="matrix(7.0355,62.616,-62.616,7.0355,63.3916,63.041)"><stop offset="0" style="stop-color:#fff;stop-opacity:1"/><stop offset="1" style="stop-color:#196f81;stop-opacity:1"/></linearGradient>
    </defs>
</svg>
