<svg
    width="100%"
    height="100%"
    viewBox="0 0 185 133"
    version="1.1"
    xmlns="http://www.w3.org/2000/svg"
    xmlns:xlink="http://www.w3.org/1999/xlink"
    xml:space="preserve"
    style="fill-rule:evenodd;clip-rule:evenodd;stroke-linejoin:round;stroke-miterlimit:1.41421;">
    <g id="cloudSvg1"><path
        d="M19.881,90.682c16.028,27.193 29.408,33.34 40.14,18.442c1.926,14.681 33.796,24.919 45.273,1.312c1.232,31.463 43.941,18.653 46.922,-6.934c0,0 4.573,3.07 7.497,2.855c13.176,-0.973 18.38,-20.957 18.38,-20.957c0.799,-2.839 15.724,-13.37 -5.943,-30.286c-18.13,-17.211 -35.301,-18.35 -50.002,-16.108c2.336,-19.43 1.524,-15.996 -6.46,-28.551c-1.503,-2.362 -3.351,-4.238 -8.127,-3.061c-4.268,-7.152 -31.752,-6.457 -43.635,4.528c-4.378,1.471 -2.053,0.379 -9.586,-6.255c-4.08,-3.068 -19.449,-8.213 -26.784,6.022c-17.361,24.046 -24.747,29.281 -24.934,59.622c-0.139,22.383 4.564,36.985 20.202,22.569c1.559,-1.438 -2.943,-3.198 -2.943,-3.198Z"
        style="fill:url(#_Linear1);"/><path
        d="M70.283,72.095l0.072,0.203l0.114,0.32l0.114,0.319l0.115,0.316l0.114,0.314l0.115,0.312l0.115,0.311l0.115,0.308l0.116,0.307l0.115,0.305l0.116,0.303l0.116,0.301l0.117,0.299l0.116,0.297l0.117,0.295l0.117,0.293l0.117,0.292l0.118,0.289l0.117,0.288l0.118,0.285l0.118,0.284l0.118,0.282l0.119,0.279l0.119,0.278l0.118,0.276l0.018,0.039l0.1,0.236l0.118,0.272l0.117,0.271l0.118,0.269l0.119,0.267l0.118,0.265l0.119,0.263l0.119,0.261l0.119,0.259l0.119,0.257l0.119,0.256l0.12,0.253l0.12,0.251l0.12,0.25l0.12,0.247l0.12,0.246l0.121,0.243l0.12,0.242l0.121,0.239l0.122,0.238l0.121,0.236l0.121,0.233l0.122,0.232l0.122,0.23l0.122,0.228l0.122,0.226l0.122,0.223l0.123,0.222l0.122,0.22l0.123,0.218l0.123,0.216l0.123,0.214l0.123,0.212l0.124,0.21l0.123,0.208l0.124,0.206l0.124,0.204l0.043,0.071l0.079,0.131l0.123,0.201l0.122,0.199l0.123,0.197l0.123,0.195l0.123,0.193l0.123,0.191l0.124,0.189l0.123,0.187l0.124,0.185l0.123,0.183l0.124,0.181l0.124,0.178l0.124,0.177l0.124,0.175l0.124,0.173l0.125,0.171l0.124,0.169l0.125,0.167l0.124,0.164l0.125,0.163l0.125,0.161l0.125,0.158l0.124,0.157l0.046,0.057l0.079,0.098l0.124,0.154l0.124,0.151l0.124,0.15l0.124,0.147l0.124,0.146l0.124,0.143l0.124,0.142l0.125,0.139l0.124,0.138l0.125,0.135l0.124,0.133l0.125,0.131l0.124,0.13l0.125,0.127l0.124,0.125l0.125,0.123l0.124,0.122l0.125,0.119l0.125,0.117l0.124,0.115l0.125,0.113l0.125,0.111l0.124,0.109l0.125,0.107l0.124,0.105l0.125,0.103l0.124,0.101l0.121,0.096l0.003,0.003l0.124,0.098l0.123,0.096l0.123,0.095l0.123,0.092l0.123,0.09l0.123,0.089l0.124,0.086l0.122,0.084l0.123,0.083l0.123,0.08l0.123,0.079l0.123,0.076l0.123,0.075l0.122,0.073l0.123,0.07l0.122,0.069l0.123,0.067l0.122,0.065l0.122,0.063l0.122,0.061l0.122,0.06l0.122,0.057l0.122,0.056l0.122,0.053l0.122,0.052l0.121,0.05l0.122,0.048l0.121,0.046l0.122,0.045l0.121,0.042l0.122,0.041l0.121,0.039l0.121,0.037l0.041,0.012l0.08,0.024l0.121,0.035l0.12,0.033l0.121,0.032l0.121,0.029l0.121,0.028l0.12,0.026l0.121,0.024l0.121,0.023l0.121,0.021l0.121,0.019l0.121,0.017l0.121,0.016l0.122,0.014l0.121,0.012l0.121,0.01l0.122,0.009l0.092,0.005l0.03,0.002l0.122,0.007l0.122,0.005l0.122,0.003l0.123,0.001l0.122,-0.001l0.123,-0.002l0.123,-0.004l0.124,-0.005l0.124,-0.008l0.124,-0.009l0.124,-0.011l0.124,-0.012l0.125,-0.015l0.126,-0.016l0.125,-0.018l0.126,-0.02l0.042,-0.007l0.084,-0.013l0.127,-0.022l0.128,-0.023l0.127,-0.025l0.128,-0.027l0.129,-0.029l0.129,-0.031l0.129,-0.033l0.13,-0.034l0.13,-0.036l0.131,-0.038l0.131,-0.041l0.132,-0.041l0.131,-0.044l0.133,-0.046l0.133,-0.048l0.054,-0.02l0.079,-0.028l0.135,-0.05l0.135,-0.052l0.135,-0.054l0.136,-0.056l0.136,-0.057l0.137,-0.06l0.137,-0.062l0.138,-0.063l0.138,-0.066l0.139,-0.068l0.139,-0.07l0.139,-0.071l0.14,-0.074l0.141,-0.076l0.141,-0.078l0.047,-0.027l0.095,-0.051l0.143,-0.081l0.143,-0.082l0.144,-0.084l0.144,-0.087l0.145,-0.088l0.145,-0.091l0.146,-0.092l0.146,-0.095l0.147,-0.097l0.147,-0.099l0.147,-0.101l0.148,-0.103l0.148,-0.105l0.149,-0.108l0.149,-0.109l0.149,-0.112l0.15,-0.114l0.151,-0.115l0.15,-0.118l0.152,-0.121l0.151,-0.122l0.152,-0.124l0.152,-0.127l0.153,-0.128l0.153,-0.131l0.153,-0.133l0.154,-0.135l0.154,-0.138l0.107,-0.096l0.048,-0.043l0.156,-0.139l0.157,-0.143l0.157,-0.144l0.158,-0.146l0.157,-0.149l0.159,-0.151l0.158,-0.152l0.159,-0.156l0.159,-0.157l0.16,-0.159l0.16,-0.162l0.16,-0.164l0.33,-0.341l0.322,-0.338l0.157,-0.166l0.156,-0.165l0.153,-0.164l0.152,-0.164l0.149,-0.162l0.147,-0.161l0.145,-0.16l0.143,-0.159l0.141,-0.158l0.123,-0.139l0.016,-0.018l0.139,-0.155l0.136,-0.154l0.134,-0.153l0.132,-0.153l0.13,-0.151l0.128,-0.151l0.126,-0.15l0.125,-0.149l0.122,-0.148l0.12,-0.147l0.119,-0.147l0.116,-0.146l0.115,-0.145l0.112,-0.145l0.111,-0.143l0.109,-0.144l0.107,-0.142l0.105,-0.142l0.104,-0.142l0.101,-0.14l0.1,-0.141l0.098,-0.139l0.096,-0.14l0.094,-0.138l0.093,-0.139l0.09,-0.137l0.089,-0.138l0.088,-0.137l0.085,-0.136l0.084,-0.137l0.064,-0.105l0.018,-0.03l0.082,-0.136l0.079,-0.134l0.078,-0.135l0.077,-0.134l0.075,-0.135l0.073,-0.134l0.071,-0.133l0.07,-0.134l0.068,-0.134l0.067,-0.133l0.065,-0.134l0.063,-0.133l0.062,-0.134l0.061,-0.133l0.059,-0.133l0.057,-0.134l0.056,-0.134l0.054,-0.133l0.053,-0.134l0.051,-0.134l0.05,-0.135l0.048,-0.134l0.047,-0.135l0.045,-0.135l0.044,-0.135l0.043,-0.136l0.041,-0.136l0.04,-0.136l0.038,-0.136l0.037,-0.138l0.035,-0.137l0.035,-0.138l0.032,-0.138l0.032,-0.139l0.03,-0.14l0.028,-0.14l0.027,-0.14l0.026,-0.142l0.025,-0.141l0.023,-0.143l0.022,-0.143l0.021,-0.144l0.019,-0.144l0.018,-0.146l0.017,-0.146l0.015,-0.146l0.014,-0.148l0.013,-0.148l0.012,-0.149l0.01,-0.15l0.009,-0.151l0.008,-0.152l0.006,-0.153l0.005,-0.153l0.005,-0.155l0.002,-0.155l0.002,-0.157l0,-0.157l0,-0.159l-0.002,-0.16l-0.004,-0.16l-0.001,-0.036l-0.002,-0.126l-0.005,-0.163l-0.006,-0.164l-0.007,-0.165l-0.008,-0.166l-0.009,-0.168l-0.01,-0.169l-0.012,-0.17l-0.012,-0.171l-0.014,-0.172l-0.015,-0.174l-0.016,-0.175l-0.017,-0.176l-0.018,-0.177l-0.019,-0.179l-0.02,-0.181l-0.021,-0.181l-0.023,-0.183l-0.023,-0.185l-0.024,-0.185l-0.025,-0.188l-0.011,-0.078l-0.015,-0.11l0.028,0.107l0.02,0.077l0.048,0.183l0.046,0.182l0.045,0.18l0.044,0.18l0.043,0.178l0.041,0.178l0.04,0.176l0.04,0.175l0.037,0.174l0.037,0.173l0.036,0.172l0.034,0.171l0.033,0.17l0.032,0.17l0.031,0.168l0.029,0.167l0.028,0.167l0.027,0.166l0.025,0.165l0.025,0.164l0.018,0.127l0.005,0.036l0.02,0.163l0.02,0.162l0.018,0.161l0.017,0.161l0.015,0.16l0.015,0.159l0.012,0.159l0.012,0.158l0.01,0.157l0.009,0.157l0.007,0.157l0.006,0.156l0.005,0.155l0.003,0.155l0.002,0.155l0,0.154l-0.001,0.154l-0.002,0.153l-0.004,0.153l-0.006,0.153l-0.006,0.152l-0.009,0.152l-0.01,0.152l-0.011,0.151l-0.013,0.152l-0.014,0.151l-0.016,0.151l-0.017,0.15l-0.019,0.151l-0.021,0.15l-0.022,0.15l-0.023,0.15l-0.025,0.15l-0.027,0.15l-0.028,0.15l-0.03,0.15l-0.032,0.149l-0.033,0.15l-0.034,0.15l-0.037,0.149l-0.038,0.15l-0.039,0.15l-0.041,0.15l-0.043,0.15l-0.045,0.15l-0.046,0.15l-0.048,0.15l-0.049,0.151l-0.051,0.15l-0.053,0.151l-0.055,0.151l-0.056,0.151l-0.058,0.152l-0.059,0.151l-0.062,0.152l-0.063,0.152l-0.064,0.153l-0.067,0.153l-0.068,0.153l-0.07,0.153l-0.071,0.154l-0.016,0.034l-0.058,0.12l-0.076,0.154l-0.078,0.155l-0.079,0.155l-0.082,0.155l-0.083,0.156l-0.084,0.156l-0.087,0.157l-0.088,0.157l-0.09,0.158l-0.092,0.159l-0.093,0.159l-0.096,0.159l-0.097,0.161l-0.099,0.161l-0.1,0.161l-0.103,0.162l-0.104,0.163l-0.106,0.164l-0.108,0.165l-0.11,0.165l-0.111,0.166l-0.114,0.167l-0.115,0.167l-0.117,0.169l-0.119,0.169l-0.121,0.171l-0.122,0.171l-0.125,0.172l-0.126,0.173l-0.128,0.174l-0.015,0.02l-0.116,0.154l-0.133,0.175l-0.135,0.177l-0.137,0.177l-0.139,0.178l-0.141,0.179l-0.142,0.181l-0.145,0.181l-0.147,0.183l-0.149,0.185l-0.302,0.371l-0.31,0.376l-0.155,0.186l-0.155,0.183l-0.155,0.181l-0.155,0.18l-0.156,0.177l-0.155,0.175l-0.155,0.174l-0.156,0.171l-0.155,0.169l-0.156,0.167l-0.155,0.166l-0.156,0.163l-0.048,0.049l-0.109,0.111l-0.157,0.157l-0.158,0.156l-0.157,0.153l-0.158,0.152l-0.158,0.149l-0.158,0.147l-0.157,0.146l-0.158,0.143l-0.158,0.141l-0.159,0.139l-0.158,0.138l-0.158,0.135l-0.158,0.133l-0.159,0.131l-0.158,0.129l-0.159,0.127l-0.159,0.125l-0.159,0.123l-0.159,0.121l-0.159,0.119l-0.159,0.117l-0.16,0.115l-0.159,0.113l-0.16,0.11l-0.159,0.109l-0.16,0.107l-0.16,0.104l-0.161,0.103l-0.106,0.067l-0.054,0.033l-0.162,0.097l-0.161,0.094l-0.162,0.093l-0.162,0.09l-0.161,0.089l-0.162,0.086l-0.163,0.084l-0.162,0.082l-0.162,0.08l-0.163,0.078l-0.162,0.076l-0.163,0.073l-0.163,0.072l-0.163,0.069l-0.163,0.067l-0.096,0.039l-0.067,0.026l-0.164,0.061l-0.164,0.059l-0.164,0.057l-0.164,0.055l-0.164,0.052l-0.165,0.051l-0.164,0.048l-0.164,0.046l-0.165,0.044l-0.164,0.041l-0.164,0.04l-0.165,0.037l-0.164,0.034l-0.165,0.033l-0.164,0.03l-0.11,0.019l-0.055,0.009l-0.165,0.024l-0.165,0.022l-0.164,0.02l-0.165,0.017l-0.164,0.015l-0.165,0.013l-0.164,0.011l-0.164,0.008l-0.164,0.006l-0.164,0.004l-0.163,0.001l-0.164,-0.001l-0.163,-0.003l-0.163,-0.006l-0.163,-0.008l-0.163,-0.01l-0.039,-0.003l-0.123,-0.01l-0.162,-0.016l-0.162,-0.018l-0.162,-0.021l-0.161,-0.022l-0.161,-0.025l-0.16,-0.028l-0.16,-0.029l-0.16,-0.032l-0.16,-0.034l-0.159,-0.036l-0.158,-0.039l-0.158,-0.041l-0.158,-0.043l-0.158,-0.045l-0.156,-0.047l-0.157,-0.05l-0.103,-0.034l-0.053,-0.018l-0.155,-0.056l-0.155,-0.057l-0.154,-0.06l-0.153,-0.062l-0.153,-0.064l-0.153,-0.066l-0.152,-0.068l-0.151,-0.07l-0.151,-0.073l-0.151,-0.074l-0.149,-0.077l-0.15,-0.079l-0.148,-0.08l-0.149,-0.083l-0.147,-0.085l-0.147,-0.087l-0.147,-0.089l-0.146,-0.091l-0.145,-0.093l-0.145,-0.095l-0.144,-0.097l-0.144,-0.099l-0.143,-0.101l-0.143,-0.103l-0.142,-0.104l-0.141,-0.107l-0.141,-0.109l-0.141,-0.111l-0.14,-0.113l-0.139,-0.114l-0.139,-0.117l-0.138,-0.118l-0.138,-0.121l-0.004,-0.003l-0.132,-0.12l-0.136,-0.126l-0.135,-0.127l-0.135,-0.129l-0.134,-0.131l-0.133,-0.133l-0.133,-0.135l-0.132,-0.137l-0.132,-0.139l-0.131,-0.14l-0.131,-0.143l-0.131,-0.144l-0.129,-0.146l-0.13,-0.148l-0.128,-0.15l-0.129,-0.151l-0.127,-0.154l-0.128,-0.155l-0.126,-0.157l-0.127,-0.159l-0.125,-0.161l-0.126,-0.163l-0.124,-0.164l-0.125,-0.167l-0.124,-0.168l-0.123,-0.17l-0.123,-0.172l-0.122,-0.173l-0.077,-0.111l-0.045,-0.065l-0.12,-0.178l-0.12,-0.181l-0.119,-0.181l-0.119,-0.184l-0.118,-0.186l-0.118,-0.187l-0.118,-0.189l-0.117,-0.191l-0.116,-0.193l-0.116,-0.194l-0.116,-0.197l-0.115,-0.198l-0.115,-0.2l-0.114,-0.202l-0.113,-0.203l-0.114,-0.206l-0.113,-0.207l-0.112,-0.209l-0.112,-0.211l-0.111,-0.213l-0.112,-0.214l-0.11,-0.217l-0.11,-0.218l-0.071,-0.142l-0.039,-0.078l-0.107,-0.222l-0.107,-0.225l-0.107,-0.226l-0.106,-0.228l-0.106,-0.23l-0.106,-0.231l-0.105,-0.234l-0.104,-0.235l-0.104,-0.237l-0.104,-0.239l-0.103,-0.24l-0.102,-0.243l-0.103,-0.244l-0.101,-0.246l-0.102,-0.248l-0.101,-0.249l-0.1,-0.251l-0.1,-0.254l-0.1,-0.255l-0.099,-0.256l-0.098,-0.259l-0.099,-0.26l-0.098,-0.262l-0.097,-0.264l-0.097,-0.266l-0.096,-0.267l-0.096,-0.27l-0.096,-0.271l-0.095,-0.272l-0.095,-0.275l-0.094,-0.277l-0.094,-0.278l-0.093,-0.28l-0.093,-0.282l-0.093,-0.283l-0.092,-0.286l-0.078,-0.246l-0.013,-0.041l-0.09,-0.289l-0.089,-0.292l-0.088,-0.293l-0.088,-0.295l-0.088,-0.297l-0.087,-0.298l-0.087,-0.3l-0.086,-0.303l-0.086,-0.303l-0.085,-0.306l-0.085,-0.307l-0.085,-0.31l-0.084,-0.311l-0.083,-0.312l-0.084,-0.315l-0.082,-0.316l-0.082,-0.318l-0.082,-0.32l-0.081,-0.321l-0.081,-0.324l-0.081,-0.325l-0.08,-0.327l-0.079,-0.329l-0.079,-0.33l-0.05,-0.21l-0.028,-0.122l0.041,0.118Z"
        style="fill:#196f81;"/><path
        d="M19.881,90.682c16.028,27.193 29.408,33.34 40.14,18.442c5.102,24.449 37.345,22.697 44.738,4.634c9.101,37.046 48.478,10.519 48.49,-6.204c0,0 1.961,2.79 4.78,3.596c9.331,2.668 27.148,-23.346 22.314,-27.257c3.532,1.64 10.45,-20.869 -7.042,-29.206c1.054,-7.394 -24.35,-20.69 -50.139,-16.958c4.211,-22.201 0.499,-29.385 -13.398,-30.799c-1.273,-8.107 -35.366,-11.815 -45.838,4.992c-10.419,-9.984 -11.117,-9.991 -17.787,-10.466c-0.509,-3.068 -17.165,-1.878 -20.028,9.337c-8.289,0.505 -30.607,50.641 -24.671,60.59c-4.929,11.917 3.206,37.744 18.19,26.215c1.906,-1.34 1.79,-1.965 0.611,-2.212c-14.178,10.604 -20.485,-12.55 -14.019,-23.533c-9.168,-12.912 18.171,-60.204 21.53,-56.161c-0.12,-9.327 15.063,-17.005 16.687,-11.005c8.227,-1.313 16.726,8.937 19.652,12.801c10.267,-16.965 40.606,-18.439 42.853,-5.854c12.223,-2.181 17.315,7.909 12.99,30.4c25.383,-8.163 53.192,9.357 48.955,17.055c14.505,0.148 10.379,23.029 6.358,21.692c5.257,4.79 -10.041,28.225 -20.519,23.564c-2.518,-1.12 -3.788,-8.908 -3.788,-8.908c4.769,24.556 -41.156,50.528 -45.478,9.902c-5.524,25.072 -40.238,22.224 -45.067,-0.263c-10.154,13.703 -22.815,9.862 -37.981,-15.148c-1.566,-1.387 -2.353,-1.005 -2.533,0.754Z"
        style="fill:#196f81;"/><path d="M87.611,41.767c2.023,0 3.788,1.984 3.788,4.127c0,1.288 -2.309,-0.449 -3.223,0.257c-0.606,0.468 0.241,3.379 -0.565,3.379c-2.024,0 -3.666,-1.739 -3.666,-3.881c0,-2.143 1.642,-3.882 3.666,-3.882Z" style="fill:#196f81;"/><path d="M108.616,45.306c1.86,0 3.064,2.253 3.064,4.198c0,0.888 -2.828,-0.873 -3.348,-0.253c-0.617,0.737 2.234,2.326 1.265,2.612c-2.289,0.674 -4.35,-1.089 -4.35,-3.033c0,-1.945 1.51,-3.524 3.369,-3.524Z" style="fill:#196f81;"/></g>
    <defs>
        <linearGradient id="_Linear1" x1="0" y1="0" x2="1" y2="0" gradientUnits="userSpaceOnUse" gradientTransform="matrix(3.47213,108.075,-108.075,3.47213,82.0828,69.9548)"><stop offset="0" style="stop-color:#fff;stop-opacity:1"/><stop offset="1" style="stop-color:#196f81;stop-opacity:1"/></linearGradient>
    </defs>
</svg>
