<?xml version="1.0" encoding="UTF-8" standalone="no"?>
<!DOCTYPE svg PUBLIC "-//W3C//DTD SVG 1.1//EN" "http://www.w3.org/Graphics/SVG/1.1/DTD/svg11.dtd">
<svg
    width="100%"
    height="100%"
    viewBox="0 0 141 92"
    version="1.1"
    xmlns="http://www.w3.org/2000/svg"
    xmlns:xlink="http://www.w3.org/1999/xlink"
    xml:space="preserve"
    style="fill-rule:evenodd;clip-rule:evenodd;stroke-linecap:round;stroke-linejoin:round;stroke-miterlimit:1.5;">
    <g id="cloudSvg3"><path
        d="M16.463,50.379l-7.731,-1.213c-3.177,-1.908 -5.418,-4.195 -6.823,-6.822l-0.151,-9.248c3.342,-6.966 6.918,-13.31 11.522,-16.903c4.42,-5.261 9.33,-9.582 16.069,-10.385c6.601,-1.132 12.576,0.342 18.041,3.941c4.146,-6.308 9.088,-8.579 14.554,-8.186c6.66,0.53 12.802,1.768 17.813,4.548c10.391,4.503 19.536,10.36 27.212,17.813c4.25,-1.522 8.463,-2.207 12.583,-0.758c4.126,2.752 7.243,5.722 9.184,8.945c4.495,7.582 7.966,15.109 10.536,22.588c1.122,10.945 -0.887,20.285 -5.381,28.35c-2.401,5.023 -6.768,7.191 -13.038,6.594c-6.391,-2.69 -11.968,-6.654 -16.146,-12.81c-3.668,-5.309 -7.86,-9.341 -12.658,-11.901c-3.119,-1.42 -6.378,-1.496 -9.779,-0.227c-7.385,5.385 -15.979,10.047 -26.227,13.72c-8.618,-0.406 -16.798,-2.956 -24.336,-8.641l-10.537,-10.84l-4.707,-8.565Z"
        style="fill:url(#_Linear1);"/><path
        d="M13.812,51.145c-29.287,-3.424 -3.967,-36.033 2.984,-40.671c1.95,-1.301 10.484,-11.727 30.54,-2.367c10.387,-19.285 45.763,0.051 60.46,14.367c19.844,-11.6 32.619,32.03 32.619,32.03c1.87,12.848 -4.328,49.235 -27.677,32.054c-4.619,-3.399 -10.85,-11.867 -15.942,-17.084c-3.001,-3.076 -8.231,-4.796 -11.014,-4.426c-5.77,0.768 -6.551,2.467 -10.986,5.426c-7.313,4.88 -10.986,7.694 -17.342,9.337c-10.243,2.647 -46.166,-14.802 -43.658,-37.337c1.224,-2.312 3.248,-2.037 3.834,-0.121c-3.246,18.992 28.877,37.209 39.166,33.968c4.832,-1.522 8.747,-3.521 12.995,-6.138c2.588,-1.595 4.964,-3.034 8.718,-5.846c2.263,-1.695 5.902,-2.386 7.354,-2.397c2.686,-0.02 7.118,1.391 9.933,3.534c8.981,6.836 11.737,15.077 17.776,19.222c20.703,14.207 26.505,-15.127 24.224,-29.222c0.167,-0.862 -11.368,-42.055 -31,-29c-13.358,-14.285 -48.25,-35.433 -59,-15c-14.16,-8.138 -20.592,-5.805 -29,1c-13.672,11.064 -26.364,32.044 -5.163,36.902l0.179,1.769"
        style="fill:#196f81;"/><path
        d="M57.071,19.611c1.714,0.372 2.818,2.452 2.843,4.871c0.003,0.274 -3.715,0.273 -5.388,2.813c-0.047,0.071 0.794,1.429 1.457,1.265c1.729,-0.427 3.78,-2.504 3.722,-2.237c-0.704,3.236 -3.026,5.483 -5.183,5.014c-2.158,-0.469 -3.338,-3.477 -2.635,-6.713c0.704,-3.236 3.026,-5.482 5.184,-5.013Z"
        style="fill:#196f81;"/><path
        d="M71.699,22.196c1.708,0.398 2.433,2.918 2.423,5.337c-0.001,0.274 -4.512,-2.196 -4.561,2.164c-0.001,0.072 0.2,0.487 0.865,0.333c1.735,-0.402 3.869,-1.349 3.807,-1.083c-0.751,3.225 -3.107,5.437 -5.257,4.936c-2.15,-0.501 -3.286,-3.526 -2.534,-6.751c0.751,-3.225 3.107,-5.437 5.257,-4.936Z"
        style="fill:#196f81;"/><path d="M43.418,15.696c3.748,0.429 6.13,1.275 8.776,3.71" style="fill:none;stroke:#1b788b;stroke-width:0.69px;"/><path d="M54.738,6.353c-1.373,2.999 -1.312,6.923 -0.471,11.352" style="fill:none;stroke:#1b788b;stroke-width:0.69px;"/><path d="M56.283,17.906c4.32,-4.125 9.86,-6.09 16.457,-6.18" style="fill:none;stroke:#1b788b;stroke-width:0.69px;"/><path d="M73.683,21.978c5.864,1.27 10.737,1.164 16.32,0.765" style="fill:none;stroke:#1b788b;stroke-width:0.69px;"/><path d="M71.799,21.063c5.537,-2.625 9.55,-5.957 12.159,-9.941" style="fill:none;stroke:#1b788b;stroke-width:0.69px;"/><path d="M70.993,21.198c-1.518,-2.154 -3.783,-3.795 -6.919,-4.837" style="fill:none;stroke:#1b788b;stroke-width:0.69px;"/><path
        d="M50.89,40.487l0.031,0.227l0.037,0.263l0.038,0.259l0.04,0.257l0.041,0.253l0.029,0.171l0.01,0.08l0.033,0.247l0.035,0.245l0.036,0.242l0.037,0.239l0.038,0.236l0.039,0.233l0.041,0.231l0.041,0.228l0.043,0.225l0.044,0.222l0.045,0.22l0.013,0.064l0.027,0.153l0.039,0.214l0.04,0.212l0.041,0.209l0.042,0.206l0.043,0.204l0.044,0.201l0.045,0.199l0.022,0.093l0.021,0.103l0.042,0.194l0.042,0.191l0.043,0.189l0.045,0.186l0.045,0.183l0.046,0.181l0.048,0.179l0.048,0.176l0.05,0.173l0.023,0.079l0.024,0.093l0.045,0.169l0.046,0.168l0.047,0.164l0.048,0.163l0.049,0.16l0.05,0.157l0.051,0.155l0.052,0.153l0.053,0.15l0.053,0.148l0.055,0.145l0.029,0.076l0.024,0.068l0.052,0.143l0.052,0.139l0.054,0.138l0.054,0.136l0.055,0.133l0.056,0.13l0.026,0.059l0.029,0.071l0.055,0.127l0.055,0.126l0.056,0.123l0.057,0.121l0.058,0.119l0.059,0.117l0.059,0.115l0.004,0.006l0.054,0.108l0.058,0.112l0.059,0.11l0.059,0.108l0.061,0.106l0.061,0.104l0.062,0.102l0.062,0.1l0.063,0.098l0.064,0.096l0.017,0.023l0.047,0.072l0.064,0.093l0.064,0.091l0.065,0.09l0.066,0.088l0.066,0.086l0.068,0.084l0.067,0.082l0.069,0.081l0.069,0.079l0.069,0.077l0.071,0.075l0.071,0.074l0.047,0.047l0.024,0.025l0.071,0.072l0.072,0.07l0.072,0.068l0.073,0.066l0.074,0.065l0.075,0.064l0.075,0.062l0.075,0.06l0.077,0.059l0.077,0.057l0.077,0.056l0.079,0.054l0.079,0.053l0.079,0.052l0.081,0.049l0.081,0.049l0.081,0.047l0.083,0.045l0.083,0.045l0.084,0.042l0.084,0.042l0.085,0.039l0.086,0.039l0.086,0.037l0.088,0.036l0.088,0.034l0.088,0.033l0.09,0.031l0.09,0.031l0.091,0.028l0.092,0.028l0.092,0.026l0.093,0.024l0.094,0.023l0.077,0.018l0.017,0.004l0.095,0.022l0.096,0.02l0.097,0.018l0.097,0.018l0.098,0.015l0.099,0.015l0.1,0.013l0.1,0.012l0.102,0.01l0.101,0.009l0.103,0.007l0.103,0.006l0.105,0.004l0.104,0.003l0.106,0.002l0.106,0l0.107,-0.001l0.107,-0.003l0.108,-0.004l0.109,-0.006l0.11,-0.007l0.11,-0.008l0.111,-0.011l0.111,-0.011l0.112,-0.013l0.113,-0.015l0.113,-0.016l0.114,-0.017l0.114,-0.019l0.115,-0.02l0.115,-0.022l0.116,-0.024l0.116,-0.025l0.117,-0.026l0.118,-0.028l0.118,-0.029l0.118,-0.031l0.042,-0.012l0.077,-0.02l0.12,-0.033l0.119,-0.035l0.121,-0.036l0.121,-0.037l0.121,-0.039l0.121,-0.041l0.122,-0.042l0.123,-0.044l0.122,-0.045l0.123,-0.046l0.124,-0.048l0.123,-0.05l0.124,-0.051l0.125,-0.052l0.124,-0.054l0.125,-0.055l0.125,-0.057l0.125,-0.058l0.126,-0.06l0.125,-0.061l0.126,-0.063l0.126,-0.064l0.127,-0.066l0.126,-0.067l0.127,-0.068l0.126,-0.07l0.127,-0.072l0.127,-0.072l0.127,-0.075l0.128,-0.075l0.127,-0.078l0.127,-0.078l0.005,-0.003l0.123,-0.076l0.128,-0.081l0.128,-0.082l0.128,-0.084l0.128,-0.085l0.128,-0.086l0.128,-0.088l0.128,-0.089l0.128,-0.091l0.128,-0.092l0.127,-0.093l0.128,-0.095l0.128,-0.096l0.128,-0.098l0.127,-0.099l0.128,-0.1l0.127,-0.102l0.127,-0.103l0.127,-0.104l0.127,-0.106l0.127,-0.107l0.127,-0.108l0.126,-0.11l0.126,-0.111l0.126,-0.113l0.126,-0.113l0.126,-0.115l0.125,-0.117l0.125,-0.118l0.125,-0.119l0.125,-0.12l0.124,-0.122l0.124,-0.123l0.124,-0.124l0.123,-0.126l0.123,-0.127l0.123,-0.128l0.122,-0.129l0.122,-0.131l0.122,-0.132l0.121,-0.133l0.121,-0.135l0.121,-0.136l0.12,-0.137l0.12,-0.138l0.119,-0.14l0.119,-0.141l0.009,-0.011l0.11,-0.131l0.118,-0.143l0.118,-0.144l0.118,-0.145l0.117,-0.147l0.117,-0.148l0.116,-0.149l0.115,-0.15l0.116,-0.152l0.114,-0.153l0.114,-0.154l0.114,-0.155l0.112,-0.156l0.113,-0.158l0.112,-0.159l0.111,-0.16l0.11,-0.161l0.048,-0.071l0.062,-0.092l-0.05,0.099l-0.039,0.076l-0.09,0.174l-0.091,0.173l-0.091,0.172l-0.093,0.17l-0.093,0.17l-0.094,0.169l-0.095,0.168l-0.095,0.167l-0.097,0.165l-0.097,0.165l-0.098,0.164l-0.098,0.162l-0.099,0.162l-0.1,0.161l-0.101,0.159l-0.101,0.158l-0.095,0.146l-0.008,0.012l-0.103,0.156l-0.104,0.154l-0.105,0.154l-0.105,0.153l-0.106,0.151l-0.106,0.15l-0.108,0.15l-0.108,0.148l-0.108,0.147l-0.109,0.146l-0.11,0.144l-0.11,0.144l-0.111,0.142l-0.111,0.142l-0.112,0.14l-0.113,0.139l-0.113,0.138l-0.113,0.136l-0.114,0.136l-0.115,0.134l-0.115,0.133l-0.116,0.132l-0.116,0.13l-0.117,0.13l-0.117,0.128l-0.118,0.127l-0.118,0.126l-0.118,0.124l-0.119,0.124l-0.12,0.122l-0.12,0.12l-0.12,0.12l-0.121,0.118l-0.121,0.117l-0.122,0.116l-0.122,0.114l-0.122,0.114l-0.123,0.111l-0.123,0.111l-0.124,0.109l-0.124,0.108l-0.124,0.107l-0.125,0.105l-0.125,0.104l-0.125,0.103l-0.126,0.101l-0.121,0.096l-0.005,0.004l-0.126,0.098l-0.127,0.097l-0.128,0.095l-0.127,0.094l-0.128,0.092l-0.128,0.092l-0.129,0.089l-0.129,0.089l-0.129,0.087l-0.129,0.085l-0.129,0.084l-0.13,0.083l-0.13,0.081l-0.13,0.08l-0.13,0.078l-0.131,0.077l-0.131,0.076l-0.131,0.074l-0.131,0.072l-0.131,0.071l-0.132,0.07l-0.132,0.068l-0.132,0.066l-0.132,0.065l-0.132,0.064l-0.132,0.062l-0.133,0.06l-0.133,0.059l-0.132,0.057l-0.133,0.056l-0.133,0.054l-0.134,0.053l-0.086,0.033l-0.047,0.018l-0.134,0.048l-0.133,0.048l-0.134,0.045l-0.134,0.044l-0.134,0.042l-0.134,0.041l-0.134,0.038l-0.134,0.038l-0.134,0.035l-0.134,0.034l-0.135,0.032l-0.134,0.031l-0.134,0.028l-0.134,0.027l-0.134,0.026l-0.135,0.023l-0.134,0.022l-0.134,0.02l-0.134,0.018l-0.134,0.016l-0.134,0.014l-0.134,0.013l-0.134,0.011l-0.134,0.009l-0.134,0.007l-0.133,0.005l-0.134,0.003l-0.133,0.001l-0.134,0l-0.133,-0.003l-0.133,-0.005l-0.132,-0.006l-0.133,-0.009l-0.132,-0.01l-0.132,-0.013l-0.132,-0.014l-0.132,-0.017l-0.023,-0.003l-0.108,-0.016l-0.131,-0.022l-0.13,-0.024l-0.13,-0.026l-0.13,-0.028l-0.129,-0.03l-0.129,-0.032l-0.128,-0.035l-0.128,-0.036l-0.128,-0.039l-0.126,-0.041l-0.127,-0.043l-0.126,-0.045l-0.125,-0.047l-0.124,-0.049l-0.124,-0.052l-0.124,-0.054l-0.122,-0.056l-0.122,-0.058l-0.122,-0.06l-0.12,-0.062l-0.12,-0.065l-0.119,-0.067l-0.118,-0.069l-0.117,-0.071l-0.117,-0.074l-0.115,-0.075l-0.115,-0.078l-0.114,-0.08l-0.113,-0.082l-0.112,-0.084l-0.111,-0.086l-0.11,-0.089l-0.109,-0.091l-0.107,-0.092l-0.037,-0.033l-0.07,-0.063l-0.104,-0.098l-0.104,-0.1l-0.102,-0.103l-0.102,-0.104l-0.1,-0.106l-0.099,-0.109l-0.098,-0.11l-0.097,-0.113l-0.095,-0.115l-0.094,-0.116l-0.093,-0.119l-0.092,-0.121l-0.068,-0.092l-0.022,-0.031l-0.088,-0.126l-0.087,-0.127l-0.085,-0.13l-0.084,-0.132l-0.082,-0.134l-0.082,-0.135l-0.08,-0.138l-0.078,-0.14l-0.078,-0.141l-0.071,-0.135l-0.004,-0.009l-0.072,-0.146l-0.071,-0.149l-0.068,-0.151l-0.068,-0.152l-0.066,-0.154l-0.065,-0.157l-0.063,-0.158l-0.034,-0.087l-0.027,-0.073l-0.057,-0.163l-0.056,-0.165l-0.055,-0.167l-0.053,-0.168l-0.051,-0.171l-0.05,-0.172l-0.023,-0.083l-0.023,-0.092l-0.042,-0.177l-0.041,-0.179l-0.039,-0.181l-0.038,-0.182l-0.036,-0.185l-0.034,-0.186l-0.033,-0.188l-0.032,-0.19l-0.029,-0.191l-0.029,-0.193l-0.026,-0.195l-0.014,-0.107l-0.008,-0.091l-0.017,-0.2l-0.015,-0.201l-0.014,-0.204l-0.012,-0.205l-0.01,-0.207l-0.008,-0.208l-0.007,-0.21l-0.005,-0.213l-0.004,-0.213l-0.001,-0.113l0.002,-0.103l0.007,-0.218l0.008,-0.22l0.01,-0.221l0.012,-0.224l0.013,-0.224l0.015,-0.227l0.018,-0.228l0.013,-0.162l0.008,-0.069l0.029,-0.232l0.031,-0.233l0.033,-0.236l0.035,-0.237l0.037,-0.239l0.039,-0.24l0.041,-0.242l0.042,-0.244l0.045,-0.246l0.047,-0.247l0.048,-0.249l0.016,-0.08l0.041,-0.171l0.062,-0.252l0.065,-0.253l0.066,-0.256l0.069,-0.256l0.06,-0.222l0.011,-0.037l0.006,0.038Z"
        style="fill:#1b788b;"/></g>
    <defs>
        <linearGradient id="_Linear1" x1="0" y1="0" x2="1" y2="0" gradientUnits="userSpaceOnUse" gradientTransform="matrix(-15.6349,50.1248,-50.1248,-15.6349,71.4845,34.4289)"><stop offset="0" style="stop-color:#fff;stop-opacity:1"/><stop offset="0.57" style="stop-color:#d2e3e6;stop-opacity:1"/><stop offset="0.8" style="stop-color:#73a8b2;stop-opacity:1"/><stop offset="1" style="stop-color:#196f81;stop-opacity:1"/></linearGradient>
    </defs>
</svg>
