<svg height="232mm" viewBox="0 0 195 232" width="195mm" xmlns="http://www.w3.org/2000/svg" xmlns:xlink="http://www.w3.org/1999/xlink"><radialGradient id="radialGradient4354" cx="155.55241" cy="89.386543" gradientTransform="matrix(-.84975474 -.45386254 .2518157 -.49914015 240.63244 247.53162)" gradientUnits="userSpaceOnUse" r="81.462234"><stop offset="0" stop-color="#ffffd1"/><stop offset="1" stop-color="#ffea3e"/></radialGradient><g fill-rule="evenodd"><g stroke-width=".8693639" transform="matrix(1.1667854 0 0 1.133981 -17.728869 -87.01153)"><path d="m80.30104 92.807813c.57777-3.679232-.671629-7.295458-1.852083-10.914062l3.704166 7.077604c1.87489-1.884446 1.664899-4.403421 2.248959-6.680729-.03638 2.59905.392085 4.632204 1.785937 5.490104 1.294337-2.299588 2.613634-4.574216 4.762504-6.019271-1.31116 1.79546-2.664307 3.567186-2.57969 6.151563l5.18815-.440893c1.51724-1.475655 2.7118-3.362004 3.5431-5.71067-.53595 1.952152-.85376 4.028956-1.78594 5.754688l1.34023-.1864c.40885-2.080482.74519-4.208093 2.36394-5.502142-.83055 1.686929-1.75921 3.33372-1.2609 5.564275l1.44787-.09036c.7095-1.322125.7198-2.102604.843077-3.583522.68007 1.661385-.439157 3.00176 1.0948 3.462584l.71942.0048c-.59595-3.388055.18067-4.245422.49609-5.953125-.13335 1.863695-.40963 3.654095.62839 6.118489 2.42741-3.553563 4.92063-4.771105 7.40833-6.184635-3.07519 2.836381-7.7028 6.704017-4.10105 9.028905-9.865587-3.302214-17.939106-.374842-25.9953 2.612761z" style="fill:#ac9900;stroke:#000;stroke-width:.14170633;stroke-linecap:round;stroke-linejoin:round;stroke-miterlimit:1.5"/><path d="m80.814845 92.819162c-.302998-.0967-.614653-.166667-.910579-.281215-4.213267-1.630885-6.349675-2.023704-14.199996-1.457144 6.386985-1.23569 7.655665-1.345881 16.316562-.720386-4.147633-5.518954-9.922744-5.884228-15.08125-8.202083 5.856335 1.57124 11.649815 2.912016 18.047152 6.46693l4.177849-12.02318c-1.092127 4.191258-.61598 8.046053.20314 12.124061 1.9845-4.029484 5.05427-7.516328 7.99894-11.065727-2.07889 3.02696-3.33743 6.031132-3.175 8.995833 2.32023 1.785786 3.77937.533337 4.69669-1.834637-.58872 4.554027.19059 3.481183 1.515247 2.329049.31891-.277373.95544-.618603.44477-2.719801.99443 1.647815 1.43224 1.7705 1.77481 1.620441.65301-.286047 1.10536-1.176327 1.1265-3.254216.74874 3.544507 1.26161 3.07272 1.95188 3.059569 3.80411-.07247 3.19284-.503092 7.67961-.258739-6.45722.04628-9.81972 2.028244-9.99049 2.340153.54663-.241777 1.43325-.329677 2.55372-.300477 4.95673.129177 12.40843 1.591224 17.32821 3.119984-22.42775-3.645303-7.22827 3.354402-12.32709 1.007546-5.35983-2.466994-19.658507-4.393261-30.130675 1.054041z" style="fill:#fff8a0;stroke:#000;stroke-width:.14170633;stroke-linecap:round;stroke-linejoin:round;stroke-miterlimit:1.5"/><path d="m84.230384 90.585272c-14.761343 4.248975-26.178671 12.691348-36.56831 26.852178-12.691052 17.29762-20.522046 41.15926-20.522046 67.50522 0 26.34595-17.5808386 66.20585-4.889785 83.50346 12.691051 17.29761 55.007514 13.51499 74.44881 13.51499 16.297107 0 15.747647-.0501 52.119387.17791 13.19115.0827 24.66987-4.49054 29.89888-11.61755 12.69106-17.29762-11.10954-59.23286-11.10954-85.57881 0-26.34596-7.82902-50.2076-20.52007-67.50522-9.40101-12.81333-24.95539-22.844974-34.56189-25.751829-11.64711-4.994478-22.700837-3.606697-28.295436-1.100349zm46.116036 112.130998c13.32372 3.8396 7.04234-24.2374 16.35447-11.54519 12.55253 17.10882 19.93294-32.38489 19.93294-6.22841 0 26.15647 19.76775 62.68909 8.72705 84.07405-16.71782 13.75308-39.03698 9.034-58.1161 9.034-19.079117 0-78.276506 5.79862-90.829034-11.31019-12.552529-17.10881 1.698231-55.64139 1.698231-81.79786 0-26.15648 12.331405 25.59053 24.883934 8.48172 10.333233-14.08396 22.640585 12.29602 37.751032 9.33106 17.109697 5.65859 40.056987-.48021 39.597477-.0392z" fill="url(#radialGradient4354)"/><path d="m103.21403 177.38644c-4.654487 10.0529-8.121297 15.34209-11.201107 17.70897-4.209427 3.235-7.695935-3.88387-7.011461-14.40604-6.333486 6.83281-9.615197 10.55568-11.068712 9.67874-5.516548-3.32826-5.925185-6.21856-9.528804-10.56551-2.677634 6.14938-4.524043 5.80069-16.855073 15.51088 1.764037-3.28012-2.932537-2.72132 2.203275-14.72348-3.839689-2.74176-7.567242 1.61283-11.937543 5.92046-.693396-9.06437-5.886048-6.85655-5.564502-12.46653-2.625634 1.40148-5.197965 4.65716-5.286387 11.08654 0 26.29514-17.6007976 66.07815-4.895338 83.3424 12.705461 17.26424 55.069964 13.48891 74.533335 13.48891 16.315607 0 15.765527-.05 52.178557.17757 13.20612.0826 24.69786-4.48187 29.93282-11.59514 12.70547-17.26425-11.12216-59.1186-11.12216-85.41374s-.65202-8.56672-12.62495-.35194c-7.177.23329-13.46369-1.83003-21.86753-15.79586 2.17435 16.65113-3.80411 25.66334-11.84013 14.12037-2.54354 4.86119-1.93633 11.2101-3.80586 14.0021-8.54328-3.79128-10.72422-1.17835-14.23843-19.7187z" fill="#ffdc00"/><path d="m104.01523 232.01633c-17.50554 40.36127-21.790106 7.14635-24.531766 2.3677-3.932286 8.91354-2.514159 23.41617-11.429369 3.96431-6.254482 6.83281-10.528684 7.26311-10.613208-.16692-9.116143 10.29154-2.717636 9.3699-7.871172 17.80303-2.44098-6.31762-4.621349-12.74652-7.123138-14.13433.351313 3.99099-1.890274 11.79633-3.352017 13.97305-7.652308 6.06358-9.047918-1.26298-8.023073-18.9407-2.592882 1.40148-3.447715.13655-10.644404 6.19175-.56516 2.45121-5.032727 9.13015 2.706352 25.39865 9.168079 19.27244 54.383025 13.48891 73.603608 13.48891 16.112087 0 15.568867-.05 51.527687.17757 13.04139.0826 25.86647-3.6148 29.55944-11.59514 5.27483-11.39869 3.40682-14.38126.23867-31.29349-2.16826-11.57467-1.61658 4.38287-7.90161-.71036-.13347 7.3422-.75582 11.50587-6.28085-5.86666-.64744 21.90603-3.17015 6.25704-5.20406 7.67016-7.08748.23329-5.43802 5.46643-13.73703-8.4994-6.08468 27.1281-13.67236 16.30891-21.60814 4.76594-2.51182 4.86119-6.44532 15.59964-13.29991 15.6859-3.53239.0445-11.525877.69253-6.01601-20.27997z" fill="#ffbf00"/><path d="m84.409928 90.955081c-14.59376 4.24078-25.88147 12.666869-36.153157 26.800389-12.546973 17.26425-20.289063 41.07986-20.289063 67.375s-17.381247 66.07815-4.834273 83.3424c12.546973 17.26424 54.383025 13.48891 73.603608 13.48891 16.112087 0 15.568867-.05 51.527687.17757 13.04139.0826 24.38979-4.48187 29.55944-11.59514 12.54698-17.26425-10.98342-59.1186-10.98342-85.41374s-7.74013-50.11075-20.28711-67.375c-9.29427-12.78862-24.67207-22.800915-34.16951-25.702163-11.51488-4.984843-22.443117-3.599739-27.974202-1.098226zm27.600822 1.715752c13.17245 3.832196 24.55719 12.983307 33.7636 25.651037 12.41002 17.07581 20.10351 40.70258 20.10351 66.8086s19.54333 62.56817 8.62797 83.91189c-16.52802 13.72654-38.5938 9.01657-57.45631 9.01657-18.862517 0-77.38785 5.78744-89.797872-11.28837s1.678951-55.53407 1.678951-81.64009 7.693493-49.73279 20.103515-66.8086c10.215922-14.05679 20.796051-23.314143 35.734948-26.273383 10.830051-7.449206 27.695978.182165 27.241688.622346z"/><path d="m111.81346 92.767893-1.40316-2.174904-9.77538-2.315223-6.361017.09354-7.740793 1.449938-6.761236 1.994379.46302 1.852083 8.731249-2.38125z" fill="#fff8a0"/></g><g fill="#2c7f3d"><path d="m12.607548 233.47714c-1.759583-13.32317-6.8587277-18.2904-11.3469201-31.61357 3.8268159 10.26453 10.2898301 11.66944 12.5648371 21.21747.353215-8.57253-2.971923-12.75184-2.668096-22.28847 1.773852 9.68957 5.554482 15.32408 8.664004 25.01365 3.754651-6.11565-.636608-13.88501-1.12641-22.15257 3.629812 9.55732 5.738365 15.15422 7.403386 22.15257 5.611096-8.47812 4.013684-11.85345 14.354458-22.57349 0 0-7.607902 11.9407-7.609058 21.52013-.000227 1.88433-.09369 8.72427-.09369 8.72427z"/><path d="m49.353657 233.7378c.8878-7.79058 1.82947-19.71994.98486-28.77046 1.15501 7.01537 1.99808 12.25585 2.14319 23.55705 4.74853-7.30804.92547-8.99332 1.54805-25.64722 1.33427 9.28121 3.4455 14.54072 6.6898 23.38115 4.14458-5.63242 9.43445-18.01306 9.96724-24.58769.32308 9.56183-2.77578 27.7372-1.52217 27.20132 6.734814-9.96341 10.769614-16.54759 12.294764-26.511.45571 10.96471-6.40059 20.1633-1.86793 28.94393 5.5033-7.30755 3.21916-17.84864 3.45091-25.31593.5434 6.64159 2.25245 16.6782 4.543 22.883 5.64763-7.87711 1.4506-14.07392 3.05575-25.67011-.96621 11.81265 3.22963 18.65703 5.63327 30.62286z"/><path d="m166.26564 232.94808c-2.67716-13.40317-6.66587-11.72778-10.88215-25.13095 4.47766 12.10988 8.18188 9.1412 13.28137 21.25108-.64046-13.29058-7.89456-19.95661-9.59686-33.68428 2.64262 13.2856 9.70656 19.34053 13.36706 32.62613 2.73439-14.6494-3.62734-13.81914-3.59883-31.03891 1.58292 15.87644 6.48708 12.77767 9.76825 28.21719 3.4379-5.31416 2.36685-12.57565 5.05549-24.77823.0816 9.18136.36204 18.31719-1.54235 27.95268 8.32115-9.15268 7.19089-13.27848 11.48197-23.36739-.42697 8.82485-5.09088 20.08447-3.85589 28.48174z"/></g></g></svg>
