<svg id="mainMenu" height="93.683197mm" viewBox="0 0 131.37282 93.683197" width="131.37282mm" xmlns:xlink="http://www.w3.org/1999/xlink" xmlns="http://www.w3.org/2000/svg">
  <g id="layer1" transform="translate(-52.569353 -42.024946)">
    <g id="g5080" opacity=".66600001" stroke-width=".69925475" transform="matrix(1.4379546 0 0 1.4222766 -34.3297 75.949731)"><path
      id="path4418-1-1"
      d="m90.984265-18.510676.0751.52171c-1.63895.15831-2.90013.40059-4.28121.61619.10804.57048.68309 1.49537 1.28405 1.49963.92066.056 1.72659-.75082 2.48299-1.2462.16756-.0984.39539-.27251.36094.0294-.10853.47068.002.80329.17145 1.15022-1.19172.6451-2.57047 1.06794-3.93456.87607-.862777-.13918-1.669877-.69728-2.011367-1.51601-.34689-.77742-.43771-1.68175-.21193-2.50529.26602-.87326 1.01251-1.5516 1.881717-1.8028.9492-.31532 2.07716-.34942 2.93392.2327.67698.44566 1.10187 1.20086 1.22444 1.99303.009.0502.0171.10127.0244.15133zm-1.96992-.33778c-.0404-.58309-.59559-1.09741-1.19073-1.0142-.55473.0287-1.08893.44871-1.157787 1.0163.053.17896.0303.15843.258357.32048.70647.30239 1.38379-.0545 2.09016-.32258z"
      fill="#ff6f69"/><path
      id="path4442-4-1"
      d="m86.711898-19.615456c-.17018-.0548-.33774-.0891-.50272-.10283-.16199-.0176-.3233-.0162-.48393.004-.47163.0599-.81627.25824-1.03396.59497-.21471.33288-.24735.8923-.21459 1.34519.0699.96648.86638 2.77492.86638 2.77492l-2.36558.10348-.72943-5.74162c.7129.40098 1.28683.14423 1.83526-.23316l.11985.94327c.18805-.4059.42329-.71361.70576-.92314.28565-.21307.64175-.34721 1.06897-.40148.0616-.008.12858-.0129.20123-.0151.0722-.006.17777-.009.31662-.009-.16218.47782-.2126.9917.21614 1.66033z"
      fill="#c9de55"/><path
      id="path4414-0"
      d="m60.432404-18.305006c.62043.44996 1.892884.589808 2.513314.01558l2.25916 4.753142.0727-5.76039c.67066.42356 1.913673.331889 2.490793-.367081l1.890457 5.135741.0828-5.76263c.59559.1103 1.165369.473395 1.821689-.175455l.603951 7.503475-3.46735.8144-2.09214-5.54933.71805 5.85067-3.712216 1.499208z"
      fill="#96ceb4"/><path
      id="path4416-1"
      d="m77.724569-17.588599c.30167.59001 1.24179 2.41848 1.44758 3.57509-.61054.10857-2.10974.36926-2.72027.47789-.23997-1.25999-.41276-2.53419-.71631-3.78117-.15133-.47523-.92941-.33326-1.29882-.1048-.40306.24926-.59454.7692-.5307 1.31896.51583 1.66849.43734 1.38393.85584 2.87789-.60713.10804-2.11464.40316-2.72178.51117.1853-4.91899.113186-4.786577-.882514-8.033457.79459.359604 1.808127-.09876 2.293987-.546248.27454 1.76592-.238943 1.976635-.338533 4.140095.49839-1.03086 2.20912-2.53575 3.30011-2.09845.78368.30478 1.00975 1.07304 1.31141 1.66303z"
      fill="#ffeead"/><path
      id="path4418-6"
      d="m83.169858-17.554086.0751.52171c-1.63894.15831-2.90012.40056-4.2812.61616.10804.57048.68309 1.49537 1.28405 1.49963.92066.056 1.72659-.75082 2.48298-1.2462.16757-.0984.3954-.27251.36095.0294-.10853.47069.002.8033.17145 1.15023-1.19172.6451-2.57047 1.06793-3.93456.87607-.86278-.13918-1.66988-.69728-2.01137-1.51601-.34689-.77742-.4377-1.68172-.21193-2.50526.26602-.87326 1.01251-1.5516 1.88172-1.8028.9492-.31532 2.07716-.34942 2.93393.2327.67696.44566 1.10186 1.20086 1.22442 1.99303.01.0502.0171.10127.0245.15132zm-1.9699-.33778c-.0404-.58309-.5956-1.09741-1.19074-1.0142-.55474.0287-1.08894.44871-1.1578 1.0163.053.17896.0303.15843.25837.32048.70647.30238 1.38378-.0545 2.09017-.32258z"
      fill="#ff6f69"/><path
      id="path4426-3"
      d="m101.89253-21.845303c-.36531.313-.3963.93496-.0583 1.27914-.38835-.076-.45747-.0867-.62592-.1131-.12885-.0201-1.269349-.32057-2.001599-.0909-.30143.13941-.35587.70083.002.81076.60803.15871.77799.12606 1.288899.248.57984.094 1.23809.23883 1.59532.75073.36421.57682.37378 1.35772.0535 1.95468-.35828.58818-1.06012.82159-1.70798.90857-1.034339.15653-2.085849.007-3.098489-.21679.3067-.3286.29279-.76999-.0139-1.22533-.20181-.29959.25263-.0625.54387.0415.78322.24191 1.90686.80023 2.480029.20077.29317-.30664.34218-.85118-.1595-1.26267-.501679-.41149-2.462119-.2717-2.843609-.83124-.39924-.58556-.38647-1.28685-.0165-1.88882.4089-.58206 1.15389-.74671 1.82057-.80865.919869-.0901 1.843689.051 2.741659.24344z"
      fill="#96ceb4"/><path
      id="path4424-8"
      d="m95.469305-21.235666c.61603.29927 1.313573.241818 1.929603-.07583l.26303 5.78178-1.8481.0841zm-.0209-2.292091c.7102-.4989 1.486017-.339412 2.043707-.07583l-.127007 1.548731c-.61603.35142-1.297272.445498-1.913302.09237z"
      fill="#ffeead"/><path
      id="path4428-4"
      d="m110.82345-20.993216c.54451-.76329 1.57623-1.12999 2.47579-.84688.71074.18236 1.2413.83398 1.31001 1.56018.0389 1.55427-.16276 3.00512-.29095 4.44296-.61768-.0549-1.23536-.1098-1.85304-.16471.27458-1.25871.81454-2.5449.40718-3.72602-.13137-.38086-.44224-.83554-.84404-.86511-.45447-.0331-.93684.35827-1.08757.82823-.39623 1.23542-.30971 1.55625-.12358 3.60933l-2.42513-.19627c.5857-2.0251.99927-2.86541.86336-3.70062-.10378-.63767-.45769-.88499-.9342-.87092-.51731.0152-.93484.42495-1.04157.90791-.32662 1.2997-.32404 1.49534-.17304 3.51833-.61769-.0549-1.44617-.10972-2.06385-.16462.53654-1.98031.44701-3.772287.2589-5.636417.6169.36081 1.58042.519847 2.19883.287487.005.22597-.0622.628467.028.641117.11938-.506928 1.49366-1.105647 2.33263-.698767.44767.20952.80867.60322.96228 1.07481z"
      fill="#c9de55"/><path
      id="path4430-5"
      d="m113.25693-21.401557c.51378.31047 1.24863.44651 1.82216.17342.16901 1.57883.49014 2.70162 1.03776 3.40383 1.23508-.905 1.60583-1.94023 1.82881-2.96609.47461.29282 1.0705.53708 1.62086.30296.40254-.0866-.0808.49935-.18458.67042-1.90006 3.13127-2.17737 3.65106-3.96163 5.73497-.55985.65387-1.70986 1.3976-2.20173 1.34952.20379-.3328.16208-1.32776.0204-1.83383.46044.0334 1.16171-.24649 1.4411-.70195.32503-.52986.071-1.25149-.0318-1.86456-.24735-1.47601-.82118-2.25306-1.39139-4.26874z"
      fill="#aad8b0"/><path id="path4432-0" d="m123.43244-23.15265c.46663.31297 1.86222.566826 2.67661.344306l-1.58249 7.838968-2.29171-.29463z" fill="#96ceb4"/><path
      id="path4436-4"
      d="m132.58357-20.347729-.71804.736683 1.80972.61494-.26734 1.29563-1.74707-.0501s-.36108.90487-.45958 1.37938c-.0856.41225-.1958 1.14219-.1107 1.25824.0858.11268.28388.20104.59431.26509l.93123.19215-.26734 1.29563-1.55373-.32061c-.71529-.14758-1.19246-.40082-1.43147-.75969-.23496-.36155-.27868-.89997-.13105-1.61527l.42111-2.15845-.82594-.43142.26734-1.29562.62029.101233.30294-1.475114c.4972.35716 1.94112.608473 2.67692.445853z"
      fill="#ffeead"/><path
      id="path4442-3"
      d="m145.80147-14.302406c-.13436-.11794-.27448-.21602-.42037-.29426-.14163-.0806-.2902-.14344-.44569-.18858-.45657-.13257-.85167-.0876-1.18529.13478-.32936.22006-.58177.72038-.73179 1.14894-.32014.9146-.30844 2.89062-.30844 2.89062l-2.21167-.84568 1.61374-5.55823c.49468.65139 1.12338.64401 1.77665.51582l-.26511.91313c.33394-.29765.67216-.48645 1.01463-.56639.34684-.0819.72692-.0634 1.14048.0567.0596.0172.1231.0392.19066.0661.0685.0234.16654.0628.29408.11766-.33879.37392-.5894.82538-.46188 1.60937z"
      fill="#c9de55"/><path
      id="path4444-3"
      d="m148.18113-11.403976c-.39988-.81581-1.0395-.82844-1.70262-.76237.16868-.45682.47653-.88889.94299-1.07371.57657-.29658 1.28165-.34118 1.78241-.77887.3023-.28535.36256-.83256.0117-1.10694-.47587-.42769-1.26504.158934-1.87397.163844-.2056.012-1.38956.130981-.98237-.153429.30996-.31575.17684-1.091945.10362-1.541445.3641-.06253 1.59724-.154501 2.23169-.03229.63444.122213 1.73782.433031 2.35261 1.255911.38863.55888.36269 1.31555.0474 1.90109-.28725.60225-.88687.97242-1.50629 1.16039-.44003.15334-.97472.23712-1.25519.64875-.0603.10151-.10241.21217-.15193.31904zm-2.01517-.0647c.35892.67924.89563.99616 1.70263.76238-.52388.41572-1.03598.8376603-.75183 1.6790403-.43648-.78248-1.0437-.87662-1.70261-.76239.74091-.2327803.66391-1.0108803.75181-1.6790303z"
      fill="#aad8b0"/><path
      id="path4418-3-3"
      d="m129.86643-16.832776-.10493.51653c-1.59652-.40287-2.86562-.59948-4.23864-.86157-.0904.57355.13962 1.63807.70404 1.84446.84803.36277 1.87859-.12552 2.75762-.33724.19092-.0362.46408-.12344.32997.14923-.2607.40664-.26863.75705-.22592 1.14077-1.33936.2061-2.77995.13993-3.99976-.50009-.76552-.42161-1.33753-1.2189-1.38336-2.10481-.0649-.84884.15423-1.7309.64412-2.4303.54456-.73267 1.47588-1.12001 2.37892-1.06381.99995.0228 2.0735.37049 2.68419 1.20713.48735.6476.63309 1.50177.48174 2.28895-.009.0503-.018.10112-.028.15071zm-1.74109-.98143c.15832-.56264-.19124-1.23389-.77965-1.35595-.53199-.15979-1.17644.0558-1.43241.56704-.0106.18634-.0248.15938.13535.38876.56337.52264 1.3213.41469 2.07671.40015z"
      fill="#ff6f69"/><path
      id="path4418-13-0"
      d="m142.14089-13.716186-.18157.49483c-1.51764-.63868-2.74266-1.02416-4.06057-1.49001-.17572.55338-.10868 1.6404.41827 1.92943.78373.48633 1.87607.15879 2.77697.0819.19418-.007.47736-.0522.30373.19722-.31897.36275-.37958.70797-.39513 1.09375-1.35512.002-2.76934-.28028-3.87885-1.0967-.6933-.53207-1.13872-1.40642-1.05063-2.28913.0637-.84891.41308-1.68794 1.00274-2.30559.64869-.64231 1.62771-.88499 2.51199-.69345.98512.17307 1.99407.67851 2.4718 1.59757.38428.71361.39974 1.58.13157 2.33541-.0159.0485-.0331.0973-.0504.14476zm-1.57345-1.23243c.24124-.53238-.003-1.2486-.56657-1.45789-.50186-.23808-1.17142-.12202-1.50147.34487-.0383.18268-.0485.15383.0753.40471.47825.60153 1.2438.60893 1.99278.70831z"
      fill="#ff6f69"/><path
      id="path4436-1-3"
      d="m137.56441-18.770739-.80836.308813 1.79459.65778-.29804 1.28889-1.74538-.0916s-.38249.89602-.49224 1.36808c-.0953.41008-.22287 1.1372-.14051 1.25524.0832.1147.27902.20774.58785.27914l.9264.21422-.29805 1.28891-1.54568-.35743c-.71157-.16453-1.18258-.42903-1.41301-.79349-.2263-.36702-.25722-.90634-.0926-1.61792l.47227-2.14783-.81545-.45092.29803-1.28891.5434.02444.41757-1.476757c.7825.760587 1.96203.836676 2.70148.691586z"
      fill="#ffeead"/></g><path
      id="rect5001"
      d="m75.924235 56.345256c26.424705-3.540389 54.279015-4.57607 83.348495-.71107.51372.0683.93544.41721.93544.93544v78.203074c0 .51824-.4172.93544-.93544.93544h-83.067375c-.518235 0-.935442-.4172-.935442-.93544v-78.203074c0-.51823.140677-.15555.654322-.22437z"
      fill-rule="evenodd"/>
    <g id="g4741" stroke="#000" stroke-width=".30694237" transform="matrix(1.4298681 0 0 1.6050783 -43.501763 -87.433963)"><path
      id="path4426-37"
      d="m111.84943 88.111115c-2.34181-.81852-3.601.403975-4.24886.490955-1.03434.15653-2.6432.190164-3.65584-.03363.3067-.328601.85014-.953155.54345-1.408495 1.92921-.816054-1.58257-1.043534.004-3.74046.4089-.58206 1.47818-.435144 2.14603-.384293 1.53931.117205 2.0627.24949 2.90526.307989 2.52737.175475 2.61654.163163 3.26587-.223677 1.58249-.942771-.0921 3.889968-.95991 4.991611z"/><path
      id="path4418-1-2"
      d="m104.58887 88.718327c-3.42114.176199-8.481993.983325-9.889238 1.031759-.876068.03015-1.66988-.69728-2.01137-1.516009-.34689-.777421-.417219-1.632297-.191439-2.455837.26602-.87326 1.01251-1.5516 1.88172-1.8028.949199-.31532 2.07716-.34942 2.933921.2327.676971.44566 4.167416 2.086478 6.289806-1.01086 1.30373-1.902626.0474 4.191163.9866 5.521047z"/><path
      id="path4442-4-9"
      d="m94.28899 85.247741c-.170177-.0548-.337746-.0891-.502726-.102831-.16199-.0176-.323292-.0162-.483925.004-.471631.0599-.816275.25824-1.033956.59497-.21471.332881-.340186.906391-.214592 1.34519.309622 1.081756 2.245763 2.681669 2.245763 2.681669l-3.744966.196731-.729429-5.74162c.7129.40098 1.286832.14423 1.835261-.23316l.119845.94327c.188049-.4059.423297-.71361.70576-.92314.28565-.21307.641758-.34721 1.068976-.40148.0616-.008.128578-.0129.201231-.0151.07219-.006.177767-.009.316619-.009-.162187.47782-.212605.9917.216136 1.66033z"/><path
      id="path4414-2"
      d="m68.351533 86.5722c.620427.449959 1.24086.159859 1.861287-.41437l2.519971 5.183089.0727-5.76039c.670664.42356 1.294249.28228 1.871367-.41669l2.533069 4.066328.05961-4.643608c.595587.1103 1.988279-.375381 1.991031-.326899l.434603 7.654919-3.467351.814403c1.665372-.56121 1.246136-.210605-1.374084.30134l-3.549209.83775z"/><path
      id="path4416-90"
      d="m84.932819 87.134281c.301673.59001 1.241785 2.41848 1.447576 3.575089-.61054.10857-2.109738.36926-2.720263.47789-1.477598.282584.01271-.01218-1.689998.31088-.60713.10804-2.114639.40316-2.721776.51117.185301-4.918989.101661-4.79827-.894043-8.045149.794596.248129 1.335552.0144 1.821415-.324081.274537 1.765921.245157 1.76616.145571 3.929621.498389-1.03086 2.209121-2.535751 3.300111-2.098451.783673.30478 1.009745 1.07304 1.311407 1.663031z"/><path
      id="path4418-2"
      d="m90.74695 87.30911c-.468127.222954-.114214.947662-.0781 1.4207-.108533.470691.0016.803301.171444 1.15023-1.191719.645101-2.570467 1.06793-3.934556.87607-.862779-.13918-1.669882-.697279-2.01137-1.51601-.346887-.777419-.437705-1.68172-.211931-2.505259.266025-.87326 1.012507-1.551601 1.881722-1.8028.949197-.315321 2.077157-.349421 2.933924.2327.676965.445659 1.101862 1.200859 1.224424 1.99303.0095.0502.01708.101269.02445.15132z"/><path id="path4424-7" d="m102.92719 83.0408c.61603.29927 1.35128.16709 1.96731-.150557l.26303 5.78178-1.8481.0841zm-.0733-1.745738c.4889-.235144 1.3027-.435599 1.95055-.190331l.0737 1.404799c-.61604.35142-1.35807.436799-1.9741.08367z"/><path
      id="path4428-2"
      d="m118.40055 83.86998c.54451-.76329 1.57623-1.12999 2.47579-.84688.71074.18236 1.2413.83398 1.31001 1.56018.0389 1.55427-.16276 3.005121-.29095 4.442961-.61768-.0549-1.23536-.1098-1.85304-.16471-.78764-.05453.12438-.0151-1.64801-.15357l-2.42513-.19627c-.68213-.0772-.78835-.132725-1.28545-.145301-.61769-.0549-1.88058-.131699-2.49826-.186599.53654-1.980311 1.18959-1.173349.66821-5.420692.6169.36081 1.3166.331131 1.93501.09877.005.22597.0769.5182.16711.53085.57467-.72325 1.67248-.808725 2.51145-.401845.44767.20952.77969.411535.9333.883125z"/><path
      id="path4430-7"
      d="m120.32111 83.04069c.51378.31047 1.21088.415795 1.92648.629318.71561.213524 1.52004-.03148 2.28292.0496.83424.08867 1.11638.480486 2.26787.362305 2.12277-.217867 5.41569-1.162 6.09375-1.262322.40254-.0866-1.7981.524659-2.33838 1.985393-1.08173 2.92465-1.88134 4.489303-1.88134 4.489303-2.053-1.628841-5.8552.207003-6.61646 1.096112-.55985.653871-1.7895 1.367405-2.28137 1.319325.28575-1.900684-.11659-2.353478-.25827-2.859549.46044.0334 1.65855.763405 2.22795.323769.52625-.406323.0931-1.253083-.0318-1.86456-.12946-1.178718-2.21324-4.023973-1.39135-4.268691z"/><path id="path4432-7" d="m130.86563 81.87885c.44039.31297 1.46257.515333 2.23118.292813l-.93566 7.722157-2.92098-.441161z"/><path
      id="path4436-9"
      d="m139.71691 83.87235-.27428 1.3798 1.80972.61494-.26734 1.29563.87578 1.034231c-.31308.847855 2.57852 4.148629.56082 3.897789-2.79292-.664308-2.57637-.608265-4.04948-.91224-.71529-.14758-1.19246-.400819-1.43147-.759689-.23496-.361551-.27868-.899971-.13105-1.615271l.42111-2.15845-.82594-.43142-.53591-1.412845 1.18405.130612.262-1.319652c.72642.437618 1.91379.441639 2.40199.256565z"/><path
      id="path4442-0"
      d="m152.94901 91.340843c-1.93955.2021-.34264.988751-1.04779-.423967-.45657-.13257-.24038-.926525-.574-.704146-.32936.22006-.71162.708609-.73179 1.14894-.0605 1.320345 1.8718 3.593973 1.8718 3.593973l-4.39191-1.54903s-4.68375-7.464703.88605-5.867295 1.59359.807708 2.24686.679518c6.92128 1.306223 1.00475.02322 2.97647.835137-.81148.830239-.83351 3.540796-1.23569 2.28687z"/><path
      id="path4444-1"
      d="m150.87541 90.572149c.68227-1.122546 3.65673 1.235811 4.12319 1.05099.79927-.252615 3.06872-.162936 2.07279-1.006622-.47587-.427689-2.50551.538575-3.11444.543485-1.36337.02699.47517-2.279862.31626-3.421353.98143-.04231 1.07257-.05755 1.71786.0085.99895.10225 2.01843.859903 2.63322 1.682782.38863.558881.36269 1.31555.0474 1.90109-.28725.60225-.88687.972421-1.50629 1.160391-.44003.153342-1.51568 1.174922-1.79615 1.586552-2.42832 3.602116-5.44297-1.944171-4.49384-3.505803z"/><path
      id="path4418-3-8"
      d="m137.44353 88.03042-.10493.51653c-.32768-.04635-.32099.520555-.44701.794881-.2607.406639-.26863.757049-.22592 1.140769-1.33936.2061-2.77995.13993-3.99976-.500089-.76552-.421611-1.33753-1.218901-1.38336-2.104811-.0649-.84884.15423-1.730899.64412-2.4303.54456-.732669 1.47588-1.12001 2.37892-1.06381.99995.0228 2.0735.37049 2.68419 1.20713.48735.6476.63309 1.50177.48174 2.288951-.009.0503-.018.10112-.028.150709z"/><path
      id="path4418-13-7"
      d="m149.71799 91.14701-.18157.49483c-.32072-.05639-.39597.466651-.5616.71854-.31897.362753-.37958.707973-.39513 1.093753-1.35512.002-2.76934-.28028-3.87885-1.096703-.6933-.53207-1.13872-1.40642-1.05063-2.28913.0637-.84891.41308-1.68794 1.00274-2.30559.64869-.64231 1.62771-.88499 2.51199-.693449.98512.17307 1.99407.678509 2.4718 1.59757.38428.713609.39974 1.579999.13157 2.335409-.0159.0485-.0331.0973-.0504.144761z"/><path
      id="path4436-1-1"
      d="m144.33315 86.40127 1.79459.65778-.29804 1.28889-1.74538-.0916s-.38249.896021-.49224 1.36808c-.0953.410081-.22287 1.1372-.14051 1.255241.0832.1147.27902.207739.58785.279139l.9264.21422-.29805 1.288913-1.54568-.357433c-.71157-.16453-1.18258-.42903-1.41301-.79349-.2263-.36702-.25722-.90634-.0926-1.617919l.47227-2.147831-.81545-.450919.003-1.406135.64112.182519.3958-1.400531c.48858.36887 2.05005.438858 2.44291.409993-.036.173181-.34182.958089-.42298 1.321083z"/></g><path
      id="path4418-1"
      d="m97.385139 51.229481.106493.742015c-2.323118.22516-4.11076.56975-6.068361.876392.153138.811381.968245 2.12683 1.820059 2.132889 1.304982.07965 2.447349-1.067874 3.519485-1.772441.237526-.139952.560458-.387584.511632.04181-.153837.669437.0023 1.142502.243021 1.635931-1.6892.917509-3.643497 1.518905-5.577013 1.246013-1.222953-.197952-2.366963-.991725-2.85101-2.156185-.491698-1.105706-.620434-2.391913-.300396-3.563215.377064-1.242017 1.435168-2.206805 2.667231-2.56408 1.345437-.448473 2.944252-.496972 4.158664.330964.959566.633851 1.561839 1.707954 1.735564 2.83464.01272.07139.02426.144033.03464.215232zm-2.792235-.480418c-.05727-.829315-.844217-1.560821-1.687809-1.442473-.786296.04083-1.543492.63819-1.641097 1.445459.07512.254532.04292.225332.366205.455812 1.001382.430082 1.961451-.07752 2.962701-.458798z"
      fill="#ff6f69"/><path
      id="path4442-4"
      d="m91.329305 49.658177c-.241212-.07794-.478739-.126725-.71258-.146253-.229619-.02503-.458258-.02304-.685939.0057-.668515.08519-1.157029.36729-1.465577.846213-.304339.473447-.35061 1.269096-.304176 1.913233.09914 1.3746 1.22805 3.946702 1.22805 3.946702l-3.353089.147177-1.033926-8.166171c1.010493.570304 1.824014.205134 2.601388-.331617l.169864 1.341591c.266559-.577303.600011-1.014953 1.000379-1.312962.404895-.303043.909657-.493828 1.515219-.571015.08736-.01133.182251-.01835.285233-.02148.102298-.0085.251967-.0128.448787-.0128-.229887.679591-.301354 1.410471.306367 2.361448z"
      fill="#c9de55"/><path
      id="path4414"
      d="m54.634086 51.522c.879422.639967 1.758851.227365 2.638272-.589349l3.571921 7.371787.103056-8.192868c.950631.602419 1.834528.40148 2.65256-.592648l3.557626 7.375002.117352-8.196054c.844212.156877 1.686498.338146 2.616799-.584698l.821403 11.00717-4.914779 1.158301-2.965487-7.892683 1.017797 8.321272-5.030809 1.191512z"
      fill="#96ceb4"/><path
      id="path4416"
      d="m78.067444 52.341359c.427606.839157 1.760164 3.439746 2.051861 5.084767-.865408.154416-2.990439.525188-3.855824.679691-.340152-1.792054-.585067-3.60432-1.015343-5.377869-.214491-.675908-1.317384-.473988-1.840997-.149056-.571312.354517-.842725 1.094018-.752247 1.875926.731161 2.373055.619912 1.968332 1.213108 4.093155-.860575.153666-2.997386.573407-3.85797.727026.262653-6.996164.144099-6.824465-1.267257-11.442428 1.126296.35291 1.893072.02048 2.581757-.460931.38914 2.511627.347496 2.511968.206338 5.589007.706439-1.466169 3.131309-3.606537 4.677726-2.984577 1.110815.433481 1.43126 1.526162 1.858848 2.365289z"
      fill="#ffeead"/><path
      id="path4418"
      d="m86.308652 52.590015.106494.742017c-2.323109.22516-4.110759.569706-6.068371.876349.15314.81138.968247 2.126829 1.820075 2.132889 1.304983.07964 2.44735-1.067874 3.519493-1.77244.237513-.139952.560456-.387584.51163.04181-.153849.669451.0023 1.142513.243009 1.635945-1.689198.91751-3.643498 1.51889-5.57702 1.246013-1.222941-.197954-2.366965-.991725-2.851007-2.156185-.491693-1.105707-.620422-2.391871-.3004-3.563172.377076-1.242019 1.435174-2.206806 2.667238-2.564082 1.345435-.44847 2.944256-.49697 4.158677.330965.95956.633852 1.561828 1.707955 1.735552 2.834639.01341.07139.02426.144035.03464.215219zm-2.792224-.480416c-.05725-.829315-.844225-1.560821-1.687808-1.442474-.786306.04082-1.543511.638191-1.641114 1.44546.07514.254532.04302.225333.366222.455812 1.001376.430069 1.961435-.07752 2.9627-.458798z"
      fill="#ff6f69"/><path
      id="path4426"
      d="m112.25886 46.253887c-.5178.445172-.56173 1.329772-.0826 1.819291-.55047-.108098-.64844-.123311-.8872-.160859-.18264-.02859-1.79924-.45594-2.83717-.129286-.42725.198281-.50443.996775.002 1.153126.86185.225728 1.10276.179292 1.82695.352724.8219.133693 1.75493.339682 2.26127 1.067746.51626.820398.52982 1.931053.0758 2.780095-.50785.836554-1.50267 1.16853-2.42097 1.292238-1.46613.222629-2.95658.0099-4.39194-.308335.43472-.467361.41501-1.095138-.0197-1.742757-.28605-.426101.35807-.0889.77092.05902 1.11015.344062 2.70286 1.138148 3.5153.285552.41556-.43613.48502-1.210615-.22609-1.795867-.7111-.585252-3.48992-.386432-4.03065-1.182255-.56591-.832825-.54781-1.830257-.0235-2.686422.57959-.827852 1.63558-1.062028 2.58057-1.150124 1.30386-.128147 2.61333.07253 3.88614.346238z"
      fill="#96ceb4"/><path
      id="path4424"
      d="m103.74246 46.424774c.87318.425643 1.74638.332172 2.61958-.119613l.37282 8.223289-2.61958.119613zm-.14515-3.201189c1.00666-.709574 1.82908-.494498 2.61958-.119613l.0973 2.143924c-.87318.499817-1.74639.621862-2.61959.119614z"
      fill="#ffeead"/><path
      id="path4428"
      d="m125.6275 47.541261c.69127-1.138945 2.1121-1.765601 3.41293-1.456866 1.02352.185365 1.84062 1.054916 2.01245 2.07796.21487 2.20076.0789 4.279643.0456 6.332488-.87888-.01423-1.75773-.02831-2.6366-.04238.25871-1.813859.88976-3.694081.19232-5.327509-.22491-.526683-.71115-1.139586-1.28221-1.140054-.64589-.000071-1.28757.604908-1.45232 1.287118-.43308 1.793362-.27777 2.239545.19655 5.132682l-3.4486-.02802c.6197-2.933118 1.11792-4.167796.83986-5.33853-.21229-.893844-.73806-1.208153-1.41024-1.139002-.72977.07495-1.2779.699277-1.3791 1.395381-.32807 1.877377-.3043 2.154636.11723 5.008706-.87889-.01423-2.05576-.0057-2.93464-.02049.55484-2.864493.58918-5.60586.13155-8.230757.90922.448145 1.78625.435826 2.63659.04238.0303.320011-.0897 1.111197.0394 1.11983.73802-1.085255 2.22054-1.58874 3.44844-1.098155.65443.250989 1.20527.77221 1.47094 1.42532z"
      fill="#c9de55"/><path
      id="path4430"
      d="m128.36326 46.911932c.74672.409373 1.79572.557234 2.59106.133694.33664 2.232961.8606 3.808501 1.67938 4.772422 1.69323-1.362329 2.15443-2.856245 2.40696-4.327719.69016.386733 1.54904.69696 2.31399.330253.5647-.14796-.0837.714536-.22006.964034-2.49769 4.566831-2.85836 5.322571-5.25661 8.394005-.7525.963734-2.33519 2.091642-3.03471 2.053739.26809-.48548.1477-1.896677-.0842-2.607005.65408.01906 1.62989-.422088 1.99749-1.086547.42761-.772992.0234-1.782667-.15997-2.647439-.44124-2.082014-1.30175-3.150656-2.23346-5.979537z"
      fill="#aad8b0"/><path id="path4432" d="m143.84078 44.533232c.66142.445129 1.43811.712106 2.59247.395619l-1.50373 11.337336-3.24837-.419044z" fill="#96ceb4"/><path
      id="path4436"
      d="m155.7209 47.701993-.38879 1.962456 2.56518.874615-.37894 1.842744-2.47637-.07126s-.51181 1.286977-.65143 1.961862c-.12134.586332-.27755 1.62451-.15691 1.789565.12162.160263.40238.285933.8424.37703l1.31997.27329-.37894 1.842744-2.20233-.455995c-1.01388-.2099-1.69025-.570077-2.02902-1.08049-.33305-.514223-.39502-1.280006-.18577-2.297359l.5969-3.069913-1.17072-.613598.37894-1.84273 1.35302.102405.3946-2.127001c.70475.50798 1.52522.763023 2.56817.531732z"
      fill="#ffeead"/><path
      id="path4442"
      d="m175.08555 57.214803c-.19045-.167743-.38907-.30724-.59586-.418519-.20075-.114639-.41134-.204011-.63174-.268212-.64716-.188552-1.20719-.124591-1.68007.191693-.46686.312987-.82463 1.02458-1.03728 1.634112-.45377 1.300813-.43721 4.111261-.43721 4.111261l-3.1349-1.202791 2.28737-7.90534c.70119.926457 1.59233.915959 2.51831.733639l-.37577 1.298724c.47334-.423342.95274-.691868 1.43818-.805564.49163-.116484 1.03037-.09017 1.61657.08064.0844.02447.17448.05576.27024.09401.097.03328.23607.08932.41685.167346-.48022.531817-.83545 1.173919-.65469 2.288969z"
      fill="#c9de55"/><path
      id="path4444"
      d="m178.45858 61.337172c-.5668-1.160307-1.47342-1.17827-2.41336-1.0843.23909-.649724.67545-1.264247 1.33664-1.527113.81724-.421819 1.81666-.485252 2.52646-1.107768.42849-.405848.51391-1.184131.0165-1.574375-.67452-.608294-1.64608-.672012-2.50921-.665028-.29142.01707-1.16089.211236-.58372-.193274.43934-.449084.74079-1.087386.63699-1.7267.42625-.197029 1.40179-.08192 1.8468-.01281 1.40154.217978 2.33387.990074 3.20531 2.16044.55085.79488.51409 1.871073.0672 2.703874-.40716.856566-1.25709 1.383049-2.13509 1.650395-.62371.218093-1.38161.33725-1.77916.922702-.0855.144376-.14516.301764-.21535.453763zm-2.85639-.09202c.50876.966067 1.26951 1.416814 2.41339 1.084315-.74258.591269-1.46844 1.191384-1.06568 2.388059-.61869-1.112903-1.47939-1.246794-2.41336-1.084329 1.0502-.331077.94106-1.437752 1.06565-2.388045z"
      fill="#aad8b0"/><path
      id="path4418-3"
      d="m152.49851 53.615918-.14875.734648c-2.26298-.572993-4.06185-.852627-6.00804-1.22539-.12813.815747.19791 2.329788.99794 2.623331 1.20204.51596 2.6628-.178523 3.90878-.479648.27062-.05148.6578-.175565.46772.212246-.36953.578354-.38077 1.076734-.32024 1.62249-1.89846.293134-3.94042.199019-5.66944-.711265-1.08508-.599647-1.89587-1.733614-1.96084-2.993623-.092-1.207285.21862-2.461817.91301-3.456557.77189-1.04206 2.09199-1.592965 3.37198-1.513033 1.41739.03242 2.93908.526939 3.8047 1.716872.6908.921066.89738 2.135934.68284 3.25552-.0127.07154-.0256.143821-.0397.214351zm-2.46791-1.395865c.2244-.80023-.27108-1.754933-1.10511-1.928536-.75407-.227266-1.66754.07936-2.03036.806487-.0151.265027-.0352.226683.19185.552925.79854.743339 1.87287.589803 2.94362.569124z"
      fill="#ff6f69"/><path
      id="path4418-13"
      d="m169.89687 58.048571-.25736.703785c-2.15117-.90838-3.88758-1.45664-5.75564-2.119207-.24906.787061-.15404 2.333103.59288 2.744183 1.1109.691697 2.65922.225843 3.93621.116484.27523-.0099.67662-.07425.43051.280501-.45212.51593-.53802 1.006929-.56007 1.555616-1.92081.0028-3.92539-.398636-5.49806-1.55981-.98271-.756753-1.61408-2.00032-1.48921-3.255777.0903-1.207386.58552-2.400719 1.42134-3.279186.91947-.913544 2.30718-1.258701 3.5606-.986279 1.39635.246153 2.82648.965029 3.50363 2.272186.5447 1.014951.56662 2.247197.1865 3.321599-.0225.06898-.0469.138388-.0715.205889zm-2.23028-1.752857c.34194-.757191-.004-1.775854-.80308-2.073523-.71135-.338615-1.66042-.173546-2.12825.490501-.0542.259821-.0687.21879.10673.575609.67789.855544 1.76301.866068 2.82465 1.007413z"
      fill="#ff6f69"/><path
      id="path4436-1"
      d="m162.69927 49.3462-.43511 1.952617 2.54374.935544-.42247 1.833158-2.47398-.130281s-.54215 1.274388-.69772 1.945789c-.13507.583247-.3159 1.617412-.19916 1.785298.11794.163136.39549.295464.83324.397014l1.31312.30468-.42245 1.833187-2.19092-.508365c-1.00863-.234006-1.67625-.610199-2.00288-1.128562-.32076-.522004-.3646-1.289066-.13126-2.301129l.66943-3.054809-1.15586-.641333.42243-1.833187 1.35024.134548.44484-2.116987c.69254.524635 1.50673.799163 2.55486.592805z"
      fill="#ffeead"/><path
      id="rect5004"
      d="m80.706772 61.679587c23.710548-5.376971 48.358538-5.597991 74.064538 0 .50636.110269.93544.4172.93544.935439v67.449954c0 .51823-.41721.93544-.93544.93544h-74.064538c-.518235 0-.935443-.41721-.935443-.93544v-67.449954c0-.518239.430041-.82083.935443-.935439z"
      fill="#eae1b9"
      fill-rule="evenodd"/>
    <g fill="none"><circle id="path5989" cx="84.06308" cy="69.011024" opacity=".65" r="2.4321527" stroke="#ff6f69" stroke-linejoin="bevel" stroke-width=".53200006"/><path
      id="path6010"
      d="m131.10423 81.272255c.12603.09949-.0719.218966-.16536.209462-.25318-.02576-.33002-.337123-.25356-.540191.13677-.363241.59184-.457447.91502-.297657.47427.234499.58814.849828.34175 1.289844-.3284.586472-1.10896.720208-1.66467.385851-.69931-.420754-.85297-1.36862-.42995-2.039496.51234-.812521 1.62859-.986137 2.41432-.474046.92597.603482 1.11956 1.888739.51815 2.789149-.69436 1.03956-2.14902 1.253147-3.16398.562241-1.15326-.785052-1.38685-2.409383-.60634-3.538802.87563-1.267038 2.66982-1.520648 3.91363-.650435 1.38087.966101 1.65451 2.930292.69454 4.288454"
      stroke="#ff6f69"
      stroke-width=".26458332"/><path
      id="path6014"
      d="m49.01723 121.13664-5.598328-2.56755-5.598328-2.56756 5.02273-3.56451 5.02273-3.56452.575598 6.13207z"
      opacity=".65"
      stroke="#c9de55"
      stroke-linejoin="bevel"
      stroke-width=".77947658"
      transform="matrix(.68196852 0 0 .68305032 84.69954 -15.314475)"/><path
      id="path6020"
      d="m45.649635 140.40677-4.293637-2.67954-5.060796.0603 2.679546-4.29363-.0603-5.0608 4.293637 2.67955 5.060796-.0603-2.679546 4.29364z"
      opacity=".65"
      stroke="#ffeead"
      stroke-linejoin="bevel"
      stroke-width=".78276426"
      transform="matrix(.6875 0 0 .67187501 86.826326 16.369886)"/></g>
      <path id="shadowButtonStart" class="shadowButtonMenu"
      d="m85.473267 69.030526c21.495663-4.55709 43.841203-4.744409 67.145913 0 .45906.0935.84255.353611.84806.792801l.15506 12.356889c-44.89856-.0405-23.06113-.02209-68.997093-.0397v-12.317229c0-.43922.38987-.69567.84806-.792801z"
      fill="#867452"
      fill-opacity=".6"
      fill-rule="evenodd"/><path
      id="path6008"
      d="m146.71146 120.65522-1.78894-.1967-.72807 1.64589-.72413-1.64763-1.78942.19242 1.06482-1.45093-1.06134-1.45347 1.78895.1967.72807-1.64588.72413 1.64762 1.78941-.19241-1.06482 1.45092z"
      fill="none"
      opacity=".65"
      stroke="#4d6a5c"
      stroke-linejoin="bevel"
      stroke-width=".53199995"
      transform="matrix(.966043901231 -.25837798067 .25837798067 .966043901231 -18.887608350636 -11.439301336847)"/><circle id="path5989-9" cx="151.08026" cy="102.96808" fill="none" opacity=".65" r="3.887361" stroke="#96ceb4" stroke-linejoin="bevel" stroke-width=".53200012"/><path
      id="path6006"
      d="m90.226106 104.42328-3.17216.3236-.650051 3.12166-1.866331-2.58537-3.028461.99787 1.305829-2.90897-2.37841-2.12379 3.17216-.32361.650052-3.121657 1.86633 2.585367 3.028461-.997867-1.305829 2.908977z"
      fill="none"
      opacity=".65"
      stroke="#c9de55"
      stroke-linejoin="bevel"
      stroke-width=".53200001"/>
      <path class="shadowButtonMenu" id="shadowButtonLevels" d="m153.43892 103.45219.15507-16.322652c-44.89857.0535-23.06113.0292-68.997105.0524v16.270262c35.913165-.0108 36.070705.0324 68.842035-.00005z" fill="#867452" fill-opacity=".6" fill-rule="evenodd"/><path
      id="path6012"
      d="m100.67396 180.71562c.17245.12603-.0848.29464-.20946.28663-.33784-.0217-.4554-.43182-.36381-.70555.16385-.48965.76413-.6374 1.20165-.44097.64209.28826.82391 1.10061.51815 1.69774-.40754.79588-1.43855 1.01229-2.19384.59531-.950451-.52472-1.201629-1.77716-.672485-2.68993.640865-1.10548 2.116165-1.39152 3.186025-.74965 1.2608.75641 1.58176 2.45539.82682 3.68211-.87159 1.41631-2.79478 1.77223-4.178207.904-1.571939-.98654-1.962854-3.13428-.981166-4.6743 1.101305-1.72768 3.473863-2.15361 5.170403-1.05834 1.88347 1.21595 2.34443 3.81351 1.1355 5.66649"
      fill="none"
      stroke="#96ceb4"
      stroke-width=".26458332"
      transform="matrix(-.924814302251 .380418856461 -.380418856461 -.924814302251 270.615512126927 254.267772951588)"/><path id="path6018" d="m153.47299 127.28915-4.09245-2.87571-4.09244-2.87571 4.53666-2.1063 4.53666-2.10631-.44422 4.98201z" fill="none" opacity=".65" stroke="#ff6f69" stroke-linejoin="bevel" stroke-width=".53200001"/>
      <path class="shadowButtonMenu" id="shadowButtonAuthor" d="m153.39215 125.80929.15507-16.32265c-44.89857.0535-23.06113.0292-68.997108.0524v16.27026c35.913168-.0108 36.070708.0324 68.842038-.00005z" fill="#867452" fill-opacity=".63137255" fill-rule="evenodd"/>
      <a xlink:href="../level1.html" target="_top">
      <g id="buttonStart" class="buttonMenu" cursor="pointer" transform="translate(7.5438141 -54.464226)"><path
      id="rect5004-9"
      d="m77.253105 122.44968c21.49566-4.55709 43.841205-4.74441 67.145915 0 .45906.0935.84255.35361.84806.7928l.15506 12.35689c-44.89856-.0405-23.06113-.0221-68.997095-.0397v-12.31723c0-.43922.38987-.69567.84806-.7928z"
      fill="#d8c8aa"
      fill-rule="evenodd"
      stroke="#7e6c4b"
      stroke-linejoin="round"
      stroke-width=".13229166"/>
      <g id="g5987" transform="translate(-.85477999 .13927251)" pointer-events="none">
        <g id="g5422" opacity=".60900005" stroke-width=".97679114" transform="matrix(1.036272 0 0 1 -68.978236 -4.770761)"><path
          id="path5253-9"
          d="m163.63212 127.62326c.058.51515.23893 1.95718-.46458 1.55481-1.0795-.46468-2.40202-.96448-2.51827.12004-.16839 1.57075 1.20779 1.102 2.23524 1.71604 1.54272.60114 1.63597 2.97118.23739 3.78837-1.3563.73765-3.35127 1.46248-4.74402.96706-.0999-.69043.0434-3.09892 1.07404-2.46378 2.55546 1.14691 2.30333 1.08631 2.26978-.48141-.0248-1.15722-1.49288.13591-2.60846-.40182-1.4529-.70033-.76071-4.17122.633-4.84143 1.18481-.61367 2.66696-.33504 3.88588.0422z"
          fill="#ff6f69"/><path
          id="path5255-0"
          d="m164.63593 127.47745 6.98951.23146c-.28362.63121.16186.53812.29145 1.40767-2.00327-.22102-3.36445-.44497-3.36445-.44497l.10289 6.55415c-1.04832.009-1.21275-.0145-1.98071-.0281-.0982-.42697.42188-6.40627.42188-6.40627l-2.5005.10289c.20531-.38654-.0469-1.03034-.21542-1.41688z"
          fill="#ffeead"/><path
          id="path5257-7"
          d="m173.86591 128.86729c-.43079 1.34784-.79982 2.13514-1.13599 3.09121l2.04295-.0197c-.67213-2.22243-.29009-.89431-.90696-3.07149zm1.03626-1.47269c1.64636 4.53433.94342 3.52259 2.52326 7.84146-.69158.0143-1.20917-.003-1.70435.00012-.47593-1.40981-.28911-.79619-.70414-2.01237l-2.57059-.0716c-.34331.82204-.30204.73566-.87769 2.07898-.72449-.0292-.62674-.0149-1.61589-.0449.95832-2.51011 1.87101-4.93612 2.82932-7.44617.45148.12062 1.65185-.21649 2.12008-.34552z"
          fill="#96ceb4"/><path
          id="path5259-51"
          d="m181.75653 131.61882c1.26514.7156 1.61948 2.41362 2.34608 3.56349-1.21209-.0107-.94029.0119-2.16071-.0126-.143-1.15834-.19037-2.85267-1.38983-2.92615-.5715.0462-.87572.0796-.83924 1.01598l.0778 1.99804c-.95229-.006-.83197-.0361-1.63434-.0391-.007-1.16879-.81384-7.749-.81384-7.749 1.4191.10663 4.07064-.39959 5.33066.43567 1.09576.93401.63709 3.36081-.91662 3.71389zm-2.20908-3.04368.0331 2.20968c1.03854.023 1.87316.22195 1.91273-.97066.0497-1.49716-.77203-1.23902-1.9458-1.23902z"
          fill="#c9de55"/><path
          id="path5255-4-7"
          d="m190.51027 127.4773c-.15597.78831-.1254 1.47243.004 2.34198-2.00326-.22102-2.61444-1.14777-2.61444-1.14777l.1029 6.55415c-1.04832.009-1.21275-.0145-1.98072-.0281-.0982-.42697.32834-6.28934.32834-6.28934l-3.01443.34408c.20531-.38654.11377-1.08254-.0549-1.46908 2.28866-.17223 4.13189-.14882 7.22903-.30592z"
          fill="#ffeead"/></g><path
          id="path5253-6"
          d="m101.66902 123.62178c6.2155 3.5866 2.99219 6.73404 1.89515 8.11787-.5348-.93955-1.87827-1.0329-2.30292.027-1.350689-.0563-3.883356.0471-5.830107-.52481-.126322-.73881-.04455-2.76313 1.258199-2.08349 1.455078.62564 1.771975 1.04821 1.933523.0527.161547-.99552-.627066-.65603-2.037144-1.23144-1.836443-.7494-1.590015-3.68569.17161-4.40287 1.497583-.65666 3.371009-.35851 4.911689.0452z"
          fill="#040404"/><path
          id="path5253"
          d="m101.04603 123.90876c.058.51515.23893 1.95718-.46458 1.55481-1.079507-.46468-2.402022-.96448-2.518279.12004-.168382 1.57075 1.20779 1.102 2.235249 1.71604 1.54272.60114 1.63597 2.97118.23739 3.78837-1.356306.73765-3.032121.43722-4.424879-.0582-.09994-.69043-.275769-2.07366.754898-1.43852 1.151184.58467 2.303327 1.08631 2.269781-.48141-.02476-1.15722-1.014155-.85628-2.129737-1.39401-1.452902-.70033-1.239439-3.17903.154271-3.84924 1.184812-.61367 2.666965-.33504 3.885886.0422z"
          fill="#ff6f69"/><path
          id="path5255-46"
          d="m100.98032 123.45709 8.81168.004c.22948.0001-.57593 1.48827-.41501 2.43204-1.11503 2.30673-.58513 2.39999-.58513 2.39999l-2.24748 3.44506c-1.30176.009-2.02042.031-2.97404.0163-.12195-.46341.40529-5.96867.40529-5.96867l-3.09699.27051c.25494-.41953.88388-1.87562.67456-2.29516z"
          fill="#030303"/><path
          id="path5255"
          d="m102.04984 123.76295h6.52674c-.28362.63121-.30092.57119-.17132 1.44074-2.00327-.22102-2.43891-.24653-2.43891-.24653l.10289 6.55415c-1.04832.009-1.21275-.0145-1.98071-.0281-.0982-.42697.42188-6.40627.42188-6.40627l-2.5005.10289c.20531-.38654.20843-1.03034.0399-1.41688z"
          fill="#ffeead"/><path
          id="path5257-9"
          d="m112.55455 123.43121c1.60356 5.23088.89251 3.10998 2.79459 8.34428-.85074.0162-1.87607-.0112-2.4852-.008-.10595-.49678-2.54001-1.41457-3.59499.0274-.89122-.0331-1.60807-.0281-2.82488-.0618 1.16726-2.2117 2.7168-6.24792 3.36168-8.27139 1.02246.16096 1.9532.0226 2.63359-.0519z"/><path
          id="path5257"
          d="m111.27982 125.15279c-.4308 1.34784-.79982 2.13514-1.136 3.09121l2.04295-.0197c-.67213-2.22243-.29009-.89431-.90695-3.07149zm-.68266-1.42592c.42684.13307.86367.14602 1.39976-.0137 1.64635 4.53433 1.26258 3.48952 2.84241 7.80839-.69158.0143-1.20917-.003-1.70435.00012-.47593-1.40981-.2891-.79619-.70414-2.01237l-2.57058-.0716c-.34331.82204-.30205.73566-.8777 2.07898-.72448-.0292-.62673-.0149-1.61589-.0449.95832-2.51011 2.29698-5.25183 3.25529-7.76188z"
          fill="#96ceb4"/><path
          id="path5259-5"
          d="m122.98307 128.91104c1.43393.75512-1.1031 1.68332-.27956 2.89668-1.3738-.0113-2.11791-.0261-3.49531-.0401-.0777-.81931-1.70839-.94408-1.61426.0216-1.07934-.006-1.44543-.008-2.35485-.0115-.79725-1.62052-2.70292-8.35117-2.70292-8.35117.27471 1.13832 1.72685 1.54815 2.14626.0396 2.00675-.0294 4.49658-.002 5.48138.6056 3.12768 2.24149 4.96666.4135 2.81926 4.83933z"
          fill="#0d0d0d"/><path
          id="path5259"
          d="m119.17043 127.90432c1.26514.7156 1.61948 2.41362 2.34608 3.56349-1.21209-.0107-.94029.0119-2.16071-.0126-.143-1.15834-.19037-2.85267-1.38982-2.92615-.57151.0462-.87573.0796-.83925 1.01598l.0778 1.99804c-.95229-.006-.83197-.0361-1.63434-.0391-.007-1.16879 0-7.73246 0-7.73246 1.4191.10663 3.03339-.31691 4.29341.51835 1.09576.93401.8605 3.26159-.69321 3.61467zm-2.20908-3.04368.0331 2.20968c1.03854.023 1.87316.22195 1.91273-.97066.0497-1.49716-.77203-1.23902-1.9458-1.23902z"
          fill="#c9de55"/><path
          id="path5255-46-3"
          d="m117.16752 123.49979 11.14283.041c.10082.00037-.33037.85048-.12268 2.43737-2.43795-.60369-2.25511.66958-2.25511.66958l-.19159 5.18188c-1.30176.009-2.5389-.0147-3.49252-.0295-.12195-.46342.92377-5.92291.92377-5.92291l-2.45206.79967c.24551-3.03109-.35283-2.38846-2.06174-3.04269z"
          fill="#030303"/><path
          id="path5255-4"
          d="m121.39743 123.7628h6.52674c-.28362.63121-.30092.57119-.17132 1.44074-2.00327-.22102-2.43891-.24653-2.43891-.24653l.10289 6.55415c-1.04832.009-1.21275-.0145-1.98071-.0281-.0982-.42697.32834-6.28934.32834-6.28934l-2.36018.0795c.20531-.38654.16165-1.12388-.007-1.51042z"
          fill="#ffeead"/></g>
    </g>
  </a>
    <a xlink:href="../levels.html" target="_top">
    <g id="buttonLevels" class="buttonMenu" cursor="pointer" transform="translate(7.5438141 -54.464226)"><path
      id="rect5004-9-8"
      d="m145.24708 156.83696.15506-16.32265c-44.89856.0535-23.06113.0292-68.997098.0524v16.27026c35.913168-.0108 36.070698.0324 68.842038-.00005z"
      fill="#d8c8aa"
      fill-rule="evenodd"
      stroke="#7a6a4a"
      stroke-linejoin="round"
      stroke-width=".13229166"/>
      <g id="g5717" transform="translate(-113.88344 8.1814438)" pointer-events="none">
        <g id="g5687" opacity=".6520004" transform="translate(45.336785 3.4010847)"><path id="path5675" d="m160.3633 132.43514c.72523.34788 2.73096.62723 3.42513.19847-.17677 2.0364-.69851 3.54362-.36386 5.58002.91054.0719 1.82107.14663 2.73161-.29766v1.87069l-6.32209 1.12448z" fill="#aad8b0"/><path
          id="path5677"
          d="m166.18827 132.46788 5.96966-.0328c-.22008.35152-.0489 1.4123.19844 1.63918l-3.7268-.78538-.10524 1.75791 3.44033.18709c-.1255.33467-.1545.63717 0 .8785l-3.38186.21047.0351 2.2812 3.6.29233c-.1569.31634-.0884.6045 0 .89019h-4.97128z"
          fill="#c9de55"/><path id="path5679" d="m175.55307 139.77009-3.06801-7.28949c.61085.23628 1.97477-.29557 2.46144-.46292l1.55948 5.50755.97517-5.40716c.52613.19973 2.18642.1894 2.77482-.0468l-2.57008 7.68907z" fill="#ffeead"/><path
          id="path5681"
          d="m198.34967 133.46742c.058.49938-.23402.66164-.14229 1.39877.49626 3.00278-2.94136-1.97243-3.05762-.9211-.16838 1.52268 2.52657 1.70961 2.40475 2.08443 1.54272.58274 1.46647 2.45934.0679 3.25152-1.3563.71508-3.03212.42384-4.42488-.0564-.0999-.6693-.27577-2.0102.7549-1.39449 1.15119.56677 2.30333 1.05306 2.26978-.46668-.0248-1.1218-1.01415-.83007-2.12973-1.35135-1.45291-.67889-1.58671-2.88135-.193-3.53105 1.35018-.4907 3.19613.15612 4.58868.44167z"
          fill="#ff6f69"
          opacity="1"/><path
          id="path5683"
          d="m180.66878 132.31565 5.65547.0996c-.22008.35152-.32999.99888-.0827 1.22576l-3.85909-.3885-.10524 1.75791 3.44033.18709c-.1255.33467-.1545.63717 0 .8785l-3.38186.21047.0351 2.2812 3.6.29233c-.1569.31634-.0884.6045 0 .89019h-4.97128z"
          fill="#c9de55"/><path id="path5685" d="m186.91526 132.24305c.72523.34788 2.23486.21382 2.92903-.21494-.17677 2.0364-.68197 4.10586-.34732 6.14226.91054.0719 1.82107.14663 2.73161-.29766v1.87069h-4.80074z" fill="#aad8b0"/></g><path
          id="path5689"
          d="m208.13587 136.62219c.55986-.00069 1.20124-.2067 1.20124-.2067.63587.59106 1.21898 1.41233 2.3226-.0377l9.02148-.14633c.64603.66529 1.31041.73449 2.00052-.0324l8.62379.17539 4.25408-.22025c.72558 1.49318 2.49051 1.39215 2.73011-.21866l5.55611.67841c.4449.0543-.5523 1.40028-.0566 2.53727.0775.17764-.825.0123-.91291.32294-.16899.59701.71116.65513 1.16917 1.44841.45798.79327.4811 2.00493.0412 2.94666-.43988.94174-2.21578 1.71307-2.60563 1.71266l-15.6144-.0165c-1.04528-.82062-1.69943-.46785-2.31522 0h-2.99438c-1.03386-.54962-1.57327-.6821-2.56315 0h-6.22832c-.51824 0-3.59114-.0445-6.06884-.0755.0689-1.94105.23966-7.57211.31302-9.12277 1.20909.32397 1.5662.25588 2.12607.25518z"
          fill="#0d0d0d"
          fill-rule="evenodd"/><path id="path5691" d="m206.51454 137.14388c.72523.34788 1.44111.46186 2.13528.0331-.17677 2.0364-.40085 4.07279-.0662 6.10919.91054.0719 1.82107.14663 2.73161-.29766v1.87069h-4.80074z" fill="#aad8b0"/><path
          id="path5693"
          d="m212.40565 136.9451 4.87826.19878c-.22008.35152-.24731.65162 0 .8785l-3.49529.3391-.10524 1.75791 3.44033.18709c-.1255.33467-.1545.63717 0 .8785l-3.38186.21047.0351 2.2812 3.6.29233c-.1569.31634-.0884.6045 0 .89019h-4.97128z"
          fill="#c9de55"/><path id="path5695" d="m220.71212 144.84263-2.56521-7.69875c.61085.23628 1.13287.18385 1.61954.0165l1.89858 5.43739 1.88723-5.45393c.52613.19973 1.07558.23617 1.66398 0l-2.3713 7.68907z" fill="#ffeead"/><path
          id="path5697"
          d="m243.29167 137.16077c.058.51515.23893 1.95718-.46458 1.55481-1.0795-.46468-2.40202-.96448-2.51828.12004-.16838 1.57075 1.20779 1.102 2.23525 1.71604 1.54272.60114 1.63597 2.97118.23739 3.78837-1.3563.73765-3.03212.43722-4.42488-.0582-.0999-.69043-.27577-2.07366.7549-1.43852 1.15119.58467 2.30333 1.08631 2.26978-.48141-.0248-1.15722-1.01415-.85628-2.12973-1.39401-1.45291-.70033-1.23944-3.17903.15427-3.84924 1.18481-.61367 2.66696-.33504 3.88588.0422z"
          fill="#ff6f69"/><path
          id="path5699"
          d="m226.15856 136.90863 4.87826.19878c-.22008.35152-.24731.65162 0 .8785l-3.49529.3391-.10524 1.75791 3.44033.18709c-.1255.33467-.1545.63717 0 .8785l-3.38186.21047.0351 2.2812 3.6.29233c-.1569.31634-.0884.6045 0 .89019h-4.97128z"
          fill="#c9de55"/><path id="path5701" d="m232.58694 137.10062c.72523.34788 1.44111.46186 2.13528.0331-.17677 2.0364-.40085 4.07279-.0662 6.10919.91054.0719 1.82107.14663 2.73161-.29766v1.87069h-4.80074z" fill="#aad8b0"/></g>
    </g>
  </a>
  <a xlink:href="../author.html" target="_top">
    <g id="buttonAuthor" class="buttonMenu" cursor="pointer" transform="translate(7.5438141 -54.464226)"><path
      id="rect5004-9-8-4"
      d="m145.24708 179.34581.15506-16.32265c-44.89856.0535-23.06113.0292-68.997094.0524v16.27026c35.913164-.0108 36.070694.0324 68.842034-.00005z"
      fill="#d8c8aa"
      fill-rule="evenodd"
      stroke="#7a6a4a"
      stroke-linejoin="round"
      stroke-width=".13229166"/>
      <g id="g5955" transform="translate(-71.510328 8.8708802)" pointer-events="none">
        <g id="g5885" opacity=".65" stroke-width=".99465418" transform="matrix(1.010778 0 0 1 -1.1766974 2.1722701)"><path
          id="path5737-4"
          d="m167.27842 155.61324c.72199.38592 2.05001.18835 2.46995-.009-.39151 2.22119-1.09577 6.81383.73223 6.59598 2.19515-.2616.8896-4.08546.85836-6.6091.38359.21881 1.58008.61374 2.40232-.0448l-.39264 4.84932c-.0812 1.00262-.24977 1.76561-.74931 2.27893-.49609.51332-1.2299.76998-2.20141.76998-.97497 0-1.71222-.25666-2.21175-.76998-.4961-.51332-.70976-1.27356-.74415-2.27893z"
          fill="#ff6f69"/><path
          id="path5741-6"
          d="m181.33368 155.56777c.52572.22772 1.68949.42606 2.21521.16923l-.63008 2.64655 2.96446.20186-.44383-2.81505c.58694.28409 1.64412.20719 2.18705-.14687l-.2198 7.82053h-1.04386l-.42995-3.35173-3.13526.29139-.22782 3.06034h-1.04387z"
          fill="#aad8b0"/><path
          id="path5743-7"
          d="m190.11509 158.47048c-.3425.89751-.0393 2.2033.72118 2.79021.70584.54473 1.9608.52517 2.67477-.009.81556-.61004 1.20838-1.96652.87279-2.92811-.26515-.75975-1.17467-1.37368-1.97932-1.38204-.9176-.01-1.96226.67146-2.28942 1.5288zm2.10373-3.03809c1.75351-.11454 4.08519 1.38789 4.20372 3.12226.24309 1.43813-.78579 3.08208-1.90476 4.0894-1.43642 1.23641-3.89037 1.04256-5.05923-.47075-.89906-1.22426-1.64328-2.90272-1.2201-4.32749.31279-1.00235 1.69151-1.87652 2.70312-2.21719.40674-.15011.84387-.22162 1.27725-.19623z"
          fill="#ff6f69"/><path
          id="path5257-70-1-3"
          d="m163.67535 157.08532c-.4308 1.34784-.79982 2.13514-1.136 3.09121l2.04295-.0197c-.67213-2.22243-.29009-.89431-.90695-3.07149zm-.68266-1.42592c.42684.13307 1.22359.17909 1.75968.0194 1.64635 4.53433 1.26258 3.48952 2.84241 7.80839-.69158.0143-1.56909-.0361-2.06427-.0329-.47593-1.40981-.2891-.79619-.70414-2.01237l-2.57058-.0716c-.34331.82204-.30205.73566-.8777 2.07898-.72448-.0292-.80669.0678-1.79585.0378.95832-2.51011 2.11702-5.103 3.43525-7.84456z"
          fill="#96ceb4"/><path
          id="path5255-4-3-3-1"
          d="m174.18274 155.67805 6.72306-.11576c-.28362.63121-.49724.68695-.36764 1.5565-2.00327-.22102-2.43891-.24653-2.43891-.24653l.10289 6.55415c-1.04832.009-1.21275-.0145-1.98071-.0281-.0982-.42697.32834-6.28934.32834-6.28934l-2.36018.0795c.20531-.38654-.14919-1.15695-.31784-1.54349z"
          fill="#ffeead"/><path
          id="path5259-3-6-7"
          d="m200.37601 159.8379c1.26514.7156 2.64199 3.26525 3.36859 4.41512-1.21209-.0107-1.9628-.83973-3.18322-.86423-.143-1.15834-.19037-2.85267-1.38982-2.92615-.57151.0462-.87567.0796-.83925 1.01598l.0749 1.92496c-.95229-.006-.82905.005-1.63142.002-.007-1.16879-.64623-7.83259-.64623-7.83259 1.4191.10663 4.1377-.12674 5.39772.70852 1.09576.93401.40242 3.20371-1.15129 3.55679zm-2.20908-3.04368.0331 2.20968c1.03854.023 1.87316.22195 1.91273-.97066.0497-1.49716-.77203-1.23902-1.9458-1.23902z"
          fill="#c9de55"/></g><path
          id="rect5846"
          d="m165.2285 158.29207.64872.0002c.75414.9166 1.00802.70652 1.92649.00059l2.71592.00083c.55088.57179 1.14159.79309 1.8475.00057l11.95029.004c.6169.53266 1.26938.88342 2.16321.00067l13.53163-.0184c3.13733-.004 3.4608 2.38176 3.44944 2.89987-.0194.88552-.62445 1.40756-.9468 1.99013 0 0 1.13126 1.80523 1.4354 2.45593.30415.6507.34978.77791.65444 1.39081-.49645.003-.49152.012-1.05609.0137-.56458.001-2.16766.008-2.16766.008-.81353-.72403-1.26135-.42792-1.66191 0h-12.49009c-1.03383-.95121-2.13948-1.19448-3.39099 0h-1.60194c-.9651-.99002-1.94609-.98289-2.73618 0h-2.72447c-.86991-1.04396-1.72204-.95075-2.56078 0h-8.13898c-.87941-.90395-2.46244-1.19456-3.21634 0h-1.90754c-.51824 0-.0685-.002-.88779.002 1.94715-4.79502 1.93351-4.7696 2.93408-7.3634.23212-.57224.22563-.55978.60451-1.40586.34564.00088.19716.00088.46814.005.35746.31242.92431.31183 1.15779.0153z"
          fill="#020202"
          fill-rule="evenodd"/><path
          id="path5737"
          d="m168.38454 158.903c.72199.38592 1.47741.20488 1.89735.008-.39151 2.22119-.68677 6.83037 1.14123 6.61252 2.19515-.2616 1.15136-4.08546 1.12012-6.6091.38359.21881.92568.64681 1.74792-.0117v4.81625c0 1.00597-.24977 1.76561-.74931 2.27893-.49609.51332-1.2299.76998-2.20141.76998-.97497 0-1.71222-.25666-2.21175-.76998-.4961-.51332-.74415-1.27296-.74415-2.27893z"
          fill="#ff6f69"/><path
          id="path5741"
          d="m182.46843 159.05183c.52572.22772 1.05145.26483 1.57717.008l-.18427 2.64655 2.96446.20186-.17776-2.84428c.58694.28409 1.15825.34166 1.70118-.0124v7.71529h-1.04386l-.42995-3.35173-3.13526.29139-.22782 3.06034h-1.04387z"
          fill="#aad8b0"/><path
          id="path5743"
          d="m191.05761 161.79331c-.3425.89751-.0393 2.2033.72118 2.79021.70584.54473 1.9608.52517 2.67477-.009.81556-.61004 1.20838-1.96652.87279-2.92811-.26515-.75975-1.17467-1.37368-1.97932-1.38204-.9176-.01-1.96226.67146-2.28942 1.5288zm2.10373-3.03809c1.75351-.11454 3.3817 1.39616 3.50023 3.13053.24309 1.43813-.0823 3.07381-1.20127 4.08113-1.43642 1.23641-3.89037 1.04256-5.05923-.47075-.89906-1.22426-1.01342-2.88618-.59024-4.31095.31279-1.00235 1.06165-1.89306 2.07326-2.23373.40674-.15011.84387-.22162 1.27725-.19623z"
          fill="#ff6f69"/><path
          id="path5257-70-1"
          d="m164.61787 160.40815c-.4308 1.34784-.79982 2.13514-1.136 3.09121l2.04295-.0197c-.67213-2.22243-.29009-.89431-.90695-3.07149zm-.68266-1.42592c.42684.13307.86367.14602 1.39976-.0137 1.64635 4.53433 1.26258 3.48952 2.84241 7.80839-.69158.0143-1.20917-.003-1.70435.00012-.47593-1.40981-.2891-.79619-.70414-2.01237l-2.57058-.0716c-.34331.82204-.30205.73566-.8777 2.07898-.72448-.0292-.62673-.0149-1.61589-.0449.95832-2.51011 2.29698-5.25183 3.25529-7.76188z"
          fill="#96ceb4"/><path
          id="path5255-4-3-3"
          d="m175.12526 159.00088h6.52674c-.28362.63121-.30092.57119-.17132 1.44074-2.00327-.22102-2.43891-.24653-2.43891-.24653l.10289 6.55415c-1.04832.009-1.21275-.0145-1.98071-.0281-.0982-.42697.32834-6.28934.32834-6.28934l-2.36018.0795c.20531-.38654.16165-1.12388-.007-1.51042z"
          fill="#ffeead"/><path
          id="path5259-3-6"
          d="m201.31853 163.16073c1.26514.7156 1.61948 2.41362 2.34608 3.56349-1.21209-.0107-.94029.0119-2.16071-.0126-.143-1.15834-.19037-2.85267-1.38982-2.92615-.57151.0462-.87567.0796-.83925 1.01598l.0749 1.92496c-.95229-.006-.82905.005-1.63142.002-.007-1.16879 0-7.7003 0-7.7003 1.4191.10663 3.03339-.31691 4.29341.51835 1.09576.93401.8605 3.26159-.69321 3.61467zm-2.20908-3.04368.0331 2.20968c1.03854.023 1.87316.22195 1.91273-.97066.0497-1.49716-.77203-1.23902-1.9458-1.23902z"
          fill="#c9de55"/></g>
    </g>
    </a>
  </g>
</svg>
