<svg clip-rule="evenodd" fill-rule="evenodd" stroke-linecap="round" stroke-linejoin="round" stroke-miterlimit="1.5" viewBox="0 0 209 66" xmlns="http://www.w3.org/2000/svg" xmlns:xlink="http://www.w3.org/1999/xlink"><path id="tail1"
    d="m24.281 7.732.232.002.23.003.228.004.226.005.225.007.222.008.221.009.219.011.216.012.215.014.213.015.211.016.209.018.206.02.205.021.202.023.2.024.198.026.196.028.193.029.192.031.189.033.186.034.184.037.182.038.18.04.177.042.175.044.172.046.17.048.167.05.164.053.163.054.159.057.157.06.155.061.149.064.077.034.075.033.073.035.073.035.072.035.071.037.071.037.07.038.069.038.068.038.067.04.067.04.067.041.067.043.128.083.128.088.125.09.123.092.121.095.119.097.116.099.114.102.113.103.11.106.108.108.106.109.104.112.102.113.1.115.099.117.096.119.095.12.093.121.092.124.09.124.088.127.087.127.085.129.084.131.082.131.081.133.08.134.078.136.077.136.076.138.075.138.074.14.073.141.072.142.071.143.07.143.069.145.068.145.067.147.067.147.066.148.066.149.064.149.065.151.126.302.125.305.123.307.121.309.121.311.12.312.119.314.119.315.239.633.12.316.121.317.122.317.123.317.124.316.127.315.128.314.131.313.066.155.067.155.068.155.068.154.069.154.07.153.07.153.072.152.072.152.073.15.074.15.075.15.076.148.077.148.078.147.078.146.08.145.081.144.082.143.084.143.084.141.086.14.086.139.088.139.09.137.09.135.092.135.093.134.095.132.096.131.097.13.099.129.1.127.102.126.103.124.105.124.106.121.108.121.11.119.111.118.113.116.114.114.117.113.119.113.061.056.064.058.066.058.067.059.07.059.07.06.073.06.074.06.076.061.078.061.079.062.081.062.083.062.083.061.174.127.179.127.185.128.191.129.197.13.202.13.208.131.213.132.219.132.224.133.229.133.233.134.239.134.243.134.248.135.253.134.256.135.262.135.265.135.269.135.273.135.277.135.281.134.284.135.288.134.291.134.295.134.298.133.301.133.303.133.307.132.31.131.312.132.314.13.318.13.319.129.322.129.324.127.326.127.328.127.329.125.332.125.333.123.335.123.336.121.337.121.339.119.339.119.341.117.342.116.342.115.343.114.344.112.344.111.344.11.345.108.345.107.345.105.345.104.345.103.345.1.344.1.344.097.344.096.342.094.342.093.341.09.341.089.339.087.337.085.337.083.335.081.334.079.332.077.33.075.328.073.327.071.324.069.323.066.32.064.317.062.315.06.313.057.31.055.306.052.304.05.301.048.298.045.294.043.291.039.287.038.284.035.28.032.276.029.272.027.267.024.263.021.259.019.254.016.249.012.244.011.24.007.236.004.113.001.113.001h.112l.111-.001.109-.002.108-.002.107-.003.104-.004.104-.005.101-.005.101-.006.098-.006.097-.008.095-.008.094-.008.091-.01.091-.01.088-.01.086-.011.085-.012.083-.013.081-.013.079-.013.077-.015.075-.014.073-.016.071-.015.068-.017.067-.016.065-.017.062-.018.06-.018.058-.018.056-.018.053-.019.065-.023.009-.004 1.278.093.848.961.006.019-.092 1.279-.962.847-.01.003-.091.029-.107.033-.107.03-.107.029-.109.028-.109.026-.11.024-.111.023-.111.022-.113.02-.113.02-.114.017-.114.017-.116.015-.116.015-.117.013-.118.012-.119.011-.12.01-.12.008-.121.008-.123.007-.123.005-.124.005-.124.004-.126.002-.127.002-.127.001h-.128l-.129-.001-.13-.002-.131-.003-.132-.004-.132-.004-.133-.006-.137-.006-.269-.015-.274-.018-.278-.022-.28-.025-.285-.028-.287-.031-.29-.034-.294-.037-.296-.04-.3-.043-.302-.046-.305-.048-.308-.051-.311-.054-.313-.057-.316-.059-.318-.062-.32-.064-.323-.067-.325-.069-.327-.071-.329-.074-.332-.077-.333-.078-.334-.081-.337-.083-.338-.085-.34-.087-.341-.09-.342-.091-.344-.093-.345-.096-.346-.097-.347-.099-.348-.101-.349-.103-.349-.105-.35-.107-.351-.108-.351-.11-.351-.111-.352-.113-.352-.115-.352-.116-.352-.118-.352-.119-.351-.12-.352-.122-.35-.124-.351-.124-.35-.126-.349-.127-.349-.129-.347-.129-.347-.131-.345-.131-.345-.133-.343-.134-.342-.135-.341-.135-.338-.137-.338-.137-.336-.139-.333-.139-.332-.14-.33-.141-.328-.141-.326-.142-.323-.143-.322-.143-.318-.144-.316-.144-.314-.145-.311-.145-.307-.146-.305-.146-.302-.146-.299-.147-.296-.147-.292-.148-.29-.147-.285-.148-.282-.148-.279-.148-.274-.149-.271-.148-.267-.149-.263-.148-.259-.149-.254-.148-.251-.149-.246-.148-.241-.149-.238-.148-.232-.148-.228-.148-.223-.148-.219-.148-.213-.148-.208-.147-.204-.148-.198-.147-.192-.146-.096-.075-.093-.074-.092-.073-.091-.074-.089-.073-.088-.074-.086-.074-.086-.073-.083-.074-.083-.074-.081-.073-.079-.074-.079-.074-.077-.075-.138-.135-.136-.138-.133-.14-.132-.141-.129-.142-.126-.144-.124-.144-.122-.146-.12-.148-.118-.148-.115-.149-.114-.151-.111-.151-.11-.153-.107-.153-.105-.154-.104-.155-.102-.156-.1-.157-.098-.157-.096-.158-.094-.159-.093-.16-.092-.16-.089-.16-.089-.161-.086-.162-.085-.162-.084-.163-.082-.163-.081-.163-.08-.164-.078-.164-.078-.164-.075-.164-.075-.165-.074-.165-.072-.165-.072-.165-.07-.165-.07-.166-.068-.165-.068-.165-.067-.166-.131-.33-.128-.33-.125-.329-.123-.328-.12-.327-.119-.325-.117-.324-.115-.321-.228-.637-.113-.314-.112-.311-.113-.308-.112-.305-.113-.301-.113-.297-.115-.292-.115-.289-.058-.141-.058-.141-.059-.14-.059-.138-.06-.137-.06-.136-.06-.134-.061-.133-.062-.131-.062-.13-.062-.128-.063-.127-.064-.125-.064-.124-.065-.122-.066-.12-.067-.119-.067-.116-.067-.115-.069-.114-.069-.111-.07-.11-.071-.107-.072-.106-.073-.104-.073-.102-.074-.1-.075-.098-.076-.096-.077-.094-.078-.092-.079-.09-.08-.088-.081-.086-.082-.084-.083-.082-.084-.08-.085-.078-.087-.076-.088-.073-.089-.072-.09-.07-.091-.067-.093-.066-.097-.065-.045-.03-.049-.03-.048-.03-.049-.03-.049-.029-.05-.028-.05-.028-.05-.027-.052-.027-.053-.027-.054-.027-.054-.026-.056-.027-.054-.024-.119-.052-.12-.05-.123-.049-.128-.047-.131-.046-.135-.045-.139-.043-.142-.042-.145-.041-.149-.04-.153-.038-.155-.037-.159-.035-.163-.034-.165-.032-.168-.032-.172-.03-.174-.028-.178-.027-.18-.026-.183-.024-.186-.023-.188-.022-.192-.02-.194-.019-.196-.017-.199-.016-.202-.015-.203-.014-.207-.012-.208-.011-.211-.01-.214-.009-.215-.007-.218-.006-.219-.005-.222-.003-.224-.003-.225-.001h-.228l-.229.001-.232.002-.233.004-.235.004-.236.005-.239.007-.24.008-.241.008-.243.01-.245.011-.246.012-.247.012-.249.014-.25.015-.251.015-.253.017-.253.017-.255.018-.256.019-.257.02-.518.043-.521.045-.525.049-.528.052-.531.055-.533.057-.535.06-.538.062-.539.065-.54.067-.541.069-.542.07-.542.073-.542.074-.542.076-.541.077-.54.079-.539.079-.537.081-.536.081-.533.083-.531.082-.528.083-.524.084-1.039.167-1.023.166-1.004.165-.983.163-.963-.69.69-.963.983-.163 1.005-.167 1.025-.168 1.042-.169.527-.085.53-.084.534-.085.536-.083.538-.083.54-.083.543-.082.543-.08.545-.08.546-.078.547-.078.546-.075.547-.074.546-.072.546-.071.545-.068.544-.066.542-.064.54-.062.538-.058.536-.056.533-.054.53-.05.526-.047.263-.022.261-.022.26-.02.259-.02.258-.019.257-.018.256-.017.255-.016.253-.015.253-.014.251-.014.249-.012.249-.011.247-.01.246-.009.244-.008.243-.006.241-.006.24-.005.238-.003.236-.002.235-.001h.233z"/><path
    d="m128.62 9.204c15.853 0 30.032 3.964 39.426 10.183 7.35 4.866 37.947 10.431 37.947 17.239 0 7.03-30.888 14.142-38.671 19.072-9.39 5.949-23.251 9.714-38.702 9.714-28.256 0-51.196-12.593-51.196-28.104s22.94-28.104 51.196-28.104z"
    stroke="#000"/><path
    d="m128.934 9.645c15.472 0 29.312 3.84 38.48 9.864 7.174 4.713 37.038 10.103 37.038 16.698 0 6.809-30.148 13.698-37.744 18.474-9.165 5.763-22.694 9.41-37.774 9.41-27.578 0-49.968-12.198-49.968-27.223s22.39-27.223 49.968-27.223z"
    fill="url(#_Linear1)"/><path d="m134.55 4.554c3.495-5.193 12.248-5.428 19.534-.525 7.285 4.904 10.362 13.102 6.866 18.295-3.496 5.194-12.249 5.429-19.534.525-7.286-4.903-10.362-13.101-6.866-18.295z" fill="none" stroke="#000"/><path d="m134.485 4.511c3.496-5.194 12.581-5.205 20.276-.026 7.694 5.179 11.103 13.601 7.607 18.794-3.495 5.194-12.581 5.205-20.275.026-7.695-5.179-11.104-13.601-7.608-18.794z" fill="url(#_Linear2)"/><path d="m168.881 23.524c.287 0 .953-.087.816.148-.973 1.671-.526 1.959 1.147.942.357-.218.349.774.349 1.222 0 1.277-1.036 2.313-2.312 2.313-1.277 0-2.313-1.036-2.313-2.313 0-1.276 1.036-2.312 2.313-2.312z"/><ellipse cx="205.663" cy="35.527" rx="2.973" ry="2.533"/>
    <linearGradient id="lg1"><stop offset="0" stop-color="#856969"/><stop offset="1" stop-color="#ebebeb"/></linearGradient><linearGradient id="_Linear1" gradientTransform="matrix(.628532 -42.2565 32.6837 .812625 129.877 37.6806)" gradientUnits="userSpaceOnUse" x1="0" x2="1" xlink:href="#lg1" y1="0" y2="0"/><linearGradient id="_Linear2" gradientTransform="matrix(-21.5613 -14.685 4.55911 -5.87483 148.962 13.9976)" gradientUnits="userSpaceOnUse" x1="0" x2="1" xlink:href="#lg1" y1="0" y2="0"/></svg>
