<?xml version="1.0" encoding="UTF-8" standalone="no"?>
<!DOCTYPE svg PUBLIC "-//W3C//DTD SVG 1.1//EN" "http://www.w3.org/Graphics/SVG/1.1/DTD/svg11.dtd">
<svg
    width="100%"
    height="100%"
    viewBox="0 0 209 66"
    version="1.1"
    xmlns="http://www.w3.org/2000/svg"
    xmlns:xlink="http://www.w3.org/1999/xlink"
    xml:space="preserve"
    style="fill-rule:evenodd;clip-rule:evenodd;stroke-linecap:round;stroke-linejoin:round;stroke-miterlimit:1.5;">
    <g id="mouse"><path
        id="tail1"
        d="M24.281,7.732l0.232,0.002l0.23,0.003l0.228,0.004l0.226,0.005l0.225,0.007l0.222,0.008l0.221,0.009l0.219,0.011l0.216,0.012l0.215,0.014l0.213,0.015l0.211,0.016l0.209,0.018l0.206,0.02l0.205,0.021l0.202,0.023l0.2,0.024l0.198,0.026l0.196,0.028l0.193,0.029l0.192,0.031l0.189,0.033l0.186,0.034l0.184,0.037l0.182,0.038l0.18,0.04l0.177,0.042l0.175,0.044l0.172,0.046l0.17,0.048l0.167,0.05l0.164,0.053l0.163,0.054l0.159,0.057l0.157,0.06l0.155,0.061l0.149,0.064l0.077,0.034l0.075,0.033l0.073,0.035l0.073,0.035l0.072,0.035l0.071,0.037l0.071,0.037l0.07,0.038l0.069,0.038l0.068,0.038l0.067,0.04l0.067,0.04l0.067,0.041l0.067,0.043l0.128,0.083l0.128,0.088l0.125,0.09l0.123,0.092l0.121,0.095l0.119,0.097l0.116,0.099l0.114,0.102l0.113,0.103l0.11,0.106l0.108,0.108l0.106,0.109l0.104,0.112l0.102,0.113l0.1,0.115l0.099,0.117l0.096,0.119l0.095,0.12l0.093,0.121l0.092,0.124l0.09,0.124l0.088,0.127l0.087,0.127l0.085,0.129l0.084,0.131l0.082,0.131l0.081,0.133l0.08,0.134l0.078,0.136l0.077,0.136l0.076,0.138l0.075,0.138l0.074,0.14l0.073,0.141l0.072,0.142l0.071,0.143l0.07,0.143l0.069,0.145l0.068,0.145l0.067,0.147l0.067,0.147l0.066,0.148l0.066,0.149l0.064,0.149l0.065,0.151l0.126,0.302l0.125,0.305l0.123,0.307l0.121,0.309l0.121,0.311l0.12,0.312l0.119,0.314l0.119,0.315l0.239,0.633l0.12,0.316l0.121,0.317l0.122,0.317l0.123,0.317l0.124,0.316l0.127,0.315l0.128,0.314l0.131,0.313l0.066,0.155l0.067,0.155l0.068,0.155l0.068,0.154l0.069,0.154l0.07,0.153l0.07,0.153l0.072,0.152l0.072,0.152l0.073,0.15l0.074,0.15l0.075,0.15l0.076,0.148l0.077,0.148l0.078,0.147l0.078,0.146l0.08,0.145l0.081,0.144l0.082,0.143l0.084,0.143l0.084,0.141l0.086,0.14l0.086,0.139l0.088,0.139l0.09,0.137l0.09,0.135l0.092,0.135l0.093,0.134l0.095,0.132l0.096,0.131l0.097,0.13l0.099,0.129l0.1,0.127l0.102,0.126l0.103,0.124l0.105,0.124l0.106,0.121l0.108,0.121l0.11,0.119l0.111,0.118l0.113,0.116l0.114,0.114l0.117,0.113l0.119,0.113l0.061,0.056l0.064,0.058l0.066,0.058l0.067,0.059l0.07,0.059l0.07,0.06l0.073,0.06l0.074,0.06l0.076,0.061l0.078,0.061l0.079,0.062l0.081,0.062l0.083,0.062l0.083,0.061l0.174,0.127l0.179,0.127l0.185,0.128l0.191,0.129l0.197,0.13l0.202,0.13l0.208,0.131l0.213,0.132l0.219,0.132l0.224,0.133l0.229,0.133l0.233,0.134l0.239,0.134l0.243,0.134l0.248,0.135l0.253,0.134l0.256,0.135l0.262,0.135l0.265,0.135l0.269,0.135l0.273,0.135l0.277,0.135l0.281,0.134l0.284,0.135l0.288,0.134l0.291,0.134l0.295,0.134l0.298,0.133l0.301,0.133l0.303,0.133l0.307,0.132l0.31,0.131l0.312,0.132l0.314,0.13l0.318,0.13l0.319,0.129l0.322,0.129l0.324,0.127l0.326,0.127l0.328,0.127l0.329,0.125l0.332,0.125l0.333,0.123l0.335,0.123l0.336,0.121l0.337,0.121l0.339,0.119l0.339,0.119l0.341,0.117l0.342,0.116l0.342,0.115l0.343,0.114l0.344,0.112l0.344,0.111l0.344,0.11l0.345,0.108l0.345,0.107l0.345,0.105l0.345,0.104l0.345,0.103l0.345,0.1l0.344,0.1l0.344,0.097l0.344,0.096l0.342,0.094l0.342,0.093l0.341,0.09l0.341,0.089l0.339,0.087l0.337,0.085l0.337,0.083l0.335,0.081l0.334,0.079l0.332,0.077l0.33,0.075l0.328,0.073l0.327,0.071l0.324,0.069l0.323,0.066l0.32,0.064l0.317,0.062l0.315,0.06l0.313,0.057l0.31,0.055l0.306,0.052l0.304,0.05l0.301,0.048l0.298,0.045l0.294,0.043l0.291,0.039l0.287,0.038l0.284,0.035l0.28,0.032l0.276,0.029l0.272,0.027l0.267,0.024l0.263,0.021l0.259,0.019l0.254,0.016l0.249,0.012l0.244,0.011l0.24,0.007l0.236,0.004l0.113,0.001l0.113,0.001l0.112,0l0.111,-0.001l0.109,-0.002l0.108,-0.002l0.107,-0.003l0.104,-0.004l0.104,-0.005l0.101,-0.005l0.101,-0.006l0.098,-0.006l0.097,-0.008l0.095,-0.008l0.094,-0.008l0.091,-0.01l0.091,-0.01l0.088,-0.01l0.086,-0.011l0.085,-0.012l0.083,-0.013l0.081,-0.013l0.079,-0.013l0.077,-0.015l0.075,-0.014l0.073,-0.016l0.071,-0.015l0.068,-0.017l0.067,-0.016l0.065,-0.017l0.062,-0.018l0.06,-0.018l0.058,-0.018l0.056,-0.018l0.053,-0.019l0.065,-0.023l0.009,-0.004l1.278,0.093l0.848,0.961l0.006,0.019l-0.092,1.279l-0.962,0.847l-0.01,0.003l-0.091,0.029l-0.107,0.033l-0.107,0.03l-0.107,0.029l-0.109,0.028l-0.109,0.026l-0.11,0.024l-0.111,0.023l-0.111,0.022l-0.113,0.02l-0.113,0.02l-0.114,0.017l-0.114,0.017l-0.116,0.015l-0.116,0.015l-0.117,0.013l-0.118,0.012l-0.119,0.011l-0.12,0.01l-0.12,0.008l-0.121,0.008l-0.123,0.007l-0.123,0.005l-0.124,0.005l-0.124,0.004l-0.126,0.002l-0.127,0.002l-0.127,0.001l-0.128,0l-0.129,-0.001l-0.13,-0.002l-0.131,-0.003l-0.132,-0.004l-0.132,-0.004l-0.133,-0.006l-0.137,-0.006l-0.269,-0.015l-0.274,-0.018l-0.278,-0.022l-0.28,-0.025l-0.285,-0.028l-0.287,-0.031l-0.29,-0.034l-0.294,-0.037l-0.296,-0.04l-0.3,-0.043l-0.302,-0.046l-0.305,-0.048l-0.308,-0.051l-0.311,-0.054l-0.313,-0.057l-0.316,-0.059l-0.318,-0.062l-0.32,-0.064l-0.323,-0.067l-0.325,-0.069l-0.327,-0.071l-0.329,-0.074l-0.332,-0.077l-0.333,-0.078l-0.334,-0.081l-0.337,-0.083l-0.338,-0.085l-0.34,-0.087l-0.341,-0.09l-0.342,-0.091l-0.344,-0.093l-0.345,-0.096l-0.346,-0.097l-0.347,-0.099l-0.348,-0.101l-0.349,-0.103l-0.349,-0.105l-0.35,-0.107l-0.351,-0.108l-0.351,-0.11l-0.351,-0.111l-0.352,-0.113l-0.352,-0.115l-0.352,-0.116l-0.352,-0.118l-0.352,-0.119l-0.351,-0.12l-0.352,-0.122l-0.35,-0.124l-0.351,-0.124l-0.35,-0.126l-0.349,-0.127l-0.349,-0.129l-0.347,-0.129l-0.347,-0.131l-0.345,-0.131l-0.345,-0.133l-0.343,-0.134l-0.342,-0.135l-0.341,-0.135l-0.338,-0.137l-0.338,-0.137l-0.336,-0.139l-0.333,-0.139l-0.332,-0.14l-0.33,-0.141l-0.328,-0.141l-0.326,-0.142l-0.323,-0.143l-0.322,-0.143l-0.318,-0.144l-0.316,-0.144l-0.314,-0.145l-0.311,-0.145l-0.307,-0.146l-0.305,-0.146l-0.302,-0.146l-0.299,-0.147l-0.296,-0.147l-0.292,-0.148l-0.29,-0.147l-0.285,-0.148l-0.282,-0.148l-0.279,-0.148l-0.274,-0.149l-0.271,-0.148l-0.267,-0.149l-0.263,-0.148l-0.259,-0.149l-0.254,-0.148l-0.251,-0.149l-0.246,-0.148l-0.241,-0.149l-0.238,-0.148l-0.232,-0.148l-0.228,-0.148l-0.223,-0.148l-0.219,-0.148l-0.213,-0.148l-0.208,-0.147l-0.204,-0.148l-0.198,-0.147l-0.192,-0.146l-0.096,-0.075l-0.093,-0.074l-0.092,-0.073l-0.091,-0.074l-0.089,-0.073l-0.088,-0.074l-0.086,-0.074l-0.086,-0.073l-0.083,-0.074l-0.083,-0.074l-0.081,-0.073l-0.079,-0.074l-0.079,-0.074l-0.077,-0.075l-0.138,-0.135l-0.136,-0.138l-0.133,-0.14l-0.132,-0.141l-0.129,-0.142l-0.126,-0.144l-0.124,-0.144l-0.122,-0.146l-0.12,-0.148l-0.118,-0.148l-0.115,-0.149l-0.114,-0.151l-0.111,-0.151l-0.11,-0.153l-0.107,-0.153l-0.105,-0.154l-0.104,-0.155l-0.102,-0.156l-0.1,-0.157l-0.098,-0.157l-0.096,-0.158l-0.094,-0.159l-0.093,-0.16l-0.092,-0.16l-0.089,-0.16l-0.089,-0.161l-0.086,-0.162l-0.085,-0.162l-0.084,-0.163l-0.082,-0.163l-0.081,-0.163l-0.08,-0.164l-0.078,-0.164l-0.078,-0.164l-0.075,-0.164l-0.075,-0.165l-0.074,-0.165l-0.072,-0.165l-0.072,-0.165l-0.07,-0.165l-0.07,-0.166l-0.068,-0.165l-0.068,-0.165l-0.067,-0.166l-0.131,-0.33l-0.128,-0.33l-0.125,-0.329l-0.123,-0.328l-0.12,-0.327l-0.119,-0.325l-0.117,-0.324l-0.115,-0.321l-0.228,-0.637l-0.113,-0.314l-0.112,-0.311l-0.113,-0.308l-0.112,-0.305l-0.113,-0.301l-0.113,-0.297l-0.115,-0.292l-0.115,-0.289l-0.058,-0.141l-0.058,-0.141l-0.059,-0.14l-0.059,-0.138l-0.06,-0.137l-0.06,-0.136l-0.06,-0.134l-0.061,-0.133l-0.062,-0.131l-0.062,-0.13l-0.062,-0.128l-0.063,-0.127l-0.064,-0.125l-0.064,-0.124l-0.065,-0.122l-0.066,-0.12l-0.067,-0.119l-0.067,-0.116l-0.067,-0.115l-0.069,-0.114l-0.069,-0.111l-0.07,-0.11l-0.071,-0.107l-0.072,-0.106l-0.073,-0.104l-0.073,-0.102l-0.074,-0.1l-0.075,-0.098l-0.076,-0.096l-0.077,-0.094l-0.078,-0.092l-0.079,-0.09l-0.08,-0.088l-0.081,-0.086l-0.082,-0.084l-0.083,-0.082l-0.084,-0.08l-0.085,-0.078l-0.087,-0.076l-0.088,-0.073l-0.089,-0.072l-0.09,-0.07l-0.091,-0.067l-0.093,-0.066l-0.097,-0.065l-0.045,-0.03l-0.049,-0.03l-0.048,-0.03l-0.049,-0.03l-0.049,-0.029l-0.05,-0.028l-0.05,-0.028l-0.05,-0.027l-0.052,-0.027l-0.053,-0.027l-0.054,-0.027l-0.054,-0.026l-0.056,-0.027l-0.054,-0.024l-0.119,-0.052l-0.12,-0.05l-0.123,-0.049l-0.128,-0.047l-0.131,-0.046l-0.135,-0.045l-0.139,-0.043l-0.142,-0.042l-0.145,-0.041l-0.149,-0.04l-0.153,-0.038l-0.155,-0.037l-0.159,-0.035l-0.163,-0.034l-0.165,-0.032l-0.168,-0.032l-0.172,-0.03l-0.174,-0.028l-0.178,-0.027l-0.18,-0.026l-0.183,-0.024l-0.186,-0.023l-0.188,-0.022l-0.192,-0.02l-0.194,-0.019l-0.196,-0.017l-0.199,-0.016l-0.202,-0.015l-0.203,-0.014l-0.207,-0.012l-0.208,-0.011l-0.211,-0.01l-0.214,-0.009l-0.215,-0.007l-0.218,-0.006l-0.219,-0.005l-0.222,-0.003l-0.224,-0.003l-0.225,-0.001l-0.228,0l-0.229,0.001l-0.232,0.002l-0.233,0.004l-0.235,0.004l-0.236,0.005l-0.239,0.007l-0.24,0.008l-0.241,0.008l-0.243,0.01l-0.245,0.011l-0.246,0.012l-0.247,0.012l-0.249,0.014l-0.25,0.015l-0.251,0.015l-0.253,0.017l-0.253,0.017l-0.255,0.018l-0.256,0.019l-0.257,0.02l-0.518,0.043l-0.521,0.045l-0.525,0.049l-0.528,0.052l-0.531,0.055l-0.533,0.057l-0.535,0.06l-0.538,0.062l-0.539,0.065l-0.54,0.067l-0.541,0.069l-0.542,0.07l-0.542,0.073l-0.542,0.074l-0.542,0.076l-0.541,0.077l-0.54,0.079l-0.539,0.079l-0.537,0.081l-0.536,0.081l-0.533,0.083l-0.531,0.082l-0.528,0.083l-0.524,0.084l-1.039,0.167l-1.023,0.166l-1.004,0.165l-0.983,0.163l-0.963,-0.69l0.69,-0.963l0.983,-0.163l1.005,-0.167l1.025,-0.168l1.042,-0.169l0.527,-0.085l0.53,-0.084l0.534,-0.085l0.536,-0.083l0.538,-0.083l0.54,-0.083l0.543,-0.082l0.543,-0.08l0.545,-0.08l0.546,-0.078l0.547,-0.078l0.546,-0.075l0.547,-0.074l0.546,-0.072l0.546,-0.071l0.545,-0.068l0.544,-0.066l0.542,-0.064l0.54,-0.062l0.538,-0.058l0.536,-0.056l0.533,-0.054l0.53,-0.05l0.526,-0.047l0.263,-0.022l0.261,-0.022l0.26,-0.02l0.259,-0.02l0.258,-0.019l0.257,-0.018l0.256,-0.017l0.255,-0.016l0.253,-0.015l0.253,-0.014l0.251,-0.014l0.249,-0.012l0.249,-0.011l0.247,-0.01l0.246,-0.009l0.244,-0.008l0.243,-0.006l0.241,-0.006l0.24,-0.005l0.238,-0.003l0.236,-0.002l0.235,-0.001l0.233,0Z"/><path
        d="M128.62,9.204c15.853,0 30.032,3.964 39.426,10.183c7.35,4.866 37.947,10.431 37.947,17.239c0,7.03 -30.888,14.142 -38.671,19.072c-9.39,5.949 -23.251,9.714 -38.702,9.714c-28.256,0 -51.196,-12.593 -51.196,-28.104c0,-15.511 22.94,-28.104 51.196,-28.104Z"
        style="stroke:#000;stroke-width:1px;"/><path
        d="M128.934,9.645c15.472,0 29.312,3.84 38.48,9.864c7.174,4.713 37.038,10.103 37.038,16.698c0,6.809 -30.148,13.698 -37.744,18.474c-9.165,5.763 -22.694,9.41 -37.774,9.41c-27.578,0 -49.968,-12.198 -49.968,-27.223c0,-15.025 22.39,-27.223 49.968,-27.223Z"
        style="fill:url(#_Linear1);"/><path d="M134.55,4.554c3.495,-5.193 12.248,-5.428 19.534,-0.525c7.285,4.904 10.362,13.102 6.866,18.295c-3.496,5.194 -12.249,5.429 -19.534,0.525c-7.286,-4.903 -10.362,-13.101 -6.866,-18.295Z" style="fill:none;stroke:#000;stroke-width:1px;"/><path d="M134.485,4.511c3.496,-5.194 12.581,-5.205 20.276,-0.026c7.694,5.179 11.103,13.601 7.607,18.794c-3.495,5.194 -12.581,5.205 -20.275,0.026c-7.695,-5.179 -11.104,-13.601 -7.608,-18.794Z" style="fill:url(#_Linear2);"/><path d="M168.881,23.524c0.287,0 0.953,-0.087 0.816,0.148c-0.973,1.671 -0.526,1.959 1.147,0.942c0.357,-0.218 0.349,0.774 0.349,1.222c0,1.277 -1.036,2.313 -2.312,2.313c-1.277,0 -2.313,-1.036 -2.313,-2.313c0,-1.276 1.036,-2.312 2.313,-2.312Z"/><ellipse cx="205.663" cy="35.527" rx="2.973" ry="2.533"/></g>
    <defs>
        <linearGradient id="_Linear1" x1="0" y1="0" x2="1" y2="0" gradientUnits="userSpaceOnUse" gradientTransform="matrix(0.628532,-42.2565,32.6837,0.812625,129.877,37.6806)"><stop offset="0" style="stop-color:#856969;stop-opacity:1"/><stop offset="1" style="stop-color:#ebebeb;stop-opacity:1"/></linearGradient>
        <linearGradient id="_Linear2" x1="0" y1="0" x2="1" y2="0" gradientUnits="userSpaceOnUse" gradientTransform="matrix(-21.5613,-14.685,4.55911,-5.87483,148.962,13.9976)"><stop offset="0" style="stop-color:#856969;stop-opacity:1"/><stop offset="1" style="stop-color:#ebebeb;stop-opacity:1"/></linearGradient>
    </defs>
</svg>
