<svg id="svg8" height="43.891434mm" viewBox="0 0 303.77118 43.891434" width="303.77118mm" xmlns="http://www.w3.org/2000/svg"><g id="layer1" transform="translate(95.133302 -119.08547)"><g id="text4319-2" fill="#fff" stroke-width=".26458332" transform="matrix(1.1431762 .00527441 .01181627 .87481031 -2.6726953 29.132378)"><path id="path5156" d="m-65.426537 125.25116h-7.034025c0-2.59994.0095-4.71771.02836-6.35331l-1.744325-.0284-.113452 6.41004-7.587104.41127v-1.44652l.05673-20.081 7.884915.0567-.04254 1.4607h.04254l-.155996 7.34602 1.659236-.0284.02836-8.8918 6.679487-.0851.297812 19.7832h-.02836z"/><path id="path5158" d="m-46.579322 118.74185c0 2.09886-.91707 3.83373-2.751211 5.20461-1.673417 1.25743-3.592647 1.88614-5.75769 1.88614s-4.084273-.62871-5.75769-1.88614c-1.834141-1.37088-2.751211-3.10575-2.751211-5.20461 0-.0756.0047-.19381.01418-.35454.0095-.16072.01418-.28363.01418-.36872 0-.0756-.0047-.19381-.01418-.35453-.0095-.16073-.01418-.28363-.01418-.36872 0-2.09887.91707-3.82901 2.751211-5.19043 1.673417-1.24797 3.592647-1.87196 5.75769-1.87196s4.084273.62399 5.75769 1.87196c1.834141 1.36142 2.751211 3.09156 2.751211 5.19043 0 .0851-.0047.20799-.01418.36872-.0095.16072-.01418.2789-.01418.35453 0 .0851.0047.208.01418.36872.0095.16073.01418.27891.01418.35454z"/><path id="path5160" d="m-28.653903 118.74185c0 2.09886-.91707 3.83373-2.751211 5.20461-1.673417 1.25743-3.592647 1.88614-5.75769 1.88614s-4.084273-.62871-5.75769-1.88614c-1.834141-1.37088-2.751211-3.10575-2.751211-5.20461 0-.0756.0047-.19381.01418-.35454.0095-.16072.01418-.28363.01418-.36872 0-.0756-.0047-.19381-.01418-.35453-.0095-.16073-.01418-.28363-.01418-.36872 0-2.09887.91707-3.82901 2.751211-5.19043 1.673417-1.24797 3.592647-1.87196 5.75769-1.87196s4.084273.62399 5.75769 1.87196c1.834141 1.36142 2.751211 3.09156 2.751211 5.19043 0 .0851-.0047.20799-.01418.36872-.0095.16072-.01418.2789-.01418.35453 0 .0851.0047.208.01418.36872.0095.16073.01418.27891.01418.35454z"/><path id="path5162" d="m-11.196473 118.16041-6.878029 1.74432c-.06618-1.25743-.34981-1.88614-.85089-1.88614-.510534 0-.945433.46799-1.304698 1.40397l.05673 6.18314-6.537673.11345-.311993-12.99026h.02836l-.02836-1.44651 6.707851.0567c-.314134 2.53124 2.55177-.52422 4.467173-.55308 2.713394 0 4.263905 1.97596 4.651533 5.92787l-.198542.0567c.08509.49163.15127.95489.198542 1.38979z"/><path id="path5164" d="m5.6795167 125.33625-6.09804593.73744-.17017802-1.13452c-1.03052245.67125-2.15558835 1.00688-3.37519755 1.00688-4.5664435 0-6.8496652-1.21015-6.8496652-3.63046 0-.0945.0095-.23163.02836-.41126.01891-.18909.02836-.3309.02836-.42545 0-.0662-.0095-.16547-.02836-.29781-.01891-.14181-.02836-.24581-.02836-.31199 0-1.41815.453808-2.51013 1.3614239-3.27593h-1.1628829c.03782-.52945.118182-1.01635.241085-1.4607h-.241085c.132361-2.03268.9832507-3.57374 2.5526701-4.62317 1.3614242-.90761 3.1152033-1.36142 5.2613373-1.36142 5.6536922 0 8.4805383 2.06105 8.4805383 6.18314z"/><path id="path5166" d="m24.328187 112.72889-5.119522 11.99755c-.453808 1.06834-1.139247 2.19341-2.056318 3.3752s-1.838868 2.10832-2.765393 2.77958c-1.626145 1.2007-3.43665 1.80105-5.4315151 1.80105-.5861688 0-1.2054277-.0756-1.8577768-.22691l-.6948936-5.31806h.2127225l-.2127225-1.44651c2.571579-.0378 4.4104475-.59088 5.5166045-1.65924-1.56942-2.85521-3.5217399-6.53294-5.8569606-11.03321l.7232566-.0851-.7232566-1.36142 7.5729226-.87925 1.942865 5.75769 1.347243-6.33914 7.402744 1.19125-.581441 1.36142z"/><path id="path5168" d="m30.837501 106.9003-.75162 12.3379-.581441.0284c.831981.5578 1.247972 1.3236 1.247972 2.2974 0 .27417-.02836.51526-.08509.72326.05673.21745.08509.45853.08509.72325 0 .79417-.297812 1.46543-.893435 2.01378-.586169.53889-1.276335.80834-2.070499.80834s-1.48433-.26945-2.070499-.80834c-.576715-.54835-.865072-1.21961-.865072-2.01378 0-.26472.02836-.5058.08509-.72325-.05673-.21745-.08509-.45854-.08509-.72326 0-.85089.340356-1.55524 1.021068-2.11304h-.212722l-1.446514-11.68556.170178-.0284-.170178-1.41816 6.622762-.87925-.08509 1.4607z"/><path id="path5170" d="m59.611769 105.62396-.779983 21.81115-8.721624-8.48054.439627 5.34643h-.113452l.113452 1.44651-7.870734-.0567-.609804-23.05913 9.501606 8.70745.08509-7.17584h7.955823c-.03782.97379-.05673 1.43233-.05673 1.3756 0 .0189.0047.0426.01418.0709.01891.0283.03309.0331.04255.0142z"/><path id="path5172" d="m77.891728 119.79128c-.538897 1.98541-1.460694 3.54538-2.765393 4.6799-1.389787 1.2007-3.082112 1.80105-5.076977 1.80105-2.20286 0-4.159907-.62399-5.871142-1.87196-1.890867-1.37088-2.836301-3.11993-2.836301-5.24716 0-.0851.0047-.21272.01418-.3829.0095-.17963.01418-.31199.01418-.39708 0-.0756-.0047-.18436-.01418-.32617-.0095-.15127-.01418-.26473-.01418-.34036 0-2.27849.756347-4.07009 2.269041-5.37479 1.437059-1.21961 3.313744-1.82941 5.630056-1.82941 2.155588 0 3.966093.5389 5.431515 1.61669 1.550511 1.14397 2.510126 2.75121 2.878845 4.82171l-.354537.0709c.151269.42545.269448.86035.354537 1.3047l.340356.0284c-.132361.47271-.297811.94543-.496352 1.41815z"/><path id="path5174" d="m93.931007 125.25116-7.487833.69489-1.744325-3.04902-1.489058 2.85048-7.204203-.17018 1.021068-1.43233-1.021068-.0284 4.424629-6.15477-4.793348-5.95623 1.13452-.0567-1.13452-1.38979 7.17584-.3829 1.531602 2.7654.992706-2.65194 8.097637.21272c-.976787 1.40726-1.787287 1.40181 0 1.44655-5.604345 5.93813-4.285441 6.05882.496353 11.85574l-1.106157.11345zm-16.819262-1.6876c-92.913954 50.42065-46.456977 25.21033 0 0z"/><path id="path5176" d="m105.87184 125.63406c-1.04943.15127-1.90978.2269-2.58104.2269-1.70178 0-3.20975-.33563-4.523897-1.00688-1.465422-.74689-2.543216-1.83414-3.233382-3.26175-1.215163-3.44348.159802-5.29508-3.105749-5.19043l-.198541-4.39626h.05673l-.05673-1.44652 2.354129-.26944c.02836-2.18395.132358-4.50499.311993-6.96312l6.452587.31199-.0851 1.4607h.0851c-.13236 2.05159-.22218 3.67773-.26945 4.87843l3.985-.19854.0567 4.79335h-.0284l.0284 1.44651c-4.8815-.29758-3.66644 3.79961.46799 2.14141l.28363 6.01296h-.0567zm-.60981-1.94286c-111.6808106 50.33556-55.840405 25.16778 0 0z"/><path id="path5178" d="m123.01727 125.88933-6.50931-.19854-1.10616-20.56318h.0851l-.0851-1.44651 7.48783.0851z"/><path id="path5180" d="m141.36812 119.79128c-.53889 1.98541-1.46069 3.54538-2.76539 4.6799-1.38979 1.2007-3.08211 1.80105-5.07698 1.80105-2.20286 0-4.15991-.62399-5.87114-1.87196-1.89087-1.37088-2.8363-3.11993-2.8363-5.24716 0-.0851.005-.21272.0142-.3829.009-.17963.0142-.31199.0142-.39708 0-.0756-.005-.18436-.0142-.32617-.009-.15127-.0142-.26473-.0142-.34036 0-2.27849.75635-4.07009 2.26904-5.37479 1.43706-1.21961 3.31375-1.82941 5.63006-1.82941 2.15559 0 3.96609.5389 5.43151 1.61669 1.55051 1.14397 2.51013 2.75121 2.87885 4.82171l-.35454.0709c.15127.42545.26945.86035.35454 1.3047l.34035.0284c-.13236.47271-.29781.94543-.49635 1.41815z"/><path id="path5182" d="m158.7972 113.05507-5.09116 12.30954-6.58022.49635-6.5944-12.55062.72326-.0851-.72326-1.36143 7.57292-.86507 1.94287 5.74351 1.34724-6.32495 7.40275 1.19125-.55308 1.36142z"/><path id="path5184" d="m175.09174 119.79128c-.5389 1.98541-1.4607 3.54538-2.76539 4.6799-1.38979 1.2007-3.08211 1.80105-5.07698 1.80105-2.20286 0-4.15991-.62399-5.87114-1.87196-1.89087-1.37088-2.8363-3.11993-2.8363-5.24716 0-.0851.005-.21272.0142-.3829.009-.17963.0142-.31199.0142-.39708 0-.0756-.005-.18436-.0142-.32617-.009-.15127-.0142-.26473-.0142-.34036 0-2.27849.75635-4.07009 2.26904-5.37479 1.43706-1.21961 3.31374-1.82941 5.63005-1.82941 2.15559 0 3.9661.5389 5.43152 1.61669 1.55051 1.14397 2.51013 2.75121 2.87884 4.82171-.64611-.01-.0886.91998 0 1.3756l.34036.0284c-.13236.47271-.29781.94543-.49635 1.41815z"/><path id="path5186" d="m183.54391 125.88933-6.50931-.19854-1.10616-20.56318h.0851l-.0851-1.44651 7.48783.0851z"/></g><g id="text4319" fill="#0c00c9" stroke-width=".26458332" transform="matrix(1.1431762 .00527441 .01181627 .87481031 0 0)"><path id="path5189" d="m-68.245035 158.51001h-7.034025q0-3.89991.02836-6.35331l-1.744325-.0284-.113452 6.41004-7.587103.41127v-1.44652l.05673-20.081 7.884915.0567-.04255 1.4607h.04255l-.155997 7.34602 1.659236-.0284.02836-8.8918 6.679487-.0851.297812 19.7832h-.02836zm-.581442-2.02795-.297811-18.62032-5.516604.0851-.02836 8.86344-2.850482.0851.184359-8.83507-6.722031-.0567-.05673 18.87558 6.42422-.34036.113452-6.45258 2.907208.0284-.02836 6.3675z"/><path id="path5191" d="m-49.397819 152.0007q0 3.14829-2.751212 5.20461-2.510125 1.88614-5.757689 1.88614-3.247564 0-5.75769-1.88614-2.751211-2.05632-2.751211-5.20461 0-.11345.01418-.35454.01418-.24108.01418-.36872 0-.11345-.01418-.35453-.01418-.24109-.01418-.36872 0-3.1483 2.751211-5.19043 2.510126-1.87196 5.75769-1.87196 3.247564 0 5.757689 1.87196 2.751212 2.04213 2.751212 5.19043 0 .12763-.01418.36872-.01418.24108-.01418.35453 0 .12764.01418.36872.01418.24109.01418.35454zm-.581442-1.44651q0-2.89303-2.581033-4.77917-2.339948-1.70178-5.346426-1.70178-3.006478 0-5.346426 1.70178-2.581033 1.88614-2.581033 4.77917 0 2.89302 2.581033 4.79335 2.339948 1.71596 5.346426 1.71596 3.006478 0 5.346426-1.71596 2.581033-1.90033 2.581033-4.79335zm-4.878436.35454q0 1.13452-1.021069 1.80105-.893434.58144-2.08468.58144-1.205428 0-2.084681-.58144-1.021068-.66653-1.021068-1.80105 0-1.13452 1.021068-1.81524.879253-.56726 2.084681-.56726 1.191246 0 2.08468.56726 1.021069.68072 1.021069 1.81524zm-.75162.72325q-.623986-1.07779-2.354129-1.07779-1.744325 0-2.354129 1.07779.609804 1.0778 2.354129 1.0778 1.730143 0 2.354129-1.0778z"/><path id="path5193" d="m-31.472404 152.0007q0 3.14829-2.751212 5.20461-2.510125 1.88614-5.757689 1.88614-3.247564 0-5.75769-1.88614-2.751211-2.05632-2.751211-5.20461 0-.11345.01418-.35454.01418-.24108.01418-.36872 0-.11345-.01418-.35453-.01418-.24109-.01418-.36872 0-3.1483 2.751211-5.19043 2.510126-1.87196 5.75769-1.87196 3.247564 0 5.757689 1.87196 2.751212 2.04213 2.751212 5.19043 0 .12763-.01418.36872-.01418.24108-.01418.35453 0 .12764.01418.36872.01418.24109.01418.35454zm-.581442-1.44651q0-2.89303-2.581033-4.77917-2.339948-1.70178-5.346426-1.70178-3.006478 0-5.346426 1.70178-2.581033 1.88614-2.581033 4.77917 0 2.89302 2.581033 4.79335 2.339948 1.71596 5.346426 1.71596 3.006478 0 5.346426-1.71596 2.581033-1.90033 2.581033-4.79335zm-4.878436.35454q0 1.13452-1.021069 1.80105-.893434.58144-2.08468.58144-1.205428 0-2.084681-.58144-1.021068-.66653-1.021068-1.80105 0-1.13452 1.021068-1.81524.879253-.56726 2.084681-.56726 1.191246 0 2.08468.56726 1.021069.68072 1.021069 1.81524zm-.75162.72325q-.623986-1.07779-2.354129-1.07779-1.744325 0-2.354129 1.07779.609804 1.0778 2.354129 1.0778 1.730143 0 2.354129-1.0778z"/><path id="path5195" d="m-14.014975 151.41926-6.878028 1.74432q-.09927-1.88614-.85089-1.88614-.765801 0-1.304698 1.40397l.05673 6.18314-6.537672.11345-.311994-12.99026h.02836l-.02836-1.44651 6.707851.0567v1.24797q2.183951-1.80105 4.467172-1.80105 4.070091 0 4.651533 5.92787l-.198541.0567q.127633.73744.198541 1.38979zm-.638168-1.88614q-.482171-4.9068-4.013365-4.9068-2.609396 0-5.020251 2.52431l-.02836-1.97123-5.516604-.0567.28363 11.82738 5.374789-.12764-.05673-5.68678q.779983-1.88614 1.88614-1.88614 1.23379 0 1.375605 1.74432z"/><path id="path5197" d="m2.8610112 158.5951-6.0980455.73744-.170178-1.13452q-1.5457836 1.00688-3.3751973 1.00688-6.8496654 0-6.8496654-3.63046 0-.14182.02836-.41126.02836-.28363.02836-.42545 0-.0993-.02836-.29781-.02836-.21272-.02836-.31199 0-2.12723 1.361424-3.27593h-1.162883q.05673-.79416.241086-1.46069h-.241086q.198541-3.04903 2.552671-4.62317 2.0421357-1.36143 5.2613365-1.36143 8.4805377 0 8.4805377 6.18314zm-8.5656267-9.54415q-.198541-.0709-.4679895-.0709-.4963526 0-.8367086.32618.7658011-.0709 1.3046981-.25527zm7.9841852 7.57292v-7.03402q0-5.6017-7.8990962-5.6017-4.9209805 0-6.6511245 3.13411-.482171.87926-.553078 1.6876h4.7082583q.028363-.80834.5814415-1.33306.5530786-.52471 1.3614242-.52471.680712 0 1.1628831.35453.5530785.39709.5530785 1.03525 0 1.17707-3.1057488 1.57415-2.6377588.34036-3.7580978.97852-1.730143.99271-1.730143 3.23339 0 3.04902 6.2682234 3.04902 2.4675812 0 3.8148238-1.57415l.2269041 1.63088zm-5.630056-3.51701q0 .79416-.7658011 1.23379-.623986.36872-1.4748761.36872-.8367086 0-1.4606946-.36872-.7374381-.45381-.7374381-1.23379 0-.77998.7374381-1.21961.623986-.36872 1.4606946-.36872.8508901 0 1.4748761.36872.7658011.43963.7658011 1.21961zm-1.0494311.72325q-.4963525-.28363-1.1912461-.28363-.680712 0-1.1628831.28363.4821711.29782 1.1628831.29782.6948936 0 1.1912461-.29782z"/><path id="path5199" d="m21.509689 145.98774-5.119522 11.99755q-.680712 1.60251-2.056317 3.3752-1.375606 1.77269-2.765393 2.77958-2.4392182 1.80105-5.431515 1.80105-.879253 0-1.8577766-.22691l-.6948936-5.31806h.2127225l-.2127225-1.44651q3.8573683-.0567 5.516604-1.65924-2.3541292-4.28281-5.85696-11.03321l.7232565-.0851-.7232565-1.36142 7.5729212-.87925 1.942866 5.75769 1.347243-6.33913 7.402743 1.19124-.581441 1.36143zm-.808345-.97852-6.14059-.9927-1.645054 7.84237-2.495945-7.2893-6.2824046.72326 4.0417278 7.72892q.4679896.86507 1.3897871 2.6094.1843595.3829.6098047 1.10615-.6239862 1.37561-2.5526703 2.14141-1.5599652.62399-3.3751973.65235l.5530785 4.26863q.5672601.11345 1.3330611.11345 2.8363003 0 5.091159-1.6876 1.333061-.9927 2.651941-2.69448 1.333061-1.6876 1.999591-3.2192z"/><path id="path5201" d="m28.018996 140.15915-.75162 12.3379-.581441.0284q1.247972.83671 1.247972 2.2974 0 .41126-.08509.72326.08509.32617.08509.72325 0 1.19125-.893435 2.01378-.879253.80834-2.070499.80834-1.191246 0-2.070499-.80834-.865072-.82253-.865072-2.01378 0-.39708.08509-.72325-.08509-.32618-.08509-.72326 0-1.27634 1.021069-2.11304h-.212723l-1.446513-11.68556.170178-.0284-.170178-1.41815 6.622761-.87926-.08509 1.4607zm-.609805-.77998-5.374789.69489 1.333062 10.56522 3.346834-.14182zm-.05673 15.44365q0-.95016-.723256-1.58833-.709075-.65235-1.659236-.65235-.95016 0-1.659235.65235-.694894.63817-.694894 1.58833 0 .95016.694894 1.60251.709075.63817 1.659235.63817.950161 0 1.659236-.63817.723256-.65235.723256-1.60251z"/><path id="path5203" d="m56.793263 138.88281-.779982 21.81115-8.721624-8.48054.439627 5.34643h-.113452l.113452 1.44651-7.870733-.0567-.609805-23.05912 9.501606 8.70744.08509-7.17584h7.955822q-.05673 1.46069-.05673 1.3756 0 .0284.01418.0709.02836.0426.04254.0142zm-.609804-.87925h-6.764576l-.08509 7.8991-9.473242-8.65072.553078 19.66974 6.679487.0567-.638167-7.81401 9.033616 8.73581z"/><path id="path5205" d="m75.073215 153.05013q-.808345 2.97812-2.765393 4.6799-2.08468 1.80105-5.076977 1.80105-3.30429 0-5.871141-1.87196-2.836301-2.05632-2.836301-5.24716 0-.12763.01418-.3829.01418-.26944.01418-.39708 0-.11345-.01418-.32617-.01418-.22691-.01418-.34036 0-3.41774 2.26904-5.37479 2.155589-1.82941 5.630056-1.82941 3.233383 0 5.431515 1.61669 2.325767 1.71596 2.878845 4.82171l-.354537.0709q.226904.63817.354537 1.3047l.340356.0284q-.198541.70907-.496352 1.41815zm-.751619-.89343-5.786053-.24109q-.08509.80835-.652349 1.31888-.56726.51054-1.375606.51054-1.091975 0-1.942865-.62399-.921798-.66653-.992705-1.73014l10.494311-1.67342q-.170178-.85089-.709075-1.77269-2.084681-3.6021-6.934755-3.6021-3.233382 0-5.218792 1.65924-2.098862 1.78687-2.098862 4.96352 0 2.93557 2.666122 4.83589 2.396674 1.70178 5.459878 1.70178 4.041728 0 6.225679-3.46028.609805-.97853.865072-1.88614zm-6.878028.66653-1.659236.25527q.326174.0851.723256.0851.567261 0 .93598-.34035zm1.006886-3.95664-5.048614.85089q0-1.07779.737438-1.71596.694893-.60981 1.786869-.60981 1.815232 0 2.524307 1.47488z"/><path id="path5207" d="m91.112494 158.51001-7.487833.69489-1.744324-3.04902-1.489058 2.85048-7.204203-.17018 1.021068-1.43233-1.021068-.0284 4.424629-6.15477-4.793348-5.95623 1.13452-.0567-1.13452-1.38978 7.17584-.38291 1.531602 2.7654.992705-2.65194 8.097637.21272-1.13452 1.41815 1.13452.0284-4.580625 5.70097 5.076978 6.15477-1.106157.11345zm-1.13452-1.9145-5.2897-6.42422 4.736621-5.85696-6.509309-.18436-1.304698 3.43192-1.942866-3.51701-5.686782.29781 4.9068 6.06968-4.594807 6.41004 5.75769.156 1.801051-3.48865 2.08468 3.65883z"/><path id="path5209" d="m103.05332 158.89291q-1.57414.2269-2.58103.2269-2.552671 0-4.523899-1.00688-2.198133-1.12034-3.233383-3.26175-.723256-1.51742-.893434-5.26133l-2.212314.0709-.198541-4.39626h.05673l-.05673-1.44651 2.354129-.26945q.04254-3.27593.311993-6.96312l6.452583.31199-.08509 1.4607h.08509q-.198541 3.07738-.269449 4.87843l3.985005-.19854.0567 4.79335h-.0284l.0284 1.44651-3.942454.11346q.08509 1.29051.439627 1.84359.467989.7658 1.645057.7658.89343 0 2.32576-.58144l.28363 6.01296h-.0567zm-.6098-1.94286-.22691-4.6799q-.82252.31199-1.77268.31199-1.503242 0-2.212318-1.09197-.482171-.7658-.581441-4.09846l4.070089-.11345-.0567-3.63046-4.013369.19854q.05673-3.04902.269448-6.39586l-5.318063-.25527q-.212722 2.93557-.255267 6.87803l-2.325766.26945.141815 3.24756 2.212314-.0567q.141815 4.09845.865072 5.60169.964342 1.99959 3.006478 3.03484 1.843595.9218 4.226088.9218.96434 0 1.97123-.14181z"/><path id="path5211" d="m120.19875 159.14818-6.50931-.19854-1.10615-20.56318h.0851l-.0851-1.44651 7.48783.0851zm-.58144-2.05632-.12763-19.48538-6.29659-.0993 1.04943 19.44284z"/><path id="path5213" d="m138.54961 153.05013q-.80835 2.97812-2.76539 4.6799-2.08468 1.80105-5.07698 1.80105-3.30429 0-5.87114-1.87196-2.8363-2.05632-2.8363-5.24716 0-.12763.0142-.3829.0142-.26944.0142-.39708 0-.11345-.0142-.32617-.0142-.22691-.0142-.34036 0-3.41774 2.26904-5.37479 2.15559-1.82941 5.63005-1.82941 3.23339 0 5.43152 1.61669 2.32577 1.71596 2.87884 4.82171l-.35453.0709q.2269.63817.35453 1.3047l.34036.0284q-.19854.70907-.49635 1.41815zm-.75162-.89343-5.78605-.24109q-.0851.80835-.65235 1.31888-.56726.51054-1.37561.51054-1.09197 0-1.94286-.62399-.9218-.66653-.99271-1.73014l10.49431-1.67342q-.17017-.85089-.70907-1.77269-2.08468-3.6021-6.93476-3.6021-3.23338 0-5.21879 1.65924-2.09886 1.78687-2.09886 4.96352 0 2.93557 2.66612 4.83589 2.39668 1.70178 5.45988 1.70178 4.04173 0 6.22568-3.46028.6098-.97853.86507-1.88614zm-6.87803.66653-1.65923.25527q.32617.0851.72325.0851.56726 0 .93598-.34035zm1.00689-3.95664-5.04862.85089q0-1.07779.73744-1.71596.6949-.60981 1.78687-.60981 1.81523 0 2.52431 1.47488z"/><path id="path5215" d="m155.97868 146.31392-5.09116 12.30954-6.58021.49635-6.5944-12.55062.72326-.0851-.72326-1.36143 7.57292-.86507 1.94287 5.74351 1.34724-6.32495 7.40274 1.19125-.55308 1.36142zm-.80834-.99271-6.14059-.97852-1.64506 7.84237-2.49594-7.28929-6.28241.72326 6.04132 11.44447 5.84278-.43963z"/><path id="path5217" d="m172.27323 153.05013q-.80835 2.97812-2.7654 4.6799-2.08468 1.80105-5.07697 1.80105-3.30429 0-5.87114-1.87196-2.8363-2.05632-2.8363-5.24716 0-.12763.0142-.3829.0142-.26944.0142-.39708 0-.11345-.0142-.32617-.0142-.22691-.0142-.34036 0-3.41774 2.26904-5.37479 2.15558-1.82941 5.63005-1.82941 3.23338 0 5.43152 1.61669 2.32576 1.71596 2.87884 4.82171l-.35454.0709q.22691.63817.35454 1.3047l.34036.0284q-.19854.70907-.49636 1.41815zm-.75162-.89343-5.78605-.24109q-.0851.80835-.65235 1.31888-.56726.51054-1.37561.51054-1.09197 0-1.94286-.62399-.9218-.66653-.99271-1.73014l10.49431-1.67342q-.17018-.85089-.70907-1.77269-2.08468-3.6021-6.93476-3.6021-3.23338 0-5.21879 1.65924-2.09886 1.78687-2.09886 4.96352 0 2.93557 2.66612 4.83589 2.39667 1.70178 5.45988 1.70178 4.04173 0 6.22568-3.46028.6098-.97853.86507-1.88614zm-6.87803.66653-1.65924.25527q.32618.0851.72326.0851.56726 0 .93598-.34035zm1.00689-3.95664-5.04862.85089q0-1.07779.73744-1.71596.69489-.60981 1.78687-.60981 1.81523 0 2.52431 1.47488z"/><path id="path5219" d="m180.72541 159.14818-6.50931-.19854-1.10616-20.56318h.0851l-.0851-1.44651 7.48784.0851zm-.58144-2.05632-.12763-19.48538-6.29659-.0993 1.04943 19.44284z"/></g></g></svg>