<svg id="svg8" height="79.810471mm" viewBox="0 0 265.52506 79.810472" width="265.52505mm" xmlns="http://www.w3.org/2000/svg"><g id="text4614" fill="#fffcfc" stroke-opacity="0" stroke-width=".96199816" transform="matrix(-1.3071415 -.01034144 -.01021275 -1.0003439 278.56749 266.95535)"><path id="path4685" d="m202.81651 189.03812c-1.15082-.66183-2.53361-.64784-3.81522-.5222.61824-1.22871 2.3737-.34025 3.4238-.2349 2.09753.74712 3.89257 2.27984 5.10741 4.12714.61197 1.23993.32664 2.76396 1.17664 3.91289.74528.96381.40376 2.09832-.007 3.10321-.45108 1.64153-.83844 3.32684-1.6305 4.844-.60596 1.1908-1.81986 1.83161-3.0041 2.31612-1.06164.4238-2.13252.87406-3.24517 1.13032-1.44617.0977-2.80351-.54359-4.15691-.9506-1.9478-.8425-3.55914-2.26686-5.23412-3.53178-1.77682-1.92543-1.86343-4.82285-1.20223-7.23003.38661-1.04955.30524-2.23305.66943-3.25077 1.31649-2.36621 3.87206-4.25999 6.6644-4.12698 1.38873.24404 2.79976.56567 4.21463.35301.34718-.002.6953.0115 1.03933.0606zm-11.60184 4.6519c.42727-.14196-.33891-.20292 0 0zm10.38761-3.68047c-11.74165-133.813589-5.87083-66.90679 0 0zm1.33813-.60405c-.95463-.27949.0128 1.22571.40723.50505 1.16207.24598-.0214-.54591-.40723-.50505z"/><path id="path4687" d="m192.09705 208.66429c1.43641 1.08892 3.20947 1.88979 4.15537 3.49747.75536 1.7845.44107 3.9387-.69629 5.49128-.58596 1.39936-.76894 3.1379-2.13171 4.05187-1.71091 1.50592-4.07404 2.521-6.37359 2.04779.3417-1.24939-4.43471-3.14121-5.15994-4.08743-.74507-.86518.24602-1.92311-.18471-2.86883-.21428-1.42951-.28114-3.18478.94469-4.2012.91933-1.2081 1.26239-2.97987 2.77383-3.64103 1.4885-.60051 3.00251-1.66802 4.68654-1.23677.72583.1472 1.41641.47232 1.98581.94685zm-9.81223 10.35326c.13742-.59727-.48292.26809 0 0zm11.90147.71257c-.44421-.037-1.12264 1.10607-.60033.9155.20478-.3021.37491-.62743.60033-.9155z"/><path id="path4689" d="m182.03603 222.86196c1.06152 1.21895 2.15417 2.42568 3.00673 3.80567.46617 1.80483-.0147 3.8958-1.38101 5.19817-.65677.6798-1.29514 1.40825-1.64182 2.29953-.87028 1.32965-2.4502 1.95048-3.91803 2.36622-1.47036.34423-3.14417.48305-4.51198-.27125-.48025-.12957-1.3259-1.30711-.2808-.89847.61612-.1202-.85335-.79143-.98908-1.18691-.67091-.70295-1.15978-1.55534-1.7921-2.28608-.21261-.0567.70469 1.30183.0179.55418-.69811-.68166-1.371-1.55553-1.33086-2.58295 1.00198-.27531.48202-1.65123.81707-2.40237.21161-.93323.37002-2.06767 1.14143-2.70003.83282-.33455 1.26905-1.12998 1.95469-1.66685.62265-.5989 1.14207-1.44293 2.07413-1.58314 1.58817-.18218 3.23645-.84511 4.81695-.23626.81898.30755 1.44374.95482 2.01677 1.59054zm-12.1123 7.53399c.16623-.71948-.7191.0806 0 0zm11.42659-7.50631c.19327-.35363-.3711.0388 0 0z"/><path id="path4691" d="m164.22385 226.50461c-.74435.34421.55324.57464.43959.24682.68862.76319 1.10579 1.72519 1.69349 2.56421 1.91993 3.07304 3.53882 6.31813 5.14304 9.5624.71429 1.2974.61814 3.08397-.44383 4.16598-1.03549 1.12365-2.81199.10548-3.88826 1.1269-.12571.31708-1.33285 1.38207-.85098.44326.57553-1.09059-1.01379.32039-1.0973.76226-.78295 1.11523-2.25236 1.33311-3.51884 1.3482-1.786-.0193-3.69679-.90912-4.45766-2.59757.0717-.3557 1.05282 1.15163 1.19305.62358-.93045-1.59611-2.32382-2.99944-2.72856-4.85015-.0918-.39121.001-1.70547-.1738-1.49158-.0145.72136-.45481.54665-.39069-.0653-.0132-1.23967.42533-2.62421 1.45522-3.38355 1.06109-.77843 2.50456-.94991 3.45336-1.86781l.36186-1.31945c-.60721-1.21981-1.37547-2.69587-.68813-4.04384.82537-1.22602 2.4307-1.54088 3.81114-1.5801.26223.0198.5477.11521.6873.35572zm-.98619.0647c.35677-.68733-.80692-.10254 0 0zm .24249.0665c.3646-.75469-.78916-.0521 0 0zm .24247.0665c.3568-.68732-.80696-.10256 0 0zm1.19931.72002c.15188-.47639-.52857-.26145 0 0zm-6.04282 17.82314c.29615-.60936-.68685-.0657 0 0zm .50647.53001c.36457-.75452-.78918-.0523 0 0zm .31792.19893c.29615-.60935-.68683-.0657 0 0zm .24249.0665c.29615-.60935-.68686-.0657 0 0zm .22042.0791c.36455-.75402-.78922-.0528 0 0zm .33049.22101c.36463-.75408-.7893-.0526 0 0zm .24249.0665c.36452-.75407-.78915-.0528 0 0zm .22992.0444c.29612-.60938-.68673-.0657 0 0zm10.04962-4.11597c-.71253.23957-2.44578.19116-2.43497.78786.82338.0198 2.04674.10422 2.43497-.78786z"/><path id="path4693" d="m153.35301 239.37918c.0413.11112.0755.25195.10269.42248.0331.18641.0473.37077.0428.55309-.005.18232-.0339.34672-.0878.49321-.0699.15239-.18416.25805-.3429.31699-4.99317 2.34572-4.74018 1.36125-.0662 2.0837.47938.0749.90025.16245 1.26261.26272.36826.11614.62245.2656.76258.44839.0177.0476.0442.11903.0796.2143.0413.11112.0934.22723.15643.34833.0471.12699.0884.23811.12379.33336.0413.11112.0707.19049.0884.23812.28883.77784.37152 1.55997.24809 2.34638-.13341.80819-.41331 1.56239-.8397 2.26261-.4205.71609-.95369 1.34759-1.59957 1.8945-.64589.5469-1.34188.95887-2.08797 1.23591-.12699.0471-.30456.10404-.53269.17071-.23811.0884-.36511.13558-.38098.14147-.0317.0118-.19728.0281-.49663.0489-.29933.0209-.63631.0376-1.01093.0503-.38461.0344-.77216.0609-1.16265.0795-.40637.0245-.72452.0433-.95447.0564-.56692.0299-1.08076-.1135-1.54153-.4301-.45487-.30073-.77366-.69715-.95639-1.18926-.1061-.28573-.1369-.5633-.0924-.83269.0445-.2694.10277-.52587.1749-.76941.0721-.24354.14223-.46826.21028-.67416.068-.2059.0726-.38822.0137-.54696-.13557-.36511-.34486-.61254-.62785-.74227-.2771-.11387-.58685-.2427-.92926-.3865-.34241-.14381-.68458-.35995-1.02652-.64843s-.63669-.76608-.88426-1.4328c-.25935-.69847-.36338-1.31914-.31208-1.86201.0413-.52111.1915-.99232.45049-1.41363.24903-.39954.58513-.75916 1.00831-1.07887.42317-.3197.88989-.61944 1.40014-.89923.50027-.25801 1.01937-.51399 1.55729-.76792.53791-.25393 1.05406-.51783 1.54844-.79172.0317-.0118.1102-.068.2354-.1687.11521-.0789.23835-.16075.36943-.24555s.25127-.17459.36058-.26937c.11521-.0789.18868-.12425.22043-.13604.0159-.006.0873-.0325.21431-.0796.10523-.0571.18959-.0975.25308-.12108.34923-.12967.7835-.20061 1.3028-.21281.52519.004 1.04426.0641 1.5572.18043.50295.13837.96214.32913 1.37756.57226.39954.24903.67004.56403.81151.94501zm-8.9587 12.43035c.0535-.002.0656-.0426.0361-.12177-.0236-.0635-.0563-.0784-.098-.0449s-.0567.0662-.0449.098c.0177.0476.0533.0705.1068.0687z"/><path id="path4695" d="m139.92429 245.52927c.31671.90956-.22481 1.93689-1.03638 2.38214-.94587.53324-2.14578.5534-3.11601.0701-.96628-.45524-1.71787-1.41371-1.77635-2.5001-.0976-1.33516.78168-2.74999 2.11987-3.06288.94289-.20979 1.9206.23166 2.56501.91277.59882.60629 1.01701 1.37951 1.24386 2.19802z"/><path id="path4697" d="m109.81575 246.46499c.38391-.15049.78639-.25934 1.20743-.32654.40412-.0665.81769-.10802 1.2407-.12447.35533-.0138.70615.0742 1.05245.26413.33004.20747.63667.46669.91989.77766.26696.32855.48382.676.65057 1.04233.16741.38325.25802.75255.27183 1.10788l.33141 8.52796.89648.82941 2.2589-.0878c.30457-.0118.59649.087.87577.29641.26235.21011.49251.46383.69048.76117.19862.31425.35527.63861.46994.97308.11533.35139.17793.65398.18779.90779.009.23689-.006.49168-.0465.76439-.0571.27336-.14033.53078-.2496.77227-.1255.25907-.28649.47716-.48296.65425-.19581.19402-.43623.33046-.72125.40932-.11779.0215-.32864.0467-.63255.0754-.32083.0294-.65013.0591-.98788.0892-.35467.0307-.68397.0605-.98788.0892-.32083.0294-.54893.0467-.68429.052-.0169.00065-.0931.004-.22843.009-.13471.0222-.24436.0349-.32896.0382-.37225.0145-.73736-.005-1.09533-.0591-.37488-.0532-.75691-.0722-1.14608-.0571-.60914.0237-1.20752.10623-1.79513.24769-.60388.15904-1.21039.2504-1.81953.27407-.33841.0131-.64331.0165-.9147.0101-.28765.0112-.56717.0135-.83856.007-.28765.0112-.57595.005-.86492-.0172-.30523-.005-.65341-.0257-1.04456-.0611-.41003-.0857-.76447-.26684-1.0633-.54331-.29817-.25955-.53876-.56371-.72177-.91246-.19994-.3481-.3501-.72355-.45048-1.12636-.10039-.40281-.15781-.79034-.17228-1.16259-.0177-.45685.0957-.80866.34027-1.05541.24526-.22983.55985-.41999.94376-.57048.36765-.13291.7698-.25021 1.20645-.35191.4373-.0848.84725-.21933 1.22985-.40366.36567-.18367.66917-.44119.91049-.77254.24131-.33135.35046-.79314.32745-1.38536l-.33043-8.50258c-.0119-.30457.069-.62122.2427-.94995.15737-.31114.36648-.59888.62735-.86321.24395-.26367.52371-.4779.83928-.64267.31491-.1817.60773-.27781.87846-.28833.0339-.001.12726.004.28018.0145l.25381-.01c-.0637.10415-.17856.20182-.34449.293-.16657.0743-.33315.14852-.49972.22277-.18284.0918-.33997.19115-.47139.29793-.14834.10745-.21955.23731-.21363.38959zm10.63643 14.02475c.0846-.003.12461-.0642.12-.1826-.004-.10153-.0483-.15064-.13282-.14735-.0846.003-.12493.0557-.12098.15721.005.11845.0493.17603.1338.17274zm.21219.88142c.0345.0156.0585-.0192.0722-.10448l-.01-.25381c-.004-.10152-.008-.19458-.0108-.27919-.0202-.084-.0466-.10835-.0791-.0732-.0488.0527-.0696.17216-.0623.35829.007.18613.0372.30358.09.35237z"/><path id="path4699" d="m102.13065 249.41417c-.25624 2.80013-.55518 5.62079-1.30641 8.33609-.54301 1.06871-1.856019 1.33924-2.949811 1.39864-.459361.039.350278.53086-.260393.3925-.719115-.12476-1.350569-.6187-2.110143-.52294-.363212-.0452-1.365893.22948-1.399854-.063.846263-.30742-.302855-.2666-.615812-.30902-.817215-.0834-1.684705-.0226-2.379161-.53711-1.104806-.72424-.972162-2.53067.06685-3.25758 1.122978-1.0784 2.817095-1.33883 3.850993-2.52169.74406-1.03703.674696-2.38053.813935-3.59225.06616-1.09496.203626-2.41632 1.216295-3.06442.898739-.46871 1.988063-.23412 2.881626.13025 1.361335.61597 2.368975 2.08724 2.191885 3.61055zm-10.801606 5.91302c18.495116-176.174548 9.247556-88.08727 0 0zm-.05748 2.7737c.558076-.36436-.473552-.4478 0 0zm .162091.19223c-.493337-.47363.549684-.39706 0 0z"/><path id="path4701" d="m90.59291 242.28288c-.295785 1.75805-2.816587 1.76899-3.08073 3.54381.477638.82137-.116025 2.09143.478855 3.14568.573563 1.59013 1.467078 3.23526.999628 4.97774-.221217 1.45099-.53539 3.20853-1.941018 3.97502-1.02603-.0987-2.226674-.0636-3.232539-.77476-1.316964-1.50629-.987732-3.67932-.741712-5.50356-.09812-1.45966-1.728677-.20494-1.198928.73285-.301925 1.86823-1.32385 3.93155-3.2782 4.47801-1.771584.3131-3.27834-1.70171-2.655352-3.3429.610644-2.93073 2.337549-5.44241 3.814557-7.99014 1.095546-1.19287 2.015796-2.56944 2.388988-4.16418.315747-1.2771 1.650214-2.53204 3.003991-1.83245 1.022334.63306 2.809076.0471 4.075511.57832.954459.1723 1.612872 1.24568 1.366949 2.17656zm-2.038091 11.24826c20.344601-174.977182 10.1723-87.48859 0 0z"/><path id="path4703" d="m63.91176 241.38361c-.76977 1.42462-2.220582 2.31404-3.672977 2.92283-1.816307.22739-5.065364-.80064-6.84001-1.00188v0c1.485115 2.45987 3.391999 1.14705 5.783667 2.59373.754044.69608.159919 1.80074-.476403 2.34409-.99241.97052-2.543153 1.37572-3.8435.80939-.834654-.32831-1.666163-.66567-2.524134-.92473-.866433-.3799-1.379538-1.21388-1.910031-1.95137-.512022-.35182-1.601156-.94357-1.548681-.41577-1.541077-1.30066-2.21776-3.63302-1.298998-5.48486.911506-2.24802 2.181817-4.32481 3.314338-6.46348.432304-.81134 1.272976-1.46821 2.236084-1.34175 1.856498.0847 3.120774 1.61699 4.589933 2.54578 1.593879 1.0607 3.830881.77741 5.193291 2.25506 1.047904 1.03314 1.701713 2.71397.997421 4.11302z"/><path id="path4705" d="m49.316886 223.88494c-.315968-.54346-1.373807-.46706-.449813.0389 1.122116.80348 2.469629 1.42847 3.229162 2.62716.397258 1.24228-.655462 2.41674-1.468276 3.23654-.982355.71644-2.460299 1.1942-2.6288 2.58702-.189655 1.30027.345792 2.78954-.563816 3.91491-1.064448 1.60593-2.397235 3.30644-4.35634 3.79292-1.334444.35132-2.600853-.33125-3.920448-.41765-.996934-.10363-2.023631-.54336-2.483462-1.48984-.549689-.91418-1.105061-2.03239-2.252073-2.27574-1.304779-.45441-2.822828-1.33603-2.889039-2.88432.01562-1.33542 1.230867-2.15761 1.739903-3.29661.655017-1.16007 1.646914-2.05838 2.673946-2.87634.840218-.89323.964224-2.44491 1.823209-3.19233-.424754.55258.661561-.54902.932661-.70625 1.188912-.98718 2.574883-1.74244 4.077896-2.11052 1.0842-.5933 2.34905-.40493 3.293296.34627 1.189095.67899 2.37585 1.4715 3.236951 2.53898.02796.053.0014.11142.005.16687zm.245195 5.76411c-.969461-.36834-1.104271-1.91668-2.239504-1.92694-1.117366.79809-1.436371-2.12233-2.629642-1.0706.129731 1.26602 2.156216 1.40568 1.836766 2.9007.22696.58081.564282 1.85591.959576 1.89149.621456-.67797 1.533232-1.03342 2.072804-1.79465z"/><path id="path4707" d="m35.854995 223.6293c-1.071297.92495-2.55861.96318-3.885997 1.18798-1.532493.0347-2.603077-1.23236-3.774269-2.02562-.633294-.61801-2.829135-1.3659-3.257043-2.00229 7.441342 7.48874-3.030731 2.78637 0 0-.151185 3.16346 1.767097 1.7404 2.697624 2.74908.892116.66948 1.638346 1.5255 2.228965 2.469-.05129 1.04941-1.177718 1.64222-2.099717 1.80967-1.290328.26587-2.764116-.12947-3.550406-1.23754-.901994-.97102-2.083417-1.79658-2.497324-3.11497.414505-.93069-.670958-1.73936-1.183357-2.48003.222949.89825-.372504.32217-.393649-.18236-.400969-1.48959-.29061-3.23243.785703-4.42619 1.156262-1.31561 2.646647-2.27672 3.995629-3.37809.947752-.71992 1.911835-1.41828 2.889677-2.09674 1.207122-.45317 2.510952.20581 3.222985 1.19778 1.145031 1.43028 1.546465 3.4079 3.088966 4.52282.980444.76952 2.068224 1.53431 2.497863 2.76645.578425 1.38569.478963 3.243-.76565 4.24105z"/><path id="path4709" d="m22.396449 212.29095c-1.019923.56115-2.211494.83787-3.372987.69632-.56282-.0559-.983117.99023-1.546676.94549-2.499858-.43211-3.27706 2.08707-5.282026 2.51316-1.774205.16374-3.41092-1.94487-2.5668651-3.58437.5621491-1.02786 1.8048051-1.26058 2.8649021-1.39565 1.021708-.11849 2.078517-.48458 2.692476-1.35965.336429-.64767.216324-1.37835 1.055341-1.66395.751063-.47755 1.561132-.862 2.356961-1.25177-.113117.28359-.538006.7536.06801.34398.686884-.39144 1.629031-.5109 1.593601-1.39759.298435-.25038.09521-.47265.03338-.49064.802822-.80524 1.975687-1.0289 3.021655-1.35372 1.335762-.31843 3.038094-.24158 3.888394 1.00162.879679 1.22257.633165 3.00973-.428601 4.04423-1.158654 1.36746-2.818768 2.14385-4.377561 2.95254z"/><path id="path4711" d="m18.62802 197.11688c1.506674-.39584 3.433848-1.447 4.738572-.0488 1.648541 1.68974.936745 4.70771-1.125116 5.70817-1.444766.84912-3.161773.34751-4.733935.65407-1.534594.10023-3.088123.46324-4.615124.3468-.481448-.27053-2.124143-.71224-.851163-.01 1.564893 1.47234-1.943507.21568-1.430227-1.13936.09118-1.7775-.0451-3.52143-.7768098-5.18323-.1345915-1.78964-.7333654-3.52708-.7372897-5.32779.8381495-2.21322 3.4128785-2.88703 5.4844155-3.37267 1.76432-.24722 3.610072-.99861 5.379958-.45944 1.779212.55596 3.41776 2.51329 2.743073 4.4331-1.026994 1.93042-3.467043 2.12965-5.367678 2.62045-4.707669 1.82154-1.682009 2.18028 1.291324 1.7787zm3.380722-5.61973c64.708651-133.621188 32.354325-66.81059 0 0z"/></g><g id="text4319" fill="#ff5252" stroke-width=".96199822" transform="matrix(-1.3071809 -.00201957 -.01658104 -1.0002586 364.75697 180.78774)"><path id="path4391" d="m268.7229 104.08267q-.31802-.20358-.53508-.27965-.21707-.0761-.53884-.15018-.64355-.14824-1.2718-.13656-.6092.0421-1.25275-.1061l-.0513.22276q-.0247-.006-.0933-.0476-.0495-.0114-.0743-.0171-.0438-.0362-.25516-.13697-.18661-.0951-.22472-.15602.84519-.27449 1.73236-.27866.91192.002 1.77824.20108.74255.17105 1.37094.49825.64745.35765 1.22258.80291.59988.45096 1.13886.94002.55802.51952 1.1465 1.01998.43622.59572.65537 1.11537.21914.51965.33358 1.04125.11444.5216.19843 1.06224.0783.5654.28798 1.23927.0915.28172.23055.47015.1638.19412.32191.41299.1581.21888.2496.5006.11625.28743.10693.78052.002.10471-.12932.33513-.11222.26086-.17313.29896l-.13905-.18842-.30788 1.3366.28187.24738q-.16938.16951-.3368.44373-.14837.30467-.21874.49698-.38032 1.08533-.61227 1.86598-.23765.80541-.5839 1.40335-.3272.62839-.90957 1.11981-.58236.49142-1.63877 1.00397-.0552.0133-.45305.15629-.37878.1734-.89273.3678-.4892.2001-1.00315.3945-.51395.19439-.80138.31064-.5444.21345-1.02039.12987-.47599-.0836-1.02053-.209-1.11383-.25657-1.84498-.47711-.73116-.22055-1.3405-.5173-.60934-.29674-1.21492-.72295-.60558-.42621-1.46828-1.0941-.51228-.37865-.94836-.63549-.44177-.23208-.88744-.67359-.93515-.91916-1.33159-2.02702-.39644-1.10785-.4312-2.31485-.0405-1.18225.18941-2.4065.25462-1.21854.65204-2.37812l-.30661-.25308q.006-.0248.0761-.21707.0704-.19231.18829-.47793.11792-.28562.18258-.45318.34806-.83211.98744-1.57105.66413-.73323 1.47872-1.32755.83364-.56387 1.73208-.95642.91749-.36209 1.80272-.47097.54065-.084 1.20325.0947.68165.20914 1.21284.27937.88342.12529 1.76294.0412.89858-.0537 1.7877.0469zm-11.60184 4.6519q.0686.0418.0971-.0819.0228-.099-.0571-.0914-.10471.002-.11611.0515-.0171.0743.0762.12182zm10.3876-3.68047q-1.11383-.25656-2.52079-.37212-1.38791-.0851-2.72048.15531-1.33828.26517-2.42889.92623-1.09632.68582-1.60221 1.97681-.0647.16756-.25865.67024-.19398.50269-.41077 1.10438-.2225.62644-.45264 1.17293-.21108.57694-.29855.84351l-.0399.17326-.0399.17326q-.009.15422-.0264.56735-.017.41313-.0396.85102.002.44359-.009.83197-.017.41313-.0264.56734-.0282.80152.26712 1.44299.29535.64146.77342 1.16862.47237.55192 1.0475.99717.59418.47572 1.15026.89052.66844.49282 1.27402.91903.59989.45096 1.22258.80291.64173.38241 1.33673.64675.6893.2891 1.50611.47725.64355.14824 1.29461.0375.67581-.10498 1.21632-.52785.006-.0247-.0438-.0361l-.0248-.006q-.099-.0228-.1047.002-.0743-.0171-.43789-.0227-.33888.00013-.73296.0136-.39409.0135-.73296.0136-.33888.00014-.41314-.017-.0247-.006-.22276-.0513-.17897-.0152-.27798-.038-.0495-.0114-.26656-.0875-.19802-.0456-.24752-.057.43594-.082.97283-.0366.53119.0702 1.06808.1157.5312.0702 1.03569.03.49879-.0154.89468-.26308l4.38527-2.74327.25309-.30661q.006-.0247.0932-.29132.0818-.24182.18634-.58265.10457-.34082.21485-.7064.11027-.36557.16158-.58834.006-.0247.0342-.14851.0285-.12376.0684-.29702.0647-.16756.10457-.34083.0399-.17326.0627-.27227.0969-.42078.19385-.84156.0912-.39603.009-.83197-.0534-.22082-.20593-.80332-.15824-.55776-.32413-1.19546-.16589-.63771-.31843-1.22022-.15825-.55775-.21164-.77857-.25169-.94419-.81931-1.64837-.54857-.67373-1.27221-1.15319-.72364-.47947-1.5862-.80848-.86826-.30426-1.70983-.49811zm-4.06489 4.06819q1.21854.25462 2.34753.33221 1.14805.10806 2.31138.37602l.84157.19385q.9446.76495 1.22868 1.7948.27838 1.0546.0218 2.16843-.19385.84156-.63716 1.5214-.44331.67984-1.05808 1.0856-.62047.43051-1.43144.55649-.79192.15644-1.68299-.0488-.94057-.21666-1.97069-.61033-1.01107-.36322-1.80521-.98925-.79985-.60128-1.22285-1.48067-.39825-.87369-.12458-2.06178.25656-1.11383 1.14152-1.90046.904-.75618 2.0405-.9375zm4.33171 1.33662q-.6683-.15394-1.69828-.20873-1.02999-.0548-2.03703.13029-.98229.19077-1.79882.68038-.79749.52007-1.01984 1.48539-.13684.59404.29368 1.21451.44956.65092 1.11229 1.16849.65704.54232 1.35398.91138.7217.37476 1.09298.46028.27227.0627.99939-.26504.72142-.30299 1.48275-.77926.76133-.47626 1.36845-.96197.60712-.48572.67554-.78274.10262-.44554-.0175-.94238-.0954-.49115-.35639-.94224-.24196-.42065-.63618-.74604-.36947-.31969-.815-.42232zm1.07132-6.00886q-.19802-.0456-.42648-.0722-.20942.004-.37685.27811.002.10471.0953.15227.0876.0723.18661.0951.11806.0533.22276.0513.12376.0285.14852.0342l.49503.11403-.30661-.25308 1.18808.27367q-.50852-.50812-1.22632-.67346zm-1.17745 11.9012q.0285-.12376-.14476-.16367-.17326-.0399-.20177.0838-.0285.12376.14476.16367.17326.0399.20177-.0839zm.21317-.13335q.0285-.12376-.14475-.16367-.17327-.0399-.20177.0838-.0285.12376.14475.16367.17327.0399.20177-.0838zm.21318-.13336q.0285-.12376-.14476-.16367-.17326-.0399-.20177.0839-.0285.12376.14476.16367.17326.0399.20177-.0838zm.0798-.34652q-.006.0247-.0362.0438-.006.0247-.0114.0495l.008.08q.0609-.0381.30453-.1905.24362-.15241.30453-.19051.0248.006.0362-.0438.0114-.0495.0228-.099.006-.0247-.019-.0305zm.9955-.47445q.0285-.12376-.14476-.16367-.17326-.0399-.20177.0838-.0285.12376.14476.16367.17326.0399.20177-.0838zm.85516 5.56639q.0285-.12376-.14476-.16367-.14851-.0342-.17702.0896-.0285.12376.12001.15797.17326.0399.20177-.0838zm2.2153-1.80952q-.17702.0896-.47015.23056-.27408.17145-.57861.36195-.31023.21526-.62047.43052-.28548.22095-.46625.43997l-.0171.0742-.0228.099q.23417.002.56345-.18299.35404-.17911.69472-.41341.34069-.23431.58807-.51617.26643-.25141.31205-.44943l.0171-.0743zm.38644-.0934q.0285-.12376-.14476-.16367-.17326-.0399-.20177.0838-.0285.12376.14476.16367.17326.0399.20177-.0838z"/><path id="path4393" d="m258.00342 123.70884q.54728.36962.98931.66815.44203.29854.84879.60391.40677.30537.85563.63917.4557.36907 1.03769.82344.30097.32587.50871.92592.19352.62111.27387 1.31903.0804.69792.027 1.36686-.0465.7042-.26767 1.16783-.0284.0421-.14954.2668-.12111.22471-.25644.47047-.14955.2668-.27066.49151-.12111.2247-.14271.30207-.0785.16156-.18591.45679-.12166.31629-.22911.61153-.0864.30945-.17224.52732-.0648.23209-.058.26736l.0478.24686q-.0284.0421-.19903.29468-.16376.28786-.24905.41415-.51178.75777-1.48146 1.51278-.98389.77607-2.13507 1.25525-1.14435.51444-2.30017.59203-1.17003.0986-2.03304-.48421-.0632-.0427-.23838-.19164-.18944-.12795-.25259-.17059.28951-.11098.62056-.10195.33789.0443.62629.11648-.0421-.0284-.17523-.14899-.12629-.0853-.16839-.11373-.33678-.22746-.70938-.3565-.35155-.11483-.68834-.34229-.61042-.41227-1.18503-.92295-.56777-.47541-1.1782-.88767l-.21049-.14217.95184 1.04131q-.0421-.0284-.16839-.11373-.14051-.0643-.28785-.16376-.1263-.0853-.25259-.17059-.10525-.0711-.1684-.11373-.42098-.28432-.80669-.57548-.36467-.27693-.57296-.78541-.0552-.19054-.17303-.51531-.11097-.28951-.0968-.31056l.0426-.0631.39993.2701q.0427-.0632.0232-.3521-.0336-.2679-.0803-.69792-.0467-.43001-.11396-.96582-.0604-.50055-.0713-1.02898-.0251-.50737.0129-.9721.0238-.44368.14546-.75997l-.24686.0478.0995-.14734.0995-.14735q.0142-.0211.0921-.091.0779-.07.17004-.161.099-.0558.17687-.12575.0779-.07.0921-.091.0995-.14734.33436-.54044.24167-.35784.50494-.79303.28432-.42098.51916-.81408.24168-.35784.32014-.5194l-.29854.44203q.0358-.0984.15693-.32312.12794-.18944.26327-.43519.15638-.23154.29854-.44203.12794-.18945.18481-.27364.0284-.0421.29005-.20256.26846-.12519.40269-.18779 1.1233-.52866 1.96393-.91108.84063-.38241 1.56698-.50486.7474-.10822 1.52103.10777.79469.23021 1.80504.91258zm-7.06669 1.29607q-.22581.062-.33216.17412-.0995.14735-.21324.31574-.0284.0421-.0853.12629-.0711.10525-.0785.16156.21159-.041.31111-.18834.10634-.11208.22007-.28047.0284-.0421.0995-.14734.0711-.10525.0785-.16156zm.23264-.0268q.0489.0637.12001-.0415.0569-.0842-.0205-.1058-.0774-.0216-.1058.0205-.0426.0631.006.12684zm3.68399-1.09799q-.0768-.11318-.18261-.0927-.1058.0205-.21159.041-1.5596.44855-2.69304 1.49142-1.14765 1.06392-2.04326 2.39001-1.66328 2.46274-1.28173 4.62075.38838 2.19327 2.74587 3.78547 1.49449 1.00934 2.69759 1.27018 1.22414.27506 2.2832-.11309 1.05905-.38815 2.02299-1.36159.94973-.95239 1.93064-2.40478.29854-.44203.63972-.9472.34119-.50518.56291-1.06039.22856-.51995.24608-1.09047.0386-.55631-.29602-1.15008l-1.72186-3.03257q-.0347-.0847-.17467-.24058-.15418-.13477-.32941-.28377-.17522-.14899-.35045-.29799-.18944-.12794-.32995-.19219l.24686-.0478-.44203-.29854-3.31924-.98507zm.0995-.14735q.0711-.10524-.0763-.20475-.14735-.0995-.21843.006-.0711.10524.0763.20476.14734.0995.21842-.006zm.23264-.0268q.0779-.07-.0273-.14106-.0842-.0569-.12001.0415-.0216.0774.0205.10579.0631.0426.12684-.006zm1.58754 5.45518q.42098.28432.79193.68811.35674.42483.53715.88383.20145.47321.18449.95215-.0101.51421-.33711.99834-.39805.58938-1.09652.7613-.69847.17193-1.4516.0617-.76735-.0892-1.50517-.40355-.73098-.27914-1.21511-.60611-.44203-.29853-.77717-.80073-.31408-.48798-.44446-1.06644-.14459-.55741-.0918-1.13476.0528-.57736.35132-1.01939.46913-.69462 1.12495-.8034.65582-.10878 1.37314.0998.7031.22966 1.38406.62826.66673.41965 1.17191.76083zm-8.58185 4.90096q.0711-.10524-.0763-.20475-.14734-.0995-.21842.006-.0711.10524.0763.20476.14734.0995.21842-.006zm7.38851-10.30446q.0637-.0489-.0416-.12001-.0842-.0569-.10579.0205-.0216.0774.0205.1058.0631.0426.12684-.006zm.19903-.29468q-.0142.021-.00056.0916.0205.1058.0273.14107l.0842.0569.0631.0427zm-2.79186 5.04141q-.61945-.0812-.90377.33976-.32697.48413.26923.91745l.0569-.0842.0427-.0632q.0426-.0631.12111-.2247.0643-.14051.13588-.33734.0927-.18261.17114-.34417.0643-.14051.10689-.20365zm3.31235-4.90444q.0637-.0489-.0416-.12001-.0842-.0569-.10579.0205-.0216.0774.0205.1058.0632.0426.12685-.006zm.54154.1512q.0495-.0279.00055-.0916-.0421-.0284-.10524-.0711-.0632-.0426-.1263-.0853-.0563-.007-.0637.0489-.00055.0916.1047.16266.10525.0711.18999.0364zm-3.45969 4.80492q.0711-.10525-.0763-.20476-.14734-.0995-.21842.006-.0711.10525.0763.20476.14734.0995.21842-.006zm1.33568.47298q-.18371.0905-.44423.0678-.27474-.002-.55631-.0386-.26052-.0227-.49316.004-.23264.0268-.34637.19517-.0711.10525-.0927.18261-.0358.0984.062.22581l.32532-.20939q-.00055.0916.0126.25368.0342.17633.0894.36687.041.21159.11043.38109.0552.19054.16729.29688.0421.0284.24521.22691.22415.21269.49041.45381.26625.24113.53251.48225.25204.26217.40621.39695l.0842.0569q.35783.24168.87998.10392.52897-.1025.77065-.46033.21324-.31574.16022-.8726-.0462-.52159-.38296-.74905l-2.02071-1.36474zm2.63029-5.11988q.0779-.07-.0273-.14106-.0842-.0569-.12001.0416-.0216.0774.0205.1058.0631.0426.12684-.006zm-4.8619 7.19879-.0995.14734q-.0142.021.0273.14106.0626.13423.1673.29689.10469.16266.18834.3111.10469.16266.19572.25479.0211.0142.18944.12794.15418.13478.23838.19165.0421.0284.2247.12111.16839.11373.21049.14216l-.17412-.33215.45844-.0888-.0478-.24686zm2.62581-2.02723q.0495-.0279.00055-.0916-.0421-.0284-.10525-.0711-.0631-.0427-.12629-.0853-.0563-.007-.0637.0489-.0148.11262.0905.1837.10525.0711.20421.0153zm6.47237-.8699q-.0735-.66266-.16973-1.06479-.11043-.38109-.6156-.72227l-.35784-.24167zm-3.639 4.16276q.0995-.14734.0938-.36577.001-.18316-.0473-.33843l-.336.81518q.0211.0142.10579-.0205.0916.00055.1058-.0205.0142-.0211.0284-.0421.0353-.007.0495-.0279zm2.14834 2.4011q-.32477.11781-.50958.39145-.19902.29468-.38383.56832-.0569.0842-.21324.31574-.14955.2668-.20641.351.30372-.13203.50274-.42671.19903-.29469.36962-.54728z"/><path id="path4395" d="m247.9424 137.90651q.43597.49605.78809.89671.35212.40065.6684.799.31628.39834.66609.83484.3475.47235.79561 1.05917.20873.39141.25791 1.02451.0301.64986-.0687 1.3454-.0988.69554-.31967 1.32923-.22314.66953-.55442 1.06212-.0382.0335-.21217.22029-.17402.18676-.36712.39028-.21218.22029-.3862.40705-.17402.18676-.21449.25614-.11679.13645-.29543.3949-.19772.27522-.37636.53367-.16188.27753-.30005.4666-.12141.20814-.12372.24399l-.0162.25093q-.0382.0335-.2671.23474-.23126.23706-.34573.33767-.68684.60364-1.81598 1.08878-1.14822.5019-2.38318.67425-1.23728.2082-2.37512-.009-1.15693-.20058-1.84441-.98281-.0503-.0572-.18213-.24571-.15091-.17171-.20122-.22895.30817-.0341.62616.0584.31569.12834.57645.27114-.0335-.0382-.13183-.18848-.10061-.11447-.13414-.15263-.26829-.30526-.59612-.52437-.31106-.20004-.57935-.5053-.48626-.55328-.91298-1.19272-.42903-.60359-.9153-1.15688l-.16767-.19078.65743 1.24823q-.0335-.0382-.13414-.15263-.11969-.0977-.23706-.23125-.10061-.11448-.20121-.22895-.0838-.0954-.13415-.15263-.33535-.38158-.63486-.76084-.28274-.36019-.35562-.90482-.005-.19831-.037-.54232-.0341-.30816-.0151-.32493l.0572-.0503.31858.3625q.0572-.0503.11158-.33476.0352-.2677.0988-.69555.0636-.42784.13409-.96323.0682-.49954.19133-1.01354.10405-.49723.2584-.93723.13527-.42322.33299-.69844l-.25092-.0162.13355-.11737.13355-.11738q.0191-.0168.11216-.0648.0931-.048.20525-.11275.10985-.0289.20293-.0769.0931-.048.11216-.0648.13356-.11738.46021-.43828.32434-.28505.68915-.63948.38157-.33536.70822-.65626.32434-.28505.44113-.4215l-.40066.35212q.0596-.0862.23357-.27291.17171-.15091.36481-.35443.20987-.18445.40065-.35212.17171-.15091.24803-.21799.0382-.0335.33186-.12258.2914-.0532.43709-.0798 1.22051-.22728 2.13054-.38458.91003-.1573 1.64373-.092.75047.0844 1.44429.48906.71059.42377 1.51544 1.33955zm-7.16469-.5339q-.23416.003-.3654.0844-.13356.11737-.28619.25152-.0381.0335-.11447.1006-.0954.0838-.11678.13646.21508.0139.34863-.10351.13124-.0815.28387-.21567.0382-.0335.13355-.11738.0954-.0838.11679-.13645zm.23184.0329q.0312.074.12662-.01.0763-.0671.007-.10754-.0694-.0405-.10754-.007-.0572.0503-.026.1243zm3.84193-.13026q-.0457-.12893-.15322-.13586-.10754-.007-.21508-.0139-1.62234.0394-2.98274.76159-1.37948.73896-2.58144 1.79533-2.23223 1.96183-2.40905 4.14616-.17913 2.22018 1.69886 4.35701 1.19051 1.3546 2.28848 1.91132 1.11474.57581 2.23754.46822 1.1228-.10759 2.30166-.8055 1.15977-.68113 2.47621-1.83811.40066-.35212.85855-.75455.45789-.40243.81286-.88348.35267-.44521.51395-.99274.17805-.52845.005-1.18756l-.89863-3.36953q-.0121-.0908-.10813-.27694-.11506-.1694-.24689-.35787-.13183-.18848-.26366-.37696-.15091-.17171-.2706-.26941l.25093.0162-.35213-.40066-2.96204-1.79277zm.13355-.11737q.0954-.0838-.022-.21739-.11737-.13356-.21277-.0497-.0954.0838.022.21739.11737.13356.21276.0497zm.23185.0329q.0931-.048.009-.14338-.0671-.0763-.12662.01-.0405.0694-.007.10754.0503.0572.12431.026zm.15579 5.67935q.33535.38158.59208.86607.23765.50127.29607.99097.0752.50879-.0624.96786-.13989.49492-.57871.88058-.5342.4695-1.25345.45912-.71924-.0104-1.41999-.30752-.71984-.28038-1.35411-.77122-.63659-.45499-1.02225-.8938-.35212-.40065-.5493-.9713-.18042-.55156-.16021-1.14419.001-.57586.19827-1.12108.19713-.54522.59778-.89734.6296-.55334 1.29161-.49266.66201.0607 1.30321.44397.62213.40007 1.18009.95797.53888.57468.94131 1.03257zm-9.54257 2.5704q.0954-.0838-.022-.21739-.11738-.13355-.21277-.0497-.0954.0838.022.21739.11737.13355.21277.0497zm9.75508-8.10002q.074-.0312-.01-.12662-.0671-.0763-.10754-.007-.0405.0694-.007.10754.0503.0572.12431.026zm.26711-.23475q-.0191.0168-.0237.0885-.007.10754-.009.14339l.0671.0763.0503.0572zm-3.97646 4.1711q-.57876-.23529-.96034.10006-.43881.38566.0284.95572l.0763-.0671.0572-.0503q.0572-.0503.17402-.18675.0977-.11969.2168-.29199.13586-.15322.25264-.28967.0977-.11969.15495-.16999zm4.44536-3.9069q.074-.0312-.01-.12661-.0671-.0763-.10754-.007-.0405.0694-.007.10754.0503.0572.1243.026zm.48568.28329q.0549-.0145.0237-.0885-.0335-.0382-.0838-.0954-.0503-.0572-.10061-.11447-.0526-.0214-.074.0312-.0237.0885.0601.18386.0838.0954.17461.0833zm-4.56274 3.77334q.0954-.0838-.022-.21739-.11738-.13356-.21277-.0497-.0954.0838.022.21739.11737.13355.21277.0497zm1.17256.7955q-.20062.0411-.44693-.0468-.26538-.0711-.52845-.17805-.24631-.0879-.47815-.12082-.23185-.0329-.38448.1012-.0954.0838-.13586.15322-.0596.0862.003.23416l.36771-.12027q-.0237.0885-.052.24861-.0115.17923-.006.37755-.0139.21507.0104.39662.005.19831.0867.32955.0335.0382.17982.28156.16306.26248.35965.56312.19659.30064.39318.60128.17751.31741.29258.48681l.0671.0763q.28505.32434.82506.32316.5377.0347.86204-.25039.28618-.25151.37577-.80367.0873-.51631-.181-.82157l-1.60971-1.83157zm3.84001-4.28787q.0931-.048.009-.14339-.0671-.0763-.12662.01-.0405.0694-.007.10754.0503.0572.12431.026zm-6.52496 5.73458-.13355.11737q-.0191.0168-.009.14339.0266.14569.0867.32955.0601.18385.10351.34863.0601.18386.1249.29602.0168.0191.15091.17171.11506.1694.18213.24571.0335.0382.18676.17402.13414.15263.16768.19079l-.0844-.3654.466.03.0162-.25092zm3.05325-1.29698q.0549-.0145.0237-.0885-.0335-.0382-.0838-.0954-.0503-.0572-.1006-.11448-.0526-.0214-.074.0312-.0428.10523.0411.20062.0838.0954.19369.0665zm6.48189.79585q.0965-.6597.10518-1.07309-.0104-.39662-.41285-.85452l-.28505-.32434zm-4.57375 3.10671q.13355-.11738.18326-.33014.0474-.17693.0399-.33939l-.53131.70365q.0168.0191.10754.007.0885.0237.10754.007.0191-.0168.0382-.0335.0358.002.0549-.0145zm1.47099 2.8665q-.34401.0318-.59203.24979-.26711.23475-.51513.45273-.0763.0671-.28618.25152-.21218.22029-.2885.28736.32724-.0509.59435-.28564.2671-.23475.49605-.43596z"/><path id="path4397" d="m230.13024 141.54915q.0377.0662.0282.10085l-.37492.009.0156.0788q.0126.0221.0472.0316.0126.0221.0251.0441.0472.0316.25814.14529.21092.11372.2802.13272l-.0215-.39699q.2425.0665.41541.31879.13828.24278.39919.64957.24834.38471.55953.87978.28912.50764.60032 1.00271.32376.51714.60981.96807.27655.48557.47768.83871l.59081 1.03735.52796.927q.12571.22071.36762.69678.23241.51071.54974 1.1192.31733.6085.67237 1.28321.33298.68728.65031 1.29577.29526.62107.53717 1.09714.25448.49814.35811.73142.15055.46964.15918 1.04934.009.5797-.13389 1.09933-.12994.5417-.42359 1.00125-.29365.45955-.75715.72353-.37521.2137-.7722.23519-.40649.0561-.81605.0555-.40957-.00058-.78449.008-.38442.0436-.73756.24468-.39728.22627-.66243.5819-.27465.39027-.67193.61654-.0221.0126-.0788.0156-.0662.0377-.0883.0503l.56552-1.11132q-.0441.0251-.145.0534-.11036.0628-.1545.088-.309.17599-.52357.41512-.202.2612-.38194.50983-.18943.28328-.404.52241-.20201.2612-.48893.42462-.81664.4651-1.85648.58964-1.02727.14661-2.02881-.0722-.98897-.19674-1.84829-.73039-.84675-.51159-1.337-1.37237-.0503-.0883-.16649-.34364-.12571-.22071-.16342-.28693.32406.31236.70483.62165.35869.32186.75846.56187-.0251-.0441-.0911-.21121-.0754-.13243-.10056-.17657-.40226-.70629-.86766-1.31814-.4654-.61186-.86766-1.31814l-.72908-1.28014q-.18184-.6272-.23125-1.32983-.0589-.66799-.0706-1.3044l-.24395.9574-.088-.1545q-.18856-.33107-.14047-.91384.0481-.58278.25374-1.19683.18359-.60148.51831-1.14288.32522-.50677.67836-.7079.7725-.43996 1.5732-.77908.80071-.33911 1.57321-.77907.0662-.0377.29642-.19806l.38954-1.42032q-.31733-.60849-.59359-1.29884-.29833-.67778-.35724-1.34577-.081-.65542.19396-1.25047.2403-.60455 1.03486-1.05708.22072-.12571.7345-.3014.50121-.19777 1.08734-.29775.55149-.10948 1.04291-.0678.49141.0417.6674.35066zm-.98619.0648q.11035-.0628.0224-.21735-.088-.1545-.19835-.0916-.11036.0628-.0224.21735.088.1545.19835.0916zm.24249.0665q.11035-.0628.0224-.21735-.088-.1545-.19835-.0917-.11036.0628-.0224.21735.088.1545.19835.0916zm.31616 1.42762q-.22349-.13579-.51626-.29058-.29278-.15479-.58248-.25287-.31178-.0855-.60791-.0922-.33078-.0162-.59564.13462-.59592.33941-.77308.84953-.19922.5227-.15596 1.1119.0212.60177.19046 1.20691.1472.6177.27875 1.15662.10948.5515.0868.97363-.0227.42213-.35373.61069l-3.77419 2.14955q-.0221.0126-.0821.16371-.0601.15114-.0791.22042-.19309.63613-.32332 1.3826-.13024.74648-.12497 1.47425-.004.76242.13652 1.47148.15333.73113.50531 1.34912.71652 1.25807 1.6099 2.21079.89338.95272 2.26005 1.40203.35899.11708.74005.22159.37156.13915.74955.18695.37799.0478.72776-.005.36235-.031.7155-.23211.46349-.26398.8295-.64782.3565-.3492.70993-.75511.33136-.39333.69737-.77717.3565-.3492.84207-.62575.11035-.0628.41935-.23884.32157-.15391.43193-.21677-.0883.0503-.23022.16035-.164.12264-.328.24527-.15143.14471-.28078.27684-.15143.14471-.21151.29585.0567-.003.16707-.0659.11036-.0629.1545-.088.33107-.18856.58979-.45283.25871-.26427.58978-.45283.26486-.15084.55792-.20083.30564-.0279.58921-.0433.28356-.0154.55456-.0528.28356-.0153.54842-.16619.19864-.11314.3565-.3492.13579-.22349.2213-.53527.076-.27713.0827-.57327-.003-.26149-.11591-.46013l-2.40097-4.21562.81094 1.32121q-.0463-.64592-.29438-1.23541-.24805-.5895-.56231-1.14128-.52796-.927-1.11264-1.85092-.59417-.88928-1.16628-1.79114-.33326-.4825-.73274-.92728-.40898-.41015-.6981-.91779.0221-.0126.0914.006.0567-.003.0662-.0377.019-.0693.0349-.19528-.0187-.1355-.0438-.17964-.0754-.13243-.25477-.29336-.17935-.16093-.40284-.29672-.22349-.13579-.43441-.24951-.21092-.11371-.37156-.13915l.26398.4635zm-.0737-1.36111q.11036-.0629.0224-.21736-.088-.1545-.19835-.0916-.11035.0628-.0224.21735.088.1545.19835.0916zm1.19931.72001q.0567-.003.0536-.0598-.0377-.0662-.0754-.13243-.0377-.0662-.0628-.11035-.0598-.0537-.0914-.006-.0411.0819.0218.19221.0628.11035.15421.11678zm-.72002 1.19931q-.11036.0629-.19835-.0916-.088-.1545.0224-.21735.11036-.0629.19835.0916.088.1545-.0224.21735zm.41848.37551q-.11036.0628-.19835-.0917-.088-.1545.0224-.21735.11036-.0628.19835.0916.088.1545-.0224.21735zm.3118 8.91317q.23884.41935.44918.94263.2229.54535.2631 1.07784.0402.53249-.14002.9859-.18973.48806-.74151.80232-.57386.32683-1.13762.20946-.58585-.1048-1.10518-.45209-.51934-.34729-.94396-.83622-.42461-.48894-.67602-.93036-.0629-.11036-.24191-.47607-.18856-.33107-.25141-.44143-.0972-.32463-.0243-.65848.0509-.32128.22773-.62662.17686-.30535.41351-.55705.23664-.2517.5015-.40255.55178-.31426 1.0527-.30725.50091.007.94483.22188.42184.22744.7836.60601.36177.37858.62575.84208zm-.88198-.11153q-.088-.1545-.35869-.32186-.29278-.15479-.6297-.28444-.32434-.10758-.64562-.15844-.30871-.0288-.4632.0592-.26486.15084-.41965.44362-.16429.32741-.23723.66126-.0824.36849-.0861.72134-.004.35285.0212.60177.019-.0693.10421-.17628.0632-.0944.0947-.14163l.0883-.0503.0662-.0377q.0251.0441.15728.1735.12263.164.27991.3375.14777.20815.29555.41629.14778.20814.20113.35314l1.42031.38953q.0221-.0126.12322-.24556.0917-.19835.16429-.32742.19923-.52269.14982-1.22532-.0368-.68056-.32596-1.1882zm-2.55355 1.16204q-.11035.0629-.19835-.0916-.088-.1545.0224-.21736.11035-.0628.19835.0917.088.1545-.0224.21735zm-2.61755 6.28464q.11036-.0628.0224-.21735-.0754-.13243-.18578-.0696-.11035.0628-.0349.19528.088.15449.19835.0916zm.50647.53001q.11036-.0629.0224-.21736-.088-.1545-.19835-.0916-.11035.0628-.0224.21735.088.1545.19835.0916zm.31792.19893q.11035-.0628.0224-.21735-.0754-.13243-.18578-.0696-.11036.0628-.0349.19528.088.1545.19835.0917zm.24249.0665q.11036-.0628.0224-.21735-.0754-.13242-.18578-.0696-.11035.0628-.0349.19528.088.1545.19835.0916zm.22042.0791q.11036-.0628.0224-.21735-.088-.1545-.19835-.0916-.11035.0629-.0224.21735.088.1545.19835.0917zm.33049.22101q.11035-.0629.0224-.21736-.088-.15449-.19835-.0916-.11036.0628-.0224.21735.088.1545.19835.0917zm.24249.0665q.11036-.0628.0224-.21735-.088-.1545-.19835-.0916-.11035.0629-.0224.21735.088.1545.19835.0917zm.22992.0444q.11036-.0629.0224-.21736-.0754-.13242-.18577-.0696-.11036.0628-.0349.19528.088.1545.19835.0917zm10.04961-4.11597q-.54842.16619-1.25105.2156-.71213.084-1.21977.37317-.0441.0251-.13242.0754-.0978.0849-.14193.11007.5702.026 1.1499.0174.5702.026 1.07784-.26311.0221-.0126.11036-.0628.10085-.0282.19864-.11313.11036-.0629.19557-.16985.0631-.0944.0129-.18271z"/><path id="path4399" d="m219.2594 154.42372q.0619.16668.10269.42248.0496.27961.0428.55309-.007.27348-.0878.49321-.10479.22858-.3429.31699l-2.61926.97259q-.0238.009-.21702-.0007-.20817.0231-.3211.0109-.0565-.006-.24967-.0157-.19321-.01-.41906-.0341-.24083.008-.41023-.0102-.1932-.01-.24082.008-.0327-.015-.10409.0116-.0714.0265-.0626.0503-.0476.0177-.0776.083-.0211.0891-.0361.12178l.0354.0952q.0707.19049.54014.28714.44559.10549 1.12316.17902.68642.0974 1.49189.15049.78166.062 1.50073.1743.71907.11231 1.26262.26271.55239.17421.76258.44839.0265.0714.0796.2143.0619.16668.15644.34833.0707.19049.12379.33336.0619.16668.0884.23812.43325 1.16676.2481 2.34638-.20013 1.21229-.83971 2.26261-.63074 1.07414-1.59957 1.8945-.96882.82035-2.08796 1.23592-.19049.0707-.53269.1707-.35717.13263-.38099.14147-.0476.0177-.49662.0489-.449.0313-1.01094.0503-.5769.0516-1.16264.0795-.60956.0367-.95447.0564-.85038.0448-1.54153-.4301-.6823-.4511-.95639-1.18926-.15915-.4286-.0925-.83269.0667-.4041.17491-.76941.1082-.36531.21028-.67416.10207-.30885.0137-.54696-.20336-.54767-.62786-.74227-.41564-.1708-.92925-.3865-.51361-.2157-1.02652-.64842-.51291-.43273-.88426-1.4328-.38904-1.04771-.31209-1.86202.062-.78167.45049-1.41363.37355-.59931 1.00831-1.07887.63477-.47955 1.40015-.89923.75041-.38702 1.55729-.76792.80687-.38089 1.54844-.79172.0476-.0177.2354-.1687.17281-.11835.36943-.24555.19662-.1272.36058-.26937.17281-.11836.22043-.13604.0238-.009.2143-.0796.15784-.0857.25309-.12107.52385-.19452 1.3028-.21282.78779.006 1.5572.18043.75443.20756 1.37756.57226.59931.37354.81151.94501zm-.66672.24757q-.12378-.33336-.80407-.48717-.67145-.13-1.46808-.15933-.82045-.0205-1.58171.0454-.75242.0897-1.03816.19583-.92865.34483-1.87226.72231-.95859.41013-1.75119.97539-.79261.56526-1.34509 1.33939-.55247.77413-.71653 1.86464-.0579.42791-.12116.69526-.0633.26736-.0728.46056-.0245.22586.0136.40138.0231.20818.13805.51772.23873.64291.73465.81099.48096.20074 1.0667.1729.59459-.004 1.20143-.12098.61568-.0931 1.08508.004.0565.006.29117.0545.24354.0721.52586.10277.26735.0633.50205.11162.2347.0483.29117.0545.40409.0667.78166.062.3626.0279.68642.0973.32381.0694.57891.24564.26394.20004.42309.62864.15031.4048.11967.68712-.0545.29116-.24836.49864-.18506.23128-.47692.39385-.29187.16256-.62523.28635-.30955.11494-.5565.17955-.23812.0884-.4701.12037-.24696.0646-.5116.0816-.27961.0496-.47281.0401-.20818.0231-.40208.23058-.21772.21632-.18235.31157.053.14286.34692.27759.27891.16738.39184.17964.14558.0272.50818.0551.34763.0606.74288.10348.39526.0429.75786.0708.37144.0517.50818.0552l-1.14295.4244q.10409-.0115.37757-.005.24967.0157.53812-.0102.29729-.002.56193-.019.24967.0157.35376.004l.16668-.0619q.92864-.34483 1.87637-1.07607.93276-.69858 1.61655-1.62985.68379-.93128.96078-2.00953.28582-1.05444-.10321-2.10215l-.0619-.16668-.0429.39526q-.33809-.25379-.74148-.53751-.41837-.25107-.87551-.46065-.47211-.17692-.94151-.27357-.4694-.0966-.90956-.0416-.49663.0489-1.19872.20126-.69324.17613-1.39191.19171-.72249.0244-1.31024-.24503-.60273-.2368-.87682-.97495-.0177-.0476-.0381-.17552-.0442-.11906-.0619-.16668.33809.25378.78911.51982.4272.27488.92313.44296.48095.20074.98029.23208.50818.0551.9606-.11284.0238-.009.11021-.068.0714-.0265.11906-.0442-.45102-.26604-.90545-.39534-.44558-.10549-.83742-.28513-.41565-.17079-.74761-.48104-.34693-.2776-.56797-.87288-.0238.009.0476-.0177.0565.006.0326.015-.0476.0177-.21158.15985-.17894.17482-.22656.1925-.0476.0177-.12177-.0361-.0891-.0211-.10681-.0687-.0442-.11905.013-.32994.066-.18708.13473-.29388.0714-.0265.20546-.10339.14287-.0531.33336-.12378.16668-.0619.30071-.13876.14286-.0531.2143-.0796.50004-.18568.99054-.17815.49049.008.98983.0389.47553.0402.96603.0477.46669.0164.94291-.16046.21431-.0796.4259-.23943.18777-.15101.32521-.36461.14629-.18979.21842-.43333.0572-.21089-.0312-.44901zm-11.15802 3.95357q-.1286.23741-.20073.48095-.0871.2762.0102.53812l.0619.16668zm11.01681.19014q.11906-.0442.0572-.21088-.0619-.16668-.18095-.12247-.11906.0442-.0572.21088.0619.16668.18095.12247zm.39525.0429q.11906-.0442.0572-.21089-.0619-.16668-.18095-.12247-.11906.0442-.0572.21089.0619.16668.18095.12247zm-3.39584 4.86453q-.0531-.14287-.7898-.30281-.76057-.15109-1.67284-.27295-.91228-.12186-1.67897-.2165-.78166-.062-.90072-.0178l-.0714.0265q.0354.0952.1.3422.0734.27077.15574.56535.0585.30342.13192.57418.0735.27077.10882.36602l.0619.16668q-.015.0326-.0334.20204-.01.19321-.0279.3626-.0334.20205-.0517.37144-.0184.1694-.0245.22586l.0619.16668q.0619.16668.30202.37556.22516.24153.51291.43272.26394.20003.52516.31979.27007.14357.41294.0905l.16668-.0619q-.26123-.11975-.35236-.43814-.1061-.28574-.17683-.47623l-.24757-.66672q.0694-.32382.37625-.51904.29187-.16256.36129-.48638.62383.14768 1.01636.1103.39254-.0374.91639-.2319.14287-.053.32452-.14759.16668-.0619.30684-.19522.14899-.10951.22384-.27278.051-.15442-.0374-.39254zm4.80667-3.54597q.11906-.0442.0572-.21089-.053-.14287-.1721-.0987-.11906.0442-.066.18708.0619.16668.18095.12247zm.22857.10479q.0803-.003.0361-.12177-.0354-.0952-.098-.0449-.0626.0503-.0449.098.0265.0714.1068.0687zm-7.92868 4.62396q-.11905.0442-.18095-.12247-.0619-.16668.0572-.21089.11906-.0442.18095.12247.0619.16668-.0572.21089zm-2.25674 1.94886q.0803-.003.0361-.12177-.0354-.0953-.098-.0449-.0626.0503-.0449.098.0265.0714.1068.0687zm3.92529.57454q-.13674-.003-.53812.0102-.42519.0224-.48166.0163-.0714.0265-.10408.0115-.0476.0177-.0476.0177-.0238.009-.0476.0177-.015.0326-.0388.0415.19863.1701.50205.11162.28845-.0258.52657-.11424.0238-.009.11021-.068.0714-.0265.11906-.0442z"/><path id="path4401" d="m205.83068 160.57382q.26356 1.0075-.2895 1.70353-.54662.7206-1.55412.98415-.66347.17356-1.29294.0757-.64761-.0669-1.18106-.39991-.55159-.30204-.94517-.80294-.41816-.49447-.59172-1.15794-.13499-.51604-.0488-1.08993.0926-.54931.35834-1.03891.26575-.48959.69293-.86389.43361-.34972.97421-.49114.71262-.18642 1.34966.0408.61245.2336 1.1289.70236.52287.49333.89302 1.10538.352.64305.50628 1.2328zm-3.6593-2.24581q.12287-.0322.0779-.20416-.045-.17201-.16786-.13987-.12287.0321-.0779.20416.045.17201.16786.13987zm1.9928 1.39528q-.10285-.39317-.35843-.66762-.28016-.26802-.60831-.41847-.35274-.14402-.73533-.20146-.40074-.0265-.78219.0208-.13344.19244-.32775.4533-.21245.29187-.3939.60189-.18144.31001-.28275.62531-.0949.33988-.0113.65933.0836.31945.38829.58104.28015.26803.66388.43019.38374.16217.7909.21318.40717.051.72662-.0326.34402-.09.5629-.35729.20074-.23629.32018-.5826.1013-.3153.1096-.68504.0147-.34516-.0624-.64004zm-.43083 2.86945q.86006-.22499 1.18439-.99245.30618-.73647.0876-1.57195-.12286.0321-.26802.28015-.13873.27258-.24646.56331-.13231.29716-.22189.55689-.0896.25972-.12588.32173l.74395-1.27106.0257.0983q.0964.3686-.054.69676-.16859.35916-.43661.63931-.2926.28658-.63548.4813-.36103.22571-.64305.352l.58975-.15428zm.15574-.40831q.12286-.0321.0779-.20415-.045-.17201-.16786-.13987-.12286.0321-.0779.20415.045.17202.16787.13987zm.73304-.008q.12287-.0322.0779-.20416-.045-.17201-.16786-.13987-.12287.0321-.0779.20415.045.17202.16786.13988zm-1.22451.13654q-.005.0802.11758.048.0983-.0257.0544-.093-.0439-.0673-.093-.0544-.0737.0193-.079.0994z"/><path id="path4403" d="m175.72213 161.50954q.57587-.22573 1.20743-.32653.60618-.0998 1.2407-.12447.533-.0207 1.05245.26413.49506.31121.91989.77766.40044.49282.65057 1.04232.25111.57489.27183 1.10788l.33141 8.52797.89648.82941 2.2589-.0878q.45685-.0177.87577.29642.39353.31516.69048.76116.29793.47139.46994.97309.173.52708.18779.90779.0138.35533-.0465.76438-.0857.41004-.2496.77228-.18825.3886-.48296.65425-.29372.29102-.72125.40931-.17668.0323-.63255.0754-.48125.0441-.98788.0892-.53201.0461-.98788.0892-.48125.0441-.68429.052-.0254.00099-.22843.009-.20206.0333-.32896.0382-.55838.0217-1.09533-.0591-.56232-.0798-1.14608-.0571-.91371.0355-1.79514.2477-.90581.23856-1.81952.27406-.50762.0197-.9147.0101-.43148.0168-.83856.007-.43147.0168-.86492-.0172-.45784-.008-1.04456-.0611-.61506-.12861-1.0633-.54332-.44725-.38932-.72177-.91246-.29991-.52215-.45048-1.12636-.15058-.6042-.17228-1.16258-.0266-.68529.34027-1.05541.36789-.34475.94376-.57048.55148-.19937 1.20645-.35192.65595-.12716 1.22985-.40366.54851-.27551.91049-.77254.36197-.49703.32745-1.38536l-.33043-8.50258q-.0178-.45685.2427-.94994.23605-.46672.62735-.86321.36592-.39551.83928-.64268.47237-.27255.87846-.28833.0508-.002.28018.0145.20304-.008.25381-.01-.0956.15623-.34449.293-.24986.11138-.49972.22277-.27426.13775-.47139.29793-.22251.16116-.21363.38959zm4.4957 3.18062q-.0177-.45685-.21613-.98295-.22278-.49972-.5451-.94474-.34771-.44403-.79102-.73184-.46869-.28681-.9763-.26708-.35534.0138-.83363.13407-.50268.14663-.92528.39182-.44798.24619-.73973.58797-.29076.36717-.273.82403.0207.53299.14196 1.03667.12224.52905.14394 1.08743l.0355.91371q.003.0761-.035.40806-.0623.35829-.0983.74098-.0613.38367-.0993.71559-.0379.33193-.035.40807.004.10152.0207.533.0178.45685.0365.93909.0197.50762.0365.93909.0168.43147.0217.55838.005.1269-.033.45883-.0633.33291-.11112.41102-.25552.61999-.94251 1.25675-.68699.63676-1.40232 1.19836-.73973.58797-1.30475 1.09289-.56502.50492-.55022.88563.0217.55838.64563.91542.59856.35803 1.39424.55588.77129.22422 1.56204.29516.76537.0719 1.12071.0581.83756-.0325 1.6224-.11389.78582-.056 1.57065-.13729.78582-.056 1.59702-.11291.8112-.0569 1.70052-.0661.15031-.0567.52708-.173.35237-.0899.77891-.23362.40215-.11731.77892-.23362.35138-.11534.50268-.14664.40116-.14268.81982-.4894.39327-.34573.3765-.77721-.002-.0508-.007-.17766-.0303-.12592-.0323-.17668-.68358-.5835-1.38267-.9122-.72348-.30233-1.41764-.50413-.69416-.20179-1.31218-.40655-.61802-.20476-1.09065-.59309-.49703-.36198-.77649-1.01202-.30483-.64905-.34724-1.74042-.007-.17767.006-.50861-.0128-.32995-.0138-.35533.0224-.0771.11211-.38564.0897-.30852.20278-.66878.0877-.35928.20278-.66878.0897-.30852.11211-.38564.19687-.82107.23849-1.71236.0172-.86492-.0163-1.72787zm.43905 6.71902q-.008-.20305.007-.48322-.0109-.27919-.0237-.60914-.0382-.32897-.0754-.63255-.0626-.3026-.19838-.52609-.26242.44232-.44475.98321-.18233.54089-.16261 1.0485l.003.0762q.0274.0498.0801.0986.0537.0742.10448.0722.11704-.25874.25453-.64537.13848-.36125.20574-.59264.003.0761.0372.30359.01.2538.0118.30457.0168.43147-.071.79075-.0867.38465-.071.79075.007.17766.13973.32502.10843.17372.23928.27031-.003-.0761-.0118-.30457-.009-.22843.007-.48322-.01-.25381-.0187-.48224-.009-.22843-.0118-.30457zm.22724 1.92303q.12691-.005.12-.1826-.007-.17767-.13381-.17273-.1269.005-.12.18259.007.17767.13381.17274zm3.70219 1.07624q-.13677-.24887-.41892-.31417-.30654-.0389-.56035-.0291-.0254.00099-.1269.005-.10054.0293-.12592.0303.12888.0458.5399.15695.38565.11211.51452.15794l.0762-.003.10152-.004zm-11.83438.28197q-.0224.0771.10448.0722.10153-.004.0732-.0791-.0283-.0752-.0791-.0732-.0762.003-.0986.0801zm-.52609.19838q-.0567-.15031-.13381-.17273-.10251-.0214-.22941-.0165-.0508.002-.10153.004-.0508.002-.0498.0274l-1.00018 1.08106q.42457-.19444.77004-.46205.32009-.26663.74466-.46107zm-1.0347.19273q.12691-.005.12-.1826-.006-.15228-.13282-.14735-.1269.005-.12099.15721.007.17767.13381.17274zm-.67147.38196q.0537.0742.1513-.0313.0976-.10547.0195-.15327-.0781-.0478-.1513.0313-.0732.0791-.0195.15327zm15.83889.0708q.12691-.005.12-.18259-.006-.15229-.13282-.14736-.1269.005-.12098.15722.007.17766.1338.17273zm.21219.88143q.0517.0234.0722-.10448-.004-.10153-.01-.25381-.006-.15229-.0109-.27919-.0303-.12592-.0791-.0732-.0732.0791-.0623.3583.0109.27918.09.35237zm-2.00035 2.16211q-.0224.0771.10449.0722.10152-.004.0732-.0791-.0283-.0752-.0791-.0732-.0762.003-.0986.0801z"/><path id="path4405" d="m168.03703 164.45871q-.17222 2.02469-.44997 4.09139-.30307 2.06454-.77684 4.03809-.14213.47225-.49913.77328-.38446.32418-.85939.51321-.47493.18903-.98971.24721-.51694.0835-.92618.0997l.32418.38446-.17716-.0151q-.50617-.043-.97196-.26111-.4658-.21807-.97197-.26112-.37963-.0323-.74041.0135-.38824.0689-.76787.0367l-.35432-.0301.56162-.30911-2.60679-.22173q-.28217-.27892-.66826-.23529-.5455-.47975-.74099-.87876-.22079-.40115-.16482-1.05918.0667-.78456.62026-1.2983.52823-.51589 1.25246-.93863.72208-.39743 1.46732-.7674.74524-.36997 1.19323-.8417.44799-.47173.63911-1.22022.16367-.72534.23255-1.53522.0689-.80987.13778-1.61975.0689-.80987.32517-1.42537.25629-.61549.77159-.97953.51531-.36403 1.50235-.28008.75926.0646 1.47168.3801.68496.33867 1.20085.86689.49058.52607.76362 1.21208.27089.71132.202 1.52119zm-3.3775-3.44825q-.40494-.0344-.77433.11258-.36939.14702-.64831.42919-.30423.28003-.46306.64889-.18414.36672-.21859.77165-.004.0506.0124.15401-.0108.12654-.0151.17716.89435-1.22401 2.08973-2.09101zm2.26386 2.15542q-.0878-.46632-.48359-.90785-.39796-.41623-.87882-.45713-.32901-.028-.84432.33605-.51531.36404-1.01822.88208-.50292.51804-.87929 1.04684-.37852.55412-.40651.88313-.0388.45555.0259.89441.0393.4367.00058.89226-.0538.63272-.36881 1.03928-.34245.42972-.82599.71999-.48569.31557-1.01554.55091-.52986.23534-1.0134.5256-.48354.29027-.79638.67152-.3403.40442-.38981.98652-.0495.58209.20305.90948.2251.35054.69468.82384-.16477.13893-.13946.14109.0232.0275.0485.0296.60741.0517 1.22343.002.61602-.0496 1.22342.002.5821.0495 1.13028.19811.52287.14644 1.10497.19595l.0781-.0188-.14918-.34408q.38987.2116.85404.14912.4367-.0393.84001-.28544.40116-.22079.66338-.60635.23476-.36241.22074-.79696.0447-.22563.1195-.80557.0748-.57995.15825-1.26113.0813-.65587.15825-1.26112.0748-.57995.0942-.80773l.18513-2.17654.18298-2.15123zm.35496 2.12051q.0738.0318.0845-.0948.009-.10124-.0695-.0824-.0781.0189-.0824.0695-.006.0759.0673.10769zm-.11293 3.12588q.0485.0296.0824-.0695.0318-.0738.0404-.17501.009-.10123-.008-.20462-.0189-.0781-.0716-.0571-.0802.0442-.0975.24662-.0172.20247.0544.25955zm-9.93 1.95946q-.29561.17879-.52607.49058-.25576.30963-.2859.66395-.028.32902.17181.6774.17233.37154.4335.59769zm-.0575 2.7737q.12654.0108.14161-.16639.0129-.15185-.11363-.16262-.12654-.0108-.13946.14109-.0151.17716.11148.18792zm.16209.19223q-.12654-.0108-.11147-.18792.0151-.17716.14161-.1664.12654.0108.11147.18793-.0151.17716-.14161.16639z"/><path id="path4407" d="m156.49929 157.32744q-.13275.67283-.57013 1.05254-.43737.37972-.93967.69485-.52722.31021-.95968.66501-.43738.37972-.56521 1.02763-.0147.0748-.0341.30395-.0492.2492-.0341.30395l.35837-.11052q-.2721.72301-.15566 1.445.0866.742.35749 1.46858.24596.72166.54667 1.42823.30072.70658.42699 1.37874.14628.70199.0535 1.43449-.0977.75742-.23533 1.45517-.0836.42363-.25143 1.01187-.19276.58332-.50028 1.09222-.31244.53381-.75999.83386-.45246.32496-1.07545.20204-.0249-.005-.0698-.0397-.0748-.0147-.0997-.0197l.20394-.1151q-.02-.0298-.0449-.0348-.0498-.01-.0747-.0147-.0498-.01-.0548.0151-.0249-.005-.17935-.01-.17936-.009-.33379-.0141-.17936-.01-.33379-.0141-.15443-.005-.20427-.0144l-.0997-.0197q-.99679-.19667-1.45193-.90782-.45515-.71116-.5821-1.64234-.13187-.90627-.0447-1.87288.0822-.94169.19007-1.61944-.0154-.18427-.14069-.46788-.12527-.28362-.32463-.32295-.17443-.0344-.41279.25512-.26819.30954-.35245.47414l-.0197.0997-.0147.0748q.0252.13443.14002.20886l-.20159 1.0217q-.12783.64791-.47961 1.38108-.35177.73317-.85832 1.33225-.53147.59416-1.19312.92963-.66657.36039-1.41415.21289-.39872-.0787-.74301-.30194-.36921-.22818-.63908-.56622-.27479-.31311-.43023-.70624-.18036-.39804-.20629-.7915.0147-.0748.0443-.22427.0295-.14952.0688-.34888.01-.17935.039-.32887.0295-.14952.0442-.22428.20159-1.0217.63237-2.02407.40586-1.00729.93631-1.98999.50062-.96271 1.07109-1.88574.54554-.92795 1.02649-1.79097.20852-.26954.50655-.59908.27311-.33446.55605-.71876.27802-.35938.53604-.7486.22819-.36921.3767-.72825.21276-.55349.42027-1.21156.21243-.683.55471-1.23682.31736-.55874.84458-.86895.5023-.31513 1.32464-.15288.0498.01.2692.079.19936.0393.2492.0492l-.20886.14002.17444.0344q.79743.15734 1.60435.13532.81184-.0469 1.60927.1104.0748.0148.22428.0443.14951.0295.34395.0937.17444.0344.32396.0639.14952.0295.22427.0443 1.27225.76881 1.01166 2.08955zm-.70233.0168q.0541-.27411-.0463-.55281-.0954-.30361-.30529-.55214-.20495-.27344-.45448-.45212-.27445-.1836-.54856-.23769-1.86897-.36875-3.15294.10283-1.27906.44666-2.22789 1.45037-.97376.9988-1.73732 2.37564-.76848 1.40176-1.57662 2.87336-.0397.0698-.17835.37904-.13867.30921-.28718.66825-.14851.35904-.28719.66825-.14359.33412-.18326.40396-.26752.56857-.59013 1.02272-.34753.44922-.64522.90828-.32261.45414-.57538.94795-.27769.48889-.40061 1.11188l-.16717.84727q.0453.16427.15544.39312.0853.22394.22529.4328.1351.23377.30987.3977.16986.18886.3443.22327.59807.118 1.13512-.24205.51214-.36497.96884-.97388.42687-.5889.80357-1.31716.37669-.72826.68388-1.36667.30227-.61349.54029-1.03254.2131-.42397.38754-.38956l1.37057.27042q.27412.0541.27088.72658-.0282.66758-.0907 1.50959-.0875.8371-.0806 1.58927.002.77708.33648 1.05019l.20158-1.0217q.0853.22394.21579.61215.1056.38329.29088.75641.18036.39804.45515.71115.24987.3082.57382.37212.32396.0639.68233-.0466.35345-.0856.68165-.30564.29837-.20002.53672-.48956.21344-.29446.27735-.61841l.0492-.2492q-.0453-.16426-.14594-.57247-.10561-.3833-.19646-.84135-.12069-.43804-.19646-.84134-.1056-.38329-.15086-.54756-.0151-.0548-.0256-.26394-.0354-.21411-.0505-.26887-.00034-.12951-.0115-.59773-.0112-.46822-.008-1.0112-.0263-.52297-.0325-1.01611-.0112-.46822-.0164-.57282-.005-.10459-.061-.47805-.0807-.37837-.15153-.80659-.0709-.42821-.12661-.80167-.0558-.37346-.0361-.47313-.0151-.0548.0538-.40364.0439-.35379.0832-.55314.0197-.0997.11833-.46856.0688-.34887.11342-.44363.24328-.31446.70591-.55975.46263-.24528.92034-.46565.45772-.22037.83575-.43057.35804-.24003.41704-.53907zm-5.22664-2.3775q.1246.0246.1541-.12493.0344-.17444-.0902-.19902-.1246-.0246-.15902.14985-.0295.14952.0951.1741zm3.89088 13.60897q.059-.29904.018-.74725-.0459-.4233-.16171-.88627-.12069-.43804-.27613-.83117-.18036-.39804-.39514-.62165l-.0344.17444q-.0738.3738-.0527.79218.0161.4433.13679.88134.0958.43313.27613.83117.18036.39805.41023.67641.0348-.0449.0544-.1446.0147-.0748.0246-.1246zm-.0373.97644q.1246.0246.15902-.14985.0344-.17444-.0902-.19902-.12459-.0246-.15901.14985-.0344.17444.0902.19902zm-4.56844-.20235q-.0698-.0397-.0551-.11442.01-.0498.0895-.06.10459-.005.0849.0944-.0246.1246-.11935.08z"/><path id="path4409" d="m129.81814 156.42815q-.22726.45433-.46586.76099-.27267.31801-.60213.57922-.32946.2612-.68164.51105-.38626.2612-.8634.59054-.61347.43154-1.1928.51096-.61341.0908-1.3631-.057-.15902-.0228-.7724-.15916-.61338-.13641-1.32898-.29556-.71561-.15915-1.31762-.31828-.61337-.13641-.7724-.15915-.0568-.00001-.27262-.0228-.23853-.0341-.28397-.0568-.1363-.0682-.0454-.24991.0682-.1931.0909-.23853.0909-.18173.63613-.0794.52251.091 1.29491.25012.7724.15916 1.74928.25019.96552.11376 1.91972-.0905.95421-.20431 1.85169-.8062.8634-.59054 1.48837-1.83995.24998-.49976.1024-1.05639-.18165-.54527-.55642-1.04514-.38614-.47715-.87452-.86344-.48838-.3863-.85185-.56811-.70421-.35225-1.44253-.52276-.74969-.1478-1.4539-.50005-.49977-.24998-.93136-.57947-.45431-.34086-.86318-.71578-.44295-.36357-.87455-.69306-.43159-.32949-.93136-.57947-.34075-.17045-.78375-.19324-.44301-.0228-.8406.0907-.43167.12488-.77249.352-.37489.23848-.5567.60195l-.14772.29532q.35218-.24985.86337-.42015.47712-.15895.84063-.26113.10222.0795.28396.11364.15903.0228.37485.0455.1931.0114.40892.0342.21583.0228.35212.0909.0454.0227.22717.11363.17037.11362.2158.13635-.48844-.0455-1.02233-.00017-.54525.0681-1.02237.22701-.49983.14759-.90881.45422-.4317.29527-.67032.77232-.46588.93138-.81817 1.86277-.38638.94276-.8409 1.85142-.22726.45433-.57944.76097-.38627.31799-.61353.77232-.31816.63607-.0116 1.38583.28386.7384.87442 1.43141.55649.70436 1.22659 1.29515.64738.57943 1.04489.92027.39752.34085.64736.69302.24985.35218.70418.57944.0682.0341.18173.0909.0909.0455.10223.0227l3.72584-.0675.18173.0909q-.0114.0227-.0341.0681-.0341.0682-.0682.0795-.0454.0341-.14769.12493-.10225.0909-.17041.11356.21583.0228.53389.0114.29534-.0227.61341-.0908.30671-.0454.57935-.19301.23857-.13627.3522-.36344.14772-.29532.0228-.72699-.13625-.40895-.43156-.55667-.20445-.10227-.35211-.14773-.15903-.0227-.44301-.0228-.15902-.0228-.53388-.0114-.39757-.00007-.81786-.0115-.45437-.00008-.81786-.0115-.39758-.00007-.54525.0113l-1.86276-.93177q-.0682-.0341-.19304-.40896-.13625-.35216-.13622-.52255.0114-.0227.0682-.1363.0341-.12494.0682-.19309.0227-.0454.10225-.14766.0455-.0909.0682-.13629.26108 1.1246 1.21517 1.60185.2726.13635.34075.17044.0682.0341.11359.00002.0227-.0454.12498-.13629.0909-.0681.3976-.17032.37487-.12489.81788-.1021.43164.0455.90871.17054.45435.11367.90869.28413.44298.19318.78373.36363.11358.0568.43161.2159.30667.18179.42025.23861.20445.10227.27257.30674.034.21583.0113.43166-.0341.23853-.11367.45435-.0909.23852-.15909.37482-.22726.45433-.67033.82912-.44307.37478-.96564.62459-.55664.26117-1.11326.35195-.57934.0794-1.06776-.0229-.17038-.0568-.62472-.22729-.45435-.17046-.9314-.35229-.49978-.19319-.9314-.35229-.45434-.17047-.62472-.22729l-.15902-.0795q-.81779-.40907-1.40836-1.10208l.23856-.0795q-.26119-.44306-.57921-.65894-.3521-.20452-.80643-.43178l-.77237-.38634.29525.54529q-.0227-.0114-.0682-.0341-.0795-.0114-.10223-.0227-.4089-.20454-.74959-.71576-.34069-.51122-.55644-.93155-.4883-.89746-.5336-1.71533-.0453-.81787.18201-1.61298.22732-.79511.6591-1.60154.39771-.79508.8295-1.65831.0682-.1363.18181-.36347.11363-.22716.24998-.44296.11363-.22717.20453-.4089.0909-.18174.10227-.20445.0909-.18173.32952-.60199.23861-.42025.51131-.90865.2727-.4884.52268-.93137.23861-.42025.35223-.59062.79526-.68142 1.63585-.71536.82923-.0112 1.73789.4433.99953.49997 1.85135 1.23846.85182.73849 1.85135 1.23847.40889.20453.84053.30683.39755.11366.82918.21597.40892.0909.84056.19324.42027.12502.82916.32956.63607.31816 1.2153.8635.54515.55669.88581 1.2383.34067.68161.39734 1.41997.0567.73836-.29558 1.44258zm-12.39186-6.34051q.11358.0568.19312-.1022.0795-.15902-.034-.21583-.11358-.0568-.19312.1022-.0795.15901.034.21583zm11.94891 5.97694-.4431.54517.1363.0682zm-4.88422-1.47751q-.00001.0568-.0682.24989-.10227.20445-.12499.24988-.2159.43162-.53399.61331-.31809.18169-.69294.19299-.37486.0113-.73833-.11371-.39756-.11366-.7383-.28411-.72693-.36361-.82908-.89751-.11351-.51119.26147-1.26083.20454-.4089.62484-.51107.40895-.0794.88603-.0112.44299.0796.89733.25005.42026.18182.64743.29545-.0114.0227-.0227.10223-.0455.0909-.0341.12495.0227.0682.0454.24991-.00003.17039.0454.3635.0113.20447.034.38622.0227.18175.0227.23855zm-1.09046-.14785q.0228-.32942-.0567-.51118-.0909-.15904-.31802-.27267-.34075-.17045-.7497-.0342-.43167.12488-.7384.28386.0114.0341.0568.1704.0454.13632.11355.284.0341.15903.0908.27264.0454.13631.0454.19311l.0682.0341q.11358.0568.37485.0455.22718.00004.48845-.0681.2272-.0567.42032-.15895.19313-.10221.20451-.23851zm5.29296 2.64757q.0568.0568.1136-.0568.0454-.0909-.0341-.10224-.0795-.0114-.10224.0341-.0341.0682.0227.12495zm-13.74401-3.97801q.34085-.39751.49992-.65875.14771-.23852.35224-.64742.0227-.0454.125-.24988.0682-.19309.0909-.23853-.30674.27257-.4431.54517-.17044.28395-.34088.6247-.0341.0682-.14772.29532-.12499.24988-.13637.32939zm10.16557 5.6813q.11358.0568.19312-.1022.0795-.15901-.034-.21583-.11358-.0568-.19312.1022-.0795.15902.034.21583zm-.39758-.00006q.11359.0568.19313-.1022.0795-.15902-.034-.21583-.11359-.0568-.19313.1022-.0795.15901.034.21583zm-4.41952 4.74742q.34075.17044.82918.27276.45435.11367.80653-.19297l-.0909-.0455q-.1363-.0682-.35211-.14772-.21582-.0795-.45435-.11367-.23854-.0341-.43166.0113-.21583.034-.30673.21577z"/><path id="path4411" d="m115.22326 138.92948q-.1905-.2106-.53432-.34685-.32833-.15639-.52037-.24.25556.29268.46619.51876.19051.21061.47238.42739.10067.0774.20134.15485.096.0418.2292-.048.0604.0465.18121.13937.13629.0728.27723.18117.14093.10839.28187.21679.12081.0929.16107.12388.12081.0929.48787.40725.34693.29886.68767.6891.34074.39023.539.79906.19362.37321-.008.63496-.0465.0604-.0821.0651-.0155.0201-.10221.0496-.0914-.006-.1115-.0217-.0216.5281-.26475.88586-.22762.33763-.53732.74031-.27873.36241-.64264.62727-.38405.24936-.75261.4786-.3887.21375-.73712.45847-.36857.22923-.63181.57151-.29421.38255-.36077.84406-.0665.4615-.0572.94933.009.48783.0388.99115.0295.50331-.0619.91371-.12538.70466-.5543 1.30403-.44442.6195-.84702 1.14299-.40261.52348-.93221 1.04543-.54508.54208-1.16451.93085-.61944.38877-1.30238.56847-.71857.18436-1.47897.0481l-3.81133-.75232q-.0155.0201-.17656-.10374-.16107-.12388-.24161-.18582-.36241-.27873-.57151-.63181-.24472-.34843-.43834-.72164-.2091-.35307-.4182-.70615-.24472-.34843-.587-.61167-.30201-.23228-.63034-.38866-.36395-.15174-.707762-.28799-.36395-.15174-.712414-.32361-.36395-.15174-.66596-.38401-1.530185-1.17685-1.009994-3.01981.737088-.87506 1.271298-1.77798.518726-.88278 1.200062-1.76868.41809-.54362.93532-.88282.4816-.33456.88421-.85804.34067-.44295.70765-.96178.34686-.53432.2322-1.1352l1.11338-1.32265-.52649.68455q.82693-.74188 1.499-1.28242.67207-.54055 1.34726-.91848.69067-.39807 1.47117-.66296.79599-.28502 1.87539-.48025l-.0325-.24933q.37786-.158 1.06549.11451.6675.25702 1.37373.672.68609.39949 1.28546.82842.59472.39331.83633.57913l.0805.0619q.10532.11304.27104.27254.16572.1595.33144.319.16572.1595.39649.40107l.0124.23384zm1.15705 2.20365q-.83944-.74173-1.7145-1.47882-.8952-.75257-1.80123-1.44939-.62415-.48004-1.53944-.8315-.93543-.36696-1.90955-.47528-.97412-.10832-1.88162.15503-.91214.22774-1.4696.95256-.35615.46308-.61628.96797-.26013.50489-.61628.96797-1.1304 1.46978-2.40174 2.83117-1.30695 1.36604-2.452831 2.85596-.216789.28187-.4506.71087-.253945.41352-.356116.87968-.122305.45067-.04638.89358.05579.42743.458469.73712.261742.20131.565289.30659.28806.12542.6071.21057.30354.10528.62723.22605.28806.12541.5498.32672.48322.37163.84874.81297.35004.46147.70473.95856.33455.48161.72021.93843.35004.46147.85339.8486.84562.65036 1.76864.78347.92302.1331 1.85065-.11477.89201-.24322 1.72204-.82249.79441-.57462 1.38284-1.33972.72779-.94629.95069-2.15272.18729-1.20178-.0575-2.38339-.28041-1.17697-.93868-2.19593-.65827-1.01896-1.68818-1.55471l1.13519.2322-.0325-.24933-1.3134-1.45873q-.1905-.2106-.045-.48318.12541-.28806.3097-.40268l-.39027-.0759q.0108-.0558.048-.18739.017-.14713.0279-.20288l.0465-.0604q.34067-.44295.78823-.48326.42743-.0558.86726.12227.43519.14244.85335.432.39804.27408.67991.49087.32215.24776.56222.56057.25555.29267.49562.60548.21994.29733.46001.61014.23542.27719.55756.52495.30201.23227.78366.31431.49712.0619.77585-.30051.20131-.26174.26632-.59626.0449-.35-.0171-.68606-.0666-.37167-.19983-.69843-.13322-.32676-.32837-.57298zm1.28085 1.2094q.10067.0774.20906-.0635.1084-.14094.008-.21837-.10067-.0774-.20907.0635-.10839.14093-.008.21836zm.048.2292q.10067.0774.19358-.0434.10839-.14094.008-.21836-.10067-.0774-.20906.0635-.0929.1208.008.19823zm-4.66772-.51375q-.0248-.0511-.15489-.21525-.11462-.18428-.1394-.23539l-.0805-.0619-.0604-.0464-.39027-.0759.8255.63488zm2.42699 2.63562q-.66443-.51101-1.12443-1.12114-.44453-.63027-1.06868-1.1103l-.0604-.0465q.008.19822-.0495.31438-.0418.096-.13472.21682-.0929.12081-.19511.17037-.1177.0697-.28807-.12541-.0201-.0155-.0697-.11769-.0496-.10221-.0836-.22455-.0697-.1177-.11927-.2199-.0496-.10221-.0697-.1177-.005-.0356-.20599-.19046-.20134-.15485-.30201-.23228-.0604-.0464-.20134-.15485-.14559-.14401-.30201-.23227-.15642-.0883-.30355-.10528-.16726-.0325-.27565.10843-.12388.16107-.0759.39027.0124.23385.17348.35772l1.51005 1.16137q-.0465.0604.0171.26947.0279.21371.0914.42278.0434.19357.0821.35154.0387.15796-.0325.16725l.89531 2.00235q.48933-.55292 1.12424-.96182.63492-.4089 1.0685-.97265zm-10.83803-5.32337q.0619-.0805.2013-.26174.10375-.17656.11923-.19669l-.0325-.24933q-.31127.11308-.49709.35468-.2013.26175-.38712.50336-.20131.26174-.38713.50335-.18581.2416-.21521.57147.38405-.24937.65194-.55603.26789-.30666.54662-.66907zm4.55995 7.73674q-.0155.0201-.031.0403-.0356.005-.0511.0248-.0666-.37168-.16886-.7387-.12238-.38251-.42439-.61479l-.20134-.15484q.14405.271.1797.68294.0155.39646.0512.8084.00004.41659.0465.77278.0465.35619.21221.51569l-.58843.76509q-.34066.44295-.7309.78369-.41037.32525-.82849.45228-.41813.12703-.86416.0403-.48164-.082-.98499-.46916-.10067-.0774-.24626-.22144-.16107-.12387-.20134-.15484l-.0325-.24934q.32526.41037.8766.6101.55134.19973 1.07168.0231-.32987-.0294-.59161-.2307-.29736-.19666-.53897-.38248-.38255-.29421-.58081-.70304-.23389-.40418-.25406-.83626-.0403-.44756.10214-.88274.1223-.45068.41651-.83322.32519-.42282.77582-.7171.4305-.30977.91987-.4461.48937-.13632 1.00663-.0589.51726.0774.96021.41806.14094.10839.33144.319.15489.21525.31442.46612.12392.25552.17659.52033.0171.26947-.1223.45068zm-.14244.43518q-.10067-.0774.008-.21836.0929-.1208.19358-.0434.10067.0774.008.19823-.10839.14094-.20906.0635zm-1.85676 1.03932q.15485-.20134.30659-.56529.13625-.34382.2121-.73409.0402-.38562-.006-.74181-.0821-.35154-.32372-.53735-.20134-.15485-.41505-.12696-.2292.048-.40883.19827-.19977.13475-.35462.33609-.17498.18585-.28337.32679-.13937.18121-.26478.46927-.16104.29271-.24619.61174-.0851.31904-.0278.61947.0372.28495.29893.48626.0201.0155.0558.0108.0201.0155.0403.031.0557.0108.23384-.0124.16261-.003.37633-.031.17809-.0232.35618-.0465.1781-.0233.2292-.048.0155-.0201.11305-.10532.0619-.0805.10839-.14094zm-6.90589-4.47814q.11615.0573.21836.008.0821-.0651.17963-.15024.0619-.0805.13937-.1812.0418-.096.0573-.11616.031-.0403.15485-.20134.10374-.17656.13471-.21682-.28649.16418-.41501.28963-.14402.14559-.31435.36706l-.15485.20134zm7.1986 4.63918q.10067.0774.20907-.0635.0929-.1208-.008-.19823-.10067-.0774-.19358.0434-.1084.14094-.008.21837zm-9.287487-1.63149q.10067.0774.209065-.0635.108394-.14094.0077-.21836-.10067-.0774-.209064.0635-.108395.14094-.0077.21836zm3.741927 3.96736q.0279-.20288-.0697-.53429-.0976-.3314-.28964-.41501-.0356.005-.16879.0945-.15332.0744-.18893.079-.0712.009-.24934.0325-.17809.0232-.24933.0325l.0805.0619.0604.0465q.0604.0465.21682.13472.15643.0883.34847.17187.15642.0883.31285.17652.13628.0728.19669.11923zm.79767 1.25435q.10067.0774.20906-.0635.0929-.1208-.008-.19823-.10067-.0774-.19358.0434-.10839.14094-.008.21837zm-3.800679-2.89103q.02013.0155.07589.0263.04027.031.187392.048.13164.0372.187393.048l-.684556-.52649q.02478.0511.09448.1688.03408.12234.07435.15331.02013.0155.04027.031.0046.0356.02478.0511zm5.484209 4.41012q-.26485-.36391-.45071-.5389-.20599-.19046-.54827-.45371l-.40268-.30969q.0713.40729.22152.58692.1301.16415.41197.38094.16108.12387.35777.2431.16107.12388.4104.0913z"/><path id="path4413" d="m101.76137 138.67386q-.396.31819-.74073.49744-.38044.17535-.78881.2754-.408366.10004-.832644.18029-.459988.0763-1.030996.17675-.737537.13645-1.297221-.0329-.595395-.17326-1.215176-.62019-.135058-.087-.635691-.46672-.500632-.37975-1.084704-.82278-.584071-.44303-1.064904-.83869-.500633-.37974-.635691-.46672-.05162-.0237-.238297-.13436-.202587-.13047-.234407-.17007-.09546-.1188.06294-.24608.14249-.14708.182091-.1789.1584-.12727.611304.19307.436994.30054 1.072684.76727.635691.46672 1.485641.95679.830149.50597 1.78264.71814.952492.21217 2.019197.0393 1.030991-.17674 2.120001-1.05178.4356-.35001.53355-.91748.0623-.57135-.07-1.18196-.15201-.5947-.43485-1.14945-.28283-.55475-.53738-.87155-.4932-.6138-1.093185-1.07663-.619782-.44693-1.112982-1.06073-.350013-.4356-.604916-.91504-.270813-.49924-.486116-1.0105-.251012-.51515-.505916-.99459-.254903-.47944-.604916-.91504-.238645-.297-.6318-.50243-.393156-.20543-.801872-.26803-.444427-.0665-.848905-.002-.440188.0605-.756989.315l-.2574.20683q.424278-.0803.959924-.0219.499936.0545.872943.11317.05975.11491.210716.22169.135059.087.321736.19765.170768.0909.357446.20154.186677.11067.282136.22947.03182.0396.159096.19801.107478.17431.139297.21391-.424975-.24504-.929149-.42643-.523975-.16549-1.023912-.21995-.515845-.0743-1.015433.0339-.515498.0884-.931299.42247-.811802.6523-1.520366 1.35198-.744273.69579-1.536275 1.33217-.396001.3182-.843969.45006-.483678.12797-.879679.44617-.554402.44547-.588371 1.25477-.04988.78951.197941 1.66565.212109.87224.574838 1.68863.346819.79659.566012 1.27214.219194.47555.299438.89983.08025.42428.398439.82028.04773.0594.127277.1584.06364.0792.08344.0633l3.414662 1.49215.127278.1584q-.0198.0159-.0594.0477-.0594.0477-.09511.0438-.05551.012-.18633.052-.130819.04-.202239.0322.186678.11067.480485.23301.277897.10255.595394.17327.297697.0866.607065.0661.273659-.0244.47166-.18348.2574-.20683.323885-.65125.04668-.42852-.160142-.68592-.143187-.1782-.258445-.28109-.135058-.087-.393155-.20543-.135059-.087-.480485-.23302-.361336-.16583-.738581-.35146-.412956-.18953-.738582-.35147-.361336-.16583-.500284-.2171l-1.304552-1.62374q-.04773-.0594-.0049-.4522.02299-.3769.09407-.53176.0198-.0159.1188-.0955.08309-.0993.142491-.14708.0396-.0318.15451-.0916.0792-.0636.1188-.0955-.231621 1.13104.436586 1.96264.190916.2376.238645.297.04773.0594.103239.0474.0396-.0318.17042-.0718.111019-.024.432407.011.392807.0428.785962.24823.373356.22134.75484.5339.365574.29276.707458.63715.322084.36029.56073.65729.07955.099.302284.3762.202935.29311.282483.39211.143188.1782.119845.39246-.05905.21037-.169723.39704-.130471.20259-.292762.36558-.182091.1789-.300891.27435-.396001.3182-.954989.4741-.558989.1559-1.138125.16508-.614846.005-1.158621-.1443-.559685-.16937-.960969-.46602-.131168-.12269-.473052-.46708-.341884-.34438-.699678-.70856-.373703-.38398-.699678-.70856-.341884-.34438-.473051-.46707l-.111368-.1386q-.572749-.71281-.820568-1.58894l.249969.0272q-.05266-.51161-.25171-.84043-.234755-.33271-.552948-.72871l-.540929-.6732.04099.61873q-.01591-.0198-.04773-.0594-.06753-.0435-.08344-.0633-.286375-.3564-.382877-.96311-.0965-.60672-.117348-1.07873-.06962-1.01932.230228-1.78159.299847-.76228.83799-1.39019.538144-.62791 1.266855-1.18086.693002-.55683 1.445404-1.1614.1188-.0955.316801-.25456.198-.15909.411911-.29839.198-.1591.3564-.28637.158401-.12728.178201-.14319.1584-.12728.550511-.40976.392111-.28249.843621-.6127.451511-.33021.863422-.62861.39211-.28248.566421-.38996 1.006956-.28777 1.785138.0319.758381.33556 1.394769 1.12756.700026.8712 1.166342 1.89761.466315 1.02641 1.166341 1.89761.286375.3564.63604.62936.313958.26908.663618.54204.33376.25316.68342.52612.32987.28887.61624.64527.44547.55441.74456 1.29159.26338.7333.28881 1.49488.0254.76157-.23092 1.45632-.25636.69474-.87016 1.18794zm-8.619505-10.92998q.07955.099.218149-.0124.1386-.11137.05905-.21037-.07955-.099-.218149.0124-.1386.11136-.05905.21036zm8.368495 10.41483-.63006.31076.0955.1188zm-3.82332-3.37948q-.02369.0516-.166182.1987-.1782.14318-.2178.175-.376201.30229-.741079.3348-.364878.0325-.710304-.11351-.345427-.14604-.623672-.41122-.313955-.26907-.5526-.56607-.50911-.6336-.379335-1.16147.109975-.51195.763376-1.03697.356401-.28638.781028-.20398.404826.0983.810001.35924.369465.25706.711349.60144.306174.34049.465271.53849-.0198.0159-.06329.0834-.0792.0636-.08309.0993-.0078.0714-.06294.24607-.07107.15486-.110323.34932-.07496.19057-.130123.36523-.05516.17466-.07885.22627zm-.929498-.58907q.158052-.28991.161594-.48826-.01626-.18244-.175355-.38044-.238645-.297-.667162-.34369-.444426-.0665-.789504-.0499-.0039.0357-.01945.17854-.01556.14284-.01521.30548-.03536.15875-.03112.28568-.01556.14284-.03925.19446l.04773.0594q.07955.099.321736.19765.206478.0948.472355.14179.230168.0431.448317.0308.218149-.0124.28533-.13152zm3.706958 4.61341q.0279.0753.12693-.004.0792-.0636.0117-.10713-.0675-.0435-.10713-.0117-.0594.0477-.0315.12303zm-10.833571-9.34644q.475549-.21919.729059-.3903.233711-.15521.590111-.44159.0396-.0318.217801-.175.142491-.14708.182091-.1789-.392459.11985-.63006.31076-.27331.18703-.570311.42567-.0594.0477-.2574.20683-.217801.17501-.261291.24253zm6.870833 9.40253q.07955.099.218149-.0124.1386-.11136.05905-.21036-.07955-.099-.218149.0124-.1386.11137-.05905.21037zm-.361336-.16583q.07955.099.218149-.0124.1386-.11137.05905-.21037-.07955-.099-.218149.0124-.1386.11137-.05905.21037zm-5.996509 2.47227q.238645.297.639929.59365.365575.29276.813543.1609l-.06364-.0792q-.09546-.1188-.258446-.28109-.162987-.16229-.365574-.29277-.202587-.13047-.397046-.16972-.210368-.0591-.368768.0682z"/><path id="path4415" d="m88.302831 127.33549q-.930985.46667-1.646455.62642-.74956.14843-1.726533.0699l.05657-.22725q-.363541-.0451-.681554.00069-.352101.0344-.69282.0916-.340719.0571-.681438.11428-.34072.0571-.726967.0234l-.07968-.15895q-.03409-.0113-.159121-.0907-.136414-.1021-.147796-.1248-.03415-.0681-.113822-.22707-.102382-.14757-.182057-.30652-.09106-.18165-.136644-.32928-.07967-.15895-.113822-.22707-.0568.00006-.193095.0116-.136299.0115-.204477-.0112-.03409-.0113-.01144-.0795.01127-.0909-.000115-.11359l-.976399.48943q.148026.35199.114052.45426-.03397.10226-.102096.13641-.0795.0114-.136241.0683-.05674.0569.03443.35211-.318414-.35182-.875165-.49893-.556751-.1471-1.01089.0805-.204363.10244-.374464.38659-.20419.27283-.32882.59102-.147337.32956-.203789.6704-.05645.34083.000575.56796.02282.10221.181942.19292.159121.0907.352274.13595.170445.0566.352216.0792.18177.0225.272598-.023.408725-.20488.646948-.52318.215515-.30692.408266-.65925.170043-.34095.385559-.64786.192808-.29554.556119-.47765.10244.20436.17079.3974.06835.19304.01178.42028.692878-.0348 1.101718-.12607.386133-.0799.749617-.0916.340776-.00034.738464.11285.397687.11319 1.068203.43057l-.158949.0797-2.32864.002q-.01138-.0227-.03409-.0113l-.04541.0228q-.09083.0455-.07945.0682-.03403.0455-.170158.22736-.136127.18188-.283579.39786-.158834.19327-.294961.37515-.136126.18189-.170158.22736-.02271.0114-.05674.0568-.06812.0341-.09083.0455l-.06829-.13624q-.408725.20488-.703743.52323-.317725.32974-.726451.53462-.431432.21626-.897183.19402-.49984-.0336-.931674-.21489-.443216-.20402-.784337-.54445-.363828-.32905-.557325-.71507-.46667-.93098-.228964-1.76045.214998-.81808 1.16869-1.29613.408725-.20488.851655-.28484.431547-.10267.885858-.15993.420222-.0686.863151-.14854.40884-.0913.817566-.29616.29519-.14797.499495-.30721.204305-.15923.385846-.36388.147452-.21598.306228-.46604.147395-.27277.340146-.6251l-.397573.0004q.147452-.21598.544737-.50036.397286-.28438.885457-.5575.454081-.28444.930927-.52346.476847-.23903.74933-.37561l.454139-.22765-.612686.70489 2.179868-1.09269-.397573.00041.657813-1.01164-.476846.23903.04513-.30675q.02271-.0114.136242-.0683.102152-.0796.238394-.14791.12486-.091.283808-.17068.12486-.091.192981-.12514.703915-.35285 1.635073-.64913.90845-.2849 1.828513-.31991.885973-.0463 1.67008.27093.784108.31727 1.205249 1.15743.637402 1.27159.274952 2.30564-.36245 1.03406-1.224913 1.86415-.885169.84148-1.98637 1.47871-1.135291.62591-2.020862 1.06981zm4.605953-5.83194q.04524-.19315.01104-.31807-.0342-.12492-.125261-.30657-.10244-.20436-.261618-.35187-.170561-.17022-.409127-.1927l.784969 1.16921zm-1.250835-1.30505q.05691.11354.21586.0339.158948-.0797.102038-.19321-.05691-.11353-.21586-.0339-.158949.0797-.102038.19321zm-.642928 4.49891q.329164-.25024.624125-.62539.283579-.39786.46489-.82969.169929-.45454.203559-.89759.02225-.46575-.17125-.85177-.204879-.40872-.659477-.63545-.465981-.24943-.988585-.32842-.545312-.0676-1.079126.001-.533815.0687-.897126.25081-.454139.22765-.703858.40965-.249719.182-.521801.71616l-4.654926 2.33335q-.204363.10243-.419878.40935-.215515.30692-.362795.69328-.158661.36366-.203731.7272-.05645.34083.05737.5679.170732.34061.818311.44218.61349.0903 1.374546.0781.726967-.0234 1.43117-.0923.704203-.0689 1.033654-.0351l3.723941-1.86668q-.3064.29565-.158432.59084.181656-.0911.465522-.20494.272483-.13658.533584-.29588.249719-.182.453967-.39803.204248-.21603.249432-.46598l-.613087.30732zm-4.240445-3.41484q.05674-.0569.204305-.15924.113477-.11371.272368-.25018.14751-.15918.283694-.28426.113477-.11371.170216-.17056l-.317897.15935q-.567674.28455-.930584.86424l.158949-.0797zm2.015852 5.21185q.05691.11353.215859.0339.158949-.0797.102038-.19321-.05691-.11354-.21586-.0339-.158948.0797-.102037.19321zm-.703744.52323q.000058.0568.07956.0454.04541-.0228.113535-.0569.06812-.0341.136241-.0683.03403-.0455-.01144-.0795-.07956-.0453-.193096.0116-.113534.0569-.124802.14779zm-7.755602 2.7227q.05691.11353.215859.0339.158949-.0797.102038-.19321-.05691-.11354-.21586-.0339-.158948.0797-.102037.19321zm-.28421-.2269q.01144.0795.102267.034.09083-.0455.03397-.10227-.05685-.0567-.102267-.034-.04541.0228-.03397.10227zm.0687.53382q.05691.11353.215859.0339.136242-.0683.07933-.18182-.05691-.11354-.193153-.0452-.158948.0797-.102037.19321zm-.987724.52352q.317897-.15935.510877-.2845.158892-.13647.328878-.53422-.0568.00006-.238452.0911-.204362.10244-.249776.1252-.363311.18212-.578999.31865-.238394.14791-.567502.45494.215918.0907.431662.0109.181656-.0911.363312-.18211zm-2.422626-3.0759q.05691.11353.21586.0339.136242-.0683.07933-.18183-.05691-.11354-.193153-.0452-.158949.0797-.102038.19321zm.000402.39757-.07967-.15895-.07927.23862zm-.408553.37527q.05691.11353.21586.0339.158948-.0797.102038-.19321-.05691-.11354-.21586-.0339-.158949.0797-.102038.19321zm-.07927.23862q.05691.11353.215859.0339.158949-.0797.102038-.19321-.05691-.11354-.21586-.0339-.158948.0797-.102037.19321zm-.05657.22724q.05691.11354.21586.0339.136242-.0683.07933-.18183-.05691-.11353-.193153-.0452-.158949.0797-.102038.19321zm-.2488 1.09074q.05691.11353.125146.19298.05685.0567.193153.0452l-.307319-.61309q-.09077.10233-.07933.18183.01144.0795.06835.19304z"/><path id="path4417" d="m80.645478 112.11503q.06387.29804.459474.44705.370771.15434.596071.23594l1.887545-.4045q.918937-.19692 1.766912-.48255.823139-.2803 1.717239-.47191.620903-.13305 1.146013.0142.500273.15256.888786.51091.38319.33351.643976.82313.260785.48963.377876 1.03602.149025.69541-.01063 1.40502-.184489.71493-.574765 1.3181-.415112.60849-.996984 1.0449-.606707.44174-1.326955.59609-.645739.13838-1.268418.14193-.622678.004-1.26487.0373-1.458238.10468-2.875672.27855-1.417435.17387-2.880994.25372l-.211109-.1366q-.03016-.0195-.164984-.0426-.164984-.0426-.219978-.0568-.055-.0142-.225301-.0816-.170306-.0674-.340612-.13482-.200464-.0869-.365448-.1295-.170306-.0674-.230623-.10644.131279.12773.353032.314.196918.19159.443508.37253.216431.16144.452376.29271.230623.10644.409798.094-.03903.0603-.221749.1774-.188045.0922-.243039.0781-.741537.055-1.192142-.47187-.480764-.54639-.613822-1.16729-.164991-.76992-.04614-1.54872.11885-.77879-.04614-1.54871-.106446-.49672-.312237-.97216-.205791-.47543-.317559-.99699-.282083-1.31631-.418696-2.55989-.166771-1.2631-.503848-2.5936.06208-.92249.675881-1.57356.608479-.67591 1.444034-1.14071.835555-.4648 1.763361-.74156.902969-.27143 1.573545-.41513.596067-.12774 1.122947-.21467.521559-.11177 1.023604-.19338.496722-.10644 1.053761-.17386.551717-.0923 1.213424-.15613.704284.13482 1.35535.38495.626229.25545 1.149567.63685.498502.38673.874599.92958.370774.518.530444 1.26309.250149 1.1673-.273177 1.87691-.553485.69009-1.493706 1.15135-.945545.43642-2.082684.70608-1.142461.24482-2.125262.50739-.9828.26256-1.580638.62447-.627997.34239-.494939.96329zm6.187717-3.61196q.298033-.0639.583647-.30691.260777-.23772.455915-.5393.189816-.32642.274965-.65639.07983-.3548.01596-.65284-.01064-.0497-.02661-.12418-.02129-.0993-.05677-.14369-.01951.0302-.05322.11531-.06386.0656-.05854.0905-.258997.73089-.581863 1.16376-.353024.41334-.727333 1.09102l.173853-.0373zm.943865 8.16223q.32287-.0692.594292-.25724.271422-.18805.447046-.45947.175624-.27143.260773-.6014.06031-.32464-.0089-.64751-.06919-.32287-.306911-.58365-.243043-.28561-.525113-.51091-.306907-.21997-.603169-.39028-.326421-.18981-.562366-.32109l.06919-.0408q.223525-.0479.523334.0177.269651.0461.494951.12772-.108217-.26255-.514468-.46124-.406252-.19868-.684771-.16497-.07451.016-.193367.0674-.149017.0319-.292711.0887-.173853.0373-.317547.094-.149017.0319-.193367.0674l.496722-.10644-.406243.52866q-.04967.0106-.392055.10999-.372542.0798-.571231.12242-.546395.11709-1.018281.21821-.477209.0763-.95974.12774-.482531.0515-.965062.1029-.512689.0319-1.110531.0302-1.330514-.39026-1.607275-1.68174-.0958-.44705-.08694-.89056-.01597-.43818.138364-.80895.129499-.36545.434626-.63865.280291-.26788.801849-.37964.04967-.0106.228848-.0231.149017-.0319.198689-.0426-.157886.11177-.399149.31933-.241264.20756-.447047.45947-.211105.22708-.337057.48786-.125952.26078-.07273.50914.01064.0497.05677.1437.01597.0745.04613.094.150788-.2661.688309-.66704.512686-.39561 1.154874-.79299.636866-.42223 1.270185-.73978.603161-.33707.945544-.43642.541072-.14193 1.151331-.32466.610258-.18273 1.114074-.49851.473658-.33529.755721-.83734.251904-.52156.07627-1.34115-.101124-.47189-.438189-.71138-.361901-.23416-.791213-.29802-.434634-.0887-.867493-.0479-.463017.0213-.785886.0905l-4.42083.94737q.07451-.016.243039-.0781.143694-.0568.337061-.12418.163208-.0869.331739-.14902.16853-.0621.243039-.0781.218202-.0727.759275-.21466.53575-.16677 1.146008-.3495.604936-.20756 1.170845-.35481.53575-.16677.753953-.2395l.136596-.21111q-.305131-.0905-.599618-.13127-.294486-.0408-.59252.0231l-.248361.0532 1.092794.12949q-.09934.0213-.36722.10467-.298033.0639-.397378.0852-.422214.0905-.835559.10113-.418667-.0142-.837334-.0284-.42399-.039-.837335-.0284-.418667-.0142-.840881.0763-.04967.0106-.267875.0834-.248361.0532-.32287.0692-.0071.20933-.225296.28207-.248361.0532-.372542.0798.05322.24836.328196.31931.250137.0763.418667.0142-.186269.22176-.344155.33352-.182722.11709-.34593.20402-.193366.0674-.386733.13482-.223525.0479-.505592.18628-.851522.39029-1.300339 1.08394-.478976.67413-.667012 1.49372-.188037.8196-.180931 1.70128.0071.88169.04792 1.67822-.04435.0355-.07805.12063-.03903.0603-.05854.0905l.01597.0745q.138381.64574.370783 1.24535.202244.5801.340624 1.22584.117091.54639.154351 1.08392.0071.51801.124193 1.06441.05322.24836.31578.50381.257234.23062.583655.42044.321098.16498.70606.26432.354803.0798.603164.0266l6.134523-1.31461q.707831.0301 1.17617.0337.438182-.016 1.009412-.13838zm-.675889.84621q.273197-.0585.525105-.21644.251908-.15789.468336-.36013-.631548.0834-1.083921.15436-.457694.0461-.855072.13128-.427537.0657-.824915.1508-.4027.0603-.924258.17209l-.918937.19693.360126.10466q.02484-.005.383186-.0302.333514-.0195.816045-.071.457695-.0461.970385-.0781.482531-.0514.810722-.0958l.273198-.0585zm-2.478387-8.17108q.347706-.0745.640417-.16321.267875-.0834.583647-.30691l-.670576.1437q-.322869.0692-.620903.13306-.298033.0639-.533974.29626.04967-.0106.303356-.039.223525-.0479.298033-.0639zm-.219934 3.94364q.298034-.0639.571231-.12242.248361-.0532.484302-.28562-.18095-.11708-.329967-.0851-.154339.007-.353028.0497-.471886.10112-.833784.23063-.367219.10467-.867488.31578.379639.0745.682995.0355.273197-.0585.645739-.13838zm-7.823475-7.05162q.182722-.11708.528652-.3211.315772-.22353.532199-.42577-.02484.005-.09934.0213-.104667-.004-.154339.007-.09934.0213-.243039.0781-.149017.0319-.287389.11354-.138372.0816-.22175.1774-.108213.10112-.08692.20047l.03193.14901zm-.787638 2.14302q.07805-.48431.280283-.99523.177396-.50559.370758-.93668l-.09934.0213-.07451.016q-.102891.12595-.239488.33706-.166755.1916-.273193.42222-.131274.23595-.182718.48076-.07628.25014-.0337.44883l.0408.0692q.03016.0195.0958.0834.06032.039.115311.0532zm1.775869 7.43841q.07983.009.0958.0834.01064.0497-.05854.0905-.09402.0461-.115312-.0532-.02661-.12418.07805-.12064zm-.09934.38497q.07983.009.09047.0585.01064.0497-.05854.0905-.06919.0408-.09048-.0585-.02129-.0993.05854-.0905zm-1.986979-7.57502q-.03016-.0195-.03903.0603-.0089.0798.01774.20401.02129.0994.06741.19337.0408.0692.06032.039.06386-.0656.02129-.26433-.04258-.19869-.127732-.2324z"/></g><ellipse id="path4321" cx="172.87363" cy="100.54156" fill="none" rx="84.288689" ry="60.098213"/></svg>