<?xml version="1.0" encoding="UTF-8" standalone="no"?><!DOCTYPE svg PUBLIC "-//W3C//DTD SVG 1.1//EN" "http://www.w3.org/Graphics/SVG/1.1/DTD/svg11.dtd"><svg width="100%" height="100%" viewBox="0 0 305 406" version="1.1" xmlns="http://www.w3.org/2000/svg" xmlns:xlink="http://www.w3.org/1999/xlink" xml:space="preserve" style="fill-rule:evenodd;clip-rule:evenodd;stroke-linejoin:round;stroke-miterlimit:1.41421;"><g id="tylem"><path id="rightArm" d="M128.177,191.271l-10.275,7.672l-20.464,13.846c0,0 -12.686,9.098 -17.557,12.53c-3.865,2.723 -7.414,6.003 -11.67,8.063c-5.586,2.703 -21.849,8.157 -21.849,8.157c-3.546,12.574 3.247,19.033 16.254,16.27c0,0 7.158,-14.403 11.143,-19.045c3.367,-3.922 12.767,-8.805 12.767,-8.805l12.628,-5.71l14.347,-5.118l16.907,-6.604l-2.231,-21.256Z" style="fill:url(#_Linear1);"/><path id="leftArm" d="M229.562,231.195c3.197,0.86 6.359,1.868 9.513,2.874c1.177,0.375 6.902,2.203 8.989,3.67c1.177,0.827 1.17,1.418 1.346,2.79c0.386,3.013 0.315,6.128 -1.556,8.718c-1.989,2.752 -5.567,4.465 -8.711,5.443c-1.627,0.506 -2.055,0.624 -3.396,-0.402c-2.125,-1.624 -5.65,-6.247 -6.57,-7.463c-1.991,-2.63 -3.866,-5.346 -5.739,-8.061l-32.577,-20.047l-10.126,-4.826l-9.245,-3.356l-8.509,-2.034l2.797,-17.207l4.923,3.324l5.272,3.017l10.246,6.552l14.036,9.435l28.311,17.093" style="fill:url(#_Linear2);"/><path id="leftLeg" d="M151.213,335.566c1.759,-0.908 6.714,-1.85 8.998,0.595c2.723,2.915 6.685,16.081 6.685,16.081l5.009,16.138c0,0 2.532,7.858 3.764,11.419c1.154,3.335 3.627,9.945 3.627,9.945c0,0 2.804,5.945 2.608,8.118c-0.185,2.06 -1.176,4.593 -3.783,4.917c-10.97,1.365 -26.906,2.507 -36.775,2.65c-4.618,0.067 -4.059,-9.464 -1.606,-9.772c6.269,-0.787 20.438,-1.009 24.013,-4.57c3.518,-3.504 -2.374,-16.379 -2.561,-16.785c-0.003,-0.006 -0.005,-0.013 -0.007,-0.02c-0.142,-0.417 -4.899,-14.412 -4.899,-14.412l-6.682,-18.545c0,0 -0.151,-4.85 1.609,-5.759Z" style="fill:url(#_Linear3);"/><path id="rightLeg" d="M104.621,325.026c2.052,0.682 5.039,4.63 5.039,4.63l0.357,16.846l-2.593,47.045c0,0 0.096,8.41 -1.896,9.785c-3.601,2.489 -23.986,2.334 -23.986,2.334c0,0 -7.456,0.353 -14.926,0.326c-4.481,-0.016 -6.03,-8.343 -1.977,-10.146c13.793,-0.742 19.501,-0.932 19.501,-0.932c0,0 7.977,0.12 10.016,-2.836c2.039,-2.955 2.12,-29.963 2.12,-29.963l1.07,-36.554c0,0 5.222,-1.218 7.275,-0.535Z" style="fill:url(#_Linear4);"/><path id="leftThigh" d="M158.55,343.989c3.239,-8.338 13.781,-42.128 11.431,-50.028c-2.35,-7.899 -22.291,-5.704 -25.53,2.634c-3.239,8.337 3.747,39.495 6.096,47.394c1.015,3.409 6.741,3.248 8.003,0Z" style="fill:url(#_Linear5);"/><path id="rightThigh" d="M103.739,336.951c5.091,-5.663 23.758,-32.373 24.001,-41.339c0.242,-8.966 -17.456,-18.121 -22.547,-12.459c-5.091,5.663 -7.758,37.47 -8,46.436c-0.113,4.188 4.356,9.798 6.546,7.362Z" style="fill:url(#_Linear6);"/><path id="body" d="M181.064,290.166c0,0 1.502,28.667 -0.827,30.243c-2.529,1.712 -17.545,-3.098 -18.099,-4.27c-1.18,-2.497 -23.69,1.515 -27.123,1.407c-4.019,-0.125 -19.802,1.396 -23.571,-1.313c-4.243,-3.051 -16.506,0.149 -16.506,0.149c0,0 4.481,-24.368 8.432,-32.277c2.348,-4.7 6.934,-15.342 8.815,-20.248c2.144,-5.593 10.173,-22.83 10.88,-25.093c0.734,-2.348 3.155,-24.58 3.082,-30.816c-0.056,-4.732 -1.761,-14.088 -1.761,-14.088l0,-5.282c14.894,-10.34 29.574,-11.32 44.023,-2.201c0,0 -0.509,20.131 -0.07,26.811c0.295,4.504 3.859,19.13 4.472,22.054c1.533,7.311 7.122,25.448 7.428,35.077c0.248,7.788 0.825,19.847 0.825,19.847Z" style="fill:url(#_Linear7);"/><clipPath id="_clip8"><path d="M181.064,290.166c0,0 1.502,28.667 -0.827,30.243c-2.529,1.712 -17.545,-3.098 -18.099,-4.27c-1.18,-2.497 -23.69,1.515 -27.123,1.407c-4.019,-0.125 -19.802,1.396 -23.571,-1.313c-4.243,-3.051 -16.506,0.149 -16.506,0.149c0,0 4.481,-24.368 8.432,-32.277c2.348,-4.7 6.934,-15.342 8.815,-20.248c2.144,-5.593 10.173,-22.83 10.88,-25.093c0.734,-2.348 3.155,-24.58 3.082,-30.816c-0.056,-4.732 -1.761,-14.088 -1.761,-14.088l0,-5.282c14.894,-10.34 29.574,-11.32 44.023,-2.201c0,0 -0.509,20.131 -0.07,26.811c0.295,4.504 3.859,19.13 4.472,22.054c1.533,7.311 7.122,25.448 7.428,35.077c0.248,7.788 0.825,19.847 0.825,19.847Z"/></clipPath><g clip-path="url(#_clip8)"><g><g><ellipse cx="176.611" cy="211.545" rx="6.181" ry="6.242" style="fill:url(#_Linear9);"/><ellipse cx="160.348" cy="211.545" rx="6.181" ry="6.242" style="fill:url(#_Linear10);"/><ellipse cx="144.085" cy="211.545" rx="6.181" ry="6.242" style="fill:url(#_Linear11);"/><ellipse cx="127.823" cy="211.545" rx="6.181" ry="6.242" style="fill:url(#_Linear12);"/><ellipse cx="111.56" cy="211.545" rx="6.181" ry="6.242" style="fill:url(#_Linear13);"/><ellipse cx="95.297" cy="211.545" rx="6.181" ry="6.242" style="fill:url(#_Linear14);"/></g><g><ellipse cx="176.611" cy="240.693" rx="6.181" ry="6.242" style="fill:url(#_Linear15);"/><ellipse cx="160.348" cy="240.693" rx="6.181" ry="6.242" style="fill:url(#_Linear16);"/><ellipse cx="144.085" cy="240.693" rx="6.181" ry="6.242" style="fill:url(#_Linear17);"/><ellipse cx="127.823" cy="240.693" rx="6.181" ry="6.242" style="fill:url(#_Linear18);"/><ellipse cx="111.56" cy="240.693" rx="6.181" ry="6.242" style="fill:url(#_Linear19);"/><ellipse cx="95.297" cy="240.693" rx="6.181" ry="6.242" style="fill:url(#_Linear20);"/></g><g><ellipse cx="176.611" cy="255.267" rx="6.181" ry="6.242" style="fill:url(#_Linear21);"/><ellipse cx="160.348" cy="255.267" rx="6.181" ry="6.242" style="fill:url(#_Linear22);"/><ellipse cx="144.085" cy="255.267" rx="6.181" ry="6.242" style="fill:url(#_Linear23);"/><ellipse cx="127.823" cy="255.267" rx="6.181" ry="6.242" style="fill:url(#_Linear24);"/><ellipse cx="111.56" cy="255.267" rx="6.181" ry="6.242" style="fill:url(#_Linear25);"/><ellipse cx="95.297" cy="255.267" rx="6.181" ry="6.242" style="fill:url(#_Linear26);"/></g><g><ellipse cx="176.611" cy="269.841" rx="6.181" ry="6.242" style="fill:url(#_Linear27);"/><ellipse cx="160.348" cy="269.841" rx="6.181" ry="6.242" style="fill:url(#_Linear28);"/><ellipse cx="144.085" cy="269.841" rx="6.181" ry="6.242" style="fill:url(#_Linear29);"/><ellipse cx="127.823" cy="269.841" rx="6.181" ry="6.242" style="fill:url(#_Linear30);"/><ellipse cx="111.56" cy="269.841" rx="6.181" ry="6.242" style="fill:url(#_Linear31);"/><ellipse cx="95.297" cy="269.841" rx="6.181" ry="6.242" style="fill:url(#_Linear32);"/></g><g><ellipse cx="176.611" cy="284.415" rx="6.181" ry="6.242" style="fill:url(#_Linear33);"/><ellipse cx="160.348" cy="284.415" rx="6.181" ry="6.242" style="fill:url(#_Linear34);"/><ellipse cx="144.085" cy="284.415" rx="6.181" ry="6.242" style="fill:url(#_Linear35);"/><ellipse cx="127.823" cy="284.415" rx="6.181" ry="6.242" style="fill:url(#_Linear36);"/><ellipse cx="111.56" cy="284.415" rx="6.181" ry="6.242" style="fill:url(#_Linear37);"/><ellipse cx="95.297" cy="284.415" rx="6.181" ry="6.242" style="fill:url(#_Linear38);"/></g><g><ellipse cx="176.611" cy="298.99" rx="6.181" ry="6.242" style="fill:url(#_Linear39);"/><ellipse cx="160.348" cy="298.99" rx="6.181" ry="6.242" style="fill:url(#_Linear40);"/><ellipse cx="144.085" cy="298.99" rx="6.181" ry="6.242" style="fill:url(#_Linear41);"/><ellipse cx="127.823" cy="298.99" rx="6.181" ry="6.242" style="fill:url(#_Linear42);"/><ellipse cx="111.56" cy="298.99" rx="6.181" ry="6.242" style="fill:url(#_Linear43);"/><ellipse cx="95.297" cy="298.99" rx="6.181" ry="6.242" style="fill:url(#_Linear44);"/></g><g><ellipse cx="176.611" cy="196.971" rx="6.181" ry="6.242" style="fill:url(#_Linear45);"/><ellipse cx="160.348" cy="196.971" rx="6.181" ry="6.242" style="fill:url(#_Linear46);"/><ellipse cx="144.085" cy="196.971" rx="6.181" ry="6.242" style="fill:url(#_Linear47);"/><ellipse cx="127.823" cy="196.971" rx="6.181" ry="6.242" style="fill:url(#_Linear48);"/><ellipse cx="111.56" cy="196.971" rx="6.181" ry="6.242" style="fill:url(#_Linear49);"/><ellipse cx="95.297" cy="196.971" rx="6.181" ry="6.242" style="fill:url(#_Linear50);"/></g><g><ellipse cx="176.308" cy="313.564" rx="6.181" ry="6.242" style="fill:url(#_Linear51);"/><ellipse cx="160.045" cy="313.564" rx="6.181" ry="6.242" style="fill:url(#_Linear52);"/><ellipse cx="143.782" cy="313.564" rx="6.181" ry="6.242" style="fill:url(#_Linear53);"/><ellipse cx="127.519" cy="313.564" rx="6.181" ry="6.242" style="fill:url(#_Linear54);"/><ellipse cx="111.256" cy="313.564" rx="6.181" ry="6.242" style="fill:url(#_Linear55);"/><ellipse cx="94.993" cy="313.564" rx="6.181" ry="6.242" style="fill:url(#_Linear56);"/></g><g><ellipse cx="176.611" cy="226.119" rx="6.181" ry="6.242" style="fill:url(#_Linear57);"/><ellipse cx="160.348" cy="226.119" rx="6.181" ry="6.242" style="fill:url(#_Linear58);"/><ellipse cx="144.085" cy="226.119" rx="6.181" ry="6.242" style="fill:url(#_Linear59);"/><ellipse cx="127.823" cy="226.119" rx="6.181" ry="6.242" style="fill:url(#_Linear60);"/><ellipse cx="111.56" cy="226.119" rx="6.181" ry="6.242" style="fill:url(#_Linear61);"/><ellipse cx="95.297" cy="226.119" rx="6.181" ry="6.242" style="fill:url(#_Linear62);"/></g></g></g><path id="head" d="M232.236,71.274l2.194,33.797c-3.349,36.663 -45.884,77.798 -71.543,86.027c-14.35,4.602 -45.208,0.439 -45.208,0.439c-29.184,-10.345 -48.259,-37.984 -58.375,-57.059c-9.723,-18.333 0.941,-59.472 1.316,-59.253c14.142,-36.155 37.975,-59.011 76.371,-61.887c48.316,3.382 78.433,24.262 95.245,57.936Z" style="fill:url(#_Linear63);stroke:#000;stroke-width:0.24px;"/><path id="hair" d="M177.106,201.167c0.891,0.396 6.921,5.993 6.671,7.95c-0.604,4.735 5.429,-3.971 3.768,-0.229c-0.659,1.485 9.491,0.744 7.855,1.049c-3.692,0.69 -8.144,-3.654 0,0c1.532,0.688 -0.683,-9.363 -1.721,-7.024c-1.139,2.566 12.139,-0.458 13.61,1.326c0.849,1.03 1.391,8.347 2.787,10.041c0.932,1.13 4.997,-1.549 7.021,-1.355c3.165,0.305 7.425,-1.797 10.115,-0.603c0.115,0.05 -3.067,3.85 -3.401,4.602c-1.437,3.24 -5.53,13.844 -4.341,14.372c1.484,0.659 2.133,-8.778 4.25,-7.282c1.382,0.977 2.972,3.467 2.679,0.85c-0.072,-0.653 0.826,-0.808 1.229,-0.473c4.381,3.631 5.466,6.398 8.698,1.823c0.259,-0.365 4.549,-1.388 4.506,-1.735c-0.204,-1.656 -2.058,-5.309 -1.296,-7.027c0.913,-2.057 4.38,3.487 4.603,3.401c0.793,-0.305 -0.038,-4.619 0.722,-5.452c0.687,-0.753 3.293,-0.534 3.686,-1.42c0.469,-1.056 -0.183,-3.101 2.646,-2.9c0.845,0.06 3.697,2.443 3.719,2.33c0.884,-4.436 0.18,-5.243 4.408,-6.872c0.469,-0.181 -3.51,-5.268 -0.484,-8.585c0.782,-0.858 1.994,1.106 2.939,1.525c1.412,0.627 0.728,-1.162 2.3,-1.356c1.336,-0.165 2.462,2.051 3.655,0.943c3.547,-3.292 -0.497,-23.796 3.832,-25.463c0,0 0.395,1.024 0.474,1.228c1.843,4.786 2.842,13.486 2.842,13.486c-0.088,0.198 2.511,6.585 1.769,8.255c-0.294,0.662 -2.006,0.695 -2.3,1.357c-0.756,1.705 3.539,4.215 3.344,6.237c-0.16,1.663 -3.686,8.063 -1.918,9.675c1.498,1.366 3.732,1.544 5.422,3.086c0.85,0.775 2.945,2.225 4.028,1.808c0.73,-0.281 0.197,-1.003 0.289,-1.59c0.132,-0.836 0.385,-6.22 0.407,-6.271c0.359,-0.81 2.052,-1.539 2.645,-2.9c1.458,-3.345 1.634,-7.506 3.241,-11.126c2.297,-5.175 1.697,-5.363 -0.352,-10.682c-0.053,-0.137 -0.217,-0.276 -0.158,-0.41c1.074,-2.419 2.276,-5.014 3.116,-7.785c0.335,-1.108 -0.256,-3.248 0.218,-4.317c1.856,-4.181 5.451,-7.691 7.242,-11.726c0.835,-1.881 -1.358,-5.373 -1.453,-7.436c-0.165,-3.583 1.855,-13.721 3.552,-16.42c2.204,-3.504 -4.813,-6.89 -5.045,-6.993c-0.401,-0.178 -0.933,-2.423 -1.104,-2.867c-3.086,-8.012 -0.251,-9.688 0.37,-16.134c0.232,-2.416 -1.733,-5.3 -1.48,-7.932c0.077,-0.801 1.341,-2.198 1.128,-2.751c-0.301,-0.78 -2.987,-1.682 -3.72,-2.33c-0.155,-0.137 0.684,-9.472 -2.369,-12.257c-1.513,-1.38 -6.508,-0.856 -7.119,-2.443c-1.405,-3.649 7.953,-11.143 1.5,-17.029c-2.055,-1.874 -4.677,-3.491 -6.369,-5.543c-0.192,-0.233 -2.442,-0.633 -2.678,-0.849c-0.334,-0.304 -1.509,-0.714 -1.451,-1.323c0.092,-0.947 7.839,-6.707 3.778,-8.51c-1.353,-0.601 -2.623,0.733 -4.002,0.601c-0.778,-0.075 -0.953,-4.158 -1.736,-4.506c-1.312,-0.582 -4.516,3.851 -6.143,2.367c-4.26,-3.886 -9.573,-3.945 -14.819,-7.651c-1.542,-1.089 -1.848,-4.011 -4.347,-4.251c-0.679,-0.066 -8.011,9.347 -11.025,8.009c-1.282,-0.569 -2.632,-6.651 -3.974,-7.876c-0.985,-0.898 -2.952,-0.291 -4.066,-0.785c-2.352,-1.044 -5.492,-6.268 -7.409,-7.024c-0.696,-0.275 -10.054,0.74 -11.911,0.825c-1.692,0.078 -3.623,-2.287 -4.854,-2.833c-0.536,-0.238 -4.982,0.292 -6.114,0.003c-6.743,-1.726 -12.096,-5.369 -18.155,-8.058c-3.76,-1.669 -3.571,1.101 -5.797,0.822c-4.309,-0.54 -7.82,-3.596 -12.324,-5.13c-4.847,-1.652 -7.944,-6.645 -12.861,-7.746c-1.039,-0.233 1.344,3.299 0.285,3.183c-4.556,-0.503 -10.666,-10.69 -13.146,-10.929c-2.434,-0.234 -2.529,2.906 -4.272,3.577c-2.114,0.815 -4.636,-1.673 -6.347,-1.838c-0.745,-0.072 -1.067,1.641 -1.165,1.86c-0.102,0.23 -12.975,4.864 -13.673,4.796c-0.877,-0.084 -2.418,0.286 -3.341,-0.124c-0.232,-0.103 -4.727,-8.507 -9.991,-2.737c-0.432,0.474 0.148,3.163 -0.124,3.341c-1.355,0.885 -5.086,-5.341 -7.785,-3.116c-4.382,3.613 0.087,8.068 -6.644,9.615c-5.149,1.182 -11.76,-1.115 -16.638,0.764c-0.243,0.094 1.224,6.546 0.067,7.5c-0.412,0.339 -3.397,-3.058 -3.972,-1.763c-0.62,1.398 -0.613,4.442 -1.132,5.61c-0.654,1.474 -6.255,0.3 -7.845,1.611c-2.036,1.678 -1.402,5.992 -2.958,8.195c-2.399,3.395 -10.036,1.262 -13.013,4.071c-1.319,1.246 0.224,4.852 -0.406,6.271c-0.37,0.833 -2.892,-1.273 -3.75,0.034c-1.3,1.98 0.83,3.992 -1.132,5.61c-2.102,1.733 -8.949,0.817 -10.054,3.306c-1.249,2.815 1.854,9.049 0.23,12.707c-0.661,1.489 -7.757,-0.455 -8.255,1.768c-0.481,2.15 1.549,5.691 0.634,7.752c-0.715,1.611 -4.836,0.185 -5.482,1.641c-0.917,2.067 1.201,4.945 0.318,6.933c-2.377,5.356 -3.884,17.817 -4.556,24.802c-0.162,1.678 1.174,4.24 0.664,5.389c-0.621,1.399 -4.96,-3.659 -5.422,-3.086c-1.295,1.609 0.323,14.269 1.175,16.48c0.075,0.197 2.423,7.533 2.02,7.688c-1.596,0.615 -2.462,-4.29 -3.877,-2.739c-0.899,0.985 2.091,20.081 2.815,21.962c0.307,0.797 2.186,4.015 1.894,4.915c-0.735,2.265 0.269,4.482 -0.249,6.681c-0.358,1.518 -1.833,2.654 -2.015,4.539c-0.049,0.511 4.327,16.899 5.24,17.266c3.091,1.24 5.493,-8.811 5.51,-10.118c0.001,-0.147 -0.024,-0.351 -0.158,-0.41c-0.233,-0.103 4.459,-1.869 4.75,-4.888c0.056,-0.584 1.027,3.156 1.501,4.385c1.098,2.852 2.564,12.132 5.854,9.951c1.46,-0.969 2.714,-7.169 3.355,-8.614c0.178,-0.401 2.017,-6.487 2.017,-6.487c0,0 2.269,14.37 2.508,13.832c1.102,-2.483 14.567,0.971 14.567,0.971l10.013,-9.944c0,0 10.94,14.713 12.796,11.75c1.696,-2.707 6.598,-17.924 15.291,-10.348c0,0 9.996,14.502 10.632,15.424c0.006,0.008 0.015,0.012 0.025,0.01c0.01,-0.001 0.017,-0.009 0.019,-0.018c5.446,-24.079 15.047,1.674 15.224,1.412c0.829,-1.227 5.38,-0.584 6.569,-1.888c2.711,-2.972 2.505,-7.879 3.054,-9.063c0.65,-1.402 8.479,14.727 9.21,13.693c0.864,-1.222 7.583,6.4 7.952,4.831c4.964,-21.121 19.77,-13.555 21.99,-10.678c5.258,6.815 7.265,6.198 11.026,6.56" style="fill:url(#_Linear64);stroke:#000;stroke-width:0.24px;stroke-linecap:round;stroke-miterlimit:1.5;"/></g><defs><linearGradient id="_Linear1" x1="0" y1="0" x2="1" y2="0" gradientUnits="userSpaceOnUse" gradientTransform="matrix(9.67996,34.2381,34.2381,-9.67996,79.7625,194.046)"><stop offset="0" style="stop-color:#fff;stop-opacity:1"/><stop offset="0.54" style="stop-color:#f1d4d4;stop-opacity:1"/><stop offset="1" style="stop-color:#bd3b3b;stop-opacity:1"/></linearGradient><linearGradient id="_Linear2" x1="0" y1="0" x2="1" y2="0" gradientUnits="userSpaceOnUse" gradientTransform="matrix(-11.834,23.5069,23.5069,11.834,209.175,197.755)"><stop offset="0" style="stop-color:#fff;stop-opacity:1"/><stop offset="1" style="stop-color:#c8372e;stop-opacity:1"/></linearGradient><linearGradient id="_Linear3" x1="0" y1="0" x2="1" y2="0" gradientUnits="userSpaceOnUse" gradientTransform="matrix(10.1783,2.72756,2.72756,-10.1783,143.949,343.781)"><stop offset="0" style="stop-color:#fff;stop-opacity:0.196078"/><stop offset="0.47" style="stop-color:#e2c4c4;stop-opacity:0.415686"/><stop offset="1" style="stop-color:#942626;stop-opacity:1"/></linearGradient><linearGradient id="_Linear4" x1="0" y1="0" x2="1" y2="0" gradientUnits="userSpaceOnUse" gradientTransform="matrix(-6.87122,-5.44376,-5.44376,6.87122,96.8194,343.754)"><stop offset="0" style="stop-color:#942626;stop-opacity:1"/><stop offset="0.45" style="stop-color:#b36565;stop-opacity:1"/><stop offset="1" style="stop-color:#fff;stop-opacity:1"/></linearGradient><linearGradient id="_Linear5" x1="0" y1="0" x2="1" y2="0" gradientUnits="userSpaceOnUse" gradientTransform="matrix(19.6833,-3.18454,-2.30436,-27.2015,129.721,318.449)"><stop offset="0" style="stop-color:#fff;stop-opacity:1"/><stop offset="0.42" style="stop-color:#fff;stop-opacity:1"/><stop offset="0.54" style="stop-color:#fff;stop-opacity:1"/><stop offset="0.63" style="stop-color:#fff;stop-opacity:1"/><stop offset="1" style="stop-color:#942626;stop-opacity:1"/></linearGradient><linearGradient id="_Linear6" x1="0" y1="0" x2="1" y2="0" gradientUnits="userSpaceOnUse" gradientTransform="matrix(-16.3934,-3.90864,-3.90864,16.3934,107.789,302.769)"><stop offset="0" style="stop-color:#942626;stop-opacity:1"/><stop offset="0.2" style="stop-color:#be7c7c;stop-opacity:1"/><stop offset="0.43" style="stop-color:#ead5d5;stop-opacity:1"/><stop offset="1" style="stop-color:#fff;stop-opacity:1"/></linearGradient><linearGradient id="_Linear7" x1="0" y1="0" x2="1" y2="0" gradientUnits="userSpaceOnUse" gradientTransform="matrix(81.5567,33.6263,33.6263,-81.5567,88.8474,254.357)"><stop offset="0" style="stop-color:#fff;stop-opacity:1"/><stop offset="0.47" style="stop-color:#c85a53;stop-opacity:1"/><stop offset="1" style="stop-color:#b82a21;stop-opacity:1"/></linearGradient><linearGradient id="_Linear9" x1="0" y1="0" x2="1" y2="0" gradientUnits="userSpaceOnUse" gradientTransform="matrix(24.9255,9.38752,9.38752,-24.9255,101.561,246.895)"><stop offset="0" style="stop-color:#a6a6a6;stop-opacity:1"/><stop offset="1" style="stop-color:#942626;stop-opacity:1"/></linearGradient><linearGradient id="_Linear10" x1="0" y1="0" x2="1" y2="0" gradientUnits="userSpaceOnUse" gradientTransform="matrix(24.9255,9.38752,9.38752,-24.9255,101.561,246.895)"><stop offset="0" style="stop-color:#a6a6a6;stop-opacity:1"/><stop offset="1" style="stop-color:#942626;stop-opacity:1"/></linearGradient><linearGradient id="_Linear11" x1="0" y1="0" x2="1" y2="0" gradientUnits="userSpaceOnUse" gradientTransform="matrix(24.9255,9.38752,9.38752,-24.9255,101.561,246.895)"><stop offset="0" style="stop-color:#a6a6a6;stop-opacity:1"/><stop offset="1" style="stop-color:#942626;stop-opacity:1"/></linearGradient><linearGradient id="_Linear12" x1="0" y1="0" x2="1" y2="0" gradientUnits="userSpaceOnUse" gradientTransform="matrix(24.9255,9.38752,9.38752,-24.9255,101.561,246.895)"><stop offset="0" style="stop-color:#a6a6a6;stop-opacity:1"/><stop offset="1" style="stop-color:#942626;stop-opacity:1"/></linearGradient><linearGradient id="_Linear13" x1="0" y1="0" x2="1" y2="0" gradientUnits="userSpaceOnUse" gradientTransform="matrix(24.9255,9.38752,9.38752,-24.9255,101.561,246.895)"><stop offset="0" style="stop-color:#a6a6a6;stop-opacity:1"/><stop offset="1" style="stop-color:#942626;stop-opacity:1"/></linearGradient><linearGradient id="_Linear14" x1="0" y1="0" x2="1" y2="0" gradientUnits="userSpaceOnUse" gradientTransform="matrix(24.9255,9.38752,9.38752,-24.9255,101.561,246.895)"><stop offset="0" style="stop-color:#a6a6a6;stop-opacity:1"/><stop offset="1" style="stop-color:#942626;stop-opacity:1"/></linearGradient><linearGradient id="_Linear15" x1="0" y1="0" x2="1" y2="0" gradientUnits="userSpaceOnUse" gradientTransform="matrix(24.9255,9.38752,9.38752,-24.9255,101.561,246.895)"><stop offset="0" style="stop-color:#a6a6a6;stop-opacity:1"/><stop offset="1" style="stop-color:#942626;stop-opacity:1"/></linearGradient><linearGradient id="_Linear16" x1="0" y1="0" x2="1" y2="0" gradientUnits="userSpaceOnUse" gradientTransform="matrix(24.9255,9.38752,9.38752,-24.9255,101.561,246.895)"><stop offset="0" style="stop-color:#a6a6a6;stop-opacity:1"/><stop offset="1" style="stop-color:#942626;stop-opacity:1"/></linearGradient><linearGradient id="_Linear17" x1="0" y1="0" x2="1" y2="0" gradientUnits="userSpaceOnUse" gradientTransform="matrix(24.9255,9.38752,9.38752,-24.9255,101.561,246.895)"><stop offset="0" style="stop-color:#a6a6a6;stop-opacity:1"/><stop offset="1" style="stop-color:#942626;stop-opacity:1"/></linearGradient><linearGradient id="_Linear18" x1="0" y1="0" x2="1" y2="0" gradientUnits="userSpaceOnUse" gradientTransform="matrix(24.9255,9.38752,9.38752,-24.9255,101.561,246.895)"><stop offset="0" style="stop-color:#a6a6a6;stop-opacity:1"/><stop offset="1" style="stop-color:#942626;stop-opacity:1"/></linearGradient><linearGradient id="_Linear19" x1="0" y1="0" x2="1" y2="0" gradientUnits="userSpaceOnUse" gradientTransform="matrix(24.9255,9.38752,9.38752,-24.9255,101.561,246.895)"><stop offset="0" style="stop-color:#a6a6a6;stop-opacity:1"/><stop offset="1" style="stop-color:#942626;stop-opacity:1"/></linearGradient><linearGradient id="_Linear20" x1="0" y1="0" x2="1" y2="0" gradientUnits="userSpaceOnUse" gradientTransform="matrix(24.9255,9.38752,9.38752,-24.9255,101.561,246.895)"><stop offset="0" style="stop-color:#a6a6a6;stop-opacity:1"/><stop offset="1" style="stop-color:#942626;stop-opacity:1"/></linearGradient><linearGradient id="_Linear21" x1="0" y1="0" x2="1" y2="0" gradientUnits="userSpaceOnUse" gradientTransform="matrix(24.9255,9.38752,9.38752,-24.9255,101.561,246.895)"><stop offset="0" style="stop-color:#a6a6a6;stop-opacity:1"/><stop offset="1" style="stop-color:#942626;stop-opacity:1"/></linearGradient><linearGradient id="_Linear22" x1="0" y1="0" x2="1" y2="0" gradientUnits="userSpaceOnUse" gradientTransform="matrix(24.9255,9.38752,9.38752,-24.9255,101.561,246.895)"><stop offset="0" style="stop-color:#a6a6a6;stop-opacity:1"/><stop offset="1" style="stop-color:#942626;stop-opacity:1"/></linearGradient><linearGradient id="_Linear23" x1="0" y1="0" x2="1" y2="0" gradientUnits="userSpaceOnUse" gradientTransform="matrix(24.9255,9.38752,9.38752,-24.9255,101.561,246.895)"><stop offset="0" style="stop-color:#a6a6a6;stop-opacity:1"/><stop offset="1" style="stop-color:#942626;stop-opacity:1"/></linearGradient><linearGradient id="_Linear24" x1="0" y1="0" x2="1" y2="0" gradientUnits="userSpaceOnUse" gradientTransform="matrix(24.9255,9.38752,9.38752,-24.9255,101.561,246.895)"><stop offset="0" style="stop-color:#a6a6a6;stop-opacity:1"/><stop offset="1" style="stop-color:#942626;stop-opacity:1"/></linearGradient><linearGradient id="_Linear25" x1="0" y1="0" x2="1" y2="0" gradientUnits="userSpaceOnUse" gradientTransform="matrix(24.9255,9.38752,9.38752,-24.9255,101.561,246.895)"><stop offset="0" style="stop-color:#a6a6a6;stop-opacity:1"/><stop offset="1" style="stop-color:#942626;stop-opacity:1"/></linearGradient><linearGradient id="_Linear26" x1="0" y1="0" x2="1" y2="0" gradientUnits="userSpaceOnUse" gradientTransform="matrix(24.9255,9.38752,9.38752,-24.9255,101.561,246.895)"><stop offset="0" style="stop-color:#a6a6a6;stop-opacity:1"/><stop offset="1" style="stop-color:#942626;stop-opacity:1"/></linearGradient><linearGradient id="_Linear27" x1="0" y1="0" x2="1" y2="0" gradientUnits="userSpaceOnUse" gradientTransform="matrix(24.9255,9.38752,9.38752,-24.9255,101.561,246.895)"><stop offset="0" style="stop-color:#a6a6a6;stop-opacity:1"/><stop offset="1" style="stop-color:#942626;stop-opacity:1"/></linearGradient><linearGradient id="_Linear28" x1="0" y1="0" x2="1" y2="0" gradientUnits="userSpaceOnUse" gradientTransform="matrix(24.9255,9.38752,9.38752,-24.9255,101.561,246.895)"><stop offset="0" style="stop-color:#a6a6a6;stop-opacity:1"/><stop offset="1" style="stop-color:#942626;stop-opacity:1"/></linearGradient><linearGradient id="_Linear29" x1="0" y1="0" x2="1" y2="0" gradientUnits="userSpaceOnUse" gradientTransform="matrix(24.9255,9.38752,9.38752,-24.9255,101.561,246.895)"><stop offset="0" style="stop-color:#a6a6a6;stop-opacity:1"/><stop offset="1" style="stop-color:#942626;stop-opacity:1"/></linearGradient><linearGradient id="_Linear30" x1="0" y1="0" x2="1" y2="0" gradientUnits="userSpaceOnUse" gradientTransform="matrix(24.9255,9.38752,9.38752,-24.9255,101.561,246.895)"><stop offset="0" style="stop-color:#a6a6a6;stop-opacity:1"/><stop offset="1" style="stop-color:#942626;stop-opacity:1"/></linearGradient><linearGradient id="_Linear31" x1="0" y1="0" x2="1" y2="0" gradientUnits="userSpaceOnUse" gradientTransform="matrix(24.9255,9.38752,9.38752,-24.9255,101.561,246.895)"><stop offset="0" style="stop-color:#a6a6a6;stop-opacity:1"/><stop offset="1" style="stop-color:#942626;stop-opacity:1"/></linearGradient><linearGradient id="_Linear32" x1="0" y1="0" x2="1" y2="0" gradientUnits="userSpaceOnUse" gradientTransform="matrix(24.9255,9.38752,9.38752,-24.9255,101.561,246.895)"><stop offset="0" style="stop-color:#a6a6a6;stop-opacity:1"/><stop offset="1" style="stop-color:#942626;stop-opacity:1"/></linearGradient><linearGradient id="_Linear33" x1="0" y1="0" x2="1" y2="0" gradientUnits="userSpaceOnUse" gradientTransform="matrix(24.9255,9.38752,9.38752,-24.9255,101.561,246.895)"><stop offset="0" style="stop-color:#a6a6a6;stop-opacity:1"/><stop offset="1" style="stop-color:#942626;stop-opacity:1"/></linearGradient><linearGradient id="_Linear34" x1="0" y1="0" x2="1" y2="0" gradientUnits="userSpaceOnUse" gradientTransform="matrix(24.9255,9.38752,9.38752,-24.9255,101.561,246.895)"><stop offset="0" style="stop-color:#a6a6a6;stop-opacity:1"/><stop offset="1" style="stop-color:#942626;stop-opacity:1"/></linearGradient><linearGradient id="_Linear35" x1="0" y1="0" x2="1" y2="0" gradientUnits="userSpaceOnUse" gradientTransform="matrix(24.9255,9.38752,9.38752,-24.9255,101.561,246.895)"><stop offset="0" style="stop-color:#a6a6a6;stop-opacity:1"/><stop offset="1" style="stop-color:#942626;stop-opacity:1"/></linearGradient><linearGradient id="_Linear36" x1="0" y1="0" x2="1" y2="0" gradientUnits="userSpaceOnUse" gradientTransform="matrix(24.9255,9.38752,9.38752,-24.9255,101.561,246.895)"><stop offset="0" style="stop-color:#a6a6a6;stop-opacity:1"/><stop offset="1" style="stop-color:#942626;stop-opacity:1"/></linearGradient><linearGradient id="_Linear37" x1="0" y1="0" x2="1" y2="0" gradientUnits="userSpaceOnUse" gradientTransform="matrix(24.9255,9.38752,9.38752,-24.9255,101.561,246.895)"><stop offset="0" style="stop-color:#a6a6a6;stop-opacity:1"/><stop offset="1" style="stop-color:#942626;stop-opacity:1"/></linearGradient><linearGradient id="_Linear38" x1="0" y1="0" x2="1" y2="0" gradientUnits="userSpaceOnUse" gradientTransform="matrix(24.9255,9.38752,9.38752,-24.9255,101.561,246.895)"><stop offset="0" style="stop-color:#a6a6a6;stop-opacity:1"/><stop offset="1" style="stop-color:#942626;stop-opacity:1"/></linearGradient><linearGradient id="_Linear39" x1="0" y1="0" x2="1" y2="0" gradientUnits="userSpaceOnUse" gradientTransform="matrix(24.9255,9.38752,9.38752,-24.9255,101.561,246.895)"><stop offset="0" style="stop-color:#a6a6a6;stop-opacity:1"/><stop offset="1" style="stop-color:#942626;stop-opacity:1"/></linearGradient><linearGradient id="_Linear40" x1="0" y1="0" x2="1" y2="0" gradientUnits="userSpaceOnUse" gradientTransform="matrix(24.9255,9.38752,9.38752,-24.9255,101.561,246.895)"><stop offset="0" style="stop-color:#a6a6a6;stop-opacity:1"/><stop offset="1" style="stop-color:#942626;stop-opacity:1"/></linearGradient><linearGradient id="_Linear41" x1="0" y1="0" x2="1" y2="0" gradientUnits="userSpaceOnUse" gradientTransform="matrix(24.9255,9.38752,9.38752,-24.9255,101.561,246.895)"><stop offset="0" style="stop-color:#a6a6a6;stop-opacity:1"/><stop offset="1" style="stop-color:#942626;stop-opacity:1"/></linearGradient><linearGradient id="_Linear42" x1="0" y1="0" x2="1" y2="0" gradientUnits="userSpaceOnUse" gradientTransform="matrix(24.9255,9.38752,9.38752,-24.9255,101.561,246.895)"><stop offset="0" style="stop-color:#a6a6a6;stop-opacity:1"/><stop offset="1" style="stop-color:#942626;stop-opacity:1"/></linearGradient><linearGradient id="_Linear43" x1="0" y1="0" x2="1" y2="0" gradientUnits="userSpaceOnUse" gradientTransform="matrix(24.9255,9.38752,9.38752,-24.9255,101.561,246.895)"><stop offset="0" style="stop-color:#a6a6a6;stop-opacity:1"/><stop offset="1" style="stop-color:#942626;stop-opacity:1"/></linearGradient><linearGradient id="_Linear44" x1="0" y1="0" x2="1" y2="0" gradientUnits="userSpaceOnUse" gradientTransform="matrix(24.9255,9.38752,9.38752,-24.9255,101.561,246.895)"><stop offset="0" style="stop-color:#a6a6a6;stop-opacity:1"/><stop offset="1" style="stop-color:#942626;stop-opacity:1"/></linearGradient><linearGradient id="_Linear45" x1="0" y1="0" x2="1" y2="0" gradientUnits="userSpaceOnUse" gradientTransform="matrix(24.9255,9.38752,9.38752,-24.9255,101.561,246.895)"><stop offset="0" style="stop-color:#a6a6a6;stop-opacity:1"/><stop offset="1" style="stop-color:#942626;stop-opacity:1"/></linearGradient><linearGradient id="_Linear46" x1="0" y1="0" x2="1" y2="0" gradientUnits="userSpaceOnUse" gradientTransform="matrix(24.9255,9.38752,9.38752,-24.9255,101.561,246.895)"><stop offset="0" style="stop-color:#a6a6a6;stop-opacity:1"/><stop offset="1" style="stop-color:#942626;stop-opacity:1"/></linearGradient><linearGradient id="_Linear47" x1="0" y1="0" x2="1" y2="0" gradientUnits="userSpaceOnUse" gradientTransform="matrix(24.9255,9.38752,9.38752,-24.9255,101.561,246.895)"><stop offset="0" style="stop-color:#a6a6a6;stop-opacity:1"/><stop offset="1" style="stop-color:#942626;stop-opacity:1"/></linearGradient><linearGradient id="_Linear48" x1="0" y1="0" x2="1" y2="0" gradientUnits="userSpaceOnUse" gradientTransform="matrix(24.9255,9.38752,9.38752,-24.9255,101.561,246.895)"><stop offset="0" style="stop-color:#a6a6a6;stop-opacity:1"/><stop offset="1" style="stop-color:#942626;stop-opacity:1"/></linearGradient><linearGradient id="_Linear49" x1="0" y1="0" x2="1" y2="0" gradientUnits="userSpaceOnUse" gradientTransform="matrix(24.9255,9.38752,9.38752,-24.9255,101.561,246.895)"><stop offset="0" style="stop-color:#a6a6a6;stop-opacity:1"/><stop offset="1" style="stop-color:#942626;stop-opacity:1"/></linearGradient><linearGradient id="_Linear50" x1="0" y1="0" x2="1" y2="0" gradientUnits="userSpaceOnUse" gradientTransform="matrix(24.9255,9.38752,9.38752,-24.9255,101.561,246.895)"><stop offset="0" style="stop-color:#a6a6a6;stop-opacity:1"/><stop offset="1" style="stop-color:#942626;stop-opacity:1"/></linearGradient><linearGradient id="_Linear51" x1="0" y1="0" x2="1" y2="0" gradientUnits="userSpaceOnUse" gradientTransform="matrix(24.9255,9.38752,9.38752,-24.9255,101.561,246.895)"><stop offset="0" style="stop-color:#a6a6a6;stop-opacity:1"/><stop offset="1" style="stop-color:#942626;stop-opacity:1"/></linearGradient><linearGradient id="_Linear52" x1="0" y1="0" x2="1" y2="0" gradientUnits="userSpaceOnUse" gradientTransform="matrix(24.9255,9.38752,9.38752,-24.9255,101.561,246.895)"><stop offset="0" style="stop-color:#a6a6a6;stop-opacity:1"/><stop offset="1" style="stop-color:#942626;stop-opacity:1"/></linearGradient><linearGradient id="_Linear53" x1="0" y1="0" x2="1" y2="0" gradientUnits="userSpaceOnUse" gradientTransform="matrix(24.9255,9.38752,9.38752,-24.9255,101.561,246.895)"><stop offset="0" style="stop-color:#a6a6a6;stop-opacity:1"/><stop offset="1" style="stop-color:#942626;stop-opacity:1"/></linearGradient><linearGradient id="_Linear54" x1="0" y1="0" x2="1" y2="0" gradientUnits="userSpaceOnUse" gradientTransform="matrix(24.9255,9.38752,9.38752,-24.9255,101.561,246.895)"><stop offset="0" style="stop-color:#a6a6a6;stop-opacity:1"/><stop offset="1" style="stop-color:#942626;stop-opacity:1"/></linearGradient><linearGradient id="_Linear55" x1="0" y1="0" x2="1" y2="0" gradientUnits="userSpaceOnUse" gradientTransform="matrix(24.9255,9.38752,9.38752,-24.9255,101.561,246.895)"><stop offset="0" style="stop-color:#a6a6a6;stop-opacity:1"/><stop offset="1" style="stop-color:#942626;stop-opacity:1"/></linearGradient><linearGradient id="_Linear56" x1="0" y1="0" x2="1" y2="0" gradientUnits="userSpaceOnUse" gradientTransform="matrix(24.9255,9.38752,9.38752,-24.9255,101.561,246.895)"><stop offset="0" style="stop-color:#a6a6a6;stop-opacity:1"/><stop offset="1" style="stop-color:#942626;stop-opacity:1"/></linearGradient><linearGradient id="_Linear57" x1="0" y1="0" x2="1" y2="0" gradientUnits="userSpaceOnUse" gradientTransform="matrix(24.9255,9.38752,9.38752,-24.9255,101.561,246.895)"><stop offset="0" style="stop-color:#a6a6a6;stop-opacity:1"/><stop offset="1" style="stop-color:#942626;stop-opacity:1"/></linearGradient><linearGradient id="_Linear58" x1="0" y1="0" x2="1" y2="0" gradientUnits="userSpaceOnUse" gradientTransform="matrix(24.9255,9.38752,9.38752,-24.9255,101.561,246.895)"><stop offset="0" style="stop-color:#a6a6a6;stop-opacity:1"/><stop offset="1" style="stop-color:#942626;stop-opacity:1"/></linearGradient><linearGradient id="_Linear59" x1="0" y1="0" x2="1" y2="0" gradientUnits="userSpaceOnUse" gradientTransform="matrix(24.9255,9.38752,9.38752,-24.9255,101.561,246.895)"><stop offset="0" style="stop-color:#a6a6a6;stop-opacity:1"/><stop offset="1" style="stop-color:#942626;stop-opacity:1"/></linearGradient><linearGradient id="_Linear60" x1="0" y1="0" x2="1" y2="0" gradientUnits="userSpaceOnUse" gradientTransform="matrix(24.9255,9.38752,9.38752,-24.9255,101.561,246.895)"><stop offset="0" style="stop-color:#a6a6a6;stop-opacity:1"/><stop offset="1" style="stop-color:#942626;stop-opacity:1"/></linearGradient><linearGradient id="_Linear61" x1="0" y1="0" x2="1" y2="0" gradientUnits="userSpaceOnUse" gradientTransform="matrix(24.9255,9.38752,9.38752,-24.9255,101.561,246.895)"><stop offset="0" style="stop-color:#a6a6a6;stop-opacity:1"/><stop offset="1" style="stop-color:#942626;stop-opacity:1"/></linearGradient><linearGradient id="_Linear62" x1="0" y1="0" x2="1" y2="0" gradientUnits="userSpaceOnUse" gradientTransform="matrix(24.9255,9.38752,9.38752,-24.9255,101.561,246.895)"><stop offset="0" style="stop-color:#a6a6a6;stop-opacity:1"/><stop offset="1" style="stop-color:#942626;stop-opacity:1"/></linearGradient><linearGradient id="_Linear63" x1="0" y1="0" x2="1" y2="0" gradientUnits="userSpaceOnUse" gradientTransform="matrix(0.292621,168.517,168.517,-0.292621,146.489,88.0812)"><stop offset="0" style="stop-color:#fff;stop-opacity:1"/><stop offset="0.58" style="stop-color:#eee;stop-opacity:1"/><stop offset="0.8" style="stop-color:#c9c9c9;stop-opacity:1"/><stop offset="1" style="stop-color:#a6a6a6;stop-opacity:1"/></linearGradient><linearGradient id="_Linear64" x1="0" y1="0" x2="1" y2="0" gradientUnits="userSpaceOnUse" gradientTransform="matrix(1.65768,7.45957,7.45957,-1.65768,39.1114,-20.0281)"><stop offset="0" style="stop-color:#fff;stop-opacity:1"/><stop offset="1" style="stop-color:#0a0a0a;stop-opacity:1"/></linearGradient></defs></svg>