<svg clip-rule="evenodd" fill-rule="evenodd" stroke-linejoin="round" stroke-miterlimit="1.41421" viewBox="0 0 305 406" xmlns="http://www.w3.org/2000/svg" xmlns:xlink="http://www.w3.org/1999/xlink"><path d="m128.177 191.271-10.275 7.672-20.464 13.846s-12.686 9.098-17.557 12.53c-3.865 2.723-7.414 6.003-11.67 8.063-5.586 2.703-21.849 8.157-21.849 8.157-3.546 12.574 3.247 19.033 16.254 16.27 0 0 7.158-14.403 11.143-19.045 3.367-3.922 12.767-8.805 12.767-8.805l12.628-5.71 14.347-5.118 16.907-6.604z" fill="url(#_Linear1)"/><path d="m229.562 231.195c3.197.86 6.359 1.868 9.513 2.874 1.177.375 6.902 2.203 8.989 3.67 1.177.827 1.17 1.418 1.346 2.79.386 3.013.315 6.128-1.556 8.718-1.989 2.752-5.567 4.465-8.711 5.443-1.627.506-2.055.624-3.396-.402-2.125-1.624-5.65-6.247-6.57-7.463-1.991-2.63-3.866-5.346-5.739-8.061l-32.577-20.047-10.126-4.826-9.245-3.356-8.509-2.034 2.797-17.207 4.923 3.324 5.272 3.017 10.246 6.552 14.036 9.435 28.311 17.093" fill="url(#_Linear2)"/><path d="m151.213 335.566c1.759-.908 6.714-1.85 8.998.595 2.723 2.915 6.685 16.081 6.685 16.081l5.009 16.138s2.532 7.858 3.764 11.419c1.154 3.335 3.627 9.945 3.627 9.945s2.804 5.945 2.608 8.118c-.185 2.06-1.176 4.593-3.783 4.917-10.97 1.365-26.906 2.507-36.775 2.65-4.618.067-4.059-9.464-1.606-9.772 6.269-.787 20.438-1.009 24.013-4.57 3.518-3.504-2.374-16.379-2.561-16.785-.003-.006-.005-.013-.007-.02-.142-.417-4.899-14.412-4.899-14.412l-6.682-18.545s-.151-4.85 1.609-5.759z" fill="url(#_Linear3)"/><path d="m104.621 325.026c2.052.682 5.039 4.63 5.039 4.63l.357 16.846-2.593 47.045s.096 8.41-1.896 9.785c-3.601 2.489-23.986 2.334-23.986 2.334s-7.456.353-14.926.326c-4.481-.016-6.03-8.343-1.977-10.146 13.793-.742 19.501-.932 19.501-.932s7.977.12 10.016-2.836c2.039-2.955 2.12-29.963 2.12-29.963l1.07-36.554s5.222-1.218 7.275-.535z" fill="url(#_Linear4)"/><path d="m158.55 343.989c3.239-8.338 13.781-42.128 11.431-50.028-2.35-7.899-22.291-5.704-25.53 2.634-3.239 8.337 3.747 39.495 6.096 47.394 1.015 3.409 6.741 3.248 8.003 0z" fill="url(#_Linear5)"/><path d="m103.739 336.951c5.091-5.663 23.758-32.373 24.001-41.339.242-8.966-17.456-18.121-22.547-12.459-5.091 5.663-7.758 37.47-8 46.436-.113 4.188 4.356 9.798 6.546 7.362z" fill="url(#_Linear6)"/><path d="m181.064 290.166s1.502 28.667-.827 30.243c-2.529 1.712-17.545-3.098-18.099-4.27-1.18-2.497-23.69 1.515-27.123 1.407-4.019-.125-19.802 1.396-23.571-1.313-4.243-3.051-16.506.149-16.506.149s4.481-24.368 8.432-32.277c2.348-4.7 6.934-15.342 8.815-20.248 2.144-5.593 10.173-22.83 10.88-25.093.734-2.348 3.155-24.58 3.082-30.816-.056-4.732-1.761-14.088-1.761-14.088v-5.282c14.894-10.34 29.574-11.32 44.023-2.201 0 0-.509 20.131-.07 26.811.295 4.504 3.859 19.13 4.472 22.054 1.533 7.311 7.122 25.448 7.428 35.077.248 7.788.825 19.847.825 19.847z" fill="url(#_Linear7)"/><g clip-path="url(#_clip8)"><g fill="url(#_Linear9)"><g><ellipse cx="176.611" cy="211.545" rx="6.181" ry="6.242"/><ellipse cx="160.348" cy="211.545" rx="6.181" ry="6.242"/><ellipse cx="144.085" cy="211.545" rx="6.181" ry="6.242"/><ellipse cx="127.823" cy="211.545" rx="6.181" ry="6.242"/><ellipse cx="111.56" cy="211.545" rx="6.181" ry="6.242"/><ellipse cx="95.297" cy="211.545" rx="6.181" ry="6.242"/></g><g><ellipse cx="176.611" cy="240.693" rx="6.181" ry="6.242"/><ellipse cx="160.348" cy="240.693" rx="6.181" ry="6.242"/><ellipse cx="144.085" cy="240.693" rx="6.181" ry="6.242"/><ellipse cx="127.823" cy="240.693" rx="6.181" ry="6.242"/><ellipse cx="111.56" cy="240.693" rx="6.181" ry="6.242"/><ellipse cx="95.297" cy="240.693" rx="6.181" ry="6.242"/></g><g><ellipse cx="176.611" cy="255.267" rx="6.181" ry="6.242"/><ellipse cx="160.348" cy="255.267" rx="6.181" ry="6.242"/><ellipse cx="144.085" cy="255.267" rx="6.181" ry="6.242"/><ellipse cx="127.823" cy="255.267" rx="6.181" ry="6.242"/><ellipse cx="111.56" cy="255.267" rx="6.181" ry="6.242"/><ellipse cx="95.297" cy="255.267" rx="6.181" ry="6.242"/></g><g><ellipse cx="176.611" cy="269.841" rx="6.181" ry="6.242"/><ellipse cx="160.348" cy="269.841" rx="6.181" ry="6.242"/><ellipse cx="144.085" cy="269.841" rx="6.181" ry="6.242"/><ellipse cx="127.823" cy="269.841" rx="6.181" ry="6.242"/><ellipse cx="111.56" cy="269.841" rx="6.181" ry="6.242"/><ellipse cx="95.297" cy="269.841" rx="6.181" ry="6.242"/></g><g><ellipse cx="176.611" cy="284.415" rx="6.181" ry="6.242"/><ellipse cx="160.348" cy="284.415" rx="6.181" ry="6.242"/><ellipse cx="144.085" cy="284.415" rx="6.181" ry="6.242"/><ellipse cx="127.823" cy="284.415" rx="6.181" ry="6.242"/><ellipse cx="111.56" cy="284.415" rx="6.181" ry="6.242"/><ellipse cx="95.297" cy="284.415" rx="6.181" ry="6.242"/></g><g><ellipse cx="176.611" cy="298.99" rx="6.181" ry="6.242"/><ellipse cx="160.348" cy="298.99" rx="6.181" ry="6.242"/><ellipse cx="144.085" cy="298.99" rx="6.181" ry="6.242"/><ellipse cx="127.823" cy="298.99" rx="6.181" ry="6.242"/><ellipse cx="111.56" cy="298.99" rx="6.181" ry="6.242"/><ellipse cx="95.297" cy="298.99" rx="6.181" ry="6.242"/></g><g><ellipse cx="176.611" cy="196.971" rx="6.181" ry="6.242"/><ellipse cx="160.348" cy="196.971" rx="6.181" ry="6.242"/><ellipse cx="144.085" cy="196.971" rx="6.181" ry="6.242"/><ellipse cx="127.823" cy="196.971" rx="6.181" ry="6.242"/><ellipse cx="111.56" cy="196.971" rx="6.181" ry="6.242"/><ellipse cx="95.297" cy="196.971" rx="6.181" ry="6.242"/></g><g><ellipse cx="176.308" cy="313.564" rx="6.181" ry="6.242"/><ellipse cx="160.045" cy="313.564" rx="6.181" ry="6.242"/><ellipse cx="143.782" cy="313.564" rx="6.181" ry="6.242"/><ellipse cx="127.519" cy="313.564" rx="6.181" ry="6.242"/><ellipse cx="111.256" cy="313.564" rx="6.181" ry="6.242"/><ellipse cx="94.993" cy="313.564" rx="6.181" ry="6.242"/></g><g><ellipse cx="176.611" cy="226.119" rx="6.181" ry="6.242"/><ellipse cx="160.348" cy="226.119" rx="6.181" ry="6.242"/><ellipse cx="144.085" cy="226.119" rx="6.181" ry="6.242"/><ellipse cx="127.823" cy="226.119" rx="6.181" ry="6.242"/><ellipse cx="111.56" cy="226.119" rx="6.181" ry="6.242"/><ellipse cx="95.297" cy="226.119" rx="6.181" ry="6.242"/></g></g></g><path d="m232.236 71.274 2.194 33.797c-3.349 36.663-45.884 77.798-71.543 86.027-14.35 4.602-45.208.439-45.208.439-29.184-10.345-48.259-37.984-58.375-57.059-9.723-18.333.941-59.472 1.316-59.253 14.142-36.155 37.975-59.011 76.371-61.887 48.316 3.382 78.433 24.262 95.245 57.936z" fill="url(#_Linear63)" stroke="#000" stroke-width=".24"/><path d="m177.106 201.167c.891.396 6.921 5.993 6.671 7.95-.604 4.735 5.429-3.971 3.768-.229-.659 1.485 9.491.744 7.855 1.049-3.692.69-8.144-3.654 0 0 1.532.688-.683-9.363-1.721-7.024-1.139 2.566 12.139-.458 13.61 1.326.849 1.03 1.391 8.347 2.787 10.041.932 1.13 4.997-1.549 7.021-1.355 3.165.305 7.425-1.797 10.115-.603.115.05-3.067 3.85-3.401 4.602-1.437 3.24-5.53 13.844-4.341 14.372 1.484.659 2.133-8.778 4.25-7.282 1.382.977 2.972 3.467 2.679.85-.072-.653.826-.808 1.229-.473 4.381 3.631 5.466 6.398 8.698 1.823.259-.365 4.549-1.388 4.506-1.735-.204-1.656-2.058-5.309-1.296-7.027.913-2.057 4.38 3.487 4.603 3.401.793-.305-.038-4.619.722-5.452.687-.753 3.293-.534 3.686-1.42.469-1.056-.183-3.101 2.646-2.9.845.06 3.697 2.443 3.719 2.33.884-4.436.18-5.243 4.408-6.872.469-.181-3.51-5.268-.484-8.585.782-.858 1.994 1.106 2.939 1.525 1.412.627.728-1.162 2.3-1.356 1.336-.165 2.462 2.051 3.655.943 3.547-3.292-.497-23.796 3.832-25.463 0 0 .395 1.024.474 1.228 1.843 4.786 2.842 13.486 2.842 13.486-.088.198 2.511 6.585 1.769 8.255-.294.662-2.006.695-2.3 1.357-.756 1.705 3.539 4.215 3.344 6.237-.16 1.663-3.686 8.063-1.918 9.675 1.498 1.366 3.732 1.544 5.422 3.086.85.775 2.945 2.225 4.028 1.808.73-.281.197-1.003.289-1.59.132-.836.385-6.22.407-6.271.359-.81 2.052-1.539 2.645-2.9 1.458-3.345 1.634-7.506 3.241-11.126 2.297-5.175 1.697-5.363-.352-10.682-.053-.137-.217-.276-.158-.41 1.074-2.419 2.276-5.014 3.116-7.785.335-1.108-.256-3.248.218-4.317 1.856-4.181 5.451-7.691 7.242-11.726.835-1.881-1.358-5.373-1.453-7.436-.165-3.583 1.855-13.721 3.552-16.42 2.204-3.504-4.813-6.89-5.045-6.993-.401-.178-.933-2.423-1.104-2.867-3.086-8.012-.251-9.688.37-16.134.232-2.416-1.733-5.3-1.48-7.932.077-.801 1.341-2.198 1.128-2.751-.301-.78-2.987-1.682-3.72-2.33-.155-.137.684-9.472-2.369-12.257-1.513-1.38-6.508-.856-7.119-2.443-1.405-3.649 7.953-11.143 1.5-17.029-2.055-1.874-4.677-3.491-6.369-5.543-.192-.233-2.442-.633-2.678-.849-.334-.304-1.509-.714-1.451-1.323.092-.947 7.839-6.707 3.778-8.51-1.353-.601-2.623.733-4.002.601-.778-.075-.953-4.158-1.736-4.506-1.312-.582-4.516 3.851-6.143 2.367-4.26-3.886-9.573-3.945-14.819-7.651-1.542-1.089-1.848-4.011-4.347-4.251-.679-.066-8.011 9.347-11.025 8.009-1.282-.569-2.632-6.651-3.974-7.876-.985-.898-2.952-.291-4.066-.785-2.352-1.044-5.492-6.268-7.409-7.024-.696-.275-10.054.74-11.911.825-1.692.078-3.623-2.287-4.854-2.833-.536-.238-4.982.292-6.114.003-6.743-1.726-12.096-5.369-18.155-8.058-3.76-1.669-3.571 1.101-5.797.822-4.309-.54-7.82-3.596-12.324-5.13-4.847-1.652-7.944-6.645-12.861-7.746-1.039-.233 1.344 3.299.285 3.183-4.556-.503-10.666-10.69-13.146-10.929-2.434-.234-2.529 2.906-4.272 3.577-2.114.815-4.636-1.673-6.347-1.838-.745-.072-1.067 1.641-1.165 1.86-.102.23-12.975 4.864-13.673 4.796-.877-.084-2.418.286-3.341-.124-.232-.103-4.727-8.507-9.991-2.737-.432.474.148 3.163-.124 3.341-1.355.885-5.086-5.341-7.785-3.116-4.382 3.613.087 8.068-6.644 9.615-5.149 1.182-11.76-1.115-16.638.764-.243.094 1.224 6.546.067 7.5-.412.339-3.397-3.058-3.972-1.763-.62 1.398-.613 4.442-1.132 5.61-.654 1.474-6.255.3-7.845 1.611-2.036 1.678-1.402 5.992-2.958 8.195-2.399 3.395-10.036 1.262-13.013 4.071-1.319 1.246.224 4.852-.406 6.271-.37.833-2.892-1.273-3.75.034-1.3 1.98.83 3.992-1.132 5.61-2.102 1.733-8.949.817-10.054 3.306-1.249 2.815 1.854 9.049.23 12.707-.661 1.489-7.757-.455-8.255 1.768-.481 2.15 1.549 5.691.634 7.752-.715 1.611-4.836.185-5.482 1.641-.917 2.067 1.201 4.945.318 6.933-2.377 5.356-3.884 17.817-4.556 24.802-.162 1.678 1.174 4.24.664 5.389-.621 1.399-4.96-3.659-5.422-3.086-1.295 1.609.323 14.269 1.175 16.48.075.197 2.423 7.533 2.02 7.688-1.596.615-2.462-4.29-3.877-2.739-.899.985 2.091 20.081 2.815 21.962.307.797 2.186 4.015 1.894 4.915-.735 2.265.269 4.482-.249 6.681-.358 1.518-1.833 2.654-2.015 4.539-.049.511 4.327 16.899 5.24 17.266 3.091 1.24 5.493-8.811 5.51-10.118.001-.147-.024-.351-.158-.41-.233-.103 4.459-1.869 4.75-4.888.056-.584 1.027 3.156 1.501 4.385 1.098 2.852 2.564 12.132 5.854 9.951 1.46-.969 2.714-7.169 3.355-8.614.178-.401 2.017-6.487 2.017-6.487s2.269 14.37 2.508 13.832c1.102-2.483 14.567.971 14.567.971l10.013-9.944s10.94 14.713 12.796 11.75c1.696-2.707 6.598-17.924 15.291-10.348 0 0 9.996 14.502 10.632 15.424.006.008.015.012.025.01.01-.001.017-.009.019-.018 5.446-24.079 15.047 1.674 15.224 1.412.829-1.227 5.38-.584 6.569-1.888 2.711-2.972 2.505-7.879 3.054-9.063.65-1.402 8.479 14.727 9.21 13.693.864-1.222 7.583 6.4 7.952 4.831 4.964-21.121 19.77-13.555 21.99-10.678 5.258 6.815 7.265 6.198 11.026 6.56" fill="url(#_Linear64)" stroke="#000" stroke-linecap="round" stroke-miterlimit="1.5" stroke-width=".24"/><linearGradient id="_Linear1" gradientTransform="matrix(9.67996 34.2381 34.2381 -9.67996 79.7625 194.046)" gradientUnits="userSpaceOnUse" x1="0" x2="1" y1="0" y2="0"><stop offset="0" stop-color="#fff"/><stop offset=".54" stop-color="#f1d4d4"/><stop offset="1" stop-color="#bd3b3b"/></linearGradient><linearGradient id="_Linear2" gradientTransform="matrix(-11.834 23.5069 23.5069 11.834 209.175 197.755)" gradientUnits="userSpaceOnUse" x1="0" x2="1" y1="0" y2="0"><stop offset="0" stop-color="#fff"/><stop offset="1" stop-color="#c8372e"/></linearGradient><linearGradient id="_Linear3" gradientTransform="matrix(10.1783 2.72756 2.72756 -10.1783 143.949 343.781)" gradientUnits="userSpaceOnUse" x1="0" x2="1" y1="0" y2="0"><stop offset="0" stop-color="#fff" stop-opacity=".196078"/><stop offset=".47" stop-color="#e2c4c4" stop-opacity=".415686"/><stop offset="1" stop-color="#942626"/></linearGradient><linearGradient id="_Linear4" gradientTransform="matrix(-6.87122 -5.44376 -5.44376 6.87122 96.8194 343.754)" gradientUnits="userSpaceOnUse" x1="0" x2="1" y1="0" y2="0"><stop offset="0" stop-color="#942626"/><stop offset=".45" stop-color="#b36565"/><stop offset="1" stop-color="#fff"/></linearGradient><linearGradient id="_Linear5" gradientTransform="matrix(19.6833 -3.18454 -2.30436 -27.2015 129.721 318.449)" gradientUnits="userSpaceOnUse" x1="0" x2="1" y1="0" y2="0"><stop offset="0" stop-color="#fff"/><stop offset=".42" stop-color="#fff"/><stop offset=".54" stop-color="#fff"/><stop offset=".63" stop-color="#fff"/><stop offset="1" stop-color="#942626"/></linearGradient><linearGradient id="_Linear6" gradientTransform="matrix(-16.3934 -3.90864 -3.90864 16.3934 107.789 302.769)" gradientUnits="userSpaceOnUse" x1="0" x2="1" y1="0" y2="0"><stop offset="0" stop-color="#942626"/><stop offset=".2" stop-color="#be7c7c"/><stop offset=".43" stop-color="#ead5d5"/><stop offset="1" stop-color="#fff"/></linearGradient><linearGradient id="_Linear7" gradientTransform="matrix(81.5567 33.6263 33.6263 -81.5567 88.8474 254.357)" gradientUnits="userSpaceOnUse" x1="0" x2="1" y1="0" y2="0"><stop offset="0" stop-color="#fff"/><stop offset=".47" stop-color="#c85a53"/><stop offset="1" stop-color="#b82a21"/></linearGradient><linearGradient id="_Linear9" gradientTransform="matrix(24.9255 9.38752 9.38752 -24.9255 101.561 246.895)" gradientUnits="userSpaceOnUse" x1="0" x2="1" y1="0" y2="0"><stop offset="0" stop-color="#a6a6a6"/><stop offset="1" stop-color="#942626"/></linearGradient><linearGradient id="_Linear63" gradientTransform="matrix(.292621 168.517 168.517 -.292621 146.489 88.0812)" gradientUnits="userSpaceOnUse" x1="0" x2="1" y1="0" y2="0"><stop offset="0" stop-color="#fff"/><stop offset=".58" stop-color="#eee"/><stop offset=".8" stop-color="#c9c9c9"/><stop offset="1" stop-color="#a6a6a6"/></linearGradient><linearGradient id="_Linear64" gradientTransform="matrix(1.65768 7.45957 7.45957 -1.65768 39.1114 -20.0281)" gradientUnits="userSpaceOnUse" x1="0" x2="1" y1="0" y2="0"><stop offset="0" stop-color="#fff"/><stop offset="1" stop-color="#0a0a0a"/></linearGradient><clipPath id="_clip8"><path clip-rule="evenodd" d="m181.064 290.166s1.502 28.667-.827 30.243c-2.529 1.712-17.545-3.098-18.099-4.27-1.18-2.497-23.69 1.515-27.123 1.407-4.019-.125-19.802 1.396-23.571-1.313-4.243-3.051-16.506.149-16.506.149s4.481-24.368 8.432-32.277c2.348-4.7 6.934-15.342 8.815-20.248 2.144-5.593 10.173-22.83 10.88-25.093.734-2.348 3.155-24.58 3.082-30.816-.056-4.732-1.761-14.088-1.761-14.088v-5.282c14.894-10.34 29.574-11.32 44.023-2.201 0 0-.509 20.131-.07 26.811.295 4.504 3.859 19.13 4.472 22.054 1.533 7.311 7.122 25.448 7.428 35.077.248 7.788.825 19.847.825 19.847z"/></clipPath></svg>