<svg height="297mm" viewBox="0 0 210 297" width="210mm" xmlns="http://www.w3.org/2000/svg"><g stroke-width="1.00750244" transform="matrix(.98744428 0 0 .99768908 12.151556 1.2234662)"><path d="m86.434555 66.807993c-12.082735 4.684702-25.368269-.292245-37.819444 2.904076-10.220709.393082-18.002154 8.439254-25.084785 14.843553-5.60646 11.881272-5.468575 25.807888-6.991257 38.726588.192286 26.80525-4.848401 53.27505-7.1875666 79.91618-1.366056 9.27175-1.3840097 18.83822-3.0182584 27.97713-4.869357 10.25293-9.9227367 20.5939-10.7385345 32.07294-1.8811938 11.11495-3.7623875 22.2299-5.6435925 33.34485 52.036265.0773 104.084991.4731 156.113973-.3769 13.18775-.35483 26.44042-.85826 39.58681-1.041 6.19213-8.47714-.0741-22.67516-.0534-33.18892-7.62653-23.77512-10.76212-48.68471-18.17541-72.51172-.96674-12.92647 4.01899-26.51945-4.20343-38.19576-2.94697-9.45403 3.76428-19.54897-.7728-28.95308-3.7803-12.06813-4.37481-26.113115-16.42794-33.413557-10.68606-6.721146-17.73548-22.734786-31.99809-21.307506-9.20312.13497-18.395475-.424291-27.586286-.796874zm.09814 2.79191c11.64776 2.022811 24.723065-.257636 35.603925 1.946981 10.20771 9.08134 20.41541 18.162673 30.62311 27.244028 2.41943 11.589548 9.84145 22.879218 8.73764 34.739808-3.26723 9.72494-4.26436 19.44816 3.28373 27.64567 4.22824 9.12888-2.54215 19.54136-.44121 29.16714 5.24991 17.7342 7.84083 36.12539 12.35109 53.99003 3.46748 10.02282 9.05982 19.88369 7.81738 30.78273v18.14003c-38.21014 1.37741-76.42832 1.77879-114.661104 1.54743-24.861956.0171-49.723914.034-74.585869.0509 1.9683767-15.28271 2.1778741-30.96273 5.29770535-45.99037 4.14281465-9.07237 11.19584665-17.5553 9.79878465-28.07825 2.513553-32.04262 10.958847-63.76359 8.929077-96.09157-.63535-12.62587 3.593643-24.765866 5.616679-37.103335 8.724368-4.542289 15.179307-14.409948 25.144606-15.447635 12.140723-1.836343 24.674898 1.344595 36.48446-2.543621z" fill-rule="evenodd" opacity=".98000004"/><path d="m99.122619 295.77309-104.7944152.0719 4.5225738-45.35964 10.3646386-20.42392.7231152-17.16793 6.2669886-42.91983 2.651419-28.11989-.482076-26.0479 5.784916-28.711877 13.257096-9.471959 13.980208 4.143982 19.524088-5.327977 14.462288-1.775994 18.077841 5.919973 16.63164-2.959984 9.15945 23.383906-2.89246 14.20793 4.82077 24.27192-9.15945 24.5679 5.30283 13.31994-1.44623 26.93589 3.85661 20.12792 2.89245 30.48788-6.74906 19.83192-1.44623 13.02396 2.65141 7.99196z" fill="#494949" fill-rule="evenodd"/><path d="m35.610575 79.045009 9.164286-7.251965 15.323887-1.331996 18.629041.148001 7.812176-2.811989 19.229965 2.219993 15.47412-.591999 32.47168 28.887776 9.77332 30.97681-4.24926 19.67445 8.49852 15.48842-2.97448 23.4419 7.64867 23.0233 4.24927 30.13961 8.92345 24.27911v28.88378l-60.28484 1.64393-17.62877-12.19271 6.97551-21.5333-1.78155-5.64-2.07492-6.56875-6.4431-1.06122-11.983565 10.27462 3.222427-10.5768 7.903478-4.07501 3.70418-5.94767-4.6428-14.69812-2.3468-7.42949-6.191543-2.56909-11.188179 10.59642 2.50663-10.10625 7.752959-5.6156 2.506842-6.91022-1.973706-29.89752-12.714163-3.13913-2.912063-9.73682 9.444922-23.53664-3.478858-18.08282 4.049768-17.12616-12.372922 8.65172-10.019374-2.0317-11.108428-24.328545z" fill="#737373" fill-rule="evenodd"/><path d="m138.71203 295.90698h42.91757l.84985-24.27914-3.49772-14.95295-.0497-4.71355-2.58503-5.36966-1.51623-5.94064-6.1229-11.62631-12.57386-21.02493-26.77037-5.44187-6.3739 26.79076z" fill="#515151" fill-rule="evenodd"/><path d="m182.05452 295.69767 18.803-11.80383-1.68147-38.58299-12.41168-8.01675-6.30984-15.68793-24.18771-13.76395c1.69201 3.64953 3.51584 5.98887 3.51584 11.30636 0 4.78116-.41461 4.32954 6.57275 8.2177 2.51928 1.40187 2.89785 5.26555 2.75913 6.29652 2.37101 1.04407 1.5494.40796 1.97754 1.85567.42813 2.61198.55066 2.26612 2.00968 2.93777.78768 4.36936-.12039 1.28361 1.61308 6.02331 1.69363 7.72227 7.19535 24.04156 7.03948 40.59617-.0319 3.39167.64072 6.89083.3002 10.62195z" fill="#737373" fill-rule="evenodd"/><path d="m173.16855 238.60481-2.32901 1.79728-1.20188 2.36799-2.44698 1.75726-2.21028 3.57072-4.20656 1.03599 4.95774-.59199 2.55398-3.84799 1.94315-1.33122 1.44089-2.35081 1.78458-.95674z" fill="#3f3f3f" fill-rule="evenodd"/><path d="m173.14436 238.59725 1.92545-1.12501-1.64659 2.59013" fill="#515151" fill-opacity=".96078431" fill-rule="evenodd"/><path d="m180.77377 271.13047-2.21595-.518-1.46478-1.073-2.02816.37-1.80282 1.29499-2.06572.888 2.32864-.59199 1.76524-1.295 1.80282-.333 1.12675.962 2.70422 1.07299z" fill="#343434" fill-rule="evenodd"/><path d="m180.75592 271.04963.571-.70639-.46477 1.6875" fill="#3a3a3a" fill-opacity=".80392157" fill-rule="evenodd"/><path d="m186.83479 237.30248-1.98803 1.81881-1.09278 5.29732-1.44599-2.97546-5.37034 4.91273-.002-.01c-.0625.065-.12638.12314-.18938.18485l-.32186.29475c.0009.001.001.003.002.004-1.92657 1.70811-4.07802 2.09544-6.54677 3.42014-4.49982 2.41457-9.85989 5.31625-15.42318 5.75288l-8.55571.97465 9.14597 3.49798 12.96922-4.93505 10.94633.98037c.02.10987.0254.22645.0117.35082l8.33902-4.7994-3.7977-2.25778 6.34634.79094 9.29643-5.34997z" fill="#434343" fill-rule="evenodd"/><path d="m134.67498 279.37199 3.93073 16.53525 42.90056-.20831v.31418l19.30511-12.39512-4.95786 1.33177-4.35658 1.25795-3.83139.37026c-.64149.44022-1.21891 1.91354-1.92412 3.11682-.90226-.88884-1.38852-1.88166-2.08272-1.86516l-2.13211.66616-.003-.1236-1.9921.15222-1.14041 1.58703-2.26281-1.32606-3.95108 2.22516-.40086-1.89208-6.74894.5174-7.40657-8.03241-7.96024 2.14558z" fill="#434343" fill-rule="evenodd"/><path d="m171.11343 216.00973-12.29026-3.26246-1.74245 4.33925-4.87727 2.11099-4.88666 5.86047-7.11752-.73256h-10.30446l-6.6926 5.44187-.21246-.20929 6.26766-27.10471 27.32406 5.49445z" fill="#737373" fill-rule="evenodd"/><path d="m147.31679 225.05798 2.23086 3.13955.3187 3.24419-1.06231 5.96513 1.80592-5.44188-.53114-4.5-2.60071-3.23182z" fill="#3f3f3f" fill-rule="evenodd"/><path d="m179.9287 221.32867-.95774.962-1.0892-.0185-.84507.24051.90141-.074.9953.11101-.13145.36999-.46949.407-1.446-.037 1.07042.222.61972.0185-.26291 1.11.69483.64749-.48826-.72149.30047-.9805.4507-.81399.9953-1.29501z" fill="#555" fill-rule="evenodd" opacity=".98000004"/><path d="m167.20866 244.47082-.8233-.44477h-1.32789l-1.1951.28779-2.62924.57557 2.89481-.26162 1.06232-.23546h1.11543l.61083.70639z" fill="#3f3f3f" fill-rule="evenodd" opacity=".98000004"/><path d="m169.86445 243.52895-.0265.99418-.47804.78489.77018-.88953.0797-1.09885z" fill="#3f3f3f" fill-rule="evenodd" opacity=".98000004"/><path d="m170.92676 240.41558-.90297.10466-.90296-.52326-1.8325.9157-.39836.54941.61083-.36628 1.64659-.73255.79673.49709.74362-.0523z" fill="#3f3f3f" fill-rule="evenodd" opacity=".98000004"/><path d="m150.03209 227.52614 1.78404.4625 1.29577-.1295.71361 1.295-.18779 1.16549-.0939-1.12849-.69484-.8695-.88263.148-1.91548-.35151z" fill="#3f3f3f" fill-rule="evenodd" opacity=".98000004"/><path d="m149.86635 230.81381-1.99185.34011-1.06231 1.20349-.13279 1.22966.47804-1.09884 1.0092-.99418 1.77938-.2878z" fill="#3f3f3f" fill-rule="evenodd" opacity=".98000004"/><path d="m177.05548 269.61347-.37559.86949-.93897.57351-.26291.0555.43193.0555.93896-.48101.56338-.7585z" fill="#343434" fill-rule="evenodd" opacity=".98000004"/><path d="m175.10244 270.16847-.76996-.296-.82628.0925-.80752-.037-.69483.31451.73239-.2035.97652.0925.6385-.0555.4507.259z" fill="#343434" fill-rule="evenodd" opacity=".98000004"/><path d="m140.02333 298.11773-15.32388-66.89574" fill="none"/><g fill-rule="evenodd"><path d="m131.07683 199.51089c-.40247.003-.74922.29998-.83532.71475-1.93021 9.28621-4.86033 18.37895-6.66812 27.74141-.0246.12918-.16646 1.62938-.1375 1.75757 4.98074 22.31263 9.22602 39.48373 14.15047 61.81877.0724.32768 1.73552 4.55994 2.04379 4.64614 9.43665 2.64475 17.71048.64142 26.75522 1.69711.058.006 2.355-.0295 2.41306-.0356 2.62686-.25983 4.60996-.47648 7.5735-.40955 2.96353.067 4.28752 1.2705 6.92657-.92246l2.37371-1.08363c5.08081-3.3921 6.03099-4.47001 11.10123-7.86339.26003-.17488 4.73062-3.29272 4.71662-3.61771-.54771-13.21478-1.98949-26.43255-2.56224-39.65124-.0122-.28334-.14928-.5444-.37033-.70587-2.73398-1.99962-5.887-3.72396-8.49635-5.82905-2.60934-2.10509-4.6482-4.52875-5.35913-7.97775-.001-.007-.003-.0134-.005-.02-1.3941-6.0697-4.80377-12.50416-10.92658-14.69026l.17463.0844c-8.54431-5.51651-17.57204-11.80267-28.18651-12.46385l.11153.0156c-4.86795-.98243-9.71699-2.17091-14.62138-3.18755-.0568-.0121-.11461-.0179-.17255-.0177zm1.95637 3.65287c4.59164.97004 4.2122.34768 8.84879 1.28341 4.49123 1.0064 3.8915.9258 3.92896.92842 10.02561.62449 14.53448 4.62165 23.11142 10.15924.055.0357 4.74535 2.69585 4.80645 2.71773 5.32323 1.9006 6.5103 5.1254 7.81794 10.8187l.75917 1.32027c.82198 3.98775 3.26885 7.00905 6.04549 9.24913 2.6626 2.14805 6.33338 3.39627 8.87189 5.20856.55675 12.88341.0476 25.77195.58085 38.66125-4.93467 3.30524-8.84091 6.63794-13.77356 9.93112-.0247.0172-.0486.0357-.0715.0555-2.21459 1.84023-4.75179 2.18976-7.55162 2.12651-2.76113-.0623-5.71279-.55085-8.60787-.28634-9.29642-1.07137-18.53716.67097-27.23967-1.58194-4.86198-22.06147-9.61718-43.40137-14.53932-65.45649 1.73393-8.95262 3.69311-15.71635 5.57288-24.67932z"/><path d="m124.69945 231.222-17.73571 8.55421-6.46451-20.1141-24.08826 29.79101-10.302857 1.00881-20.732316 7.10396-8.413115-1.47999-16.225293 7.84397s-6.610305-4.29199-7.21124-4.14398c-.600938.14799-10.2159268 5.91997-10.2159268 5.91997l1.6525768-23.8279-5.85913374 10.80395-4.50702586 45.43582 145.5769306-.44399z" fill="#434343"/><path d="m159.17756 149.21675-3.18695 3.24419-6.16144-.20929-5.73651-3.6628-6.58635-.73256 6.16144 1.2558 2.86824 2.30235-3.93056-.94187-5.09912 1.56977 5.09912-.73256 6.16143 1.98838 8.28607.83721 3.39941-3.13954z" fill="#434343"/><path d="m155.72503 185.00772 1.82304 1.84056-3.28937.43839-2.35809-1.23276 1.93167 1.35237-3.79072 1.36897-8.39247-.6284 7.71972 1.07252-.97368 1.70091 1.33968-1.64998.20043.028 4.35541-1.56985 3.93074-.41893 7.22358 2.40715-.3323-1.00441-6.83609-1.96075-.1615.0217z" fill="#434343"/><path d="m65.48127 107.25155-2.549558 4.18605-2.974485 8.37211-9.773307 4.60466-3.611877 6.907-2.12463 10.04653 3.824337-9.00002 3.611877-6.27909 10.623159-4.39536 1.699708-7.32559 4.674187-6.48838z" fill="#3b3b3b"/><path d="m60.275922 122.6353 2.018402 3.6628-2.124632 3.8721 6.480125 7.84886-4.461728-7.63956 2.230864-4.0814-2.443323-4.81396z" fill="#3b3b3b"/><path d="m81.131533 169.76866-8.713581 8.58395-4.807494 12.43195 6.309835-11.24795 11.718267-10.06395z" fill="#3b3b3b"/><path d="m75.89197 177.99588 2.018402 3.97676-1.593476 3.24419 2.655793-3.55815-2.549559-4.81396z" fill="#3b3b3b"/><path d="m72.386326 179.461h-3.399411l-4.674192 1.36047 4.992888-2.40698 3.718107-.10466z" fill="#3b3b3b"/><path d="m87.580923 100.46903c-3.622474 7.47026-36.770322 20.58939 26.101177 4.20145l15.02966-1.85398 24.23171-4.975561" fill="#494949"/><path d="m93.101492 171.82145.531158 4.70932 6.37826-1.65827 15.39922 1.97222 17.63445 1.77907" fill="#494949"/><path d="m54.145602 82.504127 2.039564 4.485319 5.080285-3.164281 7.940371-.258566 5.74829-2.477902" fill="#494949"/><path d="m58.735087 245.78442c-2.357276.16029-4.356647 1.31441-6.339639 2.45181-3.167072 1.73226-6.334154 3.46454-9.501236 5.19681-1.263831 1.80646-2.508955 3.68267-2.823983 5.89633-1.496498 6.00656-2.992986 12.01312-4.489473 18.01968.641578 2.80614 2.742736 4.95473 4.163766 7.40164 2.810987 4.28577 5.621962 8.57156 8.432949 12.85733 1.047656.88487 2.625268.3127 3.925715.47588h40.7728c1.44999-.30547.911109-2.14126 1.230105-3.2244 1.121235-9.54085 2.322954-19.07336 3.115795-28.64787.182775-1.70804.439276-3.72178-1.024778-4.95505-3.521794-4.28371-7.043577-8.56742-10.565359-12.85113-1.099201-1.13847-2.592833-1.41276-4.108848-1.39065-6.039103-.35775-12.07517-.90656-18.116218-1.14158-1.558049.0316-3.114333-.0731-4.671596-.0888zm.741588 2.23265c7.967581.6916 15.935162 1.3832 23.902743 2.0748 3.843263 4.54316 7.686526 9.08634 11.529789 13.6295-.30365 4.99607-.280559 10.01791-.825736 14.99493-.685759 5.82857-1.371508 11.65715-2.057268 17.48572-14.154415 0-28.308843 0-42.463259 0-3.547574-6.14023-7.095147-12.28046-10.642719-18.4207 1.934437-6.67091 3.868884-13.34181 5.803321-20.01272 4.917711-3.25051 9.83542-6.50102 14.753129-9.75153z"/><path d="m92.831849 297.11964h-43.868383l-11.117327-19.23995 6.009367-20.7199 15.323884-10.35996 24.638408 2.36799 12.018729 14.20795-.600938 13.31993z" fill="#434343"/><path d="m48.868358 297.0955c18.396134-1.04429 26.102256.97853 43.511478-.041.581354-.11653.620342-1.01288.656508-1.7629-7.960907-19.47568.361851-1.55214-6.244517-13.42541-1.802958-.10599-.657087-5.10648-2.476562-6.42452-1.819474-1.31804-7.488474 3.31451-10.218323 2.99824-3.606183-.41782-6.403579-4.96108-10.075997-5.41541-.903917-.11183-.21581 4.70989-2.039836 6.50546-4.603359 1.42555-6.466404.86752-8.180653 2.4828.691946-4.68346 1.742326-10.03163.150304-10.22068-1.130811-.13429-1.404223 4.08613-3.795146 6.06197-.605961.50077-2.079007-2.39472-3.18456-2.35766-1.309396.0439-2.239425 2.9646-2.53823 2.93056-1.18074-.13455 2.255018-7.47299 1.23432-7.58288-2.478781-.26687-4.437804-.45366-5.64466-.52456l-2.155199 7.47321z" fill="#3f3f3f"/><path d="m59.329626 246.99118c-.837359 9.17858-4.170076 3.92097-4.507026 9.76792l1.201873 4.36598c2.178394 1.35666 4.356795 2.71332 6.535189 4.06999 2.690464.21204.272711 1.3917 5.340485.27661 5.030384-1.10685.829231.0518 9.374914-2.28503-15.680201 12.01973 2.092247 2.14043 3.719932 2.74299 2.051046.5287 4.110525 1.50711 6.270414 1.20514 1.400068-.13761 2.036183-1.97582 3.071315-3.05811.242583-1.1329-.310171-3.75278-.58892-4.83641-3.003271-4.67504-3.152089-5.57609-6.155356-10.25112-8.087607-.66597-16.175206-1.33205-24.262819-1.99795z" fill="#737373"/><path d="m94.362805 263.77552-3.755856 3.99599-.826286 3.69999 1.502344-3.404.676058 1.18399-.375589 1.11 1.051636-1.554.600938.814-.676058-1.84998-.450698.51798v-.96199l3.981205-3.69998z" fill="#3f3f3f"/><path d="m52.981974 253.86482-2.178392 3.40397-6.234728 2.29399-2.028151 3.55198 2.553969-3.03397 3.380278-1.25801.450698 3.62599-2.103272 1.33201-3.530507 1.48 3.605616-.66601 2.478872-1.702 2.178392 3.32998-1.502345-4.06995-.375577-3.18202 2.47886-.88797 2.6291-4.144z" fill="#3f3f3f"/><path d="m82.953951 249.02907-2.83567 1.84999-3.164308.9435-4.647872.5365 4.657262.14799.300467 1.628.122065-1.93324 2.591541-.83249.0094 1.12849.328636-1.2025 3.305153-2.25699z" fill="#3f3f3f"/><path d="m162.44816 298.11773c-1.97816-14.7553-6.20834-12.8565-11.25403-27.6118 4.30215 11.36788 11.71821 11.14782 14.2758 21.72218.39709-9.49401-2.89037-7.46258-2.5488-18.02432 1.99419 10.73112 3.99092 7.49933 7.48669 18.23045 4.22103-6.77304 2.58946-5.01758 2.03881-14.17384 4.08069 10.58465 1.49343 6.42322 3.36527 14.17384 6.30808-9.38945 1.50157-1.85245 11.48024-19.37598 0 0-5.33292 10.43944-5.33421 21.04858-.00026 2.08688 3.13473 4.01088 3.13473 4.01088z" fill="#6ed137"/><path d="m-11.376685 298.02149c.99808-8.62801 7.4651474-18.80569 6.5156265-28.82907 1.2984784 7.76947 2.6218524 12.38926-2.1727397 23.27726 5.7890704-8.24159 6.1483897-7.07404 6.84830454-25.5181 1.50000626 10.27887 2.59649126 15.51173 3.08886366 25.59843 4.6593997-6.23786 5.7988567-10.77334 6.397826-18.05469.3632114 10.58965.1845815 18.73076 1.593907 18.13728 4.341343-10.96039 2.191902-10.11235 3.906501-21.14675.512317 12.14333 2.719815 14.11672 7.815503 23.8412 6.18689-8.09305.01341-11.47925.273944-19.74922.610897 7.35551 6.137856 10.183 8.712927 17.05477 1.541655-10.20383.353796-6.85479 2.15833-19.69747-1.086229 13.08241 4.907789 11.93054 7.609996 25.1826z" fill="#6ed137"/><path d="m84.301765 297.5318c-3.009704-14.8439-5.165241-4.25646-9.905244-19.10036 5.03385 13.4116 6.869559 1.39184 12.602493 14.80344-.720026-14.71921-3.166294-5.08185-5.080045-20.28513 2.970873 14.71369 6.855937 6.61953 10.971126 21.33322 3.074042-16.22409-4.829076-5.09262-4.797025-24.16338 1.779542 17.58303 5.490058 5.71521 9.178799 22.81435 3.864941-5.88539-.34383-5.63946 2.678779-19.15372.09173 10.16828 1.909342 8.00218 2.172152 18.67341 9.35476-10.13652 1.77427-11.74582 6.59838-22.9192-.48002 9.77345 1.48799 19.28339 1.97497 28.5833z" fill="#6ed137"/></g></g></svg>