<svg viewBox="-20 -20 152 142" version="1.1" xmlns="http://www.w3.org/2000/svg" xmlns:xlink="http://www.w3.org/1999/xlink">

        <path
            id="sunRay1" style="fill:url(#_Linear1)"
            d="M5.544,25.599c3.433,1.771 7.372,1.453 18.545,0.356c0.13,-10.841 -0.076,-5.597 -0.734,-15.569c12.088,3.014 10.032,3.981 17.348,4.027c3.572,-6.799 8.604,-19.935 11.992,-18.812c0.432,3.878 8.235,13.08 14.248,18.715c10.138,-3.919 14.106,-3.179 20.354,-6.906c0.993,7.37 4.364,13.13 0.933,18.989c0,0 9.219,5.717 19.799,7.146c-2.329,4.523 -6.723,14.374 -11.098,19.99c11.96,2.692 5.741,13.85 19.092,17.417c-10.149,5.441 -9.502,3.655 -24.524,4.915c0,0 -5.857,12.707 -3.358,21.069c-10.111,-2.306 -18.222,-4.053 -21.879,-9.029c-8.207,4.164 -16.184,8.437 -23.543,15.558l-7.019,-16.054c-13.836,-7.744 -18.145,0.024 -25.411,2.218c1.038,-6.596 5.559,-19.065 8.751,-23.016c-9.978,-6.216 -13.733,-10.63 -23.842,-12.668l19.842,-7.074c-3.304,-12.193 -5.573,-15.394 -9.496,-21.272Z"
            />
        <path
            id="sunRay2" style="visibility:hidden"
            d="M-11.309,15.762c2.723,-1.373 25.303,6.998 37.97,12.52c-1.175,-11.189 -11.348,-22.497 -13.852,-33.968c8.33,2.696 21.725,15.61 28.75,19.782c3.572,-6.798 9.302,-25.97 11.524,-30.096c2.182,2.809 8.147,23.373 14.159,29.008c11.265,-6.702 24.268,-14.681 29.641,-19.866c-0.777,8.077 -7.895,32.365 -7.895,32.365c0,0 25.939,1.986 37.454,1.247c-2.329,4.523 -23.999,19.86 -28.374,25.476c10.812,8.914 24.512,19.21 35.415,26.416c-13.681,0.342 -26.231,-2.991 -42.306,-4.316c0,0 -0.457,25.385 1.917,33.328c-9.933,-9.777 -26.812,-19.923 -26.812,-19.923c0,0 -22.115,19.642 -29.474,26.764l-1.462,-28.088c-20.061,3.285 -33.199,5.87 -40.466,8.064c4.952,-6.596 20.725,-25.103 23.917,-29.054c-9.978,-6.216 -29.306,-10.343 -39.415,-12.38l35.231,-7.582c-1.23,-6.487 -21.999,-23.819 -25.922,-29.697Z"

            />
            <g>
                <path
                    id="sunFace"
                    d="M64.387,16.089c20.74,4.598 31.613,16.39 31.613,36.181c0,19.791 -16.794,31.719 -37.536,35.644c-24.495,4.635 -42.316,-12.723 -38.182,-35.859c0.854,-4.777 2.774,-9.944 5.979,-14.206c6.587,-8.758 11.492,-18.229 19.672,-23.01c3.781,-2.21 13.485,0.148 18.454,1.25Z"
                    style="fill:url(#_Linear2);"/><path
                    d="M60.013,25.902l0.013,0.015l0.322,0.908l-0.438,0.775l-0.009,0.005l-0.092,0.064l-0.096,0.065l-0.095,0.064l-0.095,0.062l-0.096,0.062l-0.095,0.061l-0.095,0.059l-0.095,0.058l-0.094,0.058l-0.095,0.056l-0.095,0.055l-0.095,0.054l-0.095,0.052l-0.095,0.052l-0.095,0.051l-0.095,0.05l-0.095,0.048l-0.096,0.048l-0.095,0.046l-0.096,0.046l-0.096,0.045l-0.096,0.043l-0.096,0.043l-0.097,0.041l-0.097,0.041l-0.097,0.04l-0.097,0.039l-0.098,0.038l-0.098,0.037l-0.098,0.036l-0.099,0.036l-0.099,0.034l-0.1,0.034l-0.1,0.033l-0.1,0.032l-0.101,0.031l-0.101,0.031l-0.102,0.03l-0.103,0.029l-0.104,0.029l-0.207,0.054l-0.211,0.053l-0.214,0.05l-0.216,0.047l-0.22,0.046l-0.224,0.044l-0.228,0.042l-0.232,0.04l-0.236,0.039l-0.24,0.038l-0.246,0.036l-0.249,0.035l-0.519,-0.277l0.313,-0.497l0.232,-0.093l0.224,-0.091l0.218,-0.091l0.212,-0.091l0.207,-0.09l0.201,-0.09l0.195,-0.091l0.191,-0.091l0.185,-0.091l0.181,-0.092l0.176,-0.092l0.172,-0.094l0.083,-0.046l0.083,-0.048l0.082,-0.047l0.081,-0.048l0.08,-0.048l0.079,-0.049l0.078,-0.048l0.077,-0.05l0.076,-0.049l0.076,-0.05l0.075,-0.051l0.074,-0.051l0.073,-0.051l0.072,-0.052l0.072,-0.052l0.071,-0.053l0.071,-0.054l0.07,-0.054l0.069,-0.055l0.069,-0.055l0.068,-0.056l0.068,-0.057l0.068,-0.058l0.067,-0.058l0.067,-0.059l0.067,-0.06l0.066,-0.06l0.066,-0.062l0.066,-0.062l0.065,-0.064l0.066,-0.064l0.065,-0.065l0.066,-0.066l0.065,-0.068l0.065,-0.068l0.065,-0.069l0.066,-0.071l0.065,-0.072l0.065,-0.073l0.069,-0.077l0.007,-0.007l0.825,-0.331l0.858,0.449Z"/><path
                    d="M51.772,24.647l0.43,0.768l0,0.01l0.002,0.08l0.003,0.088l0.001,0.088l0,0.086l-0.001,0.086l-0.003,0.084l-0.004,0.084l-0.005,0.083l-0.006,0.082l-0.008,0.081l-0.008,0.08l-0.01,0.079l-0.01,0.079l-0.012,0.077l-0.013,0.077l-0.013,0.075l-0.015,0.075l-0.015,0.074l-0.017,0.073l-0.017,0.075l-0.036,0.139l-0.04,0.138l-0.041,0.136l-0.045,0.132l-0.046,0.129l-0.048,0.127l-0.05,0.124l-0.051,0.122l-0.053,0.12l-0.053,0.118l-0.055,0.116l-0.055,0.116l-0.11,0.225l-0.112,0.224l-0.112,0.222l-0.055,0.111l-0.055,0.112l-0.054,0.112l-0.054,0.115l-0.49,0.32l-0.289,-0.508l0.005,-0.131l0.007,-0.131l0.008,-0.13l0.008,-0.129l0.017,-0.253l0.017,-0.247l0.014,-0.243l0.006,-0.118l0.004,-0.117l0.004,-0.116l0.001,-0.114l0,-0.113l-0.002,-0.111l-0.004,-0.109l-0.007,-0.108l-0.008,-0.106l-0.012,-0.105l-0.013,-0.103l-0.016,-0.105l-0.019,-0.098l-0.011,-0.05l-0.011,-0.05l-0.012,-0.049l-0.012,-0.049l-0.014,-0.049l-0.014,-0.049l-0.015,-0.048l-0.016,-0.049l-0.016,-0.048l-0.017,-0.049l-0.018,-0.048l-0.019,-0.048l-0.02,-0.048l-0.021,-0.048l-0.022,-0.049l-0.022,-0.048l-0.024,-0.049l-0.03,-0.066l0.067,-0.871l0.863,-0.537l0.019,-0.005l0.98,0.16Z"/><path
                    d="M46.387,24.535l0.4,0.79l0,0.01l0,0.108l0.001,0.101l0.001,0.101l0.002,0.099l0.004,0.099l0.004,0.098l0.005,0.096l0.006,0.096l0.007,0.096l0.008,0.094l0.009,0.093l0.009,0.093l0.011,0.092l0.011,0.091l0.013,0.09l0.013,0.089l0.015,0.088l0.015,0.088l0.016,0.087l0.017,0.086l0.018,0.085l0.019,0.084l0.02,0.084l0.021,0.082l0.022,0.082l0.023,0.081l0.023,0.081l0.025,0.079l0.025,0.079l0.027,0.078l0.027,0.077l0.029,0.077l0.029,0.076l0.03,0.075l0.032,0.074l0.032,0.074l0.033,0.072l0.034,0.073l0.035,0.071l0.037,0.071l0.037,0.07l0.038,0.069l0.04,0.069l0.04,0.068l0.041,0.067l0.043,0.066l0.043,0.066l0.045,0.066l0.045,0.064l0.047,0.064l0.048,0.063l0.049,0.063l0.05,0.062l0.051,0.061l0.052,0.06l0.054,0.06l0.054,0.059l0.056,0.059l0.057,0.058l0.058,0.057l0.059,0.056l0.061,0.056l0.062,0.055l0.065,0.056l0.131,0.56l-0.564,0.114l-0.084,-0.039l-0.085,-0.043l-0.085,-0.044l-0.084,-0.046l-0.084,-0.047l-0.082,-0.048l-0.082,-0.05l-0.082,-0.051l-0.08,-0.052l-0.08,-0.054l-0.079,-0.055l-0.078,-0.056l-0.077,-0.058l-0.077,-0.059l-0.076,-0.061l-0.075,-0.062l-0.074,-0.063l-0.074,-0.064l-0.072,-0.066l-0.072,-0.068l-0.071,-0.068l-0.07,-0.07l-0.069,-0.071l-0.069,-0.073l-0.067,-0.074l-0.067,-0.075l-0.065,-0.077l-0.065,-0.077l-0.064,-0.08l-0.063,-0.08l-0.062,-0.082l-0.062,-0.082l-0.06,-0.085l-0.059,-0.085l-0.059,-0.087l-0.058,-0.088l-0.056,-0.089l-0.056,-0.09l-0.055,-0.092l-0.054,-0.092l-0.053,-0.094l-0.052,-0.096l-0.051,-0.096l-0.05,-0.097l-0.05,-0.099l-0.048,-0.1l-0.047,-0.101l-0.047,-0.102l-0.045,-0.104l-0.045,-0.104l-0.044,-0.106l-0.043,-0.106l-0.042,-0.108l-0.041,-0.109l-0.04,-0.11l-0.039,-0.111l-0.038,-0.113l-0.038,-0.113l-0.036,-0.115l-0.036,-0.115l-0.034,-0.117l-0.034,-0.118l-0.033,-0.119l-0.034,-0.124l0.171,-0.871l0.843,-0.477l0.02,-0.002l0.949,0.222Z"/><path
                    d="M44.059,28.67l0.58,0.802l0.005,0.019l-0.091,1.027l-0.753,0.435l-0.01,0.001l-0.051,0l-0.038,-0.002l-0.037,-0.002l-0.038,-0.001l-0.037,0.001l-0.036,0l-0.036,0.002l-0.036,0.003l-0.036,0.003l-0.036,0.004l-0.035,0.005l-0.035,0.006l-0.035,0.007l-0.035,0.007l-0.036,0.009l-0.035,0.009l-0.035,0.01l-0.035,0.012l-0.035,0.012l-0.035,0.013l-0.036,0.015l-0.035,0.015l-0.036,0.017l-0.035,0.018l-0.036,0.018l-0.035,0.02l-0.036,0.021l-0.036,0.022l-0.036,0.024l-0.036,0.024l-0.036,0.026l-0.036,0.027l-0.036,0.028l-0.036,0.029l-0.036,0.03l-0.036,0.032l-0.035,0.033l-0.036,0.034l-0.036,0.035l-0.036,0.036l-0.035,0.037l-0.036,0.038l-0.035,0.04l-0.036,0.04l-0.035,0.042l-0.034,0.041l-0.07,0.09l-0.069,0.093l-0.068,0.096l-0.068,0.1l-0.066,0.104l-0.066,0.107l-0.065,0.11l-0.064,0.114l-0.064,0.119l-0.505,0.299l-0.265,-0.524l0.012,-0.141l0.015,-0.143l0.017,-0.142l0.02,-0.141l0.022,-0.141l0.026,-0.139l0.028,-0.139l0.032,-0.139l0.034,-0.135l0.02,-0.07l0.02,-0.068l0.02,-0.068l0.022,-0.068l0.023,-0.067l0.024,-0.067l0.025,-0.067l0.026,-0.066l0.027,-0.067l0.028,-0.065l0.03,-0.066l0.03,-0.065l0.032,-0.065l0.034,-0.065l0.034,-0.064l0.036,-0.064l0.037,-0.063l0.039,-0.063l0.04,-0.063l0.042,-0.061l0.043,-0.062l0.045,-0.061l0.046,-0.06l0.047,-0.059l0.049,-0.059l0.051,-0.058l0.053,-0.057l0.054,-0.057l0.055,-0.055l0.057,-0.055l0.059,-0.054l0.061,-0.052l0.062,-0.052l0.063,-0.051l0.065,-0.049l0.067,-0.049l0.068,-0.047l0.07,-0.046l0.071,-0.045l0.073,-0.043l0.074,-0.042l0.076,-0.041l0.077,-0.039l0.079,-0.038l0.08,-0.036l0.068,-0.032l0.01,-0.004l0.88,0.043Z"/><path
                    d="M39.324,25.285l0.018,0.009l0.667,0.713l-0.108,0.878l-0.006,0.009l-0.038,0.056l-0.034,0.05l-0.033,0.051l-0.033,0.052l-0.033,0.053l-0.032,0.053l-0.032,0.055l-0.032,0.055l-0.03,0.056l-0.031,0.058l-0.03,0.058l-0.029,0.06l-0.029,0.06l-0.029,0.062l-0.028,0.062l-0.027,0.064l-0.027,0.065l-0.027,0.065l-0.026,0.067l-0.025,0.069l-0.024,0.069l-0.025,0.07l-0.023,0.072l-0.023,0.073l-0.022,0.074l-0.022,0.075l-0.021,0.077l-0.02,0.078l-0.019,0.079l-0.019,0.08l-0.019,0.082l-0.017,0.083l-0.017,0.084l-0.016,0.086l-0.015,0.087l-0.014,0.088l-0.014,0.089l-0.013,0.091l-0.012,0.093l-0.011,0.093l-0.01,0.095l-0.01,0.097l-0.009,0.097l-0.007,0.1l-0.007,0.1l-0.006,0.102l-0.006,0.104l-0.004,0.104l-0.003,0.107l-0.002,0.107l-0.002,0.109l0,0.111l0,0.112l0.002,0.113l0.002,0.115l0.004,0.117l0.004,0.117l0.006,0.12l0.006,0.121l0.008,0.122l0.009,0.124l0.009,0.125l0.011,0.126l0.012,0.13l-0.298,0.496l-0.483,-0.318l-0.046,-0.125l-0.045,-0.126l-0.043,-0.125l-0.042,-0.123l-0.04,-0.123l-0.04,-0.123l-0.038,-0.121l-0.037,-0.121l-0.035,-0.119l-0.034,-0.12l-0.033,-0.118l-0.031,-0.117l-0.031,-0.117l-0.029,-0.116l-0.027,-0.115l-0.027,-0.115l-0.025,-0.114l-0.024,-0.113l-0.022,-0.112l-0.022,-0.112l-0.02,-0.111l-0.019,-0.111l-0.018,-0.109l-0.016,-0.109l-0.015,-0.109l-0.014,-0.108l-0.013,-0.107l-0.011,-0.106l-0.011,-0.106l-0.009,-0.106l-0.007,-0.105l-0.007,-0.104l-0.006,-0.103l-0.004,-0.103l-0.003,-0.103l-0.001,-0.101l-0.001,-0.102l0.001,-0.1l0.001,-0.1l0.003,-0.1l0.005,-0.099l0.005,-0.098l0.007,-0.098l0.007,-0.097l0.009,-0.097l0.011,-0.096l0.011,-0.096l0.012,-0.095l0.014,-0.094l0.015,-0.094l0.016,-0.094l0.017,-0.093l0.019,-0.092l0.019,-0.091l0.021,-0.091l0.021,-0.091l0.023,-0.09l0.024,-0.089l0.025,-0.089l0.026,-0.088l0.028,-0.088l0.028,-0.087l0.03,-0.086l0.027,-0.079l0.003,-0.009l0.631,-0.628l0.961,0.071Z"/><path
                    d="M33.522,30.823l0.048,0.068l0.035,0.054l0.037,0.053l0.038,0.054l0.04,0.053l0.041,0.054l0.043,0.053l0.044,0.053l0.044,0.054l0.046,0.052l0.047,0.053l0.048,0.052l0.049,0.052l0.05,0.052l0.051,0.051l0.052,0.051l0.052,0.05l0.053,0.05l0.053,0.049l0.052,0.047l0.112,0.097l0.11,0.093l0.112,0.091l0.113,0.087l0.112,0.085l0.112,0.081l0.111,0.079l0.11,0.074l0.108,0.072l0.106,0.067l0.103,0.064l0.1,0.06l0.097,0.056l0.092,0.052l0.088,0.048l0.083,0.043l0.076,0.039l0.071,0.035l0.064,0.03l0.055,0.025l0.046,0.021l0.046,0.016l0.416,0.503l-0.513,0.403l-0.065,0.005l-0.08,0.002l-0.086,0.001l-0.093,-0.001l-0.098,-0.003l-0.105,-0.005l-0.112,-0.006l-0.117,-0.009l-0.124,-0.011l-0.128,-0.013l-0.135,-0.015l-0.139,-0.019l-0.144,-0.02l-0.148,-0.024l-0.153,-0.027l-0.156,-0.03l-0.16,-0.033l-0.163,-0.036l-0.166,-0.04l-0.169,-0.044l-0.171,-0.048l-0.17,-0.051l-0.09,-0.028l-0.087,-0.029l-0.088,-0.03l-0.088,-0.031l-0.089,-0.032l-0.089,-0.033l-0.089,-0.035l-0.089,-0.036l-0.089,-0.037l-0.09,-0.039l-0.089,-0.04l-0.09,-0.041l-0.09,-0.043l-0.089,-0.045l-0.09,-0.046l-0.089,-0.047l-0.089,-0.05l-0.089,-0.051l-0.089,-0.053l-0.08,-0.048l-0.009,-0.005l-0.52,-0.853l0.402,-1.061l0.013,-0.015l1.024,-0.554l0.891,0.433Z"/><path
                    id="smille"
                    d="M68.83,45.662l0.024,0.198l0.023,0.197l0.022,0.197l0.022,0.195l0.02,0.195l0.02,0.195l0.019,0.193l0.017,0.193l0.017,0.192l0.016,0.191l0.015,0.191l0.014,0.19l0.013,0.189l0.013,0.188l0.011,0.188l0.01,0.186l0.01,0.186l0.009,0.186l0.008,0.184l0.007,0.184l0.006,0.183l0.005,0.182l0.004,0.182l0.004,0.18l0.002,0.181l0.002,0.179l0.001,0.178l0,0.178l-0.001,0.177l-0.002,0.177l-0.002,0.175l-0.004,0.175l-0.004,0.174l-0.005,0.174l-0.006,0.172l-0.007,0.172l-0.007,0.171l-0.009,0.171l-0.009,0.17l-0.01,0.169l-0.011,0.168l-0.012,0.167l-0.012,0.167l-0.014,0.166l-0.014,0.166l-0.015,0.164l-0.016,0.164l-0.016,0.163l-0.017,0.163l-0.019,0.161l-0.019,0.161l-0.019,0.161l-0.021,0.159l-0.021,0.159l-0.022,0.158l-0.023,0.158l-0.024,0.156l-0.024,0.156l-0.025,0.155l-0.026,0.155l-0.027,0.154l-0.027,0.153l-0.029,0.152l-0.029,0.152l-0.029,0.151l-0.031,0.15l-0.031,0.15l-0.032,0.148l-0.033,0.148l-0.033,0.148l-0.034,0.146l-0.035,0.146l-0.036,0.146l-0.036,0.144l-0.037,0.144l-0.038,0.143l-0.038,0.142l-0.04,0.142l-0.04,0.141l-0.04,0.14l-0.042,0.14l-0.042,0.139l-0.042,0.138l-0.044,0.138l-0.044,0.136l-0.045,0.136l-0.045,0.136l-0.046,0.134l-0.047,0.134l-0.048,0.134l-0.048,0.132l-0.049,0.132l-0.05,0.131l-0.05,0.131l-0.051,0.129l-0.051,0.129l-0.052,0.129l-0.053,0.127l-0.054,0.127l-0.054,0.126l-0.055,0.126l-0.055,0.125l-0.056,0.124l-0.057,0.123l-0.057,0.123l-0.058,0.122l-0.059,0.122l-0.059,0.12l-0.06,0.12l-0.061,0.12l-0.061,0.118l-0.061,0.118l-0.063,0.117l-0.063,0.117l-0.063,0.115l-0.064,0.116l-0.065,0.114l-0.065,0.114l-0.066,0.113l-0.066,0.112l-0.068,0.112l-0.067,0.111l-0.068,0.11l-0.069,0.109l-0.069,0.109l-0.07,0.109l-0.071,0.107l-0.071,0.107l-0.071,0.106l-0.073,0.105l-0.072,0.105l-0.073,0.104l-0.074,0.104l-0.075,0.102l-0.074,0.102l-0.076,0.101l-0.076,0.101l-0.076,0.1l-0.077,0.099l-0.078,0.099l-0.077,0.098l-0.079,0.097l-0.079,0.096l-0.079,0.096l-0.081,0.095l-0.08,0.095l-0.081,0.093l-0.082,0.093l-0.081,0.093l-0.083,0.091l-0.083,0.091l-0.083,0.091l-0.084,0.089l-0.085,0.089l-0.084,0.089l-0.086,0.087l-0.085,0.087l-0.087,0.086l-0.086,0.086l-0.087,0.085l-0.088,0.084l-0.088,0.083l-0.089,0.083l-0.088,0.082l-0.09,0.082l-0.089,0.081l-0.091,0.08l-0.091,0.08l-0.182,0.156l-0.184,0.154l-0.185,0.152l-0.188,0.148l-0.188,0.146l-0.191,0.144l-0.191,0.14l-0.194,0.138l-0.195,0.136l-0.196,0.132l-0.197,0.131l-0.199,0.127l-0.2,0.125l-0.202,0.122l-0.203,0.119l-0.204,0.117l-0.205,0.114l-0.206,0.111l-0.208,0.109l-0.208,0.107l-0.21,0.103l-0.211,0.101l-0.212,0.099l-0.213,0.096l-0.214,0.093l-0.215,0.091l-0.215,0.088l-0.217,0.086l-0.218,0.083l-0.218,0.08l-0.219,0.078l-0.22,0.076l-0.221,0.072l-0.221,0.071l-0.223,0.068l-0.223,0.065l-0.223,0.063l-0.224,0.06l-0.225,0.058l-0.225,0.055l-0.226,0.053l-0.227,0.051l-0.227,0.047l-0.227,0.046l-0.1,0.019l-0.1,0.018l-0.102,0.017l-0.102,0.016l-0.104,0.015l-0.105,0.015l-0.106,0.013l-0.106,0.013l-0.108,0.012l-0.109,0.011l-0.11,0.01l-0.11,0.009l-0.112,0.009l-0.112,0.007l-0.113,0.007l-0.115,0.005l-0.115,0.005l-0.116,0.004l-0.116,0.003l-0.118,0.002l-0.118,0.001l-0.119,0l-0.12,-0.001l-0.121,-0.002l-0.121,-0.003l-0.122,-0.004l-0.123,-0.005l-0.123,-0.006l-0.124,-0.007l-0.125,-0.008l-0.125,-0.009l-0.126,-0.01l-0.127,-0.011l-0.127,-0.012l-0.127,-0.013l-0.128,-0.015l-0.129,-0.015l-0.129,-0.016l-0.129,-0.018l-0.13,-0.019l-0.131,-0.02l-0.131,-0.021l-0.131,-0.022l-0.131,-0.023l-0.132,-0.025l-0.132,-0.025l-0.133,-0.027l-0.133,-0.028l-0.133,-0.03l-0.133,-0.03l-0.133,-0.032l-0.134,-0.033l-0.134,-0.034l-0.134,-0.035l-0.134,-0.037l-0.135,-0.038l-0.134,-0.04l-0.135,-0.04l-0.134,-0.042l-0.135,-0.044l-0.135,-0.044l-0.134,-0.046l-0.135,-0.048l-0.135,-0.048l-0.134,-0.051l-0.135,-0.051l-0.134,-0.053l-0.134,-0.054l-0.134,-0.056l-0.134,-0.057l-0.134,-0.059l-0.134,-0.06l-0.133,-0.062l-0.133,-0.063l-0.133,-0.065l-0.132,-0.066l-0.132,-0.067l-0.132,-0.07l-0.132,-0.07l-0.131,-0.073l-0.13,-0.074l-0.131,-0.075l-0.129,-0.077l-0.13,-0.079l-0.128,-0.08l-0.128,-0.082l-0.128,-0.083l-0.127,-0.086l-0.127,-0.086l-0.125,-0.089l-0.126,-0.09l-0.124,-0.092l-0.124,-0.094l-0.123,-0.095l-0.122,-0.097l-0.122,-0.099l-0.12,-0.1l-0.12,-0.103l-0.119,-0.104l-0.118,-0.105l-0.118,-0.108l-0.116,-0.109l-0.115,-0.112l-0.114,-0.113l-0.114,-0.114l-0.112,-0.117l-0.111,-0.119l-0.11,-0.12l-0.109,-0.122l-0.108,-0.124l-0.106,-0.126l-0.106,-0.128l-0.104,-0.129l-0.103,-0.132l-0.101,-0.133l-0.101,-0.135l-0.098,-0.137l-0.098,-0.139l-0.096,-0.141l-0.095,-0.143l-0.093,-0.145l-0.092,-0.147l-0.09,-0.148l-0.089,-0.151l-0.087,-0.152l-0.086,-0.155l-0.084,-0.156l-0.079,-0.151l0.535,-1.614l1.613,0.534l0.068,0.14l0.065,0.13l0.066,0.129l0.067,0.127l0.069,0.126l0.07,0.124l0.072,0.123l0.072,0.121l0.074,0.119l0.075,0.118l0.076,0.116l0.078,0.115l0.078,0.113l0.08,0.112l0.081,0.11l0.082,0.109l0.083,0.107l0.084,0.106l0.085,0.104l0.086,0.103l0.087,0.102l0.088,0.1l0.089,0.099l0.091,0.097l0.091,0.096l0.092,0.095l0.093,0.093l0.094,0.092l0.094,0.09l0.096,0.09l0.097,0.087l0.097,0.087l0.098,0.085l0.099,0.084l0.1,0.082l0.101,0.082l0.101,0.079l0.102,0.079l0.103,0.077l0.104,0.076l0.104,0.075l0.105,0.074l0.105,0.072l0.107,0.071l0.107,0.07l0.107,0.068l0.108,0.068l0.109,0.066l0.109,0.064l0.109,0.064l0.11,0.062l0.111,0.061l0.111,0.06l0.112,0.059l0.112,0.057l0.112,0.057l0.113,0.055l0.113,0.054l0.113,0.053l0.114,0.051l0.114,0.051l0.114,0.049l0.115,0.048l0.115,0.047l0.115,0.046l0.115,0.044l0.115,0.044l0.116,0.042l0.116,0.042l0.115,0.04l0.116,0.039l0.116,0.038l0.116,0.036l0.116,0.036l0.116,0.035l0.116,0.033l0.116,0.033l0.115,0.031l0.116,0.031l0.116,0.029l0.115,0.028l0.115,0.027l0.115,0.026l0.115,0.025l0.115,0.024l0.114,0.023l0.114,0.023l0.114,0.021l0.113,0.02l0.113,0.019l0.113,0.018l0.112,0.017l0.112,0.016l0.111,0.015l0.111,0.014l0.111,0.013l0.109,0.012l0.11,0.012l0.108,0.01l0.109,0.01l0.107,0.008l0.107,0.008l0.106,0.007l0.106,0.005l0.105,0.005l0.104,0.005l0.103,0.003l0.103,0.002l0.101,0.002l0.101,0l0.1,0l0.099,-0.001l0.098,-0.001l0.098,-0.003l0.096,-0.003l0.095,-0.004l0.094,-0.005l0.093,-0.006l0.093,-0.006l0.09,-0.007l0.09,-0.008l0.089,-0.009l0.087,-0.009l0.087,-0.01l0.085,-0.011l0.083,-0.011l0.083,-0.012l0.081,-0.013l0.209,-0.035l0.208,-0.037l0.208,-0.04l0.208,-0.041l0.207,-0.044l0.207,-0.047l0.206,-0.048l0.206,-0.051l0.205,-0.053l0.204,-0.056l0.204,-0.058l0.204,-0.06l0.203,-0.062l0.202,-0.065l0.201,-0.067l0.201,-0.07l0.2,-0.071l0.199,-0.075l0.198,-0.076l0.198,-0.079l0.197,-0.081l0.196,-0.084l0.195,-0.086l0.194,-0.089l0.193,-0.091l0.192,-0.093l0.192,-0.096l0.19,-0.098l0.189,-0.1l0.189,-0.103l0.187,-0.106l0.186,-0.108l0.185,-0.11l0.184,-0.113l0.183,-0.116l0.181,-0.118l0.181,-0.12l0.179,-0.123l0.178,-0.125l0.176,-0.128l0.176,-0.131l0.174,-0.133l0.172,-0.135l0.173,-0.139l0.084,-0.07l0.085,-0.07l0.084,-0.072l0.084,-0.072l0.084,-0.072l0.083,-0.074l0.083,-0.074l0.083,-0.074l0.082,-0.076l0.082,-0.075l0.082,-0.077l0.081,-0.077l0.081,-0.078l0.08,-0.079l0.08,-0.079l0.08,-0.08l0.079,-0.08l0.079,-0.082l0.078,-0.081l0.078,-0.083l0.078,-0.083l0.077,-0.084l0.077,-0.085l0.076,-0.085l0.076,-0.086l0.076,-0.086l0.075,-0.088l0.075,-0.088l0.074,-0.088l0.074,-0.089l0.073,-0.09l0.073,-0.091l0.073,-0.091l0.072,-0.093l0.071,-0.092l0.072,-0.094l0.07,-0.094l0.071,-0.095l0.07,-0.095l0.069,-0.096l0.069,-0.097l0.068,-0.098l0.068,-0.098l0.068,-0.099l0.067,-0.1l0.066,-0.1l0.067,-0.101l0.065,-0.102l0.065,-0.103l0.065,-0.103l0.064,-0.104l0.063,-0.105l0.064,-0.105l0.062,-0.106l0.062,-0.107l0.062,-0.107l0.061,-0.109l0.06,-0.109l0.06,-0.109l0.06,-0.111l0.059,-0.111l0.058,-0.112l0.058,-0.112l0.058,-0.114l0.056,-0.114l0.057,-0.115l0.055,-0.115l0.055,-0.116l0.055,-0.117l0.054,-0.118l0.054,-0.119l0.053,-0.119l0.052,-0.12l0.052,-0.12l0.051,-0.122l0.05,-0.122l0.051,-0.123l0.049,-0.124l0.049,-0.124l0.048,-0.125l0.048,-0.126l0.047,-0.127l0.046,-0.127l0.046,-0.129l0.045,-0.129l0.045,-0.129l0.044,-0.131l0.043,-0.131l0.043,-0.132l0.042,-0.133l0.042,-0.133l0.041,-0.135l0.04,-0.135l0.04,-0.135l0.039,-0.137l0.038,-0.137l0.038,-0.139l0.037,-0.138l0.036,-0.14l0.036,-0.141l0.035,-0.141l0.034,-0.142l0.034,-0.143l0.032,-0.143l0.033,-0.144l0.031,-0.146l0.031,-0.146l0.031,-0.146l0.029,-0.148l0.029,-0.148l0.028,-0.149l0.028,-0.15l0.026,-0.15l0.026,-0.152l0.026,-0.152l0.024,-0.153l0.024,-0.154l0.023,-0.154l0.023,-0.156l0.021,-0.156l0.021,-0.157l0.02,-0.158l0.02,-0.158l0.018,-0.16l0.018,-0.16l0.018,-0.161l0.016,-0.162l0.016,-0.162l0.014,-0.164l0.015,-0.164l0.013,-0.165l0.013,-0.166l0.011,-0.166l0.011,-0.168l0.011,-0.168l0.009,-0.169l0.009,-0.17l0.008,-0.17l0.007,-0.172l0.006,-0.172l0.005,-0.173l0.005,-0.174l0.004,-0.175l0.003,-0.175l0.002,-0.177l0.001,-0.177l0.001,-0.178l-0.001,-0.179l-0.001,-0.179l-0.002,-0.181l-0.003,-0.181l-0.003,-0.182l-0.005,-0.183l-0.005,-0.184l-0.007,-0.185l-0.007,-0.185l-0.008,-0.186l-0.008,-0.187l-0.01,-0.188l-0.011,-0.189l-0.011,-0.19l-0.013,-0.19l-0.013,-0.191l-0.014,-0.192l-0.015,-0.193l-0.016,-0.194l-0.017,-0.194l-0.017,-0.197l0.355,-0.444l0.442,0.359Z"
                    style="fill:#7d0c16;"/><ellipse cx="39.4" cy="37.704" rx="3.095" ry="4.142"/><ellipse cx="50.998" cy="34.27" rx="3.284" ry="3.067"/></g>

  <defs>
        <linearGradient id="_Linear1" x1="0" y1="0" x2="1" y2="0" gradientUnits="userSpaceOnUse" gradientTransform="matrix(117.569,-28.0376,28.0376,117.569,3.58182,62.4272)"><stop offset="0" style="stop-color:#f5ff00;stop-opacity:1"/><stop offset="1" style="stop-color:#ffc500;stop-opacity:1"/></linearGradient>
        <linearGradient id="_Linear2" x1="0" y1="0" x2="1" y2="0" gradientUnits="userSpaceOnUse" gradientTransform="matrix(76.3152,0,0,74.7404,19.6849,51.2964)"><stop offset="0" style="stop-color:#ffcd00;stop-opacity:1"/><stop offset="0.56" style="stop-color:#fdc00a;stop-opacity:1"/><stop offset="1" style="stop-color:#f68c31;stop-opacity:1"/></linearGradient>
    </defs>
</svg>
