<svg viewBox="-20 -20 180 180" xmlns="http://www.w3.org/2000/svg" xmlns:xlink="http://www.w3.org/1999/xlink"><path d="m5.544 25.599c3.433 1.771 7.372 1.453 18.545.356.13-10.841-.076-5.597-.734-15.569 12.088 3.014 10.032 3.981 17.348 4.027 3.572-6.799 8.604-19.935 11.992-18.812.432 3.878 8.235 13.08 14.248 18.715 10.138-3.919 14.106-3.179 20.354-6.906.993 7.37 4.364 13.13.933 18.989 0 0 9.219 5.717 19.799 7.146-2.329 4.523-6.723 14.374-11.098 19.99 11.96 2.692 5.741 13.85 19.092 17.417-10.149 5.441-9.502 3.655-24.524 4.915 0 0-5.857 12.707-3.358 21.069-10.111-2.306-18.222-4.053-21.879-9.029-8.207 4.164-16.184 8.437-23.543 15.558l-7.019-16.054c-13.836-7.744-18.145.024-25.411 2.218 1.038-6.596 5.559-19.065 8.751-23.016-9.978-6.216-13.733-10.63-23.842-12.668l19.842-7.074c-3.304-12.193-5.573-15.394-9.496-21.272z" fill="url(#_Linear1)"/><path d="m-11.309 15.762c2.723-1.373 25.303 6.998 37.97 12.52-1.175-11.189-11.348-22.497-13.852-33.968 8.33 2.696 21.725 15.61 28.75 19.782 3.572-6.798 9.302-25.97 11.524-30.096 2.182 2.809 8.147 23.373 14.159 29.008 11.265-6.702 24.268-14.681 29.641-19.866-.777 8.077-7.895 32.365-7.895 32.365s25.939 1.986 37.454 1.247c-2.329 4.523-23.999 19.86-28.374 25.476 10.812 8.914 24.512 19.21 35.415 26.416-13.681.342-26.231-2.991-42.306-4.316 0 0-.457 25.385 1.917 33.328-9.933-9.777-26.812-19.923-26.812-19.923s-22.115 19.642-29.474 26.764l-1.462-28.088c-20.061 3.285-33.199 5.87-40.466 8.064 4.952-6.596 20.725-25.103 23.917-29.054-9.978-6.216-29.306-10.343-39.415-12.38l35.231-7.582c-1.23-6.487-21.999-23.819-25.922-29.697z" visibility="hidden"/><path d="m64.387 16.089c20.74 4.598 31.613 16.39 31.613 36.181s-16.794 31.719-37.536 35.644c-24.495 4.635-42.316-12.723-38.182-35.859.854-4.777 2.774-9.944 5.979-14.206 6.587-8.758 11.492-18.229 19.672-23.01 3.781-2.21 13.485.148 18.454 1.25z" fill="url(#_Linear2)"/><path d="m60.013 25.902.013.015.322.908-.438.775-.009.005-.092.064-.096.065-.095.064-.095.062-.096.062-.095.061-.095.059-.095.058-.094.058-.095.056-.095.055-.095.054-.095.052-.095.052-.095.051-.095.05-.095.048-.096.048-.095.046-.096.046-.096.045-.096.043-.096.043-.097.041-.097.041-.097.04-.097.039-.098.038-.098.037-.098.036-.099.036-.099.034-.1.034-.1.033-.1.032-.101.031-.101.031-.102.03-.103.029-.104.029-.207.054-.211.053-.214.05-.216.047-.22.046-.224.044-.228.042-.232.04-.236.039-.24.038-.246.036-.249.035-.519-.277.313-.497.232-.093.224-.091.218-.091.212-.091.207-.09.201-.09.195-.091.191-.091.185-.091.181-.092.176-.092.172-.094.083-.046.083-.048.082-.047.081-.048.08-.048.079-.049.078-.048.077-.05.076-.049.076-.05.075-.051.074-.051.073-.051.072-.052.072-.052.071-.053.071-.054.07-.054.069-.055.069-.055.068-.056.068-.057.068-.058.067-.058.067-.059.067-.06.066-.06.066-.062.066-.062.065-.064.066-.064.065-.065.066-.066.065-.068.065-.068.065-.069.066-.071.065-.072.065-.073.069-.077.007-.007.825-.331.858.449z"/><path d="m51.772 24.647.43.768v.01l.002.08.003.088.001.088v.086l-.001.086-.003.084-.004.084-.005.083-.006.082-.008.081-.008.08-.01.079-.01.079-.012.077-.013.077-.013.075-.015.075-.015.074-.017.073-.017.075-.036.139-.04.138-.041.136-.045.132-.046.129-.048.127-.05.124-.051.122-.053.12-.053.118-.055.116-.055.116-.11.225-.112.224-.112.222-.055.111-.055.112-.054.112-.054.115-.49.32-.289-.508.005-.131.007-.131.008-.13.008-.129.017-.253.017-.247.014-.243.006-.118.004-.117.004-.116.001-.114v-.113l-.002-.111-.004-.109-.007-.108-.008-.106-.012-.105-.013-.103-.016-.105-.019-.098-.011-.05-.011-.05-.012-.049-.012-.049-.014-.049-.014-.049-.015-.048-.016-.049-.016-.048-.017-.049-.018-.048-.019-.048-.02-.048-.021-.048-.022-.049-.022-.048-.024-.049-.03-.066.067-.871.863-.537.019-.005z"/><path d="m46.387 24.535.4.79v.01.108l.001.101.001.101.002.099.004.099.004.098.005.096.006.096.007.096.008.094.009.093.009.093.011.092.011.091.013.09.013.089.015.088.015.088.016.087.017.086.018.085.019.084.02.084.021.082.022.082.023.081.023.081.025.079.025.079.027.078.027.077.029.077.029.076.03.075.032.074.032.074.033.072.034.073.035.071.037.071.037.07.038.069.04.069.04.068.041.067.043.066.043.066.045.066.045.064.047.064.048.063.049.063.05.062.051.061.052.06.054.06.054.059.056.059.057.058.058.057.059.056.061.056.062.055.065.056.131.56-.564.114-.084-.039-.085-.043-.085-.044-.084-.046-.084-.047-.082-.048-.082-.05-.082-.051-.08-.052-.08-.054-.079-.055-.078-.056-.077-.058-.077-.059-.076-.061-.075-.062-.074-.063-.074-.064-.072-.066-.072-.068-.071-.068-.07-.07-.069-.071-.069-.073-.067-.074-.067-.075-.065-.077-.065-.077-.064-.08-.063-.08-.062-.082-.062-.082-.06-.085-.059-.085-.059-.087-.058-.088-.056-.089-.056-.09-.055-.092-.054-.092-.053-.094-.052-.096-.051-.096-.05-.097-.05-.099-.048-.1-.047-.101-.047-.102-.045-.104-.045-.104-.044-.106-.043-.106-.042-.108-.041-.109-.04-.11-.039-.111-.038-.113-.038-.113-.036-.115-.036-.115-.034-.117-.034-.118-.033-.119-.034-.124.171-.871.843-.477.02-.002z"/><path d="m44.059 28.67.58.802.005.019-.091 1.027-.753.435-.01.001h-.051l-.038-.002-.037-.002-.038-.001-.037.001h-.036l-.036.002-.036.003-.036.003-.036.004-.035.005-.035.006-.035.007-.035.007-.036.009-.035.009-.035.01-.035.012-.035.012-.035.013-.036.015-.035.015-.036.017-.035.018-.036.018-.035.02-.036.021-.036.022-.036.024-.036.024-.036.026-.036.027-.036.028-.036.029-.036.03-.036.032-.035.033-.036.034-.036.035-.036.036-.035.037-.036.038-.035.04-.036.04-.035.042-.034.041-.07.09-.069.093-.068.096-.068.1-.066.104-.066.107-.065.11-.064.114-.064.119-.505.299-.265-.524.012-.141.015-.143.017-.142.02-.141.022-.141.026-.139.028-.139.032-.139.034-.135.02-.07.02-.068.02-.068.022-.068.023-.067.024-.067.025-.067.026-.066.027-.067.028-.065.03-.066.03-.065.032-.065.034-.065.034-.064.036-.064.037-.063.039-.063.04-.063.042-.061.043-.062.045-.061.046-.06.047-.059.049-.059.051-.058.053-.057.054-.057.055-.055.057-.055.059-.054.061-.052.062-.052.063-.051.065-.049.067-.049.068-.047.07-.046.071-.045.073-.043.074-.042.076-.041.077-.039.079-.038.08-.036.068-.032.01-.004z"/><path d="m39.324 25.285.018.009.667.713-.108.878-.006.009-.038.056-.034.05-.033.051-.033.052-.033.053-.032.053-.032.055-.032.055-.03.056-.031.058-.03.058-.029.06-.029.06-.029.062-.028.062-.027.064-.027.065-.027.065-.026.067-.025.069-.024.069-.025.07-.023.072-.023.073-.022.074-.022.075-.021.077-.02.078-.019.079-.019.08-.019.082-.017.083-.017.084-.016.086-.015.087-.014.088-.014.089-.013.091-.012.093-.011.093-.01.095-.01.097-.009.097-.007.1-.007.1-.006.102-.006.104-.004.104-.003.107-.002.107-.002.109v.111.112l.002.113.002.115.004.117.004.117.006.12.006.121.008.122.009.124.009.125.011.126.012.13-.298.496-.483-.318-.046-.125-.045-.126-.043-.125-.042-.123-.04-.123-.04-.123-.038-.121-.037-.121-.035-.119-.034-.12-.033-.118-.031-.117-.031-.117-.029-.116-.027-.115-.027-.115-.025-.114-.024-.113-.022-.112-.022-.112-.02-.111-.019-.111-.018-.109-.016-.109-.015-.109-.014-.108-.013-.107-.011-.106-.011-.106-.009-.106-.007-.105-.007-.104-.006-.103-.004-.103-.003-.103-.001-.101-.001-.102.001-.1.001-.1.003-.1.005-.099.005-.098.007-.098.007-.097.009-.097.011-.096.011-.096.012-.095.014-.094.015-.094.016-.094.017-.093.019-.092.019-.091.021-.091.021-.091.023-.09.024-.089.025-.089.026-.088.028-.088.028-.087.03-.086.027-.079.003-.009.631-.628z"/><path d="m33.522 30.823.048.068.035.054.037.053.038.054.04.053.041.054.043.053.044.053.044.054.046.052.047.053.048.052.049.052.05.052.051.051.052.051.052.05.053.05.053.049.052.047.112.097.11.093.112.091.113.087.112.085.112.081.111.079.11.074.108.072.106.067.103.064.1.06.097.056.092.052.088.048.083.043.076.039.071.035.064.03.055.025.046.021.046.016.416.503-.513.403-.065.005-.08.002-.086.001-.093-.001-.098-.003-.105-.005-.112-.006-.117-.009-.124-.011-.128-.013-.135-.015-.139-.019-.144-.02-.148-.024-.153-.027-.156-.03-.16-.033-.163-.036-.166-.04-.169-.044-.171-.048-.17-.051-.09-.028-.087-.029-.088-.03-.088-.031-.089-.032-.089-.033-.089-.035-.089-.036-.089-.037-.09-.039-.089-.04-.09-.041-.09-.043-.089-.045-.09-.046-.089-.047-.089-.05-.089-.051-.089-.053-.08-.048-.009-.005-.52-.853.402-1.061.013-.015 1.024-.554z"/><path d="m68.83 45.662.024.198.023.197.022.197.022.195.02.195.02.195.019.193.017.193.017.192.016.191.015.191.014.19.013.189.013.188.011.188.01.186.01.186.009.186.008.184.007.184.006.183.005.182.004.182.004.18.002.181.002.179.001.178v.178l-.001.177-.002.177-.002.175-.004.175-.004.174-.005.174-.006.172-.007.172-.007.171-.009.171-.009.17-.01.169-.011.168-.012.167-.012.167-.014.166-.014.166-.015.164-.016.164-.016.163-.017.163-.019.161-.019.161-.019.161-.021.159-.021.159-.022.158-.023.158-.024.156-.024.156-.025.155-.026.155-.027.154-.027.153-.029.152-.029.152-.029.151-.031.15-.031.15-.032.148-.033.148-.033.148-.034.146-.035.146-.036.146-.036.144-.037.144-.038.143-.038.142-.04.142-.04.141-.04.14-.042.14-.042.139-.042.138-.044.138-.044.136-.045.136-.045.136-.046.134-.047.134-.048.134-.048.132-.049.132-.05.131-.05.131-.051.129-.051.129-.052.129-.053.127-.054.127-.054.126-.055.126-.055.125-.056.124-.057.123-.057.123-.058.122-.059.122-.059.12-.06.12-.061.12-.061.118-.061.118-.063.117-.063.117-.063.115-.064.116-.065.114-.065.114-.066.113-.066.112-.068.112-.067.111-.068.11-.069.109-.069.109-.07.109-.071.107-.071.107-.071.106-.073.105-.072.105-.073.104-.074.104-.075.102-.074.102-.076.101-.076.101-.076.1-.077.099-.078.099-.077.098-.079.097-.079.096-.079.096-.081.095-.08.095-.081.093-.082.093-.081.093-.083.091-.083.091-.083.091-.084.089-.085.089-.084.089-.086.087-.085.087-.087.086-.086.086-.087.085-.088.084-.088.083-.089.083-.088.082-.09.082-.089.081-.091.08-.091.08-.182.156-.184.154-.185.152-.188.148-.188.146-.191.144-.191.14-.194.138-.195.136-.196.132-.197.131-.199.127-.2.125-.202.122-.203.119-.204.117-.205.114-.206.111-.208.109-.208.107-.21.103-.211.101-.212.099-.213.096-.214.093-.215.091-.215.088-.217.086-.218.083-.218.08-.219.078-.22.076-.221.072-.221.071-.223.068-.223.065-.223.063-.224.06-.225.058-.225.055-.226.053-.227.051-.227.047-.227.046-.1.019-.1.018-.102.017-.102.016-.104.015-.105.015-.106.013-.106.013-.108.012-.109.011-.11.01-.11.009-.112.009-.112.007-.113.007-.115.005-.115.005-.116.004-.116.003-.118.002-.118.001h-.119l-.12-.001-.121-.002-.121-.003-.122-.004-.123-.005-.123-.006-.124-.007-.125-.008-.125-.009-.126-.01-.127-.011-.127-.012-.127-.013-.128-.015-.129-.015-.129-.016-.129-.018-.13-.019-.131-.02-.131-.021-.131-.022-.131-.023-.132-.025-.132-.025-.133-.027-.133-.028-.133-.03-.133-.03-.133-.032-.134-.033-.134-.034-.134-.035-.134-.037-.135-.038-.134-.04-.135-.04-.134-.042-.135-.044-.135-.044-.134-.046-.135-.048-.135-.048-.134-.051-.135-.051-.134-.053-.134-.054-.134-.056-.134-.057-.134-.059-.134-.06-.133-.062-.133-.063-.133-.065-.132-.066-.132-.067-.132-.07-.132-.07-.131-.073-.13-.074-.131-.075-.129-.077-.13-.079-.128-.08-.128-.082-.128-.083-.127-.086-.127-.086-.125-.089-.126-.09-.124-.092-.124-.094-.123-.095-.122-.097-.122-.099-.12-.1-.12-.103-.119-.104-.118-.105-.118-.108-.116-.109-.115-.112-.114-.113-.114-.114-.112-.117-.111-.119-.11-.12-.109-.122-.108-.124-.106-.126-.106-.128-.104-.129-.103-.132-.101-.133-.101-.135-.098-.137-.098-.139-.096-.141-.095-.143-.093-.145-.092-.147-.09-.148-.089-.151-.087-.152-.086-.155-.084-.156-.079-.151.535-1.614 1.613.534.068.14.065.13.066.129.067.127.069.126.07.124.072.123.072.121.074.119.075.118.076.116.078.115.078.113.08.112.081.11.082.109.083.107.084.106.085.104.086.103.087.102.088.1.089.099.091.097.091.096.092.095.093.093.094.092.094.09.096.09.097.087.097.087.098.085.099.084.1.082.101.082.101.079.102.079.103.077.104.076.104.075.105.074.105.072.107.071.107.07.107.068.108.068.109.066.109.064.109.064.11.062.111.061.111.06.112.059.112.057.112.057.113.055.113.054.113.053.114.051.114.051.114.049.115.048.115.047.115.046.115.044.115.044.116.042.116.042.115.04.116.039.116.038.116.036.116.036.116.035.116.033.116.033.115.031.116.031.116.029.115.028.115.027.115.026.115.025.115.024.114.023.114.023.114.021.113.02.113.019.113.018.112.017.112.016.111.015.111.014.111.013.109.012.11.012.108.01.109.01.107.008.107.008.106.007.106.005.105.005.104.005.103.003.103.002.101.002h.101.1l.099-.001.098-.001.098-.003.096-.003.095-.004.094-.005.093-.006.093-.006.09-.007.09-.008.089-.009.087-.009.087-.01.085-.011.083-.011.083-.012.081-.013.209-.035.208-.037.208-.04.208-.041.207-.044.207-.047.206-.048.206-.051.205-.053.204-.056.204-.058.204-.06.203-.062.202-.065.201-.067.201-.07.2-.071.199-.075.198-.076.198-.079.197-.081.196-.084.195-.086.194-.089.193-.091.192-.093.192-.096.19-.098.189-.1.189-.103.187-.106.186-.108.185-.11.184-.113.183-.116.181-.118.181-.12.179-.123.178-.125.176-.128.176-.131.174-.133.172-.135.173-.139.084-.07.085-.07.084-.072.084-.072.084-.072.083-.074.083-.074.083-.074.082-.076.082-.075.082-.077.081-.077.081-.078.08-.079.08-.079.08-.08.079-.08.079-.082.078-.081.078-.083.078-.083.077-.084.077-.085.076-.085.076-.086.076-.086.075-.088.075-.088.074-.088.074-.089.073-.09.073-.091.073-.091.072-.093.071-.092.072-.094.07-.094.071-.095.07-.095.069-.096.069-.097.068-.098.068-.098.068-.099.067-.1.066-.1.067-.101.065-.102.065-.103.065-.103.064-.104.063-.105.064-.105.062-.106.062-.107.062-.107.061-.109.06-.109.06-.109.06-.111.059-.111.058-.112.058-.112.058-.114.056-.114.057-.115.055-.115.055-.116.055-.117.054-.118.054-.119.053-.119.052-.12.052-.12.051-.122.05-.122.051-.123.049-.124.049-.124.048-.125.048-.126.047-.127.046-.127.046-.129.045-.129.045-.129.044-.131.043-.131.043-.132.042-.133.042-.133.041-.135.04-.135.04-.135.039-.137.038-.137.038-.139.037-.138.036-.14.036-.141.035-.141.034-.142.034-.143.032-.143.033-.144.031-.146.031-.146.031-.146.029-.148.029-.148.028-.149.028-.15.026-.15.026-.152.026-.152.024-.153.024-.154.023-.154.023-.156.021-.156.021-.157.02-.158.02-.158.018-.16.018-.16.018-.161.016-.162.016-.162.014-.164.015-.164.013-.165.013-.166.011-.166.011-.168.011-.168.009-.169.009-.17.008-.17.007-.172.006-.172.005-.173.005-.174.004-.175.003-.175.002-.177.001-.177.001-.178-.001-.179-.001-.179-.002-.181-.003-.181-.003-.182-.005-.183-.005-.184-.007-.185-.007-.185-.008-.186-.008-.187-.01-.188-.011-.189-.011-.19-.013-.19-.013-.191-.014-.192-.015-.193-.016-.194-.017-.194-.017-.197.355-.444.442.359z" fill="#7d0c16"/><ellipse cx="39.4" cy="37.704" rx="3.095" ry="4.142"/><ellipse cx="50.998" cy="34.27" rx="3.284" ry="3.067"/><linearGradient id="_Linear1" gradientTransform="matrix(117.569 -28.0376 28.0376 117.569 3.58182 62.4272)" gradientUnits="userSpaceOnUse" x1="0" x2="1" y1="0" y2="0"><stop offset="0" stop-color="#f5ff00"/><stop offset="1" stop-color="#ffc500"/></linearGradient><linearGradient id="_Linear2" gradientTransform="matrix(76.3152 0 0 74.7404 19.6849 51.2964)" gradientUnits="userSpaceOnUse" x1="0" x2="1" y1="0" y2="0"><stop offset="0" stop-color="#ffcd00"/><stop offset=".56" stop-color="#fdc00a"/><stop offset="1" stop-color="#f68c31"/></linearGradient></svg>