<?xml version="1.0" encoding="UTF-8" standalone="no"?>
<!DOCTYPE svg PUBLIC "-//W3C//DTD SVG 1.1//EN" "http://www.w3.org/Graphics/SVG/1.1/DTD/svg11.dtd">
<svg
    width="100%"
    height="100%"
    viewBox="0 0 148 131"
    version="1.1"
    xmlns="http://www.w3.org/2000/svg"
    xmlns:xlink="http://www.w3.org/1999/xlink"
    xml:space="preserve"
    style="fill-rule:evenodd;clip-rule:evenodd;stroke-linejoin:round;stroke-miterlimit:1.41421;">
    <g id="sun"><path
        id="sunRye1"
        d="M20.907,34.694c2.723,-1.374 11.023,-0.833 23.69,4.688c-1.175,-11.188 -1.578,-12.002 -8.532,-20.835c8.33,-2.415 19.888,6.794 25.429,11.955c3.572,-6.798 3.894,-6.567 6.177,-12.087c0.564,-1.364 2.636,-9.936 6.024,-8.813c0.432,3.879 2.276,11.324 8.288,16.958c12.431,-0.48 17.316,-7.228 23.564,-10.955c3.208,4.772 6.884,19.014 3.072,22.733c0,0 3.663,6.538 8.034,7.02c5.25,0.579 2.484,-0.692 13.064,0.737c-2.329,4.523 -5.429,15.596 -9.804,21.212c11.961,2.693 13.493,19.739 26.693,21.872c-7.432,7.932 -19.085,-0.57 -34.107,0.689c0,0 -3.471,4.638 -4.024,7.386c-0.804,4.002 -3.303,8.263 -0.804,16.625c-10.111,-2.306 -16.936,-6.167 -20.593,-11.143c-8.207,4.164 -7.594,3.779 -13.058,5.925c-5.289,2.078 -8.181,3.615 -15.54,10.736l-2.516,-17.985c-13.835,-7.743 -21.361,-1.538 -28.627,0.656c1.038,-6.596 6.29,-12.884 9.483,-16.835c-9.978,-6.216 -10.513,-15.249 -20.622,-17.287l15.115,-5.856c-1.23,-6.486 -1.33,-8.25 -3.213,-13.576c-3.037,-8.588 -3.27,-7.943 -7.193,-13.82Z"
        style="fill:url(#_Linear1);"/><path
        id="sunRye2"
        d="M9.309,30.764c2.723,-1.373 25.303,6.998 37.97,12.52c-1.175,-11.189 -11.348,-22.497 -13.852,-33.968c8.33,2.695 23.237,22.378 30.261,26.551c3.573,-6.799 1.629,-15.604 3.251,-21.353c0.853,-3.023 4.443,-15.566 7.831,-14.443c0.432,3.878 5.833,27.682 11.846,33.316c12.431,-0.48 20.36,-25.501 26.608,-29.229c3.208,4.773 0.25,15.785 -2.167,25.646c0,0 -6.157,13.115 -2.326,15.273c4.424,2.493 26.814,-2.582 38.329,-3.321c-2.329,4.523 -26.182,17.968 -30.557,23.583c11.96,2.693 17.899,20.143 31.099,22.276c-7.433,7.931 -26.623,-2.988 -41.645,-1.729c0,0 0.675,8.903 2.125,13.073c2.182,6.278 8.467,16.229 10.966,24.59c-10.111,-2.306 -26.361,-19.943 -31.97,-20.813c-4.723,-0.732 -9.121,1.57 -13.058,5.925c-4.578,5.064 -9.057,14.785 -16.417,21.907l-1.639,-29.156c-13.835,-7.743 -26.618,11.385 -33.884,13.579c1.038,-6.596 14.143,-30.617 17.335,-34.568c-9.978,-6.216 -29.306,-10.343 -39.415,-12.381l34.239,-4.977c-1.23,-6.486 -3.571,-9.52 -6.139,-14.551c-4.187,-8.205 -14.868,-11.872 -18.791,-17.75Z"
        style="fill:url(#_Linear2);"/><path
        id="sun1"
        d="M82.75,28.452c20.739,4.598 31.613,16.391 31.613,36.182c0,19.791 -16.794,31.718 -37.536,35.643c-24.495,4.635 -42.316,-12.722 -38.182,-35.859c0.854,-4.777 2.774,-9.944 5.979,-14.205c6.587,-8.758 11.492,-18.23 19.672,-23.011c3.781,-2.209 13.485,0.148 18.454,1.25Z"
        style="fill:url(#_Linear3);"/><path
        d="M78.375,38.265l0.014,0.015l0.322,0.908l-0.439,0.775l-0.008,0.006l-0.092,0.063l-0.096,0.065l-0.095,0.064l-0.096,0.063l-0.095,0.061l-0.095,0.061l-0.095,0.059l-0.095,0.059l-0.095,0.057l-0.094,0.056l-0.095,0.055l-0.095,0.054l-0.095,0.053l-0.095,0.052l-0.095,0.05l-0.095,0.05l-0.096,0.049l-0.095,0.047l-0.095,0.047l-0.096,0.045l-0.096,0.045l-0.096,0.044l-0.096,0.042l-0.097,0.042l-0.097,0.041l-0.097,0.039l-0.097,0.039l-0.098,0.038l-0.098,0.037l-0.098,0.037l-0.099,0.035l-0.099,0.034l-0.1,0.034l-0.1,0.033l-0.1,0.032l-0.101,0.032l-0.102,0.03l-0.102,0.03l-0.102,0.029l-0.104,0.029l-0.207,0.055l-0.211,0.052l-0.214,0.05l-0.217,0.048l-0.22,0.045l-0.223,0.044l-0.228,0.042l-0.232,0.041l-0.236,0.039l-0.24,0.037l-0.246,0.037l-0.25,0.035l-0.519,-0.277l0.314,-0.498l0.231,-0.092l0.225,-0.092l0.218,-0.091l0.212,-0.09l0.207,-0.091l0.201,-0.09l0.195,-0.091l0.191,-0.09l0.185,-0.092l0.181,-0.091l0.176,-0.093l0.172,-0.094l0.083,-0.046l0.083,-0.047l0.082,-0.048l0.081,-0.048l0.08,-0.048l0.079,-0.048l0.078,-0.049l0.077,-0.049l0.076,-0.05l0.076,-0.05l0.074,-0.05l0.074,-0.051l0.074,-0.052l0.072,-0.052l0.072,-0.052l0.071,-0.053l0.071,-0.054l0.069,-0.054l0.07,-0.054l0.069,-0.056l0.068,-0.056l0.068,-0.057l0.068,-0.057l0.067,-0.058l0.067,-0.059l0.066,-0.06l0.067,-0.061l0.066,-0.061l0.066,-0.063l0.065,-0.063l0.066,-0.064l0.065,-0.066l0.065,-0.066l0.066,-0.067l0.065,-0.069l0.065,-0.069l0.065,-0.071l0.066,-0.071l0.065,-0.073l0.069,-0.077l0.007,-0.008l0.824,-0.33l0.858,0.448Z"/><path
        d="M70.135,37.01l0.43,0.768l0,0.01l0.002,0.081l0.003,0.088l0.001,0.087l0,0.086l-0.002,0.086l-0.002,0.085l-0.004,0.083l-0.005,0.083l-0.006,0.082l-0.008,0.081l-0.008,0.081l-0.01,0.079l-0.011,0.078l-0.011,0.078l-0.013,0.076l-0.014,0.076l-0.014,0.075l-0.016,0.073l-0.016,0.074l-0.017,0.074l-0.036,0.139l-0.04,0.139l-0.042,0.135l-0.044,0.132l-0.046,0.13l-0.049,0.126l-0.049,0.125l-0.052,0.122l-0.052,0.119l-0.053,0.118l-0.055,0.117l-0.055,0.115l-0.111,0.225l-0.112,0.224l-0.111,0.223l-0.055,0.111l-0.055,0.111l-0.054,0.113l-0.054,0.115l-0.49,0.32l-0.289,-0.509l0.005,-0.13l0.007,-0.132l0.008,-0.13l0.008,-0.129l0.017,-0.252l0.017,-0.248l0.014,-0.243l0.006,-0.118l0.004,-0.117l0.003,-0.116l0.002,-0.114l0,-0.112l-0.002,-0.111l-0.005,-0.11l-0.006,-0.107l-0.009,-0.107l-0.011,-0.104l-0.013,-0.104l-0.016,-0.105l-0.019,-0.098l-0.011,-0.049l-0.011,-0.05l-0.012,-0.05l-0.013,-0.049l-0.013,-0.049l-0.014,-0.048l-0.015,-0.049l-0.016,-0.049l-0.016,-0.048l-0.017,-0.048l-0.019,-0.048l-0.019,-0.049l-0.019,-0.048l-0.021,-0.048l-0.022,-0.048l-0.022,-0.049l-0.024,-0.048l-0.03,-0.067l0.067,-0.87l0.863,-0.538l0.019,-0.004l0.98,0.159Z"/><path
        d="M64.749,36.898l0.401,0.791l0,0.01l0,0.107l0.001,0.102l0.001,0.1l0.002,0.1l0.004,0.098l0.004,0.098l0.005,0.097l0.006,0.096l0.007,0.095l0.008,0.094l0.008,0.094l0.01,0.092l0.011,0.092l0.011,0.091l0.013,0.09l0.013,0.089l0.015,0.089l0.015,0.087l0.016,0.087l0.017,0.086l0.018,0.085l0.019,0.084l0.02,0.084l0.021,0.083l0.022,0.082l0.022,0.081l0.024,0.08l0.025,0.08l0.025,0.078l0.027,0.078l0.027,0.078l0.028,0.076l0.03,0.076l0.03,0.075l0.031,0.074l0.033,0.074l0.033,0.073l0.034,0.072l0.035,0.071l0.037,0.071l0.037,0.07l0.038,0.069l0.039,0.069l0.041,0.068l0.041,0.067l0.042,0.067l0.044,0.066l0.044,0.065l0.046,0.065l0.047,0.063l0.048,0.064l0.049,0.062l0.05,0.062l0.051,0.061l0.052,0.061l0.054,0.06l0.054,0.059l0.056,0.058l0.057,0.058l0.058,0.057l0.059,0.057l0.061,0.055l0.062,0.056l0.065,0.056l0.13,0.56l-0.563,0.114l-0.084,-0.04l-0.085,-0.043l-0.085,-0.044l-0.084,-0.045l-0.084,-0.047l-0.082,-0.049l-0.082,-0.049l-0.082,-0.051l-0.08,-0.053l-0.08,-0.053l-0.079,-0.055l-0.078,-0.057l-0.078,-0.058l-0.076,-0.059l-0.076,-0.06l-0.075,-0.062l-0.074,-0.063l-0.074,-0.065l-0.072,-0.066l-0.072,-0.067l-0.071,-0.069l-0.07,-0.07l-0.069,-0.071l-0.069,-0.073l-0.067,-0.074l-0.067,-0.075l-0.065,-0.076l-0.065,-0.078l-0.064,-0.079l-0.063,-0.081l-0.063,-0.081l-0.061,-0.083l-0.06,-0.084l-0.06,-0.086l-0.058,-0.086l-0.058,-0.088l-0.056,-0.089l-0.056,-0.091l-0.055,-0.091l-0.054,-0.093l-0.053,-0.094l-0.052,-0.095l-0.051,-0.097l-0.05,-0.097l-0.05,-0.099l-0.048,-0.1l-0.048,-0.101l-0.046,-0.102l-0.046,-0.103l-0.044,-0.105l-0.044,-0.105l-0.043,-0.107l-0.042,-0.108l-0.041,-0.109l-0.04,-0.11l-0.039,-0.111l-0.039,-0.112l-0.037,-0.114l-0.036,-0.114l-0.036,-0.116l-0.035,-0.117l-0.033,-0.117l-0.033,-0.119l-0.034,-0.124l0.171,-0.872l0.843,-0.476l0.02,-0.003l0.948,0.222Z"/><path
        d="M62.422,41.033l0.58,0.802l0.005,0.02l-0.091,1.027l-0.753,0.435l-0.01,0l-0.051,0l-0.038,-0.002l-0.038,-0.001l-0.037,-0.001l-0.037,0l-0.036,0.001l-0.036,0.002l-0.036,0.002l-0.036,0.003l-0.036,0.004l-0.035,0.005l-0.035,0.006l-0.036,0.007l-0.035,0.007l-0.035,0.009l-0.035,0.009l-0.035,0.011l-0.035,0.011l-0.035,0.012l-0.036,0.014l-0.035,0.014l-0.035,0.016l-0.036,0.016l-0.035,0.018l-0.036,0.019l-0.036,0.02l-0.035,0.021l-0.036,0.022l-0.036,0.023l-0.036,0.025l-0.036,0.025l-0.036,0.027l-0.036,0.028l-0.036,0.03l-0.036,0.03l-0.036,0.031l-0.036,0.033l-0.035,0.034l-0.036,0.035l-0.036,0.036l-0.036,0.037l-0.035,0.039l-0.035,0.039l-0.036,0.041l-0.035,0.042l-0.034,0.041l-0.07,0.09l-0.069,0.092l-0.068,0.097l-0.068,0.1l-0.066,0.103l-0.066,0.108l-0.065,0.11l-0.064,0.113l-0.065,0.119l-0.504,0.3l-0.265,-0.524l0.012,-0.141l0.015,-0.143l0.017,-0.142l0.02,-0.142l0.022,-0.14l0.026,-0.14l0.028,-0.139l0.032,-0.138l0.034,-0.136l0.02,-0.07l0.02,-0.068l0.02,-0.068l0.022,-0.067l0.023,-0.067l0.024,-0.068l0.025,-0.066l0.026,-0.067l0.027,-0.066l0.028,-0.066l0.03,-0.066l0.03,-0.065l0.032,-0.065l0.033,-0.065l0.035,-0.064l0.036,-0.064l0.037,-0.063l0.039,-0.063l0.04,-0.062l0.042,-0.062l0.043,-0.061l0.044,-0.061l0.046,-0.06l0.048,-0.06l0.049,-0.059l0.051,-0.058l0.052,-0.057l0.054,-0.056l0.056,-0.056l0.057,-0.055l0.059,-0.053l0.06,-0.053l0.062,-0.052l0.064,-0.05l0.065,-0.05l0.067,-0.048l0.068,-0.047l0.07,-0.046l0.071,-0.045l0.073,-0.043l0.074,-0.043l0.076,-0.04l0.077,-0.04l0.079,-0.037l0.079,-0.037l0.069,-0.032l0.009,-0.004l0.881,0.043Z"/><path
        d="M57.687,37.648l0.018,0.009l0.667,0.713l-0.108,0.879l-0.006,0.008l-0.038,0.056l-0.034,0.051l-0.033,0.05l-0.033,0.052l-0.033,0.053l-0.032,0.054l-0.032,0.054l-0.032,0.055l-0.031,0.057l-0.03,0.057l-0.03,0.059l-0.03,0.059l-0.029,0.06l-0.028,0.062l-0.028,0.063l-0.028,0.063l-0.026,0.065l-0.027,0.066l-0.026,0.067l-0.025,0.068l-0.025,0.069l-0.024,0.071l-0.023,0.071l-0.023,0.073l-0.022,0.074l-0.022,0.076l-0.021,0.076l-0.02,0.078l-0.02,0.079l-0.019,0.081l-0.018,0.081l-0.017,0.083l-0.017,0.084l-0.016,0.086l-0.015,0.087l-0.014,0.088l-0.014,0.09l-0.013,0.091l-0.012,0.092l-0.011,0.094l-0.011,0.095l-0.009,0.096l-0.009,0.098l-0.008,0.099l-0.007,0.101l-0.006,0.102l-0.005,0.103l-0.004,0.105l-0.003,0.106l-0.003,0.108l-0.001,0.109l0,0.11l0,0.112l0.002,0.114l0.002,0.115l0.004,0.116l0.004,0.118l0.006,0.119l0.006,0.121l0.008,0.122l0.009,0.124l0.009,0.125l0.011,0.127l0.012,0.129l-0.298,0.496l-0.483,-0.318l-0.046,-0.125l-0.045,-0.126l-0.043,-0.124l-0.042,-0.124l-0.041,-0.123l-0.039,-0.122l-0.038,-0.122l-0.037,-0.12l-0.035,-0.12l-0.034,-0.119l-0.033,-0.118l-0.032,-0.118l-0.03,-0.117l-0.029,-0.116l-0.027,-0.115l-0.027,-0.114l-0.025,-0.114l-0.024,-0.113l-0.023,-0.113l-0.021,-0.112l-0.02,-0.111l-0.019,-0.11l-0.018,-0.11l-0.016,-0.109l-0.015,-0.108l-0.014,-0.108l-0.013,-0.108l-0.011,-0.106l-0.011,-0.106l-0.009,-0.105l-0.008,-0.105l-0.006,-0.104l-0.006,-0.104l-0.004,-0.103l-0.003,-0.102l-0.002,-0.102l0,-0.101l0,-0.101l0.002,-0.1l0.003,-0.099l0.004,-0.099l0.006,-0.099l0.007,-0.098l0.007,-0.097l0.009,-0.097l0.01,-0.096l0.012,-0.095l0.012,-0.096l0.014,-0.094l0.015,-0.094l0.016,-0.093l0.017,-0.093l0.018,-0.092l0.02,-0.092l0.02,-0.091l0.022,-0.091l0.023,-0.089l0.024,-0.09l0.025,-0.089l0.026,-0.088l0.028,-0.087l0.028,-0.087l0.029,-0.086l0.028,-0.079l0.003,-0.01l0.63,-0.627l0.962,0.07Z"/><path
        d="M51.885,43.186l0.047,0.069l0.036,0.053l0.037,0.054l0.038,0.053l0.04,0.054l0.041,0.053l0.043,0.054l0.043,0.053l0.045,0.053l0.046,0.053l0.047,0.052l0.048,0.053l0.049,0.051l0.05,0.052l0.051,0.051l0.051,0.051l0.053,0.05l0.053,0.05l0.053,0.049l0.052,0.048l0.111,0.096l0.111,0.094l0.112,0.09l0.112,0.088l0.113,0.084l0.112,0.082l0.111,0.078l0.11,0.075l0.108,0.071l0.106,0.068l0.103,0.064l0.1,0.06l0.097,0.056l0.092,0.052l0.088,0.047l0.082,0.044l0.077,0.039l0.071,0.034l0.063,0.03l0.056,0.025l0.046,0.021l0.046,0.017l0.416,0.502l-0.513,0.403l-0.065,0.005l-0.08,0.002l-0.086,0.001l-0.093,-0.001l-0.099,-0.003l-0.105,-0.004l-0.111,-0.007l-0.117,-0.008l-0.124,-0.011l-0.129,-0.013l-0.134,-0.016l-0.139,-0.018l-0.144,-0.021l-0.148,-0.024l-0.153,-0.027l-0.156,-0.029l-0.16,-0.033l-0.163,-0.037l-0.166,-0.04l-0.169,-0.044l-0.171,-0.048l-0.171,-0.05l-0.089,-0.029l-0.087,-0.029l-0.088,-0.029l-0.089,-0.031l-0.088,-0.033l-0.089,-0.033l-0.089,-0.034l-0.089,-0.036l-0.09,-0.038l-0.089,-0.038l-0.09,-0.04l-0.089,-0.042l-0.09,-0.043l-0.089,-0.044l-0.09,-0.046l-0.089,-0.048l-0.089,-0.049l-0.089,-0.052l-0.089,-0.052l-0.08,-0.048l-0.009,-0.005l-0.52,-0.854l0.402,-1.061l0.013,-0.015l1.023,-0.553l0.892,0.432Z"/><path
        id="smille"
        d="M87.192,58.026l0.025,0.197l0.023,0.197l0.022,0.197l0.022,0.196l0.02,0.195l0.02,0.194l0.018,0.194l0.018,0.193l0.017,0.192l0.016,0.191l0.015,0.19l0.014,0.19l0.013,0.189l0.012,0.188l0.012,0.188l0.01,0.187l0.01,0.186l0.009,0.185l0.007,0.185l0.007,0.183l0.006,0.183l0.006,0.183l0.004,0.181l0.003,0.181l0.003,0.18l0.002,0.179l0.001,0.179l0,0.178l-0.001,0.177l-0.002,0.176l-0.003,0.176l-0.003,0.175l-0.004,0.174l-0.005,0.173l-0.006,0.173l-0.007,0.172l-0.008,0.171l-0.008,0.17l-0.009,0.17l-0.01,0.169l-0.011,0.168l-0.012,0.168l-0.012,0.167l-0.014,0.166l-0.014,0.165l-0.015,0.165l-0.016,0.163l-0.016,0.164l-0.018,0.162l-0.018,0.162l-0.019,0.161l-0.019,0.16l-0.021,0.16l-0.021,0.158l-0.022,0.159l-0.023,0.157l-0.024,0.157l-0.024,0.156l-0.025,0.155l-0.026,0.154l-0.027,0.154l-0.027,0.153l-0.029,0.153l-0.029,0.151l-0.029,0.151l-0.031,0.15l-0.031,0.15l-0.032,0.149l-0.033,0.148l-0.033,0.147l-0.034,0.147l-0.035,0.146l-0.036,0.145l-0.036,0.145l-0.037,0.143l-0.038,0.143l-0.039,0.143l-0.039,0.142l-0.04,0.141l-0.04,0.14l-0.042,0.139l-0.042,0.139l-0.043,0.138l-0.043,0.138l-0.044,0.137l-0.045,0.136l-0.045,0.135l-0.047,0.135l-0.046,0.134l-0.048,0.133l-0.048,0.132l-0.049,0.132l-0.05,0.131l-0.05,0.131l-0.051,0.13l-0.051,0.129l-0.053,0.128l-0.052,0.128l-0.054,0.127l-0.054,0.126l-0.055,0.125l-0.055,0.125l-0.057,0.124l-0.056,0.124l-0.058,0.123l-0.058,0.122l-0.058,0.121l-0.059,0.121l-0.06,0.12l-0.061,0.119l-0.061,0.118l-0.062,0.118l-0.062,0.118l-0.063,0.116l-0.063,0.116l-0.064,0.115l-0.065,0.114l-0.065,0.114l-0.066,0.113l-0.067,0.112l-0.067,0.112l-0.067,0.111l-0.069,0.11l-0.068,0.11l-0.07,0.109l-0.07,0.108l-0.07,0.107l-0.071,0.107l-0.072,0.106l-0.072,0.106l-0.072,0.105l-0.074,0.104l-0.073,0.103l-0.075,0.103l-0.075,0.102l-0.075,0.101l-0.076,0.1l-0.076,0.1l-0.077,0.1l-0.078,0.098l-0.078,0.098l-0.078,0.097l-0.079,0.097l-0.08,0.095l-0.08,0.096l-0.08,0.094l-0.081,0.094l-0.082,0.093l-0.082,0.092l-0.082,0.092l-0.083,0.091l-0.083,0.09l-0.084,0.09l-0.085,0.089l-0.085,0.088l-0.085,0.088l-0.086,0.086l-0.086,0.087l-0.087,0.085l-0.087,0.085l-0.087,0.084l-0.088,0.084l-0.089,0.083l-0.089,0.082l-0.089,0.081l-0.09,0.081l-0.09,0.08l-0.091,0.08l-0.182,0.156l-0.184,0.155l-0.185,0.151l-0.188,0.149l-0.188,0.146l-0.191,0.143l-0.192,0.141l-0.193,0.138l-0.195,0.135l-0.196,0.133l-0.197,0.13l-0.199,0.127l-0.2,0.125l-0.202,0.122l-0.203,0.119l-0.204,0.117l-0.205,0.114l-0.206,0.112l-0.208,0.109l-0.209,0.106l-0.209,0.104l-0.211,0.101l-0.212,0.098l-0.213,0.096l-0.214,0.094l-0.215,0.09l-0.215,0.088l-0.217,0.086l-0.218,0.083l-0.218,0.081l-0.219,0.077l-0.22,0.076l-0.221,0.073l-0.222,0.07l-0.222,0.068l-0.223,0.065l-0.223,0.063l-0.224,0.06l-0.225,0.058l-0.226,0.056l-0.226,0.053l-0.226,0.05l-0.227,0.048l-0.227,0.045l-0.1,0.019l-0.1,0.018l-0.102,0.017l-0.103,0.016l-0.103,0.016l-0.105,0.014l-0.106,0.014l-0.107,0.012l-0.107,0.012l-0.109,0.011l-0.11,0.011l-0.11,0.009l-0.112,0.008l-0.112,0.008l-0.114,0.006l-0.114,0.006l-0.115,0.005l-0.116,0.003l-0.117,0.003l-0.117,0.002l-0.118,0.001l-0.12,0l-0.119,-0.001l-0.121,-0.002l-0.121,-0.003l-0.122,-0.004l-0.123,-0.005l-0.124,-0.005l-0.124,-0.007l-0.124,-0.008l-0.126,-0.009l-0.125,-0.01l-0.127,-0.011l-0.127,-0.013l-0.127,-0.013l-0.128,-0.014l-0.129,-0.016l-0.129,-0.016l-0.13,-0.018l-0.13,-0.018l-0.13,-0.02l-0.131,-0.021l-0.131,-0.022l-0.131,-0.024l-0.132,-0.024l-0.132,-0.026l-0.133,-0.027l-0.133,-0.028l-0.133,-0.029l-0.133,-0.031l-0.134,-0.031l-0.133,-0.033l-0.134,-0.035l-0.134,-0.035l-0.135,-0.037l-0.134,-0.038l-0.134,-0.039l-0.135,-0.041l-0.135,-0.042l-0.134,-0.043l-0.135,-0.045l-0.135,-0.046l-0.134,-0.047l-0.135,-0.049l-0.134,-0.05l-0.135,-0.052l-0.134,-0.053l-0.135,-0.054l-0.134,-0.056l-0.134,-0.057l-0.133,-0.059l-0.134,-0.06l-0.133,-0.061l-0.133,-0.064l-0.133,-0.064l-0.132,-0.066l-0.133,-0.068l-0.131,-0.069l-0.132,-0.071l-0.131,-0.072l-0.131,-0.074l-0.13,-0.076l-0.129,-0.077l-0.13,-0.078l-0.128,-0.081l-0.129,-0.082l-0.127,-0.083l-0.127,-0.085l-0.127,-0.087l-0.126,-0.089l-0.125,-0.09l-0.124,-0.092l-0.124,-0.093l-0.123,-0.096l-0.122,-0.097l-0.122,-0.098l-0.121,-0.101l-0.119,-0.102l-0.119,-0.104l-0.119,-0.106l-0.117,-0.108l-0.116,-0.109l-0.115,-0.111l-0.115,-0.113l-0.113,-0.115l-0.112,-0.117l-0.111,-0.118l-0.11,-0.12l-0.109,-0.123l-0.108,-0.124l-0.106,-0.125l-0.106,-0.128l-0.104,-0.13l-0.103,-0.131l-0.101,-0.134l-0.101,-0.135l-0.099,-0.137l-0.097,-0.139l-0.096,-0.141l-0.095,-0.143l-0.093,-0.145l-0.092,-0.146l-0.09,-0.149l-0.089,-0.15l-0.087,-0.153l-0.086,-0.154l-0.084,-0.156l-0.079,-0.152l0.534,-1.614l1.614,0.535l0.067,0.139l0.065,0.131l0.067,0.128l0.067,0.128l0.069,0.125l0.07,0.125l0.072,0.122l0.072,0.121l0.074,0.119l0.075,0.118l0.076,0.116l0.078,0.115l0.078,0.113l0.08,0.112l0.081,0.11l0.081,0.109l0.083,0.108l0.084,0.105l0.086,0.105l0.086,0.103l0.087,0.101l0.088,0.101l0.089,0.098l0.09,0.098l0.092,0.096l0.092,0.094l0.093,0.093l0.093,0.092l0.095,0.091l0.096,0.089l0.097,0.088l0.097,0.086l0.098,0.085l0.099,0.084l0.1,0.083l0.101,0.081l0.101,0.08l0.102,0.078l0.103,0.078l0.104,0.076l0.104,0.075l0.105,0.073l0.105,0.072l0.107,0.071l0.106,0.07l0.108,0.069l0.108,0.067l0.108,0.066l0.11,0.065l0.109,0.063l0.11,0.063l0.111,0.061l0.111,0.06l0.112,0.058l0.112,0.058l0.112,0.056l0.113,0.055l0.113,0.054l0.113,0.053l0.114,0.052l0.114,0.05l0.114,0.049l0.115,0.048l0.115,0.047l0.115,0.046l0.115,0.045l0.115,0.043l0.116,0.043l0.115,0.041l0.116,0.04l0.116,0.039l0.116,0.038l0.116,0.037l0.116,0.036l0.116,0.034l0.116,0.034l0.115,0.032l0.116,0.032l0.116,0.03l0.115,0.029l0.116,0.028l0.115,0.028l0.115,0.026l0.115,0.025l0.114,0.024l0.115,0.023l0.114,0.022l0.114,0.021l0.113,0.02l0.113,0.019l0.113,0.018l0.112,0.017l0.112,0.016l0.111,0.015l0.111,0.014l0.11,0.014l0.11,0.012l0.11,0.011l0.108,0.011l0.109,0.009l0.107,0.009l0.107,0.007l0.106,0.007l0.106,0.006l0.105,0.005l0.104,0.004l0.103,0.003l0.102,0.003l0.102,0.001l0.101,0.001l0.1,0l0.099,-0.001l0.098,-0.002l0.097,-0.003l0.097,-0.003l0.095,-0.004l0.094,-0.005l0.093,-0.006l0.092,-0.006l0.091,-0.007l0.09,-0.008l0.089,-0.009l0.087,-0.009l0.087,-0.01l0.085,-0.011l0.083,-0.011l0.083,-0.012l0.081,-0.012l0.209,-0.035l0.208,-0.038l0.208,-0.039l0.208,-0.042l0.207,-0.044l0.207,-0.046l0.206,-0.049l0.205,-0.051l0.206,-0.053l0.204,-0.055l0.204,-0.058l0.204,-0.06l0.202,-0.063l0.203,-0.065l0.201,-0.067l0.201,-0.069l0.2,-0.072l0.199,-0.074l0.198,-0.077l0.198,-0.079l0.197,-0.081l0.196,-0.084l0.195,-0.086l0.194,-0.088l0.193,-0.091l0.192,-0.093l0.192,-0.096l0.19,-0.098l0.189,-0.101l0.189,-0.103l0.187,-0.105l0.186,-0.108l0.185,-0.111l0.184,-0.113l0.183,-0.115l0.181,-0.118l0.18,-0.121l0.18,-0.122l0.178,-0.126l0.176,-0.128l0.175,-0.13l0.174,-0.133l0.173,-0.136l0.172,-0.139l0.085,-0.069l0.084,-0.071l0.085,-0.071l0.084,-0.072l0.084,-0.073l0.083,-0.073l0.083,-0.074l0.083,-0.075l0.082,-0.075l0.082,-0.076l0.081,-0.077l0.082,-0.077l0.08,-0.078l0.081,-0.078l0.08,-0.08l0.079,-0.079l0.08,-0.081l0.079,-0.081l0.078,-0.082l0.078,-0.083l0.078,-0.083l0.077,-0.084l0.077,-0.084l0.076,-0.085l0.076,-0.086l0.076,-0.087l0.075,-0.087l0.074,-0.088l0.075,-0.089l0.074,-0.089l0.073,-0.09l0.073,-0.091l0.073,-0.091l0.072,-0.092l0.071,-0.093l0.072,-0.093l0.07,-0.094l0.071,-0.095l0.069,-0.096l0.07,-0.096l0.069,-0.097l0.068,-0.097l0.068,-0.099l0.068,-0.099l0.067,-0.099l0.066,-0.101l0.066,-0.101l0.066,-0.102l0.065,-0.102l0.065,-0.104l0.064,-0.104l0.063,-0.104l0.063,-0.106l0.063,-0.106l0.062,-0.106l0.062,-0.108l0.061,-0.108l0.06,-0.109l0.06,-0.11l0.06,-0.11l0.059,-0.111l0.058,-0.112l0.058,-0.113l0.057,-0.113l0.057,-0.114l0.056,-0.115l0.056,-0.116l0.055,-0.116l0.055,-0.117l0.054,-0.118l0.053,-0.118l0.053,-0.119l0.053,-0.12l0.052,-0.121l0.051,-0.121l0.05,-0.123l0.05,-0.123l0.05,-0.123l0.049,-0.125l0.048,-0.125l0.048,-0.126l0.047,-0.127l0.046,-0.127l0.046,-0.128l0.045,-0.129l0.045,-0.13l0.044,-0.13l0.043,-0.132l0.043,-0.132l0.042,-0.132l0.042,-0.134l0.041,-0.134l0.04,-0.135l0.039,-0.136l0.039,-0.137l0.039,-0.137l0.037,-0.138l0.037,-0.139l0.037,-0.14l0.035,-0.14l0.035,-0.141l0.035,-0.142l0.033,-0.143l0.033,-0.144l0.033,-0.144l0.031,-0.145l0.031,-0.146l0.03,-0.147l0.03,-0.147l0.029,-0.149l0.028,-0.149l0.027,-0.149l0.027,-0.151l0.026,-0.151l0.025,-0.153l0.025,-0.153l0.024,-0.153l0.023,-0.155l0.022,-0.155l0.022,-0.157l0.021,-0.157l0.02,-0.157l0.02,-0.159l0.018,-0.159l0.018,-0.16l0.017,-0.161l0.017,-0.162l0.015,-0.163l0.015,-0.163l0.014,-0.164l0.014,-0.165l0.012,-0.166l0.012,-0.167l0.011,-0.167l0.01,-0.168l0.01,-0.169l0.009,-0.17l0.007,-0.171l0.007,-0.171l0.007,-0.173l0.005,-0.173l0.005,-0.174l0.004,-0.174l0.002,-0.176l0.003,-0.176l0.001,-0.178l0.001,-0.178l-0.001,-0.178l-0.001,-0.18l-0.002,-0.18l-0.003,-0.182l-0.003,-0.182l-0.005,-0.183l-0.005,-0.184l-0.007,-0.184l-0.007,-0.186l-0.008,-0.186l-0.009,-0.187l-0.009,-0.188l-0.011,-0.189l-0.011,-0.189l-0.013,-0.191l-0.013,-0.191l-0.014,-0.192l-0.015,-0.193l-0.016,-0.194l-0.017,-0.194l-0.017,-0.196l0.355,-0.444l0.441,0.359Z"
        style="fill:#7d0c16;"/><ellipse cx="57.763" cy="50.067" rx="3.095" ry="4.142"/><ellipse cx="69.36" cy="46.634" rx="3.284" ry="3.067"/></g>
    <defs>
        <linearGradient id="_Linear1" x1="0" y1="0" x2="1" y2="0" gradientUnits="userSpaceOnUse" gradientTransform="matrix(117.569,-28.0376,28.0376,117.569,21.9447,74.7906)"><stop offset="0" style="stop-color:#f5ff00;stop-opacity:1"/><stop offset="1" style="stop-color:#ffc500;stop-opacity:1"/></linearGradient>
        <linearGradient id="_Linear2" x1="0" y1="0" x2="1" y2="0" gradientUnits="userSpaceOnUse" gradientTransform="matrix(117.569,-28.0376,28.0376,117.569,21.9447,74.7906)"><stop offset="0" style="stop-color:#f5ff00;stop-opacity:1"/><stop offset="1" style="stop-color:#ffc500;stop-opacity:1"/></linearGradient>
        <linearGradient id="_Linear3" x1="0" y1="0" x2="1" y2="0" gradientUnits="userSpaceOnUse" gradientTransform="matrix(76.3152,0,0,74.7404,38.0478,63.6598)"><stop offset="0" style="stop-color:#ffcd00;stop-opacity:1"/><stop offset="0.56" style="stop-color:#fdc00a;stop-opacity:1"/><stop offset="1" style="stop-color:#f68c31;stop-opacity:1"/></linearGradient>
    </defs>
</svg>
