<?xml version="1.0" encoding="UTF-8" standalone="no"?>
<!DOCTYPE svg PUBLIC "-//W3C//DTD SVG 1.1//EN" "http://www.w3.org/Graphics/SVG/1.1/DTD/svg11.dtd">
<svg
    width="100%"
    height="100%"
    viewBox="0 0 148 130"
    version="1.1"
    xmlns="http://www.w3.org/2000/svg"
    xmlns:xlink="http://www.w3.org/1999/xlink"
    xml:space="preserve"
    style="fill-rule:evenodd;clip-rule:evenodd;stroke-linejoin:round;stroke-miterlimit:1.41421;"><path
    id="sunRye"
    d="M9.309,30.019c2.723,-1.373 22.621,3.097 35.288,8.618c-1.175,-11.188 -8.666,-18.595 -11.17,-30.066c8.33,2.695 21.042,17.014 28.067,21.186c3.572,-6.798 4.555,-6.338 6.177,-12.087c0.852,-3.023 2.492,-18.736 5.88,-17.613c0.432,3.878 2.42,20.124 8.432,25.758c12.431,-0.48 24.993,-18.674 31.241,-22.402c3.208,4.773 -2.189,24.318 -4.605,34.179c0,0 -2.796,6.989 1.575,7.472c5.25,0.579 25.067,-10.603 35.647,-9.173c-2.329,4.522 -21.553,25.055 -25.928,30.671c11.961,2.693 14.489,18.175 27.689,20.308c-7.433,7.931 -26.623,-2.988 -41.645,-1.729c0,0 1.244,7.702 2.518,11.368c2.182,6.277 8.074,17.934 10.573,26.295c-10.111,-2.306 -26.361,-19.943 -31.97,-20.813c-4.723,-0.732 -9.121,1.57 -13.058,5.925c-4.578,5.064 -9.057,14.785 -16.417,21.906l-1.639,-29.155c-13.835,-7.743 -26.618,11.385 -33.884,13.579c1.038,-6.596 11.547,-25.807 14.74,-29.758c-9.978,-6.216 -26.711,-15.153 -36.82,-17.191l31.313,-5.952c-1.23,-6.486 -0.645,-8.545 -3.213,-13.576c-4.187,-8.205 -14.868,-11.872 -18.791,-17.75Z"
    style="fill:url(#_Linear1);"/>
    <defs>
        <linearGradient id="_Linear1" x1="0" y1="0" x2="1" y2="0" gradientUnits="userSpaceOnUse" gradientTransform="matrix(117.569,-28.0376,28.0376,117.569,21.9447,74.0456)"><stop offset="0" style="stop-color:#f5ff00;stop-opacity:1"/><stop offset="1" style="stop-color:#ffc500;stop-opacity:1"/></linearGradient>
    </defs>
</svg>
