<?xml version="1.0" encoding="UTF-8" standalone="no"?>
<!DOCTYPE svg PUBLIC "-//W3C//DTD SVG 1.1//EN" "http://www.w3.org/Graphics/SVG/1.1/DTD/svg11.dtd">
<svg
    width="100%"
    height="100%"
    viewBox="0 0 1280 800"
    version="1.1"
    xmlns="http://www.w3.org/2000/svg"
    xmlns:xlink="http://www.w3.org/1999/xlink"
    xml:space="preserve"
    style="fill-rule:evenodd;clip-rule:evenodd;stroke-linejoin:round;stroke-miterlimit:1.41421;">
    <g id="sun"><path
        id="sunRye2"
        d="M183.535,149.556c2.723,-1.373 11.023,-0.833 23.69,4.689c-1.175,-11.189 -1.578,-12.002 -8.532,-20.836c8.33,-2.414 19.888,6.795 25.429,11.956c3.573,-6.799 3.894,-6.567 6.177,-12.088c0.564,-1.364 2.636,-9.935 6.024,-8.812c0.433,3.878 2.276,11.323 8.289,16.958c12.43,-0.481 17.315,-7.229 23.563,-10.956c3.208,4.773 6.885,19.014 3.072,22.733c0,0 3.664,6.538 8.034,7.02c5.251,0.58 2.484,-0.692 13.064,0.738c-2.329,4.522 -5.428,15.596 -9.803,21.211c11.96,2.693 13.493,19.74 26.693,21.873c-7.433,7.931 -19.086,-0.571 -34.108,0.689c0,0 -3.471,4.637 -4.023,7.385c-0.805,4.002 -3.304,8.263 -0.805,16.625c-10.111,-2.306 -16.935,-6.167 -20.592,-11.142c-8.208,4.163 -7.595,3.778 -13.059,5.924c-5.289,2.078 -8.181,3.615 -15.54,10.736l-2.515,-17.984c-13.836,-7.744 -21.362,-1.539 -28.628,0.655c1.038,-6.596 6.291,-12.883 9.484,-16.835c-9.978,-6.216 -10.513,-15.248 -20.622,-17.286l15.115,-5.857c-1.231,-6.486 -1.33,-8.25 -3.214,-13.576c-3.037,-8.588 -3.27,-7.942 -7.193,-13.82Z"
        style="fill:url(#_Linear1);"/></g>
    <defs>
        <linearGradient id="_Linear1" x1="0" y1="0" x2="1" y2="0" gradientUnits="userSpaceOnUse" gradientTransform="matrix(117.569,-28.0376,28.0376,117.569,184.573,189.653)"><stop offset="0" style="stop-color:#f5ff00;stop-opacity:1"/><stop offset="1" style="stop-color:#ffc500;stop-opacity:1"/></linearGradient>
    </defs>
</svg>
