<svg id="svg8" height="79.472809mm" viewBox="0 0 236.64828 79.47281" width="236.64827mm" xmlns="http://www.w3.org/2000/svg"><g id="layer1" transform="translate(64.220749 -94.886812)"><ellipse id="path4321" cx="106.96725" cy="185.49701" fill="none" rx="84.288689" ry="60.098213"/><g id="text4995" fill="#fff" stroke-width=".2313897" transform="matrix(-1.2869822 -.2289169 .15731668 -.98794919 175.87134 384.93683)"><path id="path4997" d="m194.27506 190.47919c.87323.13345-.60903.49891.64574.57884 1.49838.3014 3.07846.21762 4.46459-.45734 2.68343-.82686 5.34553-2.23962 8.22064-2.0091 2.366.2167 2.77121 3.48042 1.33443 4.97396-.66437 1.45224-4.44962.88267-3.39283 2.79726 1.09735 1.08967 2.94583 1.56439 3.47858 3.13385.0498 1.69039-.92697 4.02564-2.94981 3.83907-2.39427-.18082-4.6978-1.26601-6.15327-3.20745-1.40667-1.06647-2.70009-2.60034-4.53253-2.8351-.6005-.24934-2.73801-.0921-1.61102-.6465-1.49235-.75629-3.65627-1.58499-3.13173-3.74237.18152-1.70917 2.04741-2.68659 3.62721-2.42512zm10.57598 12.51466c-.46804-64.52117-.23402-32.26059 0 0z"/><path id="path4999" d="m195.50905 204.51835c3.10091 1.37203 4.81888 5.27191 3.51543 8.45059-.52568 2.68111-2.76772 4.60968-5.46177 4.84358-1.70946.63927-5.41473.64679-5.58024-1.4703.2617-1.96587 2.64461-4.3735 1.71391-6.60759-2.64416.0579-.94114 3.96058-3.18079 4.63106-3.19337.23965-2.66961-3.6393-1.59508-5.51404.74401-2.60311 3.04392-4.49439 5.42124-5.57485 1.86334-.7479 3.57542.42192 5.1673 1.24155zm-11.35301 7.11123c-.0484-.60641-.52934.33998 0 0zm14.65289 1.84096c-.0394-.70176-.62458.35376 0 0z"/><path id="path5001" d="m183.75847 216.36928c.66171.40927.78674 1.33893.33215 1.94748-.41642.56044-.9324 1.01862-1.40761 1.52218-.65409.5159-1.5467.68681-2.09884 1.33612.77743.51207 1.61072-.17685 2.36221-.40917 1.34161-.38894 2.6217-1.12955 4.05878-1.09798 1.68751.88106 2.73234 2.7529 2.69698 4.64485.0568 2.71368-1.52056 5.45637-4.03128 6.5723-1.12046.61512-2.30621 1.61098-3.67163 1.24439-.7503-.17689-1.39498-.7341-1.52886-1.5159-.23139-.64192-.12625-1.5448-.76665-1.94479-1.03785-.51089-2.29623.23687-3.29203-.44958-1.54744-.82971-2.78026-2.74973-2.08227-4.51337.82741-2.30748 2.90978-3.84902 3.91062-6.06065 1.19051-1.4361 3.28469-2.13216 5.0781-1.57915.16202.076.31277.17738.44033.30327zm.67476 10.02574c-1.44407.026-2.73914.75856-4.11077 1.11887-.69386.0628-.94224.80659-.22401 1.08442.82797.71312.93117 2.10258 2.04118 2.50559.61166.26037 1.88848-.0384.81505-.60108-.60204-.33672-1.08682-1.14675-.4078-1.67807.67227-.8811 2.75777-1.3071 1.88635-2.42973zm-2.07709 2.3355c-.64113.12813.0691-.71774 0 0zm-1.16813 2.74343c.0846-.37895-.37031.081 0 0z"/><path id="path5003" d="m172.20543 226.5344c.86944.95053 1.16935 2.5427.29154 3.58814-.53501.74566-1.24555 1.68095-2.27533 1.5812-1.27683-.21914-2.19086-1.4314-2.24196-2.69528-.14421-1.47736.85381-3.0826 2.35822-3.35862.77617-.15175 1.45099.24743 1.86753.88456zm2.86936 4.58774c.56626-.62103 1.08047.56601 1.49596.89654 1.14438 1.01302 2.27427 2.07378 3.26113 3.25018.1591.22448.73583.83375.14895.47091-.27856-.2119-1.1649-.38081-.62658.18731.63369.91927 1.19963 1.90371 2.01109 2.68498.45854.67779-.0859 1.49097-.52322 2.02967-.80059.9256-2.12326 1.60396-3.34205 1.12435-.84972-.39796-1.42803-1.18968-2.04225-1.87165-1.23517-1.55083-2.25962-3.29493-2.90409-5.17366-.34546-1.04542-.49244-2.37775.32755-3.24557.60773-.53284 1.471-.2504 2.19351-.35306z"/><path id="path5005" d="m156.35783 243.56196c1.14402.11748 1.32748 1.4295 1.786 2.25563.54188 1.13246 1.05822 2.36569 2.1103 3.13032 1.0511 1.05305 1.78826 2.83565.91101 4.20757-.14642.31654-1.40099.95523-1.15398.52076.72033-.7538-.78401.36429-1.19806.1941-1.26864.0916-2.31357-.77723-3.26607-1.48744-1.10764-.91128-1.87053-2.16449-2.48564-3.43146-.42965-.12814-1.15064.032-1.20639-.39219-1.16776.46916-.57505 1.98913-.36778 2.90149.37713 1.22451 1.23946 2.45876.86472 3.78643-.41188 1.25093-1.67177 1.90963-2.80813 2.36131-.0674.30468.89963.42122.10851.55171-1.31534.31891-2.26675-.97335-2.76516-2.01045-.96488-1.93677-1.46906-4.10096-1.58026-6.25523.019-2.24183.78728-4.46565.35792-6.70928-.11608-1.27563-.28747-2.71688.52333-3.81572.92786-.30709 1.98779-.75549 2.53125-1.58089-.33094-.26885-1.97833.41374-.98565-.25508.96068-.56591 2.19856-.40806 3.07816.23847 1.05073.5999 2.20616 1.11207 3.04203 2.00701.75495.98965 1.06912 2.31295 2.10391 3.08143.16733.21219.30095.45039.39998.70151zm4.34369 6.99146c28.96497-96.22755 14.48249-48.11378 0 0z"/><path id="path5007" d="m141.90146 248.22034c.89889 2.8793-.32927 6.40422-3.08899 7.78527-1.5816.91676-3.45824 1.57654-5.30085 1.22548-.97088-.17173-1.62838-.94757-2.43398-1.40065-1.70472-.82093-3.16002-2.37901-3.46775-4.29281-.47487-1.0785 1.10248-1.17212 1.72574-1.5821 1.19451-.56048 2.49541-.83686 3.71038-1.34499.93844.10602 1.57623-1.51279.49657-1.77651-1.08945-.30615-1.9852.54344-2.8415 1.06428-.74458.46808-1.88898.66552-2.50915-.10896-.76633-.97536-.38059-2.47122.47731-3.25807.79277-.59862 1.85173-.63806 2.66674-1.20514.98946-.545 2.11414-.95561 3.25976-.77373 1.35929.0967 2.73284.23014 4.04906.5901 1.47431.5323 2.56017 1.89982 2.83706 3.43109.1525.54565.27352 1.09942.4196 1.64674zm-12.86391-3.73901c.46904-.36329-.53733-.11907 0 0zm8.37962 12.16059c.51524-.48973-.56246-.15364 0 0z"/><path id="path5009" d="m125.78238 248.05611c.28805 2.79823.53721 5.61866.3233 8.43163-.35011 1.13207-1.54151 1.70565-2.62403 1.92171.0914.78265-.72586.31886-1.17283.33157-.64112-.1055-1.31242-.0632-1.90008.2305-.32772.1714-.64523-.0663-.61693-.25495-1.11832.0188-2.33054.50824-3.37452-.11202-.97282-.61262-1.13059-2.0461-.47731-2.94925.92579-1.40437 2.74562-1.98444 3.49393-3.53059.56916-1.51921-.0561-3.11877-.0569-4.67275-.005-.83937.17896-1.82646.98489-2.26498 1.17948-.65709 2.69839-.41386 3.80272.28947.88527.56387 1.54421 1.51679 1.61774 2.57966zm-8.787 10.77265c-.67693-.37618.54778-.42612 0 0z"/><path id="path5011" d="m113.07889 243.26714c-.0175 1.3208-1.30012 2.02323-2.04294 2.94189-.55208.83416.0719 1.78821.1768 2.66083.50403 2.01416 2.45165 3.42537 2.54915 5.57679.12854 1.58304.20728 3.37139-.84353 4.68594-.95983.49217-2.06489.28499-3.09465.24743-1.38987-.53143-1.91625-2.10788-2.09036-3.46175-.28836-.75306.13782-1.7003-.44763-2.34517-.93244-.48814-1.10359 1.00873-.84179 1.64513.16986 1.30314-.28358 2.66694-1.06882 3.70632-.59459.76908-1.59282 1.38851-2.5869 1.03781-1.27122-.36007-2.16887-1.74606-1.8633-3.0527.0728-2.85084 1.22528-5.50424 2.08556-8.17876.99045-1.5673 1.60427-3.37949 1.69348-5.23451.20096-.89636.87724-1.9564 1.91829-1.86584 1.17371.248 2.36618.0138 3.51802-.22365 1.01048-.14668 2.3149.019 2.78347 1.06746.11349.24681.17226.52087.15515.79278zm.20986 11.42946v-.00001z"/><path id="path5013" d="m84.3869 255.87739c-.244687-.95923-.707667.69277-.981989.82418-.513473.0937-2.11706.42908-1.291728 1.01361.477722-.31854 2.142944-1.40604 1.593669-.0839-.972108 1.03417-2.873653.71458-3.506653-.54031-.935921-1.10756-1.67473-2.79719-.794368-4.15076.550686-1.22672-1.465373-2.02756-1.409084-.4655-.167981 1.08107-.623101 2.42592-1.856411 2.63081-1.673729.6113-3.878263.0961-4.745729-1.56023-.122446-.78162-.155311-2.66494-1.36154-2.20149-.932756.77517-1.206521 2.45655-2.640848 2.56505-1.751575.31982-3.529429-1.64737-2.832222-3.34445.489265-2.40641 1.786076-4.6199 3.565509-6.30122.556014-1.06717.658712-2.57763 1.916334-3.10189 1.539-.76797 3.480294-.74771 4.953648.16746.831084.86998.534807 2.72994 1.891194 3.05999 1.296961-.19144 1.993284-1.79548 3.393559-1.63985 1.582112-.14328 3.570359.5627 3.923303 2.29312.695497 2.88811.36399 5.88106.574192 8.81621-.03142.68677-.141381 1.37593-.390836 2.01918zm-.485603 1.13236c.752147-.1798-.548579-.35567 0 0z"/><path id="path5015" d="m63.974288 245.49599c-1.078211 2.77872-4.163688 4.78374-7.161127 4.19248-4.7936-.94863-4.326815-1.75341-6.314566-5.58988-.568099-1.52314-.644319-3.32066.186158-4.764.158429-1.10072 1.501747-.58393 2.176003-.32976 1.777175.39555 3.406926 1.36199 5.247258 1.48572.662926-.5396.19372-1.54435-.46368-1.85596-1.115504-.46191-2.477906-.0909-3.508089-.82197-1.022267-.68687-.672765-2.31507.304215-2.87128.550636-.28023 1.122044-.62877 1.773552-.52825.659696.0145 1.221328.40052 1.832786.56615 1.297012.2324 2.74035.44344 3.65722 1.49505 1.236807 1.14094 2.604273 2.28178 3.27482 3.866.500359 1.39715.121376 2.93185-.57134 4.19168-.146077.32058-.295241.63982-.43321.96402zm-8.745944 3.81303c.911698-.18539-.47448-.50169 0 0z"/><path id="path5017" d="m50.421697 236.25555c-.820704 1.24072-2.113408 2.30643-2.254856 3.88043-.277124.93582-.941778 1.67587-1.498773 2.4535-.844773-.1934-1.042175 1.08683-1.618576 1.50858-.783313 1.05583-1.641888 2.25468-2.998747 2.57189-1.43665.0842-2.498909-1.25712-2.798903-2.542-.400468-1.50737.171964-3.09938 1.098333-4.29418.502691-.90969 1.003671-1.84368 1.748452-2.5828-.423274.30784-.111528 1.47157.274533.59321.74621-1.37213.891294-3.14601 2.2305-4.13491 1.265313-1.23151 2.495219-2.50402 3.853655-3.63517 1.212626-.73109 2.934998.11726 3.202923 1.48215.464555 1.66517-.42157 3.30779-1.238541 4.6993z"/><path id="path5019" d="m43.73521 231.87328c-1.008169 1.17488-2.370109 2.21391-2.692776 3.81396-.520776.90006-1.131869 1.88973-2.174582 2.23465-.840862.63967-1.362887 1.59756-2.187394 2.25785-.741463.71359-1.774408 1.46479-2.856985 1.13393-1.602789-.58233-2.270025-2.54029-1.941689-4.11208.363986-1.66242 1.622039-2.89051 2.567389-4.23762.162277-.22215.821864-.7868.714146-.78115-.373424.49962.580556 1.02881.572873.23404.759394-1.30551 1.200872-2.94802 2.593823-3.74822 1.388924-1.09037 2.698098-2.29583 4.217643-3.20836 1.540367-.55652 3.218429 1.04658 2.92 2.6103-.06441 1.43947-.924277 2.67194-1.732448 3.8027z"/></g><g id="text4319" fill="#00c9b5" stroke-width=".2313897" transform="matrix(-1.2869822 -.2289169 .15731668 -.98794919 175.69579 384.18067)"><path id="path5116" d="m194.27506 190.47919q.12507.0221.30016.053.19568.0604.12647.30607l-.52526-.0928.65616.37387q.025.004.334.007.30457.028.71361.0487.40904.0207.84751.0208.43405.0251.71803.0237.59297.002 1.05504-.27787.48266-.25004 1.02711-.41178.76222-.22644 1.83936-.62937 1.07271-.37793 2.19103-.722 1.14334-.33965 2.18512-.54249 1.06679-.19841 1.81717-.0658 1.32567.23423 1.83458 1.14953.5295.94474.2997 2.24539-.14142.80041-.5388 1.29765-.37678.52668-.8727.85175-.47091.3295-1.01978.51625-.54886.18675-1.00943.31172-.43998.15441-.77106.27646-.31049.15149-.35027.37661-.0707.4002.45155.80199.54285.43123 1.23578.88897.71352.48718 1.36817 1.01554.67967.53278.87818 1.1611-.0133.075-.0398.22511-.0265.15008-.0575.32517-.006.1795-.0324.32958-.0309.17509-.0398.22511-.24748 1.40071-1.0569 2.18626-.80942.78555-2.33519.51597-1.05053-.18561-2.14516-.55956-1.09905-.34895-1.92729-1.06274-.51342-.45182-.96356-.96984-.45013-.51802-.98857-.97426-.31924-.23696-.8209-.60932-.47665-.36795-.95331-.73589-.45605-.33851-.8209-.60932-.34426-.24138-.36927-.2458l-3.25164-.57451.74455-.12638q-.30598-.312-.83416-.53429-.52818-.22229-1.05194-.46959-.52377-.2473-.92538-.60198-.40603-.32968-.45888-.90647-.0235-.15891-.0293-.41788-.006-.25896-.0367-.52235-.0102-.23395-.0249-.44289.0103-.20452.0148-.22953.10164-.57529.46517-1.02693.38853-.44722.90505-.74286.51651-.29564 1.10657-.42353.61064-.0985 1.1359-.006zm13.23681-1.19498q-.6003-.10606-1.29482.0292-.66951.13964-1.3567.37933-.68718.2397-1.35377.50882-.64158.27355-1.19045.4603-.16775.0735-.65775.2191-.49442.17058-1.0683.35291-.57387.18233-1.09331.34849-.51943.16616-.73721.23086-.67834.18967-1.40079.19099-.69744.006-1.43164-.0724-.71361-.0487-1.4228-.12241-.71362-.0487-1.40372.0615-.47674.0705-1.02711.41178-.52977.37068-.62258.89594-.10606.60031.24403 1.10065.3751.50476.92678.88596.57229.41064 1.17109.67119.62381.26498 1.01075.41073.10005.0177.47082.10898.37077.0913.79157.19144.4458.10456.81657.19586.37077.0913.47082.10898.46198.15901.87244.46367.41045.30466.78705.65493.40162.35468.74879.72554.34717.37086.68258.66226.53843.45624 1.1519.92574.61347.4695 1.26963.84337.67675.40329 1.3756.68153.69443.30325 1.4198.43141.6003.10606.94906-.11605.34877-.2221.86237-.64723.009-.05.0265-.15007.0383-.0706.0427-.0956.10607-.60031-.14397-1.08297-.22502-.47825-.6178-.88296-.39277-.40471-.89002-.80208-.50166-.37237-.89444-.77708-.39277-.40471-.64281-.88738-.22502-.47824-.11454-1.10356.0928-.52526.42248-.93129.35027-.37661.81234-.65607.48708-.27505 1.01093-.46622.52386-.19117 1.00502-.28671-.0323-.10889.0604-.19569.0927-.0868.1766-.12356.31782-.047.4694-.17499.15158-.12798.25313-.2648.12657-.1324.2443-.21477.11773-.0824.31783-.047.0751-.42521.034-.92255-.0455-.47232-.22051-.94173-.15441-.43998-.48098-.7814-.331-.31642-.83125-.40481zm-2.39085 13.53182q-.025-.004-.19568-.0604-.17067-.0559-.41196-.15017-.24128-.0942-.31632-.10747-.075-.0133-.14566-.0515-.05-.009-.10005-.0177-.025-.004-.10005-.0177-.0544.0162-.0795.0118.26479.25313.60171.39004.36193.14133.71211.2032zm3.2581-2.23583q.0486-.27514-.0146-.64741-.0382-.36786-.18083-.72838-.11763-.35609-.37801-.63424-.23537-.27373-.41045-.30466-.15008-.0265-.17509-.0309-.0294.0206-.0545.0162.49424.70636.80897 1.40681.33975.70486.26011 1.59356.0133-.075.0619-.35018.0692-.2457.0825-.32074zm.13553-7.92043q.0221-.12506-.15299-.15599-.17509-.0309-.19718.0941-.0221.12507.15299.156.17509.0309.19718-.0941z"/><path id="path5118" d="m195.50905 204.51835q1.64945.90123 2.57299 2.07155.93365 1.20479 1.22458 2.5794.29093 1.37461-.0487 2.89675-.31733 1.53432-1.18202 3.1169-.31665.57953-.65949.94215-.33274.39708-.76267.65422-.40765.26932-.90239.43316-.50692.18614-1.13747.33367-.0972-.13994-.29183-.10156-.18452.0728-.17855.22083-.7806.21026-1.44561.36791-.66502.15764-1.27925.16936-.62641.034-1.24662-.10224-.6202-.13626-1.33348-.52598-.11145-.0609-.45591-.27805-.33435-.18268-.4458-.24357-.13167-.12983-.24909-.33871-.0951-.1967.002-.37502l.49038.26793q-.0768-.38927.0818-.99729.18084-.59586.45704-1.31327.2762-.71741.59905-1.46722.32285-.74981.54023-1.41253.22749-.62825.29068-1.11472.0855-.47429-.14754-.63055-.35273.01-.62641.034-.25139.0363-.44809.13144-.17441.10732-.31642.26128-.15419.17625-.31251.46602-.19486.35663-.2762.71741-.0591.37295-.11811.7459-.0489.40742-.13029.76819-.0712.39525-.26609.75188-.36536.6687-.9635.86288-.59815.19418-1.26685-.17118-.6464-.35319-.90745-.98787-.25094-.60021-.37204-1.3321-.20475.004-.22084-.17854.006-.17028.0671-.28173.0244-.0446.0609-.11145.0243-.0446.0466-.0324.0244-.0446.15212-.11949.12777-.0749.15212-.11949.21922-.40122.31481-.84104.11788-.42764.22565-.88976.0956-.43982.20336-.90193.13005-.44993.36145-.87344.0853-.15603.27804-.45591.17051-.31206.18268-.33435.0588-.0547.36514-.35043.30631-.29574.68362-.66847.38743-.33826.76474-.71098.38743-.33826.59837-.51244 1.03245-.8831 1.88612-1.2271.86378-.30954 1.70298-.25623.82702.0756 1.71057.47151.90584.4081 1.97576.99268zm-2.49922-.35247q-.2553-.16844-.86355-.009-.60826.15971-1.3707.49567-.77463.35825-1.61014.82796-.8477.49199-1.5697.96582-.69971.48602-1.2149.89919-.51519.41317-.64915.65835-.15833.28977-.21531.60597-.057.31619.0685.6163l.41408-.75786q.0892.0487.0423.39938-.0591.37295-.15671.86953-.0875.53105-.21162 1.12897-.11398.63238-.14476 1.1655-.043.5554.0439.97914.0747.44602.36445.60435.31206.1705.56965-.0361.26771-.17211.40167-.4173.2314-.42351.3047-.87551.0956-.43982.1466-.904.0733-.452.15878-.92629.0956-.43982.33916-.88562l.45061-.82472-.002.37502q.40351-.1558.95294-.26082.57172-.0929.99523.13855.24519.13397.38904.24151.16614.11972.37272.37731.0163-.1358.0246-.36284-.004-.20474-.0524-.43384-.0607-.20682-.1558-.40352-.085-.16223-.23094-.21301-.5168-.16659-1.05819.0297-.55357.21854-.99362.44121l.12179-.2229q.28011-.51267.91273-.71696.64272-.16982 1.15539.11029.69098.37755.80405 1.0182.11306.64066-.0942 1.33785-.21944.71948-.5848 1.38817-.35525.70317-.58872 1.18343-.0487.0892-.21921.40122-.17051.31206-.36537.6687-.20704.37892-.37754.69098-.1705.31206-.20704.37893-.21117.49245-.0737 1.08852.13742.59608.30333 1.03406l.2229.12179q.53496.29229 1.25053.30699.70339.037 1.43734-.14088.72178-.15557 1.38081-.4612.68133-.29345 1.10323-.64182.10547-.0871.37524-.31596.26978-.22888.55173-.48004.28195-.25117.55172-.48004.2576-.20658.36307-.29368l.24128-.0708q-.1057.40535-.26816.80863-.15235.43776-.40396.79233.2615-.002.48256-.14156.22105-.13971.3996-.36054l.66983-1.22595q.13397-.24519.30447-.55724.18061-.27759.32883-.60183.1705-.31206.23966-.65054.0915-.32631.0572-.63446l-1.15699 2.11754q-.21072-.14408-.21256-.40558.0205-.24932.0733-.452.0365-.0669.1381-.3587.10157-.29184.22749-.62826.12593-.33641.22749-.62825.10157-.29183.11581-.37088.11995-.4844.0372-1.02165-.0827-.53726-.25669-1.06646-.18613-.50692-.40674-1.00373-.23278-.47452-.40076-.85574-.0425-.0811-.13765-.27781-.085-.16224-.20245-.37112-.10731-.17441-.21462-.34882-.1195-.15212-.18637-.18865l-3.25823-1.98284zm-8.85379 7.4637q.0609-.11145-.0951-.19671-.13374-.0731-.19463.0384-.0609.11145.0729.18452.15603.0853.21692-.0262zm5.07672-6.74879q.0609-.11145-.0951-.1967-.15603-.0853-.21693.0262-.0609.11145.0951.1967.15603.0853.21692-.0262zm.0852-.15603q.0547.0588.11559-.0526.0487-.0892-.0303-.10341-.079-.0142-.1034.0303-.0365.0669.0181.1257zm.47038-.11927q.0609-.11144-.0951-.1967-.15603-.0853-.21692.0262-.0609.11145.0951.1967.15603.0853.21692-.0262zm.0853-.15602q.0547.0588.11559-.0526.0487-.0892-.0303-.1034-.079-.0143-.10341.0303-.0365.0669.0181.1257zm.48257-.14156q.0609-.11145-.0951-.1967-.15603-.0853-.21692.0262-.0609.11145.0951.1967.15603.0853.21693-.0262zm4.59105 6.27119q.28977.15833.46189.42603.15993.29.21646.61033.0444.34262-.0126.65881-.0692.33848-.20313.58367-.32883.60183-.95546.9541-.60435.36446-1.29534-.0131-.75785-.41408-.91343-1.13585-.14546-.68731.26862-1.44516.35318-.64641 1.06484-.83645.72178-.15558 1.36818.1976zm-.55793.65032q-.33434-.18268-.73579-.0836-.39133.13351-.57401.46786-.20704.37893-.11007.83713.0848.4805.48602.69971.28977.15833.69535-.0542.41569-.1781.57401-.46786.1705-.31206.0735-.77027-.0747-.44602-.40904-.6287zm.5511 6.08992q.0609-.11144-.0951-.1967-.15603-.0853-.21692.0262-.0609.11145.0951.1967.15603.0853.21693-.0262zm.30424-.23898q.0609-.11145-.0951-.1967-.13374-.0731-.19463.0384-.0609.11144.0728.18452.15602.0853.21692-.0262zm.48485-.51658q.0609-.11145-.0951-.1967-.13374-.0731-.19464.0384-.0609.11145.0728.18452.15603.0853.21692-.0262zm-.24357.4458q.0609-.11145-.0951-.1967-.13374-.0731-.19463.0384-.0609.11145.0728.18452.15602.0853.21692-.0262zm.89893-1.27443q.0609-.11145-.0951-.1967-.15603-.0853-.21693.0262-.0609.11145.0951.1967.15603.0853.21692-.0262zm-.57011.6726q.0547.0588.11559-.0526.0487-.0892-.0303-.1034-.079-.0143-.10341.0303-.0365.0669.0182.12569zm2.97921-4.71097q.0609-.11145-.0951-.1967-.15603-.0853-.21692.0262-.0609.11145.0951.1967.15602.0853.21692-.0262zm-1.92654 3.89681q-.0609.11145-.21692.0262-.15603-.0853-.0951-.1967.0609-.11145.21693-.0262.15603.0853.0951.1967zm1.94149-2.12305q.0609-.11145-.0951-.1967-.15602-.0853-.21692.0262-.0609.11145.0951.1967.15603.0852.21692-.0262z"/><path id="path5120" d="m183.75847 216.36928q.12896.1224.27821.3341.16768.2292.28196.47775.11429.24855.13833.48149.007.25136-.1683.43559l-1.92347 2.0265q-.0175.0184-.19515.0949-.17674.11241-.28353.15113-.0534.0194-.23106.0959-.17767.0765-.39125.15394-.21265.11334-.37283.17142-.17767.0765-.21264.11335-.0359.00093-.0884.0562-.0525.0553-.034.0728-.035.0368-.0331.10866.0203.0893.0212.12521l.0737.07q.14738.13988.61139.02.44652-.10148 1.08725-.33379.65916-.21483 1.40576-.52177.7291-.28852 1.42417-.50429.69507-.21576 1.24932-.32005.57266-.0868.8821.0668.0553.0525.16581.15737.12896.12241.29383.24387.14738.13989.25791.24481.12896.1224.18423.17486.90272.85681 1.25587 1.99746.35409 1.17656.24231 2.40121-.0934 1.24213-.60202 2.40527-.50866 1.16313-1.3305 2.029-.13989.14738-.40312.38781-.26229.27634-.27978.29477-.035.0368-.42435.2626-.38937.22576-.88554.49023-.49523.30039-1.00888.58329-.53114.30132-.83215.47087-.74378.41467-1.57343.29258-.81123-.10461-1.38233-.64668-.33161-.31474-.44964-.70693-.11803-.39219-.18173-.76782-.0637-.37564-.10804-.69788-.0443-.32225-.22857-.49711-.42372-.40218-.89053-.39-.4484.0297-1.00451.0621-.55612.0325-1.20716-.13021-.65105-.16268-1.4248-.8971-.8106-.76938-1.10006-1.5344-.28852-.7291-.21795-1.46758.0715-.70256.43028-1.41262.35878-.71005.86119-1.42386.50335-.67789 1.06009-1.37515.55674-.69725 1.04167-1.39263.035-.0368.13708-.25511.10304-.18236.22357-.38313.12053-.20078.20515-.40062.10304-.18236.13801-.2192.0175-.0184.15738-.16581.10398-.14644.17392-.22013.38469-.4053 1.07602-.7647.70974-.34192 1.47757-.52365.76876-.14582 1.48881-.0927.70256.0715 1.14471.49117zm-.48961.51583q-.25792-.2448-.93644-.0834-.6601.17892-1.38827.50335-.74565.34285-1.40013.73722-.63605.41186-.84589.63293-.68195.71849-1.36297 1.47289-.68008.7903-1.14284 1.64681-.46275.8565-.61794 1.79481-.15519.93831.17767 1.98966.13645.40967.19734.67759.0609.26791.13739.44558.0774.21358.18891.3544.11241.17674.35191.40405.49741.47213 1.01668.40468.52021-.0315 1.03386-.31443.53208-.26542 1.02544-.63762.51177-.35472.97578-.47462.0534-.0194.2854-.0793.25042-.0425.51739-.13926.26792-.0609.49992-.12084.232-.06.28539-.0793.39219-.11803.72911-.28852.33785-.13457.65916-.21482.32131-.0802.62794-.0343.32505.0634.65666.37814.31319.29726.40998.56423.0793.2854-.003.55706-.0643.28914-.2548.56361-.19047.27447-.43528.53239-.22731.23949-.4206.40623-.17486.18423-.36908.31506-.19328.16675-.42341.29852-.22919.16767-.40686.24418-.17674.11241-.25948.38406-.10024.29008-.0265.36003.11053.10491.43371.0965.32412.0275.43091-.0112.1427-.0396.48055-.17423.33879-.0987.71256-.23419.37376-.13552.71162-.2701.35627-.11709.48055-.17423l-.83933.88429q.0884-.0562.33692-.17049.23106-.0959.47868-.24605.26604-.13271.49616-.26448.23107-.0959.31944-.15206l.1224-.12896q.68195-.71849 1.21091-1.79232.52989-1.03792.73379-2.17513.2039-1.13722-.0222-2.22729-.20765-1.07258-1.01825-1.84196l-.12896-.12241.13552.37377q-.41529-.079-.9024-.15613-.48618-.0412-.9889-.0281-.50179.049-.96579.16893-.46401.1199-.83496.36314-.42435.2626-.98765.7085-.54488.46338-1.16532.78499-.63793.34005-1.28429.35691-.64542.0528-1.21652-.4893-.0368-.035-.11148-.14083-.0921-.0874-.12896-.1224.4153.079.93738.11928.5046.0587 1.02387-.009.52021-.0315.98234-.22326.48055-.17423.81279-.52427.0175-.0184.069-.1096.0524-.0553.0874-.0921-.52209-.0403-.98703.0437-.44652.10148-.87742.11273-.44839.0297-.88305-.10274-.43371-.0965-.89428-.53363-.0175.0184.035-.0368.0534-.0194.0359-.00093-.035.0368-.11959.23668-.0837.23575-.11866.2726-.035.0368-.12521.0212-.0893.0203-.12615-.0147-.0921-.0874-.13364-.30194-.0231-.19703-.008-.32318.0524-.0553.13895-.18329.10491-.11054.2448-.25792.1224-.12896.2089-.25698.10491-.11054.15737-.16581.36721-.38688.81092-.59608.44371-.20921.90584-.40093.44464-.1733.88835-.38251.42622-.19078.77594-.55924.15738-.16581.27697-.40249.1021-.21826.13146-.47056.0478-.23481.005-.48524-.0415-.21452-.22576-.38938zm-8.27746 8.46261q-.0109.26979.0315.52021.0434.28633.24605.47868l.12896.1224zm9.97516-4.68q.0874-.0921-.0415-.21452-.12896-.1224-.21639-.0303-.0874.0921.0415.21452.12896.1224.21639.0303zm.37377-.13552q.0874-.0921-.0415-.21451-.12896-.12241-.21639-.0303-.0874.0921.0415.21451.12896.12241.21639.0303zm-.9071 5.86282q-.11053-.10492-.84245.0759-.7494.19922-1.62214.49148-.87274.29227-1.60278.54488-.72911.28852-.81654.38063l-.0525.0553q.0737.0699.24044.26323.18516.21077.38875.43902.1861.24668.37126.45745.18517.21077.25886.28071l.12896.12241q.00094.0359.059.19609.0765.17767.13458.33785.059.1961.1171.35628.0581.16019.0774.21358l.12896.1224q.12895.12241.43652.20422.3085.11771.65104.16268.32506.0634.61233.0559.30569.01.41061-.10054l.1224-.12896q-.28727.007-.50928-.23825-.22108-.20983-.36846-.34972l-.51583-.48961q-.0802-.32131.10928-.63168.19048-.27447.11023-.59578.62512-.14207.96111-.34847.33598-.20639.72067-.6117.10492-.11053.22638-.2754.1224-.12896.18954-.31038.0855-.16393.0809-.34347-.0222-.16112-.2064-.33598zm2.75437-5.30014q.0874-.0921-.0415-.21452-.11054-.10491-.19797-.0128-.0874.0921.0231.19703.12896.1224.21639.0303zm.25136-.007q.0709-.0378-.0212-.12521-.0737-.07-.10773.003-.034.0727.003.10772.0553.0525.12615.0147zm-5.08282 7.64264q-.0874.0921-.21639-.0303-.12896-.1224-.0415-.21451.0874-.0921.21639.0303.12896.12241.0415.21452zm-1.16813 2.74343q.0709-.0378-.0212-.12521-.0737-.0699-.10773.003-.034.0728.003.10773.0553.0524.12615.0147zm3.7773-1.21246q-.12428.0571-.47868.24605-.37189.20733-.42529.22669-.0525.0553-.0884.0562-.035.0368-.035.0368-.0175.0184-.035.0368.00094.0359-.0165.0543.25324.0653.49991-.12084.24762-.15019.42248-.33442.0175-.0184.069-.1096.0524-.0553.0874-.0921z"/><path id="path5122" d="m172.20543 226.5344q1.11787 1.44737.74393 2.6669-.37394 1.21953-1.761 2.29083-.30154.23289-.6624.22275-.38096.005-.75914-.15183-.36266-.13712-.67596-.37656-.29777-.21932-.46855-.44045-.40368-.52266-.55518-1.1759-.15607-.61762-.0737-1.25893.0778-.60568.405-1.17932.30709-.55812.82975-.9618 1.6886-1.30418 2.97725.36431zm-2.81579.63426q.0265.0758.12699-.002.0804-.0621.0137-.10689-.0667-.0448-.10688-.0137-.0603.0466-.0338.12241zm2.57897.22262q-.13058-.25218-.41103-.32442-.30055-.0567-.63036-.0266-.31428.0502-.61761.15607-.30791.14153-.46873.26574-.54276.4192-.64246.91342-.1198.50975-.10444 1.23604.0155.0201.0466.0603.011.0557.0265.0758.15526.20103.47771.3692.33798.18828.70979.25414.38734.086.75277.0605.34534-.01.56646-.18076.24123-.18631.36283-.56907.12159-.38275.14088-.81487.0348-.41201-.0171-.85328-.0566-.40564-.19171-.62219zm-3.46495 2.86871q.0557-.0109.0292-.0868-.031-.0402-.0776-.10051-.031-.0402-.0776-.10052-.0511-.0247-.0758.0265-.0494.10231.0127.18272.0776.10051.1891.0786zm6.57113.86215q.0557-.011.12977-.16441.0695-.11784.043-.19367.0667.0448.28225.19923.21099.19007.2932.25495.35072.371.94806.93664.59735.56565 1.22574 1.1715.6083.62137 1.17001 1.18244.55714.5967.86766.99874.031.0402.13973.18092.0886.15625.11964.19645-.11784-.0695-.4805-.20658-.36265-.13712-.48506-.17096-.0155-.0201-.10231-.0493-.0914.006-.11146.0219.41184.741.79542 1.27919.36347.55371.8603 1.19699.10868.14071.31509.36642.20184.26133.21737.28143l.2494.032q.0418.80213-.28994 1.41141-.35188.6248-.97505 1.1061-.8845.68315-1.59985.75424-.71992.10671-1.32919-.22506-.62938-.31625-1.18194-.94857-.55257-.63233-1.12703-1.37611-.26394-.34174-.67399-.95576-.41005-.61402-.80179-1.37055-.41185-.74101-.75881-1.56422-.33144-.80311-.46463-1.59887-.13777-.76013.00034-1.41239.118-.63673.64066-1.0404.28143-.21737.53998-.25659.25855-.0392.51253-.0428.2494.032.5189.0486.2494.032.51252-.0428zm2.62847 3.36167q-.40367-.52267-.8165-.97407-.41283-.4514-.87502-.8005-.48229-.33357-1.03403-.5493-.53622-.19564-1.23784-.23143-.0713-.009-.21835.008-.13156.0374-.17177.0685-.14071.10868-.2038.31787-.0677.24482-.0796.4787-.0165.2695.007.50794.0392.25856.0565.40565.0932.12061.29042.41757.19268.33258.40089.68527.20364.38832.3808.70081.19268.33258.24563.48425.16801.38374.26018.79396.0922.41021.18893.7848.0766.39012.20902.76928.13238.37917.41185.74101.29499.38194.83301.70456.51792.33815 1.12997.50731.59195.18468 1.17574.15101.58378-.0337 1.02603-.37523.40205-.31052.44601-.79379.044-.48327-.11668-1.06526-.18075-.56646-.51955-1.17132-.34337-.56924-.69131-1.10285-.35252-.49798-.66304-.90003-.31052-.40205-.43473-.56286zm.16192 6.7751q.10051-.0776-.008-.21834-.10868-.14072-.20919-.0631-.10052.0776.008.21835.10868.14071.20919.0631zm.2494.032q.10051-.0776-.008-.21835-.10868-.14072-.2092-.0631-.10051.0776.008.21835.10869.14072.2092.0631zm.51073-.16981q-.0311-.0402-.11784-.0695-.0914.006-.11146.0219-.0201.0155-.0557.011-.0201.0155-.0402.031-.0201.0155-.0448.0667.0155.0201.10689.0137.0868.0293.12241.0338l.0804-.0621.0603-.0466zm.7647-.17339q-.11783-.0695-.19367-.043-.0959.042-.19644.11963l-.14072.10869q.0713.009.20282-.0283.14709-.0173.16719-.0329.0201-.0155.0402-.031.0356.005.0557-.0109.0201-.0155.0247-.0512.0201-.0155.0402-.031zm.37001-.0611q-.005.0356.0713.009.0557-.011.11604-.0575.0603-.0466.10508-.11326.0247-.0511-.011-.0557-.0868-.0293-.18729.0484-.10051.0776-.0941.16898z"/><path id="path5124" d="m156.35783 243.56196q.18877-.0752.38675.01.18379.11818.36278.29294.15539.18417.29658.40134.1176.22656.2164.40593.0376.0944.22101.48613.1834.39174.4186.84487.2116.46253.395.85427.1834.39174.221.48612.2352.45313.56018.78847.30139.34474.64056.64708.32498.33534.63577.70367.31078.36834.50819.86387.1974.49552.28162.98146.0936.50953.0317.97167-.0856.47155-.3785.83432-.28354.38637-.84986.61198-.0708.0282-.31615.0986-.25957.1034-.36335.11741l.86885-.70157-1.79334.71442q-.0472.0188-.16978-.0144-.13678-.00019-.20277-.0286-1.78202-.62981-3.07273-1.81079-1.28132-1.15737-2.00993-2.91771-.0848-.0756-.26858-.19376-.17439-.0946-.36297-.15616-.21218-.0522-.39615-.0336-.20757.028-.35874.1976l.19874-.46196q-.0188-.0472-.0848-.0756-.0896-.019-.13678-.00019-.44834.1786-.5763.61236-.12795.43375-.0721.98568.0652.57552.26245 1.20783.19721.63231.42282 1.19863.21141.59931.39001 1.04764.16441.48134.19242.68891.0508.7453-.19989 1.28265-.26493.57035-.70886.96592-.46751.40498-1.03862.68718-.59471.2916-1.17522.55021.17438.0946.44315.15155.26877.057.40555.0572-.0472.0188-.16517.0658-.10858.0706-.15578.0894-.75508.30081-1.34423-.0113-.58915-.31213-1.02693-.93063-.45198-.5855-.76699-1.30759-.315-.72209-.51241-1.21761-.047-.11799-.11741-.36335-.094-.23597-.1034-.25956-.0328-.15098-.12182-.58032-.10321-.39635-.21103-.87288-.0984-.45294-.16383-.89168-.0796-.40575-.12182-.58032-.10744-.7501-.0545-1.50941.0293-.74991.13889-1.50442.0859-.74512.19548-1.49963.11894-.73092.14829-1.48083.0146-.30656-.0318-.83489-.0606-.49533-.11165-1.10386-.0652-.57552-.0785-1.22644-.0368-.64152.0677-1.20265.081-.55174.3127-.9995.21755-.41476.64229-.58397.0236-.009.0944-.0376.0566.005.0802-.005l-.0994.23098.0944-.0376.0708-.0282q.13218-.08.43433-.28239.27856-.19299.6279-.41419.32574-.21179.61849-.43778.27856-.19299.33995-.24479.0472-.0188.0614-.0518-.009-.0236-.0188-.0472-.009-.0236-.0518-.0614-.14618-.0238-.41035-.00057-.28776.0326-.55672.11242-.30196.0656-.52373.12661-.22177.061-.24537.0704.11357-.26398.46752-.40498.35395-.141.54272-.21621.6843-.27261 1.20304-.20585.48574.0526 1.17388.40728.17438.0946.56555.32153.39116.22694.81532.46809.43357.26474.81533.46809.35817.21275.47596.30253.33457.22215.58416.5055.22599.29275.42838.5949.1882.33515.3528.6797.174.36814.3622.70329.33879.57591.78636.94443.43337.40153.66838.99144zm-6.56809-4.95698q-.21218-.0522-.33956-.0288-.12738.0234-.29256.0892-.0472.0188-.11798.047-.0944.0376-.13218.08.0566.005.28776-.0326.21697-.004.26417-.0232.009.0236.0802-.005.0472-.0188.0944-.0376.0236-.009.0944-.0376.0472-.0188.0614-.0518zm10.91178 11.94844q-.141-.35394-.39999-.66089-.28258-.29755-.55576-.5715-.29678-.26454-.59356-.52909-.29678-.26455-.50858-.5903-.35299-.54291-.66339-1.18481-.301-.61831-.77677-1.05762-.41457-.35433-.91873-.72765-.49476-.34973-.81955-.82185-.41418-.6279-.81418-1.28879-.42358-.65149-.88496-1.26059-.46138-.6091-1.00775-1.15699-.53697-.52431-1.18731-.92142-.89072-.52008-1.55085-.66722-.68372-.13774-1.58039.21947-.80228.31961-1.2416.79538-.45351.50876-.62885 1.0981-.17534.58934-.12911 1.25446.0226.67451.13487 1.36802.098.7265.24326 1.4342.14523.70771.19146 1.37282.005.0802-.0148.44335-.0194.36315-.0436.7829-.0478.42915-.0671.79231-.01.38675-.005.46694-.005.19338.0842.48594.0656.30196.13122.60391.075.32556.11703.63692.0184.32076-.0622.59893l-.32901-.82588-.005 3.55636q.009.0236.0752.18877.0516.19817.0986.31616.15041.37754.3998.79767.2588.44373.59797.74607.32498.33534.75874.4633.43375.12796.92928-.0695.42473-.16921.78386-.64037.36853-.44757.60986-1.00851.21774-.55155.30349-1.15988.0716-.57533-.0599-1.04246-.0376-.0944-.17381-.50493-.13621-.41054-.27702-.90127-.16441-.48133-.30062-.89187-.13621-.41054-.17381-.50493-.0798-.26896-.0698-.65571-.004-.35376.0953-.72152.076-.35836.25093-.67413.16076-.28278.39212-.45697l.18801.47193q.41994-.11261.83508-.16863.40095-.023.61313.0292.21217.0522.15577-.0894-.0706-.10858-.127-.25016-.0564-.14158-.0562-.27836-.0234-.12739.0852-.19798.51356.39691.97015 1.0626.46598.68929.93657 1.45876.47059.76948.98837 1.52016.49419.76007 1.10194 1.25617.59356.5291 1.31968.70463.71193.20853 1.60859-.14868.25956-.1034.50052-.39078.22675-.25438.39231-.59375.15136-.30637.19434-.67893.0524-.34896-.0604-.63212zm-7.97507-10.68498q.0802-.005.0426-.099-.0376-.0944-.099-.0426-.085.0612-.0662.10839.0188.0472.12258.0332zm1.21993 1.20918q-.12221-.30676-.3764-.6703-.27779-.35414-.63615-.43011l.0658.16518q.1316.33035.48958.67989.35797.34953.58876.58569l-.1316-.33035zm-7.56084 10.12081q.0334-.25937.048-.56594.00038-.27356-.10302-.53312-.009-.0236-.0376-.0944-.0424-.0378-.0518-.0614-.057.26877-.0386.58953.0278.34436.13122.60392l.0518.0614zm8.31173-.68643q.10378-.014.0568-.13199-.0376-.0944-.12259-.0332-.0614.0518-.0426.099.0282.0708.10839.0662z"/><path id="path5126" d="m141.90146 248.22034q.42536 1.83084.16672 3.29906-.27763 1.49871-1.10982 2.63081-.83219 1.13211-2.19419 1.89185-1.35625.78448-3.11286 1.1926-.64327.14946-1.14209.13497-.51781.016-.99589-.13369-.47233-.12495-.92392-.3851-.47633-.25441-1.00615-.62677.0397-.16569-.11846-.28539-.17718-.0892-.28365.0137-.67651-.44259-1.23681-.83394-.5603-.39135-.97791-.84194-.44234-.44483-.75349-.99838-.31114-.55354-.49508-1.34526-.0287-.1237-.096-.52531-.0862-.37111-.11497-.49482.009-.18468.087-.41135.0835-.20193.28139-.24791l.12646.5443q.23941-.31639.79871-.60279.56504-.26167 1.28428-.53308.71924-.27141 1.49371-.52957.77446-.25817 1.41373-.53707.62027-.24842 1.02537-.52508.41085-.25191.37236-.52981-.24216-.25665-.44234-.44483-.19443-.16344-.39636-.24691-.19618-.0587-.40561-.0622-.23416.002-.55579.077-.39586.092-.71924.27141-.31764.20418-.63527.40836-.33663.23467-.66001.41411-.34237.20993-.73823.3019-.74223.17245-1.28529-.14468-.54305-.31713-.7155-1.05936-.1667-.71749.13319-1.33477.28089-.58679.74647-1.16434-.13921-.1502-.0138-.28365.1312-.10871.2549-.13745.0495-.0115.12371-.0287.0495-.0115.0552.0132.0495-.0115.19043.034.14095.0455.19043.034.44534-.10346.8372-.32489.3976-.19668.8142-.42386.39186-.22142.80845-.44859.42235-.20243.89243-.31165.17318-.0402.52531-.096.34637-.0805.37111-.0862.08.007.50457.0392.4246.0317.95391.0652.51032.064 1.03962.0975.51032.064.78072.10546 1.34627.18267 2.17123.59076.80596.43858 1.32478 1.10034.49408.6675.78674 1.59042.2984.94765.57432 2.13522zm-1.40052-2.09973q-.0442-.30264-.56831-.65026-.52406-.34761-1.28229-.69298-.78297-.33962-1.68965-.6505-.93142-.30513-1.76562-.52854-.82845-.19867-1.47972-.30812-.65127-.10945-.92342-.0462-.32163.0747-.59553.24267-.2739.16794-.41435.46133l.8412-.19544q.023.099-.2699.2974-.31763.20418-.75322.46184-.45459.28815-.98339.59355-.5478.33589-.96615.66777-.44308.33763-.70149.68451-.28314.35263-.20841.67426.0805.34638.4061.4011.30664.0852.5788.022.47007-.10922.85618-.35538.39186-.22143.77222-.49234.38611-.24616.79696-.49807.39185-.22143.88667-.33639l.91542-.21269-.2814.24792q.38487.19742.82896.53754.44984.36487.55906.83495.0632.27215.0787.45108.0212.20368-.0335.52931.11221-.0782.28715-.22317.15019-.1392.28889-.32789.11396-.18293.19743-.38486.0645-.17144.005-.31414-.21968-.49656-.7265-.76996-.53156-.26765-.99064-.44783l.24741-.0575q.56904-.13221 1.14259.20391.55455.36662.68676.93566.17819.76697-.22466 1.27779-.40284.51082-1.0611.82022-.683.31514-1.42524.48759-.76122.20293-1.27503.34839-.099.023-.44534.10346-.34637.0805-.74223.17245-.4206.0977-.76697.1782-.34638.0805-.4206.0977-.50806.1702-.86143.66952-.35337.49933-.56979.91468l.0575.24741q.13795.59378.60329 1.13758.4406.54955 1.06188.97889.59654.43509 1.2633.72347.67251.31313 1.21332.3961.1352.0207.48558.0697.35037.049.72549.0922.37511.0432.72548.0922.32564.0547.46084.0755l.21342.13295q-.37286.19094-.78196.33814-.42809.17769-.86019.22593.17544.19392.42685.2659.25141.072.53506.0582l1.36076-.31615q.27215-.0632.61852-.14371.32738-.05.66801-.1552.34637-.0805.64501-.25416.30439-.14895.51156-.37962l-2.35039.54608q-.0327-.25316.16118-.4286.19968-.1507.38611-.24617.0742-.0172.35962-.1357.2854-.11846.62028-.24842.33487-.12996.62027-.24842.28539-.11846.35387-.16044.44134-.23292.78721-.65228.34587-.41935.62501-.90143.25441-.47633.47832-.97165.19917-.48958.37186-.8687.0322-.0857.1157-.28764.0645-.17144.1422-.39811.0587-.19618.11745-.39236.034-.19043.0167-.26466l-.68904-3.75139zm-11.46339-1.63928q.1237-.0287.0835-.20193-.0345-.14844-.1582-.1197-.1237.0287-.0892.17719.0402.17318.16394.14444zm8.41571-.70359q.1237-.0287.0835-.20193-.0402-.17318-.16395-.14444-.1237.0287-.0835.20193.0402.17318.16394.14444zm.17319-.0402q-.007.08.1162.0512.099-.023.057-.0915-.042-.0685-.0915-.057-.0742.0172-.0817.0972zm.4021.27165q.12371-.0287.0835-.20193-.0402-.17318-.16394-.14444-.12371.0287-.0835.20193.0402.17318.16394.14444zm.17319-.0402q-.007.08.11621.0512.099-.023.057-.0915-.042-.0685-.0915-.057-.0742.0172-.0817.0972zm.42685.2659q.1237-.0287.0835-.20192-.0402-.17319-.16395-.14445-.1237.0287-.0835.20193.0402.17318.16394.14444zm-1.62408 7.60053q.0747.32164-.0105.62828-.10996.31239-.31138.5678-.22617.26115-.50007.4291-.29864.17369-.57079.23692-.668.1552-1.34801-.078-.67426-.20842-.85246-.97539-.19543-.84119.23965-1.43773.4161-.56605 1.25729-.76149.71749-.1667 1.33302.2379.59654.43508.76324 1.15257zm-.85669.0165q-.0862-.37112-.42735-.60478-.36013-.20317-.73124-.11695-.4206.0977-.69799.47509-.30214.38311-.19867.82845.0747.32163.50332.48282.4096.19168.73124.11695.34637-.0805.62377-.45784.28314-.35263.19692-.72374zm-4.17795 4.46494q.12371-.0288.0835-.20193-.0402-.17319-.16394-.14445-.12371.0287-.0835.20193.0402.17319.16394.14445zm.38087.068q.1237-.0287.0835-.20193-.0345-.14845-.1582-.11971-.1237.0287-.0892.17719.0402.17319.16394.14445zm.70824.018q.12371-.0287.0835-.20193-.0345-.14844-.15819-.1197-.12371.0287-.0892.17719.0402.17318.16394.14444zm-.49482.11497q.12371-.0288.0835-.20193-.0345-.14845-.15819-.11971-.12371.0287-.0892.17719.0402.17319.16394.14445zm1.54944-.17746q.12371-.0287.0835-.20193-.0402-.17318-.16394-.14444-.12371.0287-.0835.20193.0402.17318.16394.14444zm-.88143.0222q-.007.08.11621.0512.099-.023.057-.0915-.042-.0685-.0915-.057-.0742.0172-.0817.0972zm5.49876-.91248q.1237-.0287.0835-.20193-.0402-.17318-.16395-.14444-.1237.0287-.0835.20193.0402.17318.16394.14444zm-4.19048 1.15613q-.1237.0287-.16394-.14444-.0402-.17319.0835-.20193.1237-.0287.16394.14444.0402.17319-.0835.20193zm2.87672.0357q.1237-.0287.0835-.20193-.0402-.17319-.16394-.14445-.1237.0287-.0835.20193.0402.17319.16395.14445z"/><path id="path5128" d="m125.78238 248.05611q.2209 2.01996.34632 4.10146.10016 2.08426.0153 4.1121-.0485.49079-.34088.85493-.31484.39215-.74448.66909-.42964.27695-.92358.43317-.49119.18147-.88966.27615l.39215.31483-.17674.0193q-.50499.0552-1.00406-.0691-.49907-.12428-1.00406-.0691-.37874.0414-.72395.15582-.3677.14242-.74644.18384l-.35349.0387.49158-.41148-2.6007.2844q-.3306-.21936-.70106-.10219-.62768-.36573-.89634-.71963-.29391-.35113-.3657-1.00761-.0856-.78274.35864-1.39345.419-.60795 1.04827-1.16224.63204-.52904 1.29208-1.0356.66005-.50655 1.00882-1.05572.34877-.54917.39218-1.32046.0209-.74328-.0674-1.55126-.0884-.80798-.17672-1.61596-.0884-.80799.0446-1.46131.13297-.65333.56853-1.10978.43556-.45646 1.42029-.56414.75748-.0828 1.51733.0896.73736.20043 1.34531.61943.5827.42176.98273 1.04235.4028.64584.49115 1.45382zm-3.9783-2.73333q-.404.0442-.73816.25958-.33416.21541-.55352.54601-.24462.33337-.32945.72592-.11007.39531-.0659.7993.006.0505.0418.14873.0138.12625.0193.17675.64191-1.37332 1.64797-2.45429zm2.63656 1.67914q-.17595-.44068-.64937-.79774-.47066-.3318-.9504-.27934-.32824.0359-.76381.49235-.43556.45646-.8293 1.06165-.39375.60518-.66124 1.19657-.26474.61663-.22885.94487.0497.4545.19764.87269.12269.42096.17239.87545.069.63124-.16177 1.09085-.2533.48762-.67189.86557-.41584.40319-.89045.73616-.47462.33297-.89322.71091-.41859.37795-.65216.81231-.25605.46237-.19254 1.04311.0635.58074.37438.85336.28839.30063.84032.67465-.13493.16806-.10968.1653.028.0225.0533.0197.60599-.0663 1.20093-.23353.59494-.16727 1.20093-.23354.58074-.0635 1.14727-.0232.54129.043 1.12202-.0205l.073-.0335-.21264-.30891q.42332.13257.86676-.0181.42096-.12269.76933-.44185.35113-.29391.5342-.72276.16058-.40083.0631-.82455.0004-.23-.0379-.8135-.0383-.5835-.0876-1.268-.0465-.65925-.0876-1.26799-.0383-.5835-.0631-.81075l-.23746-2.17145-.23469-2.14621zm.75665 2.01247q.0785.017.0647-.10928-.011-.101-.084-.0675-.073.0335-.0675.084.008.0757.0868.0927zm.49112 3.08912q.0533.0197.0675-.084.017-.0785.006-.17951-.011-.101-.0473-.19923-.0335-.073-.0813-.0422-.0702.0588-.0481.26078.0221.202.10336.24421zm-9.36682 3.83497q-.25566.23237-.42176.5827-.19135.35309-.15269.70659.0359.32824.29903.63163.24066.33141.54049.50303zm.47771 2.73286q.12625-.0138.10692-.19055-.0166-.1515-.14281-.13769-.12625.0138-.10968.1653.0193.17675.14557.16294zm.19608.15742q-.12625.0138-.14558-.16294-.0193-.17675.10692-.19055.12625-.0138.14557.16294.0193.17675-.10691.19055z"/><path id="path5130" d="m113.07889 243.26714q.002.6858-.35239 1.144-.35432.45819-.78498.8658-.45606.40768-.81044.84048-.35432.45819-.35247 1.11859.00022.0762.0263.30473.00071.254.0263.30473l.3297-.17873q-.12486.76235.13106 1.44744.2306.71055.63885 1.36981.38285.65933.81643 1.29312.43358.63378.68936 1.26807.28125.65961.33411 1.39607.0529.76185.0549 1.47305.001.4318-.0479 1.04154-.0745.60981-.27612 1.16918-.20156.58476-.58149.96683-.37986.40747-1.01486.40925-.0254.00007-.0763-.0252-.0762.00022-.1016.00029l.17737-.1529q-.0255-.0253-.0509-.0253-.0508.00014-.0762.00022-.0508.00014-.0507.0255-.0254.00007-.17773.0259-.17772.0259-.33005.0517-.17773.0259-.33006.0517-.15233.0258-.20313.026l-.1016.00028q-1.01599.003-1.6019-.60511-.58591-.60796-.8932-1.4961-.30722-.86274-.41153-1.82765-.10423-.93951-.13156-1.62524-.0513-.17765-.22981-.43115-.17851-.2535-.38171-.25293-.1778.00049-.35467.33119-.2022.35617-.2525.53411l.00028.1016.00022.0762q.0512.12686.17829.1773l.003 1.0414q.002.6604-.19913 1.44836-.20099.78797-.58007 1.47483-.40447.68694-.98739 1.14578-.58284.48424-1.34484.48637-.4064.001-.78782-.15019-.40683-.15126-.73781-.42973-.33091-.25307-.56051-.60803-.255-.35489-.35767-.7356-.00021-.0762-.00064-.2286-.00042-.1524-.00099-.3556-.0259-.17773-.0263-.33013-.00043-.15239-.00064-.22859-.003-1.0414.22268-2.10884.20021-1.06736.52742-2.13508.30188-1.04226.68002-2.05932.35275-1.01699.65492-1.95764.15154-.30523.37907-.68687.20213-.38157.40412-.81394.20206-.40697.37865-.83926.15126-.40683.22639-.78804.1-.58448.17423-1.27049.0742-.71142.3011-1.32165.20149-.61017.65755-1.01785.43065-.40761 1.26885-.40996.0508-.00015.27947.0246.2032-.00057.254-.00071l-.1773.1783.1778-.0005q.8128-.002 1.59969-.18229.78683-.20541 1.59963-.20769.0762-.00021.2286-.00064.1524-.00042.35567.0244.1778-.0005.3302-.00093.15239-.00043.22859-.00064 1.39842.50408 1.4022 1.85027zm-.68537.15433q-.00078-.2794-.1539-.53298-.15318-.27897-.40775-.48145-.25464-.22789-.53439-.35411-.30516-.12614-.58456-.12536-1.90499.005-3.07139.71982-1.16647.68908-1.89979 1.85954-.75872 1.17053-1.23712 2.67048-.47832 1.52535-.98183 3.12696-.0252.0763-.10046.40669-.0753.33041-.1504.71162-.0751.38121-.15041.71163-.0752.35581-.10039.43208-.15069.61002-.37786 1.11866-.25257.50871-.45435 1.01728-.22717.50864-.37808 1.04247-.1763.53389-.17452 1.16889l.002.8636q.0766.15218.2296.35496.12757.20284.30587.38014.17837.2027.38192.32913.20363.15183.38143.15133.6096-.002 1.06551-.46019.43052-.45841.75879-1.14513.30295-.66126.52934-1.44929.22639-.78804.40227-1.47434.17594-.66089.32706-1.11852.12572-.45755.30352-.45805l1.39699-.004q.2794-.00079.40825.65926.10345.66011.2074 1.49802.0786.83798.23302 1.57415.15454.76157.53611.9637l-.003-1.04139q.12756.20284.33176.55787.1788.3551.43372.68458.255.35489.58591.60796.30551.25315.63571.25222.3302-.00092.6599-.17965.32977-.15333.60839-.43351.25328-.25471.43016-.58541.15147-.33062.15054-.66082l-.00071-.254q-.0766-.15219-.25549-.53269-.1788-.3551-.35781-.7864-.20434-.40582-.35781-.7864-.1788-.3551-.25542-.50728-.0255-.0507-.0769-.25379-.0768-.20298-.10231-.25371-.0258-.12693-.12864-.58384-.10288-.45692-.20597-.99003-.12843-.50764-.23138-.98995-.10288-.45692-.12857-.55844-.0257-.10153-.15368-.45678-.1534-.35517-.30694-.76114-.15353-.40597-.28153-.76121-.128-.35524-.12828-.45684-.0255-.0507-.0265-.40633-.0264-.35553-.027-.55873-.00029-.1016.0241-.48267-.001-.35559.0241-.45727.1768-.35609.58228-.68743.40547-.33134.81101-.63728.40555-.30594.73496-.58626.30394-.30566.30309-.61045zm-5.59168-1.30513q.127-.00035.12657-.15275-.0005-.1778-.1275-.17744-.127.00035-.1265.17815.00043.1524.12743.15204zm6.48691 12.58026q-.00086-.3048-.12907-.73624-.12814-.40604-.33255-.83727-.20434-.40583-.43393-.76079-.255-.35488-.5095-.53197l.0005.1778q.001.381.10381.78711.10281.43151.30715.83734.17894.4059.43394.76079.25499.35488.53503.5827.0253-.0509.025-.15247-.00022-.0762-.00036-.127zm.15511.96477q.127-.00036.1265-.17816-.0005-.1778-.1275-.17744-.127.00035-.1265.17815.0005.1778.1275.17745zm-4.51926.69848q-.0763-.0252-.0765-.10139-.00014-.0508.076-.0764.10153-.0257.10181.0759.00036.127-.10131.10189z"/><path id="path5132" d="m84.3869 255.87739-.07559-1.09784q-.03922.14726-.199446.55144-.166759.42873-.413689.86238-.253467.4582-.547881.77407-.318958.30933-.638034.22434l-.07363-.0196.238788-.30439q-.724742.25382-1.45614.13787l.12605.21757-.389382.0803q.108043.18649.230764.21917.116185.0572.312539.10953.343621.0915.714995-.0198.340293-.0934.688728-.31599.317353-.20461.623237-.46486.305883-.26024.549604-.48446.07042.22904.340411.30095-.117671.4418-.443167.77567-.350039.32734-.772107.53035-.446612.19647-.909627.25715-.487559.0541-.904812-.057-.196355-.0523-.466343-.12421-.301069-.0539-.445125-.30255l.217571-.12605q-.07856-.0998-.204615-.31735-.157131-.19957-.307724-.42368-.181676-.2061-.327337-.35004-.170205-.15047-.287995-.10299-.178465-.41553-.353721-1.04049-.181794-.60041-.155763-1.09291-.0049-.0802.0375-.43686.04243-.3567.104478-.78702.05551-.40579.09794-.76248.04243-.3567.06205-.43033-.0164-.1358-.03613-.45648-.05081-.30267-.222622-.34843l-.07363-.0196-.435143.2521q-.06216.036-.193027.13259-.137401.12112-.143938.14566l-.712563 2.67533q-.523455.38629-.958597.63839-.466224.27011-.942313.37987-.476089.10977-1.017669.0707-.548117-.0146-1.210814-.19107-.809963-.21573-1.253484-.623-.474602-.38926-.695619-.84241-.245562-.45969-.293164-.97179-.05414-.48756-.0788-.88841-.02466-.40085-.05093-.69699-.0328-.27159-.204614-.31735-.343621-.0915-.593879.15725-.274802.24223-.508657.6268-.240392.40911-.49386.86731-.260004.48275-.616581.83463-.387659.36988-.907904.54675-.544789.17032-1.305663-.0323-1.816281-.48375-2.05245-2.36036.01961-.0736.07845-.29453.05884-.2209.124209-.46634.03429-.22744.09313-.44834.05884-.2209.07845-.29453.326863-1.22721.791246-2.18123.439839-.96056 1.23144-1.95885.364719-.48114.67714-.76593.287876-.29132.520127-.57117.232251-.27986.428487-.62187.171692-.34856.328587-.93762l-.122722-.0327q.21573-.80996.82096-1.3059.598693-.47139 1.372523-.71214.767293-.2162 1.580466-.2099.813172.006 1.475869.18281.122721.0327.508893.16183.368165.0981.490887.13074.315867.29442.541816.82774.194868.55132.396274 1.07811.170323.54479.373333.96685.20301.42207.497542.50052.220899.0588.587341-.13271.341898-.19807.734489-.48779.361509-.27171.698475-.54996.330427-.2537.534924-.33066.762361-.29638 1.4332-.24913.664301.0718 1.425176.27445.122721.0327.508893.16182.368165.0981.490887.13075.574384.3107.908376 1.03051.30291.73781.450413 1.56567.140965.85239.183753 1.67864.01171.84425.03476 1.34982.0017.2896.03958 1.03567.0068.76409.04956 1.59033.03625.8508.07411 1.59687.0068.76409.03304 1.06022zm-9.333245-12.92122q-.19154-.36644-.473116-.88829-.30612-.52839-.476325-.67886-.19475-.15701-.212757-.1881-.04909-.0131-.07363-.0196l-.08017.005q-.02455-.007-.08671.0295-.09325.054-.130864.0966.692292.65753 1.08191 1.36587.365074.7018.116657 1.63449-.0065.0245-.01961.0736-.04416.0671-.05069.0916-.05574-.38284-.24568-.854-.221017-.45315-.528741-.87682-.307725-.42367-.690687-.76224-.382963-.33857-.800216-.44971-.368165-.0981-.788628.00024-.427001.12284-.806517.36347-.404061.23409-.705012.5745-.325496.33387-.466106.66442-.05723.11618-.135678.41072-.109529.31254-.225595.64962-.147148.35509-.287759.68564-.165154.324-.322167.51875-.04416.0671-.26987.32241-.225713.25531-.489045.55317-.263332.29786-.489045.55316-.225714.25531-.294414.31587-.03762.0426-.139006.22583-.125931.17674-.139006.22583-.06377.14073-.22399.54491-.160222.40418-.340057.88199-.204378.47128-.346593.90654-.16676.42872-.243602.61854-.0065.0245-.0523.19635-.07684.18982-.09645.26345-.05884.2209-.0211.57266.0312.37631.149107.72314.117907.34683.335596.6151.186608.28627.48114.36472.245443.0654.536648-.0411.260122-.0884.52185-.28157.25519-.16861.474366-.39937.194631-.2373.296018-.42058l-1.011013.44043q.230645-.17514.737698-.69723.475971-.50407.98956-1.05071.51359-.54663.969949-.97707.425278-.41244.547999-.37976.07363.0196.09164.0507l-.474366.39936q.160341-.01.466342.12421.274921.15208.56131.35979.279853.23225.50408.47597.224226.24372.258636.4106.01307-.0491.0703-.16528.02615-.0982.03922-.14726.124208-.46634-.02318-.89988-.147384-.43354-.03625-.85079.09818.0262.232369.11446.10311.10632.224227.24372.09004.15541.155526.30428.03441.16687-.0048.31414l-.595011 1.83922.137283-.51543q-.05723.11618-.179834.47781-.129141.38617-.161827.5089-.0065.0245.03441.16687.0099.16034.04588.22251.0164.13579.117908.34683.07042.22904.09497.23558.03601.0622.202892.0277.142334-.041.155408-.09.175138.23065.314262.39913.132587.19303.284785.31242.145661.14394.335479.22078.18328.10139.477812.17984.368165.0981.891738.10608.499028.001 1.006199-.12628.476089-.10977.86868-.39949.386054-.26517.503725-.70697l.627578-2.35625q.0065-.0246.225713-.25531.188095-.21276.294414-.31587.03762-.0426.130864-.0966.06216-.036.08671-.0295l1.325394.35301q.17181.0458.227555.42861.0312.37631.04118.93096.01.55466.0249 1.18948.0084.65937.134546 1.27125.101623.60535.365192 1.09612.263568.49077.783932.70822.04255.0376.258518.0163.215966-.0213.278129-.0573.446613-.19648.750891-.352.297742-.13098.479299-.3192.181557-.18821.302556-.44512.120998-.25691.225595-.64962.02615-.0982.104596-.39271.04737-.27653.07352-.37471-.03774-.35176-.09853-1.20909-.08534-.86386-.169073-1.83244-.08374-.96858-.144529-1.82591-.08534-.86387-.123077-1.21563-.04106-.53665-.03144-1.16493.0096-.62829-.07399-1.20256-.108161-.5808-.409348-1.02902-.301187-.44822-.988429-.63126-.466342-.12421-.96537-.12569-.523573-.008-.999662.10174-.507171.12777-.917769.3864-.44168.27665-.762243.69069-.238788.3044-.325377.72819-.09313.44833-.20426.86559-.111134.41725-.30737.75927-.202774.36656-.629774.4894l.09152-.34362q-.217571.12605-.34683.1179-.129259-.008-.25198-.0408-.122722-.0327-.276525-.0474-.160341.01-.440075.17193l-.07363-.0196q-.417254-.11114-.522086-.50706-.135915-.37791-.116421-.84585.01949-.46795.143702-.93429.09313-.44834.109411-.70686.0016-.10471-.0017-.2896-.03441-.16687-.05574-.38284-.02133-.21597.0064-.41886.0032-.20943.06698-.35016zm2.04924 2.56979q.01307-.0491.02775-.20289l-1.304177-.53136-.137283.51543q-.04576.17181-.08659.42379-.04737.27653-.03257.51704.0083.26505.13431.48262.101505.21104.346948.27641.196355.0523.377912-.13591.17502-.16367.3271-.43859.120999-.25691.217453-.52036.09646-.26345.129141-.38618zm-2.420024-.48685q-.122721-.0327-.07696-.20449.04576-.17181.168482-.13913.122722.0327.07696.2045-.04576.17181-.168482.13912zm9.269732 2.99467q.122722.0327.168483-.13913.04576-.17181-.07696-.20449-.122721-.0327-.168482.13912-.04576.17181.07696.2045zm-16.455342-1.67541q.122722.0327.168483-.13912.04576-.17181-.07696-.2045-.122721-.0327-.168482.13913-.04576.17181.07696.20449zm-.256794.27332q.122721.0327.168482-.13912.03922-.14727-.0835-.17996-.122721-.0327-.161945.11458-.04576.17181.07696.2045zm-.284549.47621q.122721.0327.168482-.13913.04576-.17181-.07696-.20449-.122722-.0327-.168483.13912-.04576.17181.07696.2045zm-1.303586 1.44021q.06709.0442.09978-.0786.02615-.0982-.05402-.0932-.08017.005-.09324.054-.01961.0736.04748.11779zm6.486948 4.06718q-.06056-.0687-.02787-.19143.02615-.0982.112857-.12765.08671-.0295.03441.16688-.0523.19635-.119394.1522zm.08029.38938q-.09164-.0507-.07203-.12433.01307-.0491.117789-.0475.08017-.005.05402.0932-.03269.12272-.09978.0786zm.05574.38284q-.122722-.0327-.07696-.20449.04576-.17181.168483-.13913.122721.0327.07696.2045-.04576.17181-.168483.13912zm11.625987 3.62224q.122722.0327.168483-.13912.04576-.17181-.07696-.2045-.122722-.0327-.168482.13913-.04576.17181.07696.20449zm-11.584922-3.08559q.122721.0327.168482-.13912.04576-.17181-.07696-.2045-.122722-.0327-.168483.13912-.04576.17181.07696.2045zm.126049.21757q.122722.0327.168483-.13912.04576-.17181-.07696-.2045-.122722-.0327-.168483.13912-.04576.17182.07696.2045z"/><path id="path5134" d="m63.974288 245.49599q-.804142 1.69889-1.918984 2.68869-1.148667 1.00189-2.50411 1.37198-1.355444.37008-2.894705.11923-1.550128-.22789-3.180151-.99944-.59691-.28253-.978779-.60379-.415695-.30917-.697314-.72349-.292486-.39135-.484722-.87577-.215194-.49528-.399013-1.11622.134075-.10515.08449-.29723-.08342-.17999-.230806-.16545-.255141-.7671-.451051-1.42187-.195909-.65476-.243203-1.26728-.07025-.62339.02984-1.25045.100097-.62706.447834-1.36172.05433-.11479.25116-.47125.163002-.34437.217336-.45916.121984-.13898.323708-.26831.190858-.10637.374523-.0194l-.239069.50508q.384164-.0992 1.000359.0239.605327.14601 1.337536.38018.73221.23417 1.499468.51303.767259.27887 1.441461.45748.640377.1907 1.129689.2256.478446.0579.620939-.18382-.0303-.35156-.07025-.62339-.05082-.24886-.157187-.43972-.117239-.1679-.27917-.30075-.184889-.14372-.483344-.28499-.36733-.17386-.73221-.23417-.375747-.0373-.751493-.0747-.409572-.0252-.774452-.0856-.398705-.0482-.766034-.22208-.688742-.32601-.917252-.91189-.22851-.58589.09749-1.27464.315137-.66578.933627-.96316.584665-.2853 1.308302-.44861-.01577-.20417.165451-.2308.170349-.004.285139.0507.04592.0217.11479.0543.04592.0217.03505.0447.04592.0217.128106.14495.08219.1232.128106.14494.413245.1956.857866.26555.433755.0929.901334.17371.444621.07.9122.15076.456713.10377.892916.31024.160706.0761.471253.25116.321413.15213.344371.163.05801.0556.371002.34422.312996.28865.706956.64374.360136.36717.754097.72226.360136.36717.546249.56767.941435.97955 1.334325 1.81185.359065.8444.354474 1.68528-.02755.83001-.371612 1.73501-.354931.92797-.876536 2.02996zm.207078-2.51544q.15336-.26463-.04133-.86261-.194685-.59798-.574259-1.33968-.402533-.75257-.919855-1.55946-.540281-.81777-1.055154-1.5111-.525741-.67038-.968066-1.16076-.442326-.49038-.694865-.60992-.298455-.14127-.617419-.17984-.318964-.0386-.611296.10408l.780574.36947q-.04347.0918-.396256.0654-.375747-.0374-.877151-.10607-.535229-.0566-1.139332-.14586-.637928-.0771-1.171932-.077-.556963-.0107-.974952.10055-.440948.10041-.582216.39886-.152135.32142.06903.56661.187338.25728.439877.37682.436203.20646.891691.25345.444621.07.910976.094.455488.047.933934.10484.444621.0699.903782.28728l.849449.40207-.374523.0194q.178921.3938.315598.93623.125811.56538-.08066 1.00158-.119534.25254-.21856.40238-.109892.1728-.355084.39396.136524.008.363655.004.204174-.0158.430081-.0774.202949-.0726.393807-.17892.157033-.0943.199276-.24289.13637-.52559-.09091-1.0547-.250244-.53997-.498038-.96638l.22958.10867q.528036.24994.768637.86965.206777.63181-.04316 1.15984-.33687.7117-.9699.86169-.63303.15-1.341056-.0165-.730985-.17739-1.419727-.5034-.722567-.31391-1.215553-.51915-.09183-.0435-.413246-.1956-.321413-.15214-.688742-.32601-.390287-.18473-.7117-.33687-.321413-.15213-.390287-.18473-.503853-.18229-1.090967-.0106-.587114.17172-1.014746.36274l-.108667.22958q-.260803.55099-.234018 1.26621.0038.70435.223919 1.42677.197134.71154.540435 1.35177.332433.66318.70466 1.06418.09306.10025.337178.35631.244121.25606.5112.52298.267079.26693.5112.52298.221163.2452.31422.34545l.08464.23677q-.410797-.082-.822817-.22086-.445846-.12672-.8144-.35737.01699.26095.169278.47354.152289.21259.383094.37805l1.262694.59767q.252539.11953.573952.27167.287588.16422.619868.2934.321413.15214.663335.20157.331055.0724.636703.0204l-2.181016-1.03235q.131626-.21871.392582-.2357.25009.006.455488.047.06887.0326.366105.11708.29723.0845.640377.19071.343146.10622.640377.1907.29723.0845.376971.0941.490537.0917 1.022093-.022.531555-.11372 1.049795-.31805.495281-.21519.978471-.46421.460233-.25989.831081-.44968.07852-.0471.269375-.15351.157033-.0943.358757-.22361.1679-.11724.3358-.23448.144942-.12811.177542-.19698l1.790724-3.36764zm-7.96416-8.40647q.11479.0543.190858-.10637.0652-.13775-.04959-.19208-.11479-.0543-.179991.0834-.07607.16071.03872.21504zm7.031599 4.67716q.114791.0543.190858-.10637.07607-.16071-.03872-.21504-.11479-.0543-.190857.10637-.07607.16071.03872.21504zm.160707.0761q-.05556.058.05923.11234.09183.0435.101474-.0363.0096-.0797-.03627-.10148-.06888-.0326-.124433.0254zm.14632.46268q.11479.0543.190858-.10637.07607-.16071-.03872-.21504-.114791-.0543-.190858.10637-.07607.16071.03872.21504zm.160706.0761q-.05556.058.05923.11234.09183.0435.101475-.0363.0096-.0797-.03627-.10148-.06887-.0326-.124433.0254zm.169278.47355q.114791.0543.190858-.10638.07607-.1607-.03872-.21504-.11479-.0543-.190858.10638-.07607.1607.03872.21504zm-5.994648 4.9467q-.141268.29845-.398551.48579-.280242.17647-.596757.25147-.339473.0641-.658437.0256-.341922-.0494-.59446-.16897-.619868-.2934-1.00786-.89858-.398859-.58221-.06199-1.29391.369471-.78058 1.081018-.97771.677721-.18504 1.458296.18443.665784.31513.896743 1.01459.197134.71155-.118003 1.37733zm-.681549-.51937q.163002-.34437.04086-.7394-.155962-.38294-.500333-.54595-.390287-.18473-.842101-.0614-.474773.1125-.670375.52574-.141268.29846.09444.69104.201878.40467.500333.54594.321413.15214.773228.0288.440947-.1004.603949-.44477zm-6.047763.90302q.11479.0543.190858-.10637.07607-.16071-.03872-.21504-.11479-.0543-.190858.10637-.07607.16071.03872.21504zm.256212.28989q.11479.0543.190858-.10638.0652-.13774-.04959-.19208-.11479-.0543-.179991.0834-.07607.1607.03872.21504zm.543801.45411q.11479.0543.190857-.10638.0652-.13774-.04959-.19208-.114791-.0543-.179991.0834-.07607.1607.03872.21504zm-.459162-.21734q.11479.0543.190858-.10637.0652-.13775-.04959-.19208-.11479-.0543-.179991.0834-.07607.16071.03872.21504zm1.324375.82358q.11479.0543.190858-.10637.07607-.16071-.03872-.21504-.11479-.0543-.190858.10637-.07607.16071.03872.21504zm-.704507-.53018q-.05556.058.05923.11235.09183.0435.101475-.0363.0096-.0797-.03627-.10147-.06887-.0326-.124433.0254zm4.875682 2.70124q.114791.0543.190858-.10637.07607-.16071-.03872-.21504-.11479-.0543-.190858.10637-.07607.16071.03872.21504zm-4.001897-1.69751q-.11479-.0543-.03872-.21504.07607-.16071.190858-.10637.11479.0543.03872.21504-.07607.1607-.190858.10637zm2.231984 1.81521q.114791.0543.190858-.10637.07607-.16071-.03872-.21504-.11479-.0543-.190857.10637-.07607.16071.03872.21504z"/><path id="path5136" d="m50.421697 236.25555q-.398246.61966-.840764 1.12029-.456251.522-.854497 1.14166-.05493.0855-.151058.23504-.09613.14958-.08849.18468-.0412.0641-.114421.31897-.07322.25488-.138811.54485-.06559.28998-.138811.54485-.07322.25487-.114421.31898-.0473.12057-.22582.39835-.192256.29914-.419613.60593-.241089.32815-.419613.60592-.213624.28542-.317388.39989l.384513-.59829q-.44713.22592-.889648.72655-.456251.522-.910965 1.13556-.489813.6212-.979627 1.2424-.511181.60746-1.046805 1.01806-.556992.39686-1.12623.48392-.604339.0947-1.288104-.34474-.53419-.34332-.90359-.94305-.383132-.57835-.563297-1.23762-.180166-.65927-.14973-1.36435.0167-.68372.260815-1.25147.08849-.18467.328045-.60439.22582-.39835.492837-.8608.253284-.44109.492836-.86081.225819-.39835.321948-.54792l.302117-.47009q.233454-.36325.392148-.56319.123593-.19231.485253-.47316-.135788.30524-.30514.70969-.190719.39071-.254769.77226.244164-.14502.383027-.26712.117496-.13585.254822-.34952.233455-.36325.389073-.74633.134252-.39681.268503-.79363.120518-.37544.28987-.77989.134251-.39681.367705-.76006.06866-.10684.288385-.44872.205989-.32052.29602-.41362.215161-.19385.749248-.69601.512719-.5159 1.123103-1.0898.575284-.56627 1.123103-1.0898.512719-.5159.72788-.70975.610385-.5739 1.320025-.6915.674539-.10997 1.379671.34321.81197.52184 1.036408 1.30014.224438.7783.09787 1.63296-.161664.86228-.527832 1.71391-.387536.8379-.785781 1.45756zm.243538-5.21789q-.05954-.18924-.131281-.26553-.07174-.0763-.221311-.17243-.128206-.0824-.227409-.11596-.0992-.0336-.296072-.009.03664.0839.244217.27773.186211.18006.236581.24262l.08547.0549.0641.0412q.0351-.008.126669-.009.0702-.0153.119033-.0443zm-.04268.39527q.106838.0687.202966-.0809.09613-.14957-.01071-.21823-.106838-.0687-.202966.0809-.09613.14957.01071.21823zm-.207318 1.91991q.154081-.47465.03956-1.00115-.149626-.51887-.576978-.79352-.641029-.41198-1.300298-.23181-.69437.1878-1.228456.68996-.485254.47316-.915577.86086-.465423.39532-.860646.77538-.416591.36632-.769078.77385-.352488.40752-.682071.92034-.05493.0855-.170888.31288-.137326.21368-.143424.27015l.06718.22433.744687-.54798q-.337217.47773-.534034.92491-.210549.46855-.372265.9081-.175449.46091-.337166.90046-.175449.46092-.463834.90964-.247187.38461-.581381.62273-.355563.22439-.71876.41368-.363198.18928-.68366.40603-.355563.22439-.589017.58764-.219722.34188-.302065.89283-.09608.57231-.04412 1.14918.05196.57688.271785 1.08048.206094.52496.612079.78588.170941.10986.467013.11898.260971.0168.576874-.052.302169-.0473.567701-.17863.251799-.10991.36166-.28085l3.474349-5.40601q.514257-.42433.784349-.70365.256359-.25794.544744-.70666l.192256-.29915q.01373-.0214.06103-.14194.02593-.1343.08696-.27624.04729-.12057.108323-.26251.0473-.12057.06103-.14194.123594-.19231.439444-.68376.294482-.50519.665263-1.08212.357047-.55556.707997-1.05465.31585-.49145.439444-.68376zm-.538386 2.7639q.549304-.8547.730799-1.79483-.430323.3877-.67751.77231-.282287.39226-.598137.88371-.178524.27778-.425711.6624-.268555.37088-.262405.73715.441033-.16945.730955-.5266.268555-.37089.502009-.73414zm-4.740382-1.59728q-.106838-.0687-.01071-.21824.09613-.14957.202967-.0809.106838.0687.01071.21824-.09613.14957-.202967.0809zm2.309711 5.37935q.02746-.0427.09459-.24114.04576-.21214.03812-.24724-.0076-.0351-.01527-.0702-.02137-.0137-.04274-.0275-.08547-.0549-.231969.0321-.160231.10838-.299094.23049-.173964.12974-.29146.26558-.117496.13584-.199892.26405-.103763.11447-.213624.28541-.109861.17094-.219721.34188-.109861.17095-.178524.27778-.274652.42736-.494374.76924-.233454.36325-.431809.71886-.198354.35562-.41044.7326-.22582.39835-.463834.90963.274704-.005.553969-.15726.257897-.16638.500523-.40296.228894-.21521.428786-.47926.199891-.26404.337218-.47772l.178523-.27778-.328097.18165zm-5.057717-.77465q.10986-.17094.170888-.31288.02593-.1343.05032-.36018-.111399.0794-.360123.37243-.262457.31441-.352488.40752l-.09613.14957-.09613.14958q.42274-.00006.68366-.40604zm4.038533 3.0182q.106838.0687.202967-.0809.09613-.14957-.01071-.21824-.106838-.0687-.202967.0809-.09613.14958.01071.21824zm-5.709456-1.40487q.106839.0687.202967-.0809.09613-.14957-.01071-.21823-.106838-.0687-.202966.0809-.09613.14957.01071.21823z"/><path id="path5138" d="m43.73521 231.87328q-.455897.57857-.944435 1.0344-.504259.47578-.960157 1.05434-.06288.0798-.172927.21946-.110044.13965-.105814.17532-.04716.0599-.144516.30652-.09736.24667-.19048.529-.09313.28234-.190479.52901-.09736.24667-.144517.30652-.05865.11547-.26302.37483-.220089.2793-.475849.56284-.27148.30349-.475848.56284-.240039.26359-.354313.36757l.440177-.55861q-.466755.18195-.955293.63778-.504259.47578-1.015778 1.04286-.547191.5713-1.094381 1.1426-.567141.55559-1.139711.91286-.592521.34156-1.167488.37357-.610639.0362-1.249055-.46683-.498762-.39301-.808877-1.02543-.325836-.61247-.441875-1.28599-.116039-.67353-.01805-1.37243.08227-.67895.37976-1.22064.105815-.17533.384556-.57011.26302-.37482.573203-.80951.294462-.41473.573203-.80951.26302-.37483.373065-.51448l.345853-.43891q.267251-.33916.444407-.52294.141486-.17956.528439-.42439-.164467.2908-.371866.67712-.227349.3706-.327735.74423.256959-.12091.406904-.22912.129995-.12393.287201-.32344.26725-.33915.458929-.70552.171728-.38209.343455-.76418.156008-.36214.363407-.74846.171727-.3821.438978-.72125.0786-.0998.330133-.41896.235809-.29926.334363-.38329.232778-.1723.812608-.62087.559881-.46429 1.222544-.97694.626993-.50842 1.222544-.97694.55988-.46429.792658-.63658.662664-.51265 1.380316-.56158.681981-.0447 1.340347.47408.758119.59739.906798 1.39364.148679.79626-.05935 1.63481-.243703.84278-.689942 1.65533-.46619.79682-.922088 1.37538zm.743369-5.17041q-.0411-.19408-.105182-.27691-.06408-.0828-.203734-.19288-.119703-.0943-.215226-.13725-.09552-.0429-.293829-.0375.02841.0871.216425.29989.168064.1971.212194.26422l.0798.0629.05985.0472q.03567-.004.126964.003.07134-.008.122734-.0326zm-.08044.38935q.09975.0786.209797-.061.110045-.13965.01029-.21826-.09975-.0786-.209797.0611-.110044.13966-.01029.21826zm-.390684 1.89114q.198939-.45767.135491-.99273-.09912-.53084-.49813-.84525-.598515-.47162-1.272036-.35558-.709192.12027-1.289023.56884-.528439.42439-.993995.76897-.501228.34882-.931113.68918-.449836.32463-.83982.69643-.389985.3718-.76728.85061-.06288.0798-.200138.29503-.157206.19951-.168696.25513l.04533.22974.793858-.47394q-.381525.44314-.620365.86936-.254561.44617-.45773.86816-.21889.44194-.422059.86393-.218889.44195-.549022.86091-.282971.35911-.638484.56404-.375462.18921-.755155.34275-.379692.15355-.719484.33853-.375463.18921-.642713.52837-.25153.31921-.386388.8597-.150578.56045-.154242 1.13965-.0037.5792.166797 1.10157.154741.54233.5338.84102.159604.12577.453433.16327.258158.0417.579198.004.305319-.0181.582228-.1233.261189-.0852.386954-.24483l3.977315-5.04748q.552619-.37299.84828-.62509.27994-.23214.610073-.6511l.220088-.27931q.01572-.0199.07437-.13543.0387-.13119.113075-.26661.05865-.11548.133026-.2509.05865-.11547.07437-.13542.141485-.17956.50306-.63842.341623-.47458.76608-1.01324.408736-.51872.805981-.98181.361574-.45886.50306-.63841zm-.801253 2.69944q.628824-.79802.899739-1.71637-.465557.34458-.748528.70369-.318642.36334-.680216.8222-.204368.25936-.487339.61847-.302922.34339-.331965.70856.455265-.12633.778137-.454.302921-.34339.570172-.68255zm-4.565134-2.04501q-.09975-.0786.01029-.21826.110045-.13965.209797-.0611.09975.0786-.01029.21826-.110044.13965-.209796.061zm1.782585 5.57625q.03144-.0399.117305-.23095.06591-.20676.06168-.24243-.0042-.0357-.0085-.0713-.01995-.0157-.0399-.0314-.0798-.0629-.233977.01-.169896.0925-.319841.20071-.185617.11244-.315612.23637-.129994.12393-.224318.24364-.114274.10398-.240039.26358-.125765.15961-.25153.31921-.125765.15961-.204368.25936-.314412.39901-.565942.71822-.26725.33915-.49883.67408-.231579.33493-.478879.68981-.263021.37483-.549023.8609.273879.0218.566508-.10335.272679-.14085.536899-.35304.248499-.19225.472817-.43588.224319-.24364.381525-.44314l.204368-.25936-.344022.14931zm-4.959982-1.25665q.125765-.15961.200139-.29503.0387-.13119.08467-.35368-.118505.0683-.394215.33613-.291431.28776-.389984.3718l-.110044.13965-.110045.13965q.420793.0405.719484-.33852zm3.73011 3.39199q.09975.0786.209797-.061.110044-.13966.01029-.21826-.09975-.0786-.209797.0611-.110045.13965-.01029.21826zm-5.548205-1.94653q.09975.0786.209797-.061.110044-.13965.01029-.21826-.09975-.0786-.209797.061-.110044.13966-.01029.21826z"/></g></g></svg>